<svg width="512" height="512" xmlns="http://www.w3.org/2000/svg"><path d="M0 0h512v512H0z" fill="#21252b"/><path d="M387.985 218.608c-96.215-6.674-207.125-35.454-264-102.609v32.118c23.698 35.87 100.005 69.657 158.306 84.257-58.297 14.599-134.606 48.385-158.307 84.258v32.117c56.876-67.153 167.786-95.936 264-102.609zm0 81.752c-78.207 2.92-197.646 28.364-264 95.103v32.535c65.409-72.159 192.43-95.936 264-100.108z" fill="#181a1f"/><path d="M387.985 202.606c-96.215-6.674-207.125-35.455-264-102.609v32.117c23.698 35.871 100.005 69.658 158.306 84.258-58.297 14.599-134.606 48.384-158.307 84.257v32.117c56.876-67.152 167.786-95.935 264-102.608z" fill="#ebebff"/><path d="M387.985 284.362c-78.207 2.92-197.646 28.364-264 95.103v32.534c65.409-72.158 192.43-95.936 264-100.108z" fill="#56b6c2"/></svg>