<?xml version="1.0" encoding="UTF-8" standalone="no"?>
<svg xmlns="http://www.w3.org/2000/svg" xmlns:xlink="http://www.w3.org/1999/xlink" width="188pt" height="122pt" viewBox="-6 -6 200 134" class="refinery-F5rWswwZdcEi68SbzLADf"><style>.refinery-F5rWswwZdcEi68SbzLADf .node text{font-family:"Open Sans Variable","Open Sans","Roboto","Helvetica","Arial",sans-serif;fill:#19202b;font-optical-sizing:none;letter-spacing:0;text-rendering:geometricPrecision;}.refinery-F5rWswwZdcEi68SbzLADf .node .node-outline{stroke:#19202b;}.refinery-F5rWswwZdcEi68SbzLADf .node .node-header{fill:rgb(53, 161, 173);}.refinery-F5rWswwZdcEi68SbzLADf .node .node-bg{fill:#fff;}.refinery-F5rWswwZdcEi68SbzLADf .node-atom .node-outline{stroke-width:2;}.refinery-F5rWswwZdcEi68SbzLADf .node-shadow.node-bg{fill:#19202b;opacity:0.24;}.refinery-F5rWswwZdcEi68SbzLADf .node-exists-unknown .node-outline{stroke-dasharray:5 2;}.refinery-F5rWswwZdcEi68SbzLADf .node-typeHash-g .node-header{fill:#e5c07b;}.refinery-F5rWswwZdcEi68SbzLADf .node-typeHash-h .node-header{fill:#e06c75;}.refinery-F5rWswwZdcEi68SbzLADf .node-typeHash-i .node-header{fill:#98c379;}.refinery-F5rWswwZdcEi68SbzLADf .node-typeHash-j .node-header{fill:#c678dd;}.refinery-F5rWswwZdcEi68SbzLADf .node-typeHash-k .node-header{fill:#80a7f4;}.refinery-F5rWswwZdcEi68SbzLADf .node-typeHash-l .node-header{fill:#e3d1b2;}.refinery-F5rWswwZdcEi68SbzLADf .node-typeHash-m .node-header{fill:#e78b8f;}.refinery-F5rWswwZdcEi68SbzLADf .node-typeHash-n .node-header{fill:#abcc94;}.refinery-F5rWswwZdcEi68SbzLADf .node-typeHash-o .node-header{fill:#dbb2e8;}.refinery-F5rWswwZdcEi68SbzLADf .node-typeHash-p .node-header{fill:#92c0e9;}.refinery-F5rWswwZdcEi68SbzLADf .edge text{font-family:"Open Sans Variable","Open Sans","Roboto","Helvetica","Arial",sans-serif;fill:#19202b;font-optical-sizing:none;letter-spacing:0;text-rendering:geometricPrecision;}.refinery-F5rWswwZdcEi68SbzLADf .edge .edge-line{stroke:#19202b;}.refinery-F5rWswwZdcEi68SbzLADf .edge .edge-arrow{fill:#19202b;}.refinery-F5rWswwZdcEi68SbzLADf .edge-unknown text{fill:#696c77;}.refinery-F5rWswwZdcEi68SbzLADf .edge-unknown .edge-line{stroke:#696c77;}.refinery-F5rWswwZdcEi68SbzLADf .edge-unknown .edge-arrow{fill:none;}.refinery-F5rWswwZdcEi68SbzLADf .edge-error text{fill:#ca1243;}.refinery-F5rWswwZdcEi68SbzLADf .edge-error .edge-line{stroke:#ca1243;}.refinery-F5rWswwZdcEi68SbzLADf .edge-error .edge-arrow{fill:#ca1243;}.refinery-F5rWswwZdcEi68SbzLADf .icon-true{fill:#19202b;}.refinery-F5rWswwZdcEi68SbzLADf .icon-unknown{fill:#696c77;}.refinery-F5rWswwZdcEi68SbzLADf .icon-error{fill:#ca1243;}.refinery-F5rWswwZdcEi68SbzLADf text.label-unknown{fill:#696c77;}.refinery-F5rWswwZdcEi68SbzLADf text.label-error{fill:#ca1243;}.refinery-F5rWswwZdcEi68SbzLADf .node-exists-false text:not(.label-error){fill:#696c77;}.refinery-F5rWswwZdcEi68SbzLADf .node-exists-false .node-outline{stroke:#696c77;stroke-dasharray:2 4;}.refinery-F5rWswwZdcEi68SbzLADf .node-exists-false .node-header{fill:#fff!important;}.refinery-F5rWswwZdcEi68SbzLADf .node-exists-false .icon-true{fill:#696c77;}.refinery-F5rWswwZdcEi68SbzLADf .node-exists-error .node-outline{stroke:#ca1243;}.refinery-F5rWswwZdcEi68SbzLADf .node-exists-error .node-header{fill:#fff!important;}[data-theme="dark"] .refinery-F5rWswwZdcEi68SbzLADf .node text{font-family:"Open Sans Variable","Open Sans","Roboto","Helvetica","Arial",sans-serif;fill:#ebebff;font-optical-sizing:none;letter-spacing:0;text-rendering:geometricPrecision;}[data-theme="dark"] .refinery-F5rWswwZdcEi68SbzLADf .node .node-outline{stroke:#ebebff;}[data-theme="dark"] .refinery-F5rWswwZdcEi68SbzLADf .node .node-header{fill:rgb(60, 127, 135);}[data-theme="dark"] .refinery-F5rWswwZdcEi68SbzLADf .node .node-bg{fill:#282c34;}[data-theme="dark"] .refinery-F5rWswwZdcEi68SbzLADf .node-atom .node-outline{stroke-width:2;}[data-theme="dark"] .refinery-F5rWswwZdcEi68SbzLADf .node-shadow.node-bg{fill:#ebebff;opacity:0.32;}[data-theme="dark"] .refinery-F5rWswwZdcEi68SbzLADf .node-exists-unknown .node-outline{stroke-dasharray:5 2;}[data-theme="dark"] .refinery-F5rWswwZdcEi68SbzLADf .node-typeHash-g .node-header{fill:#ae8003;}[data-theme="dark"] .refinery-F5rWswwZdcEi68SbzLADf .node-typeHash-h .node-header{fill:#a23b47;}[data-theme="dark"] .refinery-F5rWswwZdcEi68SbzLADf .node-typeHash-i .node-header{fill:#428141;}[data-theme="dark"] .refinery-F5rWswwZdcEi68SbzLADf .node-typeHash-j .node-header{fill:#854797;}[data-theme="dark"] .refinery-F5rWswwZdcEi68SbzLADf .node-typeHash-k .node-header{fill:#3982bb;}[data-theme="dark"] .refinery-F5rWswwZdcEi68SbzLADf .node-typeHash-l .node-header{fill:#827662;}[data-theme="dark"] .refinery-F5rWswwZdcEi68SbzLADf .node-typeHash-m .node-header{fill:#904f53;}[data-theme="dark"] .refinery-F5rWswwZdcEi68SbzLADf .node-typeHash-n .node-header{fill:#647e63;}[data-theme="dark"] .refinery-F5rWswwZdcEi68SbzLADf .node-typeHash-o .node-header{fill:#805f89;}[data-theme="dark"] .refinery-F5rWswwZdcEi68SbzLADf .node-typeHash-p .node-header{fill:#4f7799;}[data-theme="dark"] .refinery-F5rWswwZdcEi68SbzLADf .edge text{font-family:"Open Sans Variable","Open Sans","Roboto","Helvetica","Arial",sans-serif;fill:#ebebff;font-optical-sizing:none;letter-spacing:0;text-rendering:geometricPrecision;}[data-theme="dark"] .refinery-F5rWswwZdcEi68SbzLADf .edge .edge-line{stroke:#ebebff;}[data-theme="dark"] .refinery-F5rWswwZdcEi68SbzLADf .edge .edge-arrow{fill:#ebebff;}[data-theme="dark"] .refinery-F5rWswwZdcEi68SbzLADf .edge-unknown text{fill:#abb2bf;}[data-theme="dark"] .refinery-F5rWswwZdcEi68SbzLADf .edge-unknown .edge-line{stroke:#abb2bf;}[data-theme="dark"] .refinery-F5rWswwZdcEi68SbzLADf .edge-unknown .edge-arrow{fill:none;}[data-theme="dark"] .refinery-F5rWswwZdcEi68SbzLADf .edge-error text{fill:#e06c75;}[data-theme="dark"] .refinery-F5rWswwZdcEi68SbzLADf .edge-error .edge-line{stroke:#e06c75;}[data-theme="dark"] .refinery-F5rWswwZdcEi68SbzLADf .edge-error .edge-arrow{fill:#e06c75;}[data-theme="dark"] .refinery-F5rWswwZdcEi68SbzLADf .icon-true{fill:#ebebff;}[data-theme="dark"] .refinery-F5rWswwZdcEi68SbzLADf .icon-unknown{fill:#abb2bf;}[data-theme="dark"] .refinery-F5rWswwZdcEi68SbzLADf .icon-error{fill:#e06c75;}[data-theme="dark"] .refinery-F5rWswwZdcEi68SbzLADf text.label-unknown{fill:#abb2bf;}[data-theme="dark"] .refinery-F5rWswwZdcEi68SbzLADf text.label-error{fill:#e06c75;}[data-theme="dark"] .refinery-F5rWswwZdcEi68SbzLADf .node-exists-false text:not(.label-error){fill:#abb2bf;}[data-theme="dark"] .refinery-F5rWswwZdcEi68SbzLADf .node-exists-false .node-outline{stroke:#abb2bf;stroke-dasharray:2 4;}[data-theme="dark"] .refinery-F5rWswwZdcEi68SbzLADf .node-exists-false .node-header{fill:#282c34!important;}[data-theme="dark"] .refinery-F5rWswwZdcEi68SbzLADf .node-exists-false .icon-true{fill:#abb2bf;}[data-theme="dark"] .refinery-F5rWswwZdcEi68SbzLADf .node-exists-error .node-outline{stroke:#e06c75;}[data-theme="dark"] .refinery-F5rWswwZdcEi68SbzLADf .node-exists-error .node-header{fill:#282c34!important;}</style><defs><svg xmlns="http://www.w3.org/2000/svg" width="24" height="24" viewBox="0 0 24 24" id="refinery-F5rWswwZdcEi68SbzLADf-icon-true" class="icon-true"><path d="M17.63 5.84C17.27 5.33 16.67 5 16 5L5 5.01C3.9 5.01 3 5.9 3 7v10c0 1.1.9 1.99 2 1.99L16 19c.67 0 1.27-.33 1.63-.84L22 12l-4.37-6.16z"/></svg><svg xmlns="http://www.w3.org/2000/svg" width="24" height="24" viewBox="0 0 24 24" id="refinery-F5rWswwZdcEi68SbzLADf-icon-unknown" class="icon-unknown"><path d="M17.63 5.84C17.27 5.33 16.67 5 16 5L5 5.01C3.9 5.01 3 5.9 3 7v10c0 1.1.9 1.99 2 1.99L16 19c.67 0 1.27-.33 1.63-.84L22 12l-4.37-6.16zM16 17H5V7h11l3.55 5L16 17z"/></svg><svg xmlns="http://www.w3.org/2000/svg" width="24" height="24" viewBox="0 0 24 24" id="refinery-F5rWswwZdcEi68SbzLADf-icon-error" class="icon-error"><path d="M12 2C6.47 2 2 6.47 2 12s4.47 10 10 10s10-4.47 10-10S17.53 2 12 2zm5 13.59L15.59 17L12 13.41L8.41 17L7 15.59L10.59 12L7 8.41L8.41 7L12 10.59L15.59 7L17 8.41L13.41 12L17 15.59z"/></svg><svg xmlns="http://www.w3.org/2000/svg" width="24" height="24" viewBox="0 0 24 24" id="refinery-F5rWswwZdcEi68SbzLADf-icon-attribute-true" class="icon-attribute-true"><path d="M12 7c-2.76 0-5 2.24-5 5s2.24 5 5 5 5-2.24 5-5-2.24-5-5-5"/></svg><svg xmlns="http://www.w3.org/2000/svg" width="24" height="24" viewBox="0 0 24 24" id="refinery-F5rWswwZdcEi68SbzLADf-icon-attribute-unknown" class="icon-attribute-unknown"><path d="M12 9c1.65 0 3 1.35 3 3s-1.35 3-3 3-3-1.35-3-3 1.35-3 3-3m0-2c-2.76 0-5 2.24-5 5s2.24 5 5 5 5-2.24 5-5-2.24-5-5-5"/></svg></defs>
<g class="graph" transform="translate(4, 117.5999984741211)">
<!-- n0 -->
<g class="node node-multi node-exists-unknown node-equalsSelf-unknown node-typeHash-m"><rect stroke="none" x="5.5" y="-108.1" width="141.42" height="114.6" rx="12.5" ry="12.5" class="node-shadow node-bg"/>

<rect stroke="none" x="0" y="-113.6" width="140.42" height="113.6" rx="12" ry="12" class="node-bg"/>
<rect stroke="none" x="-4" y="-117.6" width="148.42" height="27" clip-path="url(#refinery-F5rWswwZdcEi68SbzLADf-clip-0)" class="node-header"/>
<text text-anchor="middle" x="70.21" y="-101.6" font-size="12.00" dominant-baseline="middle">Person::new</text>
<use x="6" y="-84.6" width="12" height="12" href="#refinery-F5rWswwZdcEi68SbzLADf-icon-true" class="icon icon-true"/>
<g><text text-anchor="start" x="22" y="-78.6" font-size="12.00" class="label label-true" dominant-baseline="middle">Person</text>
</g>
<use x="6" y="-68.39999999999999" width="12" height="12" href="#refinery-F5rWswwZdcEi68SbzLADf-icon-attribute-unknown" class="icon icon-unknown"/>
<g><text text-anchor="start" x="22" y="-62.39999999999999" font-size="12.00" class="label label-unknown" dominant-baseline="middle">name: ?</text>
</g>
<use x="6" y="-52" width="12" height="12" href="#refinery-F5rWswwZdcEi68SbzLADf-icon-attribute-unknown" class="icon icon-unknown"/>
<g><text text-anchor="start" x="22" y="-46" font-size="12.00" class="label label-unknown" dominant-baseline="middle">age: ?</text>
</g>
<use x="6" y="-35.599999999999994" width="12" height="12" href="#refinery-F5rWswwZdcEi68SbzLADf-icon-attribute-unknown" class="icon icon-unknown"/>
<g><text text-anchor="start" x="22" y="-29.599999999999998" font-size="12.00" class="label label-unknown" dominant-baseline="middle">height: ?</text>
</g>
<use x="6" y="-19.2" width="12" height="12" href="#refinery-F5rWswwZdcEi68SbzLADf-icon-attribute-unknown" class="icon icon-unknown"/>
<g><text text-anchor="start" x="22" y="-13.2" font-size="12.00" class="label label-unknown" dominant-baseline="middle">hasDrivingLicense: ?</text>
</g>
<polyline points="0,-90.6 140.42,-90.6" class="node-outline"/>
<rect fill="none" x="0" y="-113.6" width="140.42" height="113.6" rx="12" ry="12" class="node-outline"/>
<clipPath id="refinery-F5rWswwZdcEi68SbzLADf-clip-0"><rect stroke="none" x="0" y="-113.6" width="140.42" height="113.6" rx="12" ry="12" class="node-bg"/></clipPath></g>
<!-- n2 -->
<g class="edge edge-unknown">

<path fill="none" stroke-dasharray="5,2" d="M140.09,-76.32C150.99,-73.4 158.42,-66.9 158.42,-56.8 158.42,-50.33 155.37,-45.34 150.32,-41.82" class="edge-line"/>
<polygon points="152.04,-38.75 141.48,-37.89 149.2,-45.15 152.04,-38.75" class="edge-line edge-arrow"/>
<text text-anchor="start" x="151.24" y="-45.04" font-size="10.50">friend</text>
</g>
</g>
</svg>