<?xml version="1.0" encoding="UTF-8" standalone="no"?>
<svg width="395pt" height="226pt" viewBox="-6 -6 407.4700012207031 238.39999389648438" xmlns="http://www.w3.org/2000/svg" xmlns:xlink="http://www.w3.org/1999/xlink" class="refinery-sdYDAL2PsHukjJUpNyUhU"><style>.refinery-sdYDAL2PsHukjJUpNyUhU .node text{font-family:"Open Sans Variable","Open Sans","Roboto","Helvetica","Arial",sans-serif;fill:#19202b;}.refinery-sdYDAL2PsHukjJUpNyUhU .node .node-outline{stroke:#19202b;}.refinery-sdYDAL2PsHukjJUpNyUhU .node .node-header{fill:rgb(53, 161, 173);}.refinery-sdYDAL2PsHukjJUpNyUhU .node .node-bg{fill:#fff;}.refinery-sdYDAL2PsHukjJUpNyUhU .node-INDIVIDUAL .node-outline{stroke-width:2;}.refinery-sdYDAL2PsHukjJUpNyUhU .node-shadow.node-bg{fill:#19202b;opacity:0.24;}.refinery-sdYDAL2PsHukjJUpNyUhU .node-exists-UNKNOWN .node-outline{stroke-dasharray:5 2;}.refinery-sdYDAL2PsHukjJUpNyUhU .node-typeHash-g .node-header{fill:#e5c07b;}.refinery-sdYDAL2PsHukjJUpNyUhU .node-typeHash-h .node-header{fill:#e06c75;}.refinery-sdYDAL2PsHukjJUpNyUhU .node-typeHash-i .node-header{fill:#98c379;}.refinery-sdYDAL2PsHukjJUpNyUhU .node-typeHash-j .node-header{fill:#c678dd;}.refinery-sdYDAL2PsHukjJUpNyUhU .node-typeHash-k .node-header{fill:#80a7f4;}.refinery-sdYDAL2PsHukjJUpNyUhU .node-typeHash-l .node-header{fill:#e3d1b2;}.refinery-sdYDAL2PsHukjJUpNyUhU .node-typeHash-m .node-header{fill:#e78b8f;}.refinery-sdYDAL2PsHukjJUpNyUhU .node-typeHash-n .node-header{fill:#abcc94;}.refinery-sdYDAL2PsHukjJUpNyUhU .node-typeHash-o .node-header{fill:#dbb2e8;}.refinery-sdYDAL2PsHukjJUpNyUhU .node-typeHash-p .node-header{fill:#92c0e9;}.refinery-sdYDAL2PsHukjJUpNyUhU .edge text{font-family:"Open Sans Variable","Open Sans","Roboto","Helvetica","Arial",sans-serif;fill:#19202b;}.refinery-sdYDAL2PsHukjJUpNyUhU .edge .edge-line{stroke:#19202b;}.refinery-sdYDAL2PsHukjJUpNyUhU .edge .edge-arrow{fill:#19202b;}.refinery-sdYDAL2PsHukjJUpNyUhU .edge-UNKNOWN text{fill:#696c77;}.refinery-sdYDAL2PsHukjJUpNyUhU .edge-UNKNOWN .edge-line{stroke:#696c77;}.refinery-sdYDAL2PsHukjJUpNyUhU .edge-UNKNOWN .edge-arrow{fill:none;}.refinery-sdYDAL2PsHukjJUpNyUhU .edge-ERROR text{fill:#ca1243;}.refinery-sdYDAL2PsHukjJUpNyUhU .edge-ERROR .edge-line{stroke:#ca1243;}.refinery-sdYDAL2PsHukjJUpNyUhU .edge-ERROR .edge-arrow{fill:#ca1243;}.refinery-sdYDAL2PsHukjJUpNyUhU .icon-TRUE{fill:#19202b;}.refinery-sdYDAL2PsHukjJUpNyUhU .icon-UNKNOWN{fill:#696c77;}.refinery-sdYDAL2PsHukjJUpNyUhU .icon-ERROR{fill:#ca1243;}.refinery-sdYDAL2PsHukjJUpNyUhU text.label-UNKNOWN{fill:#696c77;}.refinery-sdYDAL2PsHukjJUpNyUhU text.label-ERROR{fill:#ca1243;}[data-theme="dark"] .refinery-sdYDAL2PsHukjJUpNyUhU .node text{font-family:"Open Sans Variable","Open Sans","Roboto","Helvetica","Arial",sans-serif;fill:#ebebff;}[data-theme="dark"] .refinery-sdYDAL2PsHukjJUpNyUhU .node .node-outline{stroke:#ebebff;}[data-theme="dark"] .refinery-sdYDAL2PsHukjJUpNyUhU .node .node-header{fill:rgb(60, 127, 135);}[data-theme="dark"] .refinery-sdYDAL2PsHukjJUpNyUhU .node .node-bg{fill:#282c34;}[data-theme="dark"] .refinery-sdYDAL2PsHukjJUpNyUhU .node-INDIVIDUAL .node-outline{stroke-width:2;}[data-theme="dark"] .refinery-sdYDAL2PsHukjJUpNyUhU .node-shadow.node-bg{fill:#ebebff;opacity:0.32;}[data-theme="dark"] .refinery-sdYDAL2PsHukjJUpNyUhU .node-exists-UNKNOWN .node-outline{stroke-dasharray:5 2;}[data-theme="dark"] .refinery-sdYDAL2PsHukjJUpNyUhU .node-typeHash-g .node-header{fill:#ae8003;}[data-theme="dark"] .refinery-sdYDAL2PsHukjJUpNyUhU .node-typeHash-h .node-header{fill:#a23b47;}[data-theme="dark"] .refinery-sdYDAL2PsHukjJUpNyUhU .node-typeHash-i .node-header{fill:#428141;}[data-theme="dark"] .refinery-sdYDAL2PsHukjJUpNyUhU .node-typeHash-j .node-header{fill:#854797;}[data-theme="dark"] .refinery-sdYDAL2PsHukjJUpNyUhU .node-typeHash-k .node-header{fill:#3982bb;}[data-theme="dark"] .refinery-sdYDAL2PsHukjJUpNyUhU .node-typeHash-l .node-header{fill:#827662;}[data-theme="dark"] .refinery-sdYDAL2PsHukjJUpNyUhU .node-typeHash-m .node-header{fill:#904f53;}[data-theme="dark"] .refinery-sdYDAL2PsHukjJUpNyUhU .node-typeHash-n .node-header{fill:#647e63;}[data-theme="dark"] .refinery-sdYDAL2PsHukjJUpNyUhU .node-typeHash-o .node-header{fill:#805f89;}[data-theme="dark"] .refinery-sdYDAL2PsHukjJUpNyUhU .node-typeHash-p .node-header{fill:#4f7799;}[data-theme="dark"] .refinery-sdYDAL2PsHukjJUpNyUhU .edge text{font-family:"Open Sans Variable","Open Sans","Roboto","Helvetica","Arial",sans-serif;fill:#ebebff;}[data-theme="dark"] .refinery-sdYDAL2PsHukjJUpNyUhU .edge .edge-line{stroke:#ebebff;}[data-theme="dark"] .refinery-sdYDAL2PsHukjJUpNyUhU .edge .edge-arrow{fill:#ebebff;}[data-theme="dark"] .refinery-sdYDAL2PsHukjJUpNyUhU .edge-UNKNOWN text{fill:#abb2bf;}[data-theme="dark"] .refinery-sdYDAL2PsHukjJUpNyUhU .edge-UNKNOWN .edge-line{stroke:#abb2bf;}[data-theme="dark"] .refinery-sdYDAL2PsHukjJUpNyUhU .edge-UNKNOWN .edge-arrow{fill:none;}[data-theme="dark"] .refinery-sdYDAL2PsHukjJUpNyUhU .edge-ERROR text{fill:#e06c75;}[data-theme="dark"] .refinery-sdYDAL2PsHukjJUpNyUhU .edge-ERROR .edge-line{stroke:#e06c75;}[data-theme="dark"] .refinery-sdYDAL2PsHukjJUpNyUhU .edge-ERROR .edge-arrow{fill:#e06c75;}[data-theme="dark"] .refinery-sdYDAL2PsHukjJUpNyUhU .icon-TRUE{fill:#ebebff;}[data-theme="dark"] .refinery-sdYDAL2PsHukjJUpNyUhU .icon-UNKNOWN{fill:#abb2bf;}[data-theme="dark"] .refinery-sdYDAL2PsHukjJUpNyUhU .icon-ERROR{fill:#e06c75;}[data-theme="dark"] .refinery-sdYDAL2PsHukjJUpNyUhU text.label-UNKNOWN{fill:#abb2bf;}[data-theme="dark"] .refinery-sdYDAL2PsHukjJUpNyUhU text.label-ERROR{fill:#e06c75;}</style><defs><svg xmlns="http://www.w3.org/2000/svg" width="24" height="24" viewBox="0 0 24 24" id="refinery-sdYDAL2PsHukjJUpNyUhU-icon-TRUE" class="icon-TRUE"><path d="M17.63 5.84C17.27 5.33 16.67 5 16 5L5 5.01C3.9 5.01 3 5.9 3 7v10c0 1.1.9 1.99 2 1.99L16 19c.67 0 1.27-.33 1.63-.84L22 12l-4.37-6.16z"/></svg><svg xmlns="http://www.w3.org/2000/svg" width="24" height="24" viewBox="0 0 24 24" id="refinery-sdYDAL2PsHukjJUpNyUhU-icon-UNKNOWN" class="icon-UNKNOWN"><path d="M17.63 5.84C17.27 5.33 16.67 5 16 5L5 5.01C3.9 5.01 3 5.9 3 7v10c0 1.1.9 1.99 2 1.99L16 19c.67 0 1.27-.33 1.63-.84L22 12l-4.37-6.16zM16 17H5V7h11l3.55 5L16 17z"/></svg><svg xmlns="http://www.w3.org/2000/svg" width="24" height="24" viewBox="0 0 24 24" id="refinery-sdYDAL2PsHukjJUpNyUhU-icon-ERROR" class="icon-ERROR"><path d="M12 2C6.47 2 2 6.47 2 12s4.47 10 10 10s10-4.47 10-10S17.53 2 12 2zm5 13.59L15.59 17L12 13.41L8.41 17L7 15.59L10.59 12L7 8.41L8.41 7L12 10.59L15.59 7L17 8.41L13.41 12L17 15.59z"/></svg></defs>
<g class="graph" transform="scale(1 1) rotate(0) translate(4 222.4)">
<!-- n3 -->
<g class="node node-IMPLICIT node-exists-TRUE node-equalsSelf-TRUE node-typeHash-h">

<rect stroke="none" x="155.95" y="-133.6" width="64.03" height="48.8" rx="12" ry="12" class="node-bg"/>
<rect stroke="none" x="151" y="-137" width="72" height="27" clip-path="url(#refinery-sdYDAL2PsHukjJUpNyUhU-clip-0)" class="node-header"/>
<text text-anchor="start" x="181.53" y="-117.8" font-size="12.00">v1</text>
<use x="161.952" y="-104" width="12" height="12" id="" class="icon icon-TRUE" href="#refinery-sdYDAL2PsHukjJUpNyUhU-icon-TRUE"/>
<g><text text-anchor="start" x="177.95" y="-94.4" font-size="12.00" class="label label-TRUE">Vertex</text>
</g>
<polyline points="155.95,-110.2 219.98,-110.2" class="node-outline"/>
<rect fill="none" x="155.95" y="-133.6" width="64.03" height="48.8" rx="12" ry="12" class="node-outline"/>
<clipPath id="refinery-sdYDAL2PsHukjJUpNyUhU-clip-0"><rect stroke="none" x="155.95" y="-133.6" width="64.03" height="48.8" rx="12" ry="12" class="node-bg"/></clipPath></g>
<!-- n4 -->
<g class="node node-IMPLICIT node-exists-TRUE node-equalsSelf-TRUE node-typeHash-k">

<rect stroke="none" x="113.78" y="-218.4" width="66.37" height="48.80000000000001" rx="12" ry="12" class="node-bg"/>
<rect stroke="none" x="109" y="-222" width="74" height="27" clip-path="url(#refinery-sdYDAL2PsHukjJUpNyUhU-clip-1)" class="node-header"/>
<text text-anchor="start" x="141.09" y="-202.6" font-size="12.00">r1</text>
<use x="119.78" y="-188.8" width="12" height="12" id="" class="icon icon-TRUE" href="#refinery-sdYDAL2PsHukjJUpNyUhU-icon-TRUE"/>
<g><text text-anchor="start" x="135.78" y="-179.2" font-size="12.00" class="label label-TRUE">Region</text>
</g>
<polyline points="113.78,-195 180.15,-195" class="node-outline"/>
<rect fill="none" x="113.78" y="-218.4" width="66.37" height="48.80000000000001" rx="12" ry="12" class="node-outline"/>
<clipPath id="refinery-sdYDAL2PsHukjJUpNyUhU-clip-1"><rect stroke="none" x="113.78" y="-218.4" width="66.37" height="48.80000000000001" rx="12" ry="12" class="node-bg"/></clipPath></g>
<!-- n3&#45;&gt;n4 -->
<g class="edge edge-TRUE">

<path fill="none" d="M182.6,-133.43C179.13,-141.63 174.65,-151.02 170,-159.88" class="edge-line"/>
<polygon points="166.95,-158.15 165.24,-168.61 173.1,-161.5 166.95,-158.15" class="edge-line edge-arrow"/>
<text text-anchor="middle" x="158.39" y="-155.04" font-size="10.50">region</text>
</g>
<!-- n8 -->
<g class="node node-IMPLICIT node-exists-TRUE node-equalsSelf-TRUE node-typeHash-i">

<rect stroke="none" x="53.86" y="-48.8" width="84.22000000000001" height="48.8" rx="12" ry="12" class="node-bg"/>
<rect stroke="none" x="49" y="-52" width="92" height="27" clip-path="url(#refinery-sdYDAL2PsHukjJUpNyUhU-clip-2)" class="node-header"/>
<text text-anchor="start" x="90.42" y="-33" font-size="12.00">t1</text>
<use x="59.8559" y="-19.2" width="12" height="12" id="" class="icon icon-TRUE" href="#refinery-sdYDAL2PsHukjJUpNyUhU-icon-TRUE"/>
<g><text text-anchor="start" x="75.86" y="-9.6" font-size="12.00" class="label label-TRUE">Transition</text>
</g>
<polyline points="53.86,-25.4 138.08,-25.4" class="node-outline"/>
<rect fill="none" x="53.86" y="-48.8" width="84.22000000000001" height="48.8" rx="12" ry="12" class="node-outline"/>
<clipPath id="refinery-sdYDAL2PsHukjJUpNyUhU-clip-2"><rect stroke="none" x="53.86" y="-48.8" width="84.22000000000001" height="48.8" rx="12" ry="12" class="node-bg"/></clipPath></g>
<!-- n3&#45;&gt;n8 -->
<g class="edge edge-TRUE">

<path fill="none" stroke-width="2" d="M155.95,-84.92C145.63,-76.18 134.29,-66.11 124.25,-56.77" class="edge-line"/>
<polygon stroke-width="2" points="126.48,-54.66 118.02,-50.88 122.27,-59.11 126.48,-54.66" class="edge-line edge-arrow"/>
<text text-anchor="start" x="35.36" y="-71.18" font-weight="bold" font-size="10.50">outgoingTransition</text>
</g>
<!-- n3&#45;&gt;n8 -->

<!-- n9 -->
<g class="node node-IMPLICIT node-exists-TRUE node-equalsSelf-TRUE node-typeHash-i">

<rect stroke="none" x="155.86" y="-48.8" width="84.22" height="48.8" rx="12" ry="12" class="node-bg"/>
<rect stroke="none" x="151" y="-52" width="92" height="27" clip-path="url(#refinery-sdYDAL2PsHukjJUpNyUhU-clip-3)" class="node-header"/>
<text text-anchor="start" x="192.42" y="-33" font-size="12.00">t2</text>
<use x="161.856" y="-19.2" width="12" height="12" id="" class="icon icon-TRUE" href="#refinery-sdYDAL2PsHukjJUpNyUhU-icon-TRUE"/>
<g><text text-anchor="start" x="177.86" y="-9.6" font-size="12.00" class="label label-TRUE">Transition</text>
</g>
<polyline points="155.86,-25.4 240.08,-25.4" class="node-outline"/>
<rect fill="none" x="155.86" y="-48.8" width="84.22" height="48.8" rx="12" ry="12" class="node-outline"/>
<clipPath id="refinery-sdYDAL2PsHukjJUpNyUhU-clip-3"><rect stroke="none" x="155.86" y="-48.8" width="84.22" height="48.8" rx="12" ry="12" class="node-bg"/></clipPath></g>
<!-- n3&#45;&gt;n9 -->
<g class="edge edge-TRUE">

<path fill="none" stroke-width="2" d="M172.38,-85.14C171.61,-77.31 172.15,-68.38 173.81,-59.86" class="edge-line"/>
<polygon stroke-width="2" points="176.73,-60.8 175.99,-51.56 170.81,-59.24 176.73,-60.8" class="edge-line edge-arrow"/>
<text text-anchor="start" x="72.62" y="-58.26" font-weight="bold" font-size="10.50">outgoingTransition</text>
</g><g class="edge edge-TRUE">

<path fill="none" d="M184.63,-85.14C185,-77.31 185.9,-68.38 187.14,-59.86" class="edge-line"/>
<polygon points="190.57,-60.56 188.77,-50.12 183.67,-59.4 190.57,-60.56" class="edge-line edge-arrow"/>
<text text-anchor="middle" x="233.31" y="-70.26" font-size="10.50">incomingTransition</text>
</g>
<!-- n3&#45;&gt;n9 -->

<!-- n10 -->
<g class="node node-IMPLICIT node-exists-TRUE node-equalsSelf-TRUE node-typeHash-i">

<rect stroke="none" x="257.86" y="-48.8" width="84.21999999999997" height="48.8" rx="12" ry="12" class="node-bg"/>
<rect stroke="none" x="253" y="-52" width="92" height="27" clip-path="url(#refinery-sdYDAL2PsHukjJUpNyUhU-clip-4)" class="node-header"/>
<text text-anchor="start" x="294.42" y="-33" font-size="12.00">t3</text>
<use x="263.856" y="-19.2" width="12" height="12" id="" class="icon icon-TRUE" href="#refinery-sdYDAL2PsHukjJUpNyUhU-icon-TRUE"/>
<g><text text-anchor="start" x="279.86" y="-9.6" font-size="12.00" class="label label-TRUE">Transition</text>
</g>
<polyline points="257.86,-25.4 342.08,-25.4" class="node-outline"/>
<rect fill="none" x="257.86" y="-48.8" width="84.21999999999997" height="48.8" rx="12" ry="12" class="node-outline"/>
<clipPath id="refinery-sdYDAL2PsHukjJUpNyUhU-clip-4"><rect stroke="none" x="257.86" y="-48.8" width="84.21999999999997" height="48.8" rx="12" ry="12" class="node-bg"/></clipPath></g>
<!-- n3&#45;&gt;n10 -->

<!-- n4&#45;&gt;n3 -->
<g class="edge edge-TRUE">

<path fill="none" stroke-width="2" d="M152.26,-169.94C155.72,-161.75 160.2,-152.37 164.84,-143.5" class="edge-line"/>
<polygon stroke-width="2" points="167.39,-145.24 168.88,-136.09 162.01,-142.31 167.39,-145.24" class="edge-line edge-arrow"/>
<text text-anchor="start" x="119.24" y="-143.04" font-weight="bold" font-size="10.50">vertices</text>
</g>
<!-- n5 -->
<g class="node node-IMPLICIT node-exists-TRUE node-equalsSelf-TRUE node-typeHash-h">

<rect stroke="none" x="73.95" y="-133.6" width="64.02999999999999" height="48.8" rx="12" ry="12" class="node-bg"/>
<rect stroke="none" x="69" y="-137" width="72" height="27" clip-path="url(#refinery-sdYDAL2PsHukjJUpNyUhU-clip-5)" class="node-header"/>
<text text-anchor="start" x="99.53" y="-117.8" font-size="12.00">v2</text>
<use x="79.9516" y="-104" width="12" height="12" id="" class="icon icon-TRUE" href="#refinery-sdYDAL2PsHukjJUpNyUhU-icon-TRUE"/>
<g><text text-anchor="start" x="95.95" y="-94.4" font-size="12.00" class="label label-TRUE">Vertex</text>
</g>
<polyline points="73.95,-110.2 137.98,-110.2" class="node-outline"/>
<rect fill="none" x="73.95" y="-133.6" width="64.02999999999999" height="48.8" rx="12" ry="12" class="node-outline"/>
<clipPath id="refinery-sdYDAL2PsHukjJUpNyUhU-clip-5"><rect stroke="none" x="73.95" y="-133.6" width="64.02999999999999" height="48.8" rx="12" ry="12" class="node-bg"/></clipPath></g>
<!-- n4&#45;&gt;n5 -->
<g class="edge edge-TRUE">

<path fill="none" stroke-width="2" d="M129.42,-169.94C124.87,-161.93 120.16,-152.77 116.09,-144.08" class="edge-line"/>
<polygon stroke-width="2" points="118.93,-142.93 112.57,-136.19 113.34,-145.43 118.93,-142.93" class="edge-line edge-arrow"/>
<text text-anchor="start" x="78.34" y="-156.05" font-weight="bold" font-size="10.50">vertices</text>
</g>
<!-- n5&#45;&gt;n4 -->
<g class="edge edge-TRUE">

<path fill="none" d="M123.6,-133.43C128.21,-141.54 132.96,-150.81 137.06,-159.59" class="edge-line"/>
<polygon points="133.79,-160.84 141.05,-168.55 140.18,-157.99 133.79,-160.84" class="edge-line edge-arrow"/>
<text text-anchor="middle" x="117.57" y="-142.24" font-size="10.50">region</text>
</g>
<!-- n5&#45;&gt;n8 -->
<g class="edge edge-TRUE">

<path fill="none" d="M97.06,-85.14C95.54,-77.31 94.28,-68.38 93.46,-59.86" class="edge-line"/>
<polygon points="96.97,-59.85 92.75,-50.14 89.99,-60.37 96.97,-59.85" class="edge-line edge-arrow"/>
<text text-anchor="middle" x="47.13" y="-57.66" font-size="10.50">incomingTransition</text>
</g>
<!-- n5&#45;&gt;n9 -->

<!-- n5&#45;&gt;n10 -->

<!-- n6 -->
<g class="node node-IMPLICIT node-exists-TRUE node-equalsSelf-TRUE node-typeHash-h">

<rect stroke="none" x="267.95" y="-133.6" width="64.03000000000003" height="48.8" rx="12" ry="12" class="node-bg"/>
<rect stroke="none" x="263" y="-137" width="72" height="27" clip-path="url(#refinery-sdYDAL2PsHukjJUpNyUhU-clip-6)" class="node-header"/>
<text text-anchor="start" x="293.53" y="-117.8" font-size="12.00">v3</text>
<use x="273.952" y="-104" width="12" height="12" id="" class="icon icon-TRUE" href="#refinery-sdYDAL2PsHukjJUpNyUhU-icon-TRUE"/>
<g><text text-anchor="start" x="289.95" y="-94.4" font-size="12.00" class="label label-TRUE">Vertex</text>
</g>
<polyline points="267.95,-110.2 331.98,-110.2" class="node-outline"/>
<rect fill="none" x="267.95" y="-133.6" width="64.03000000000003" height="48.8" rx="12" ry="12" class="node-outline"/>
<clipPath id="refinery-sdYDAL2PsHukjJUpNyUhU-clip-6"><rect stroke="none" x="267.95" y="-133.6" width="64.03000000000003" height="48.8" rx="12" ry="12" class="node-bg"/></clipPath></g><g class="edge edge-TRUE">

<path fill="none" d="M293.84,-85.14C293.27,-77.31 293.09,-68.38 293.3,-59.86" class="edge-line"/>
<polygon points="296.78,-60.29 293.76,-50.14 289.79,-59.96 296.78,-60.29" class="edge-line edge-arrow"/>
<text text-anchor="middle" x="340.34" y="-70.26" font-size="10.50">incomingTransition</text>
</g>
<!-- n7 -->
<g class="node node-IMPLICIT node-exists-TRUE node-equalsSelf-TRUE node-typeHash-k">

<rect stroke="none" x="266.78" y="-218.4" width="66.37" height="48.80000000000001" rx="12" ry="12" class="node-bg"/>
<rect stroke="none" x="262" y="-222" width="74" height="27" clip-path="url(#refinery-sdYDAL2PsHukjJUpNyUhU-clip-7)" class="node-header"/>
<text text-anchor="start" x="294.09" y="-202.6" font-size="12.00">r2</text>
<use x="272.78" y="-188.8" width="12" height="12" id="" class="icon icon-TRUE" href="#refinery-sdYDAL2PsHukjJUpNyUhU-icon-TRUE"/>
<g><text text-anchor="start" x="288.78" y="-179.2" font-size="12.00" class="label label-TRUE">Region</text>
</g>
<polyline points="266.78,-195 333.15,-195" class="node-outline"/>
<rect fill="none" x="266.78" y="-218.4" width="66.37" height="48.80000000000001" rx="12" ry="12" class="node-outline"/>
<clipPath id="refinery-sdYDAL2PsHukjJUpNyUhU-clip-7"><rect stroke="none" x="266.78" y="-218.4" width="66.37" height="48.80000000000001" rx="12" ry="12" class="node-bg"/></clipPath></g>
<!-- n6&#45;&gt;n7 -->
<g class="edge edge-TRUE">

<path fill="none" d="M306.1,-133.43C306.67,-141.27 306.84,-150.2 306.63,-158.72" class="edge-line"/>
<polygon points="303.14,-158.27 306.16,-168.42 310.14,-158.6 303.14,-158.27" class="edge-line edge-arrow"/>
<text text-anchor="middle" x="291.03" y="-142.02" font-size="10.50">region</text>
</g>
<!-- n6&#45;&gt;n8 -->

<!-- n6&#45;&gt;n9 -->

<!-- n6&#45;&gt;n10 -->
<g class="edge edge-TRUE">

<path fill="none" d="M213.57,-48.63C214.33,-56.56 213.75,-65.61 212.03,-74.21" class="edge-line"/>
<polygon points="208.7,-73.11 209.51,-83.67 215.47,-74.91 208.7,-73.11" class="edge-line edge-arrow"/>
<text text-anchor="middle" x="198.62" y="-70.03" font-size="10.50">target</text>
</g>
<!-- n6&#45;&gt;n10 -->

<!-- n7&#45;&gt;n6 -->
<g class="edge edge-TRUE">

<path fill="none" stroke-width="2" d="M293.84,-169.94C293.28,-162.19 293.09,-153.38 293.29,-144.95" class="edge-line"/>
<polygon stroke-width="2" points="296.34,-145.33 293.69,-136.45 290.22,-145.05 296.34,-145.33" class="edge-line edge-arrow"/>
<text text-anchor="start" x="251.69" y="-155.87" font-weight="bold" font-size="10.50">vertices</text>
</g><g class="edge edge-TRUE">

<path fill="none" stroke-width="2" d="M281.6,-85.14C279.9,-77.39 279.35,-68.58 279.95,-60.15" class="edge-line"/>
<polygon stroke-width="2" points="282.96,-60.72 281.14,-51.63 276.9,-59.87 282.96,-60.72" class="edge-line edge-arrow"/>
<text text-anchor="start" x="179.61" y="-58.47" font-weight="bold" font-size="10.50">outgoingTransition</text>
</g><g class="edge edge-TRUE">

<path fill="none" d="M318.37,-48.63C320.07,-56.47 320.6,-65.4 319.95,-73.92" class="edge-line"/>
<polygon points="316.51,-73.24 318.55,-83.64 323.44,-74.24 316.51,-73.24" class="edge-line edge-arrow"/>
<text text-anchor="middle" x="305.62" y="-57.22" font-size="10.50">target</text>
</g>
<g class="edge edge-TRUE">

<path fill="none" d="M127.91,-48.63C138.46,-57.54 150.06,-67.86 160.27,-77.38" class="edge-line"/>
<polygon points="157.7,-79.76 167.36,-84.09 162.51,-74.68 157.7,-79.76" class="edge-line edge-arrow"/>
<text text-anchor="middle" x="165.07" y="-69.83" font-size="10.50">source</text>
</g><g class="edge edge-TRUE">

<path fill="none" d="M104.91,-48.63C106.42,-56.47 107.67,-65.4 108.49,-73.92" class="edge-line"/>
<polygon points="104.98,-73.91 109.19,-83.63 111.96,-73.4 104.98,-73.91" class="edge-line edge-arrow"/>
<text text-anchor="middle" x="122.29" y="-69.82" font-size="10.50">target</text>
</g><g class="edge edge-TRUE">

<path fill="none" d="M201.3,-48.63C200.91,-56.47 200.01,-65.4 198.77,-73.92" class="edge-line"/>
<polygon points="195.34,-73.2 197.13,-83.64 202.24,-74.36 195.34,-73.2" class="edge-line edge-arrow"/>
<text text-anchor="middle" x="183.25" y="-57.22" font-size="10.50">source</text>
</g><g class="edge edge-TRUE">

<path fill="none" d="M306.1,-48.63C306.67,-56.47 306.84,-65.4 306.63,-73.92" class="edge-line"/>
<polygon points="303.14,-73.47 306.16,-83.62 310.14,-73.8 303.14,-73.47" class="edge-line edge-arrow"/>
<text text-anchor="middle" x="323.2" y="-57.22" font-size="10.50">source</text>
</g></g>
</svg>