<?xml version="1.0" encoding="UTF-8" standalone="no"?>
<svg width="236pt" height="142pt" viewBox="-6 -6 247.8800048828125 153.60000610351562" xmlns="http://www.w3.org/2000/svg" xmlns:xlink="http://www.w3.org/1999/xlink" class="refinery-aUMOWvqBGMJmEq5FBgfQD"><style>.refinery-aUMOWvqBGMJmEq5FBgfQD .node text{font-family:"Open Sans Variable","Open Sans","Roboto","Helvetica","Arial",sans-serif;fill:#19202b;}.refinery-aUMOWvqBGMJmEq5FBgfQD .node .node-outline{stroke:#19202b;}.refinery-aUMOWvqBGMJmEq5FBgfQD .node .node-header{fill:rgb(53, 161, 173);}.refinery-aUMOWvqBGMJmEq5FBgfQD .node .node-bg{fill:#fff;}.refinery-aUMOWvqBGMJmEq5FBgfQD .node-INDIVIDUAL .node-outline{stroke-width:2;}.refinery-aUMOWvqBGMJmEq5FBgfQD .node-shadow.node-bg{fill:#19202b;opacity:0.24;}.refinery-aUMOWvqBGMJmEq5FBgfQD .node-exists-UNKNOWN .node-outline{stroke-dasharray:5 2;}.refinery-aUMOWvqBGMJmEq5FBgfQD .node-typeHash-g .node-header{fill:#e5c07b;}.refinery-aUMOWvqBGMJmEq5FBgfQD .node-typeHash-h .node-header{fill:#e06c75;}.refinery-aUMOWvqBGMJmEq5FBgfQD .node-typeHash-i .node-header{fill:#98c379;}.refinery-aUMOWvqBGMJmEq5FBgfQD .node-typeHash-j .node-header{fill:#c678dd;}.refinery-aUMOWvqBGMJmEq5FBgfQD .node-typeHash-k .node-header{fill:#80a7f4;}.refinery-aUMOWvqBGMJmEq5FBgfQD .node-typeHash-l .node-header{fill:#e3d1b2;}.refinery-aUMOWvqBGMJmEq5FBgfQD .node-typeHash-m .node-header{fill:#e78b8f;}.refinery-aUMOWvqBGMJmEq5FBgfQD .node-typeHash-n .node-header{fill:#abcc94;}.refinery-aUMOWvqBGMJmEq5FBgfQD .node-typeHash-o .node-header{fill:#dbb2e8;}.refinery-aUMOWvqBGMJmEq5FBgfQD .node-typeHash-p .node-header{fill:#92c0e9;}.refinery-aUMOWvqBGMJmEq5FBgfQD .edge text{font-family:"Open Sans Variable","Open Sans","Roboto","Helvetica","Arial",sans-serif;fill:#19202b;}.refinery-aUMOWvqBGMJmEq5FBgfQD .edge .edge-line{stroke:#19202b;}.refinery-aUMOWvqBGMJmEq5FBgfQD .edge .edge-arrow{fill:#19202b;}.refinery-aUMOWvqBGMJmEq5FBgfQD .edge-UNKNOWN text{fill:#696c77;}.refinery-aUMOWvqBGMJmEq5FBgfQD .edge-UNKNOWN .edge-line{stroke:#696c77;}.refinery-aUMOWvqBGMJmEq5FBgfQD .edge-UNKNOWN .edge-arrow{fill:none;}.refinery-aUMOWvqBGMJmEq5FBgfQD .edge-ERROR text{fill:#ca1243;}.refinery-aUMOWvqBGMJmEq5FBgfQD .edge-ERROR .edge-line{stroke:#ca1243;}.refinery-aUMOWvqBGMJmEq5FBgfQD .edge-ERROR .edge-arrow{fill:#ca1243;}.refinery-aUMOWvqBGMJmEq5FBgfQD .icon-TRUE{fill:#19202b;}.refinery-aUMOWvqBGMJmEq5FBgfQD .icon-UNKNOWN{fill:#696c77;}.refinery-aUMOWvqBGMJmEq5FBgfQD .icon-ERROR{fill:#ca1243;}.refinery-aUMOWvqBGMJmEq5FBgfQD text.label-UNKNOWN{fill:#696c77;}.refinery-aUMOWvqBGMJmEq5FBgfQD text.label-ERROR{fill:#ca1243;}[data-theme="dark"] .refinery-aUMOWvqBGMJmEq5FBgfQD .node text{font-family:"Open Sans Variable","Open Sans","Roboto","Helvetica","Arial",sans-serif;fill:#ebebff;}[data-theme="dark"] .refinery-aUMOWvqBGMJmEq5FBgfQD .node .node-outline{stroke:#ebebff;}[data-theme="dark"] .refinery-aUMOWvqBGMJmEq5FBgfQD .node .node-header{fill:rgb(60, 127, 135);}[data-theme="dark"] .refinery-aUMOWvqBGMJmEq5FBgfQD .node .node-bg{fill:#282c34;}[data-theme="dark"] .refinery-aUMOWvqBGMJmEq5FBgfQD .node-INDIVIDUAL .node-outline{stroke-width:2;}[data-theme="dark"] .refinery-aUMOWvqBGMJmEq5FBgfQD .node-shadow.node-bg{fill:#ebebff;opacity:0.32;}[data-theme="dark"] .refinery-aUMOWvqBGMJmEq5FBgfQD .node-exists-UNKNOWN .node-outline{stroke-dasharray:5 2;}[data-theme="dark"] .refinery-aUMOWvqBGMJmEq5FBgfQD .node-typeHash-g .node-header{fill:#ae8003;}[data-theme="dark"] .refinery-aUMOWvqBGMJmEq5FBgfQD .node-typeHash-h .node-header{fill:#a23b47;}[data-theme="dark"] .refinery-aUMOWvqBGMJmEq5FBgfQD .node-typeHash-i .node-header{fill:#428141;}[data-theme="dark"] .refinery-aUMOWvqBGMJmEq5FBgfQD .node-typeHash-j .node-header{fill:#854797;}[data-theme="dark"] .refinery-aUMOWvqBGMJmEq5FBgfQD .node-typeHash-k .node-header{fill:#3982bb;}[data-theme="dark"] .refinery-aUMOWvqBGMJmEq5FBgfQD .node-typeHash-l .node-header{fill:#827662;}[data-theme="dark"] .refinery-aUMOWvqBGMJmEq5FBgfQD .node-typeHash-m .node-header{fill:#904f53;}[data-theme="dark"] .refinery-aUMOWvqBGMJmEq5FBgfQD .node-typeHash-n .node-header{fill:#647e63;}[data-theme="dark"] .refinery-aUMOWvqBGMJmEq5FBgfQD .node-typeHash-o .node-header{fill:#805f89;}[data-theme="dark"] .refinery-aUMOWvqBGMJmEq5FBgfQD .node-typeHash-p .node-header{fill:#4f7799;}[data-theme="dark"] .refinery-aUMOWvqBGMJmEq5FBgfQD .edge text{font-family:"Open Sans Variable","Open Sans","Roboto","Helvetica","Arial",sans-serif;fill:#ebebff;}[data-theme="dark"] .refinery-aUMOWvqBGMJmEq5FBgfQD .edge .edge-line{stroke:#ebebff;}[data-theme="dark"] .refinery-aUMOWvqBGMJmEq5FBgfQD .edge .edge-arrow{fill:#ebebff;}[data-theme="dark"] .refinery-aUMOWvqBGMJmEq5FBgfQD .edge-UNKNOWN text{fill:#abb2bf;}[data-theme="dark"] .refinery-aUMOWvqBGMJmEq5FBgfQD .edge-UNKNOWN .edge-line{stroke:#abb2bf;}[data-theme="dark"] .refinery-aUMOWvqBGMJmEq5FBgfQD .edge-UNKNOWN .edge-arrow{fill:none;}[data-theme="dark"] .refinery-aUMOWvqBGMJmEq5FBgfQD .edge-ERROR text{fill:#e06c75;}[data-theme="dark"] .refinery-aUMOWvqBGMJmEq5FBgfQD .edge-ERROR .edge-line{stroke:#e06c75;}[data-theme="dark"] .refinery-aUMOWvqBGMJmEq5FBgfQD .edge-ERROR .edge-arrow{fill:#e06c75;}[data-theme="dark"] .refinery-aUMOWvqBGMJmEq5FBgfQD .icon-TRUE{fill:#ebebff;}[data-theme="dark"] .refinery-aUMOWvqBGMJmEq5FBgfQD .icon-UNKNOWN{fill:#abb2bf;}[data-theme="dark"] .refinery-aUMOWvqBGMJmEq5FBgfQD .icon-ERROR{fill:#e06c75;}[data-theme="dark"] .refinery-aUMOWvqBGMJmEq5FBgfQD text.label-UNKNOWN{fill:#abb2bf;}[data-theme="dark"] .refinery-aUMOWvqBGMJmEq5FBgfQD text.label-ERROR{fill:#e06c75;}</style><defs><svg xmlns="http://www.w3.org/2000/svg" width="24" height="24" viewBox="0 0 24 24" id="refinery-aUMOWvqBGMJmEq5FBgfQD-icon-TRUE" class="icon-TRUE"><path d="M17.63 5.84C17.27 5.33 16.67 5 16 5L5 5.01C3.9 5.01 3 5.9 3 7v10c0 1.1.9 1.99 2 1.99L16 19c.67 0 1.27-.33 1.63-.84L22 12l-4.37-6.16z"/></svg><svg xmlns="http://www.w3.org/2000/svg" width="24" height="24" viewBox="0 0 24 24" id="refinery-aUMOWvqBGMJmEq5FBgfQD-icon-UNKNOWN" class="icon-UNKNOWN"><path d="M17.63 5.84C17.27 5.33 16.67 5 16 5L5 5.01C3.9 5.01 3 5.9 3 7v10c0 1.1.9 1.99 2 1.99L16 19c.67 0 1.27-.33 1.63-.84L22 12l-4.37-6.16zM16 17H5V7h11l3.55 5L16 17z"/></svg><svg xmlns="http://www.w3.org/2000/svg" width="24" height="24" viewBox="0 0 24 24" id="refinery-aUMOWvqBGMJmEq5FBgfQD-icon-ERROR" class="icon-ERROR"><path d="M12 2C6.47 2 2 6.47 2 12s4.47 10 10 10s10-4.47 10-10S17.53 2 12 2zm5 13.59L15.59 17L12 13.41L8.41 17L7 15.59L10.59 12L7 8.41L8.41 7L12 10.59L15.59 7L17 8.41L13.41 12L17 15.59z"/></svg></defs>
<g class="graph" transform="translate(4, 137.60000610351562)">
<!-- n0 -->

<!-- n1 -->

<!-- n1&#45;&gt;n0 -->
<!-- n1&#45;&gt;n0 -->

<!-- n1&#45;&gt;n0 -->

<!-- n1&#45;&gt;n0 -->


<!-- n3 -->
<g class="node node-IMPLICIT node-exists-TRUE node-equalsSelf-TRUE node-typeHash-h">

<rect stroke="none" x="46.81" y="-133.6" width="64.03" height="48.8" rx="12" ry="12" class="node-bg"/>
<rect stroke="none" x="42" y="-137" width="72" height="27" clip-path="url(#refinery-aUMOWvqBGMJmEq5FBgfQD-clip-0)" class="node-header"/>
<text text-anchor="start" x="72.39" y="-117.8" font-size="12.00">v1</text>
<use x="52.8135" y="-104" width="12" height="12" id="" class="icon icon-TRUE" href="#refinery-aUMOWvqBGMJmEq5FBgfQD-icon-TRUE"/>
<g><text text-anchor="start" x="68.81" y="-94.4" font-size="12.00" class="label label-TRUE">Vertex</text>
</g>
<polyline points="46.81,-110.2 110.84,-110.2" class="node-outline"/>
<rect fill="none" x="46.81" y="-133.6" width="64.03" height="48.8" rx="12" ry="12" class="node-outline"/>
<clipPath id="refinery-aUMOWvqBGMJmEq5FBgfQD-clip-0"><rect stroke="none" x="46.81" y="-133.6" width="64.03" height="48.8" rx="12" ry="12" class="node-bg"/></clipPath></g>
<g class="edge edge-TRUE">

<path fill="none" d="M114.46,-48.63C110.99,-56.83 106.51,-66.22 101.86,-75.08" class="edge-line"/>
<polygon points="98.81,-73.35 97.1,-83.81 104.96,-76.7 98.81,-73.35" class="edge-line edge-arrow"/>
<text text-anchor="middle" x="89.45" y="-70.24" font-size="10.50">source</text>
</g><g class="node node-IMPLICIT node-exists-TRUE node-equalsSelf-TRUE node-typeHash-h">

<rect stroke="none" x="128.81" y="-133.6" width="64.03" height="48.8" rx="12" ry="12" class="node-bg"/>
<rect stroke="none" x="124" y="-137" width="72" height="27" clip-path="url(#refinery-aUMOWvqBGMJmEq5FBgfQD-clip-1)" class="node-header"/>
<text text-anchor="start" x="154.39" y="-117.8" font-size="12.00">v2</text>
<use x="134.814" y="-104" width="12" height="12" id="" class="icon icon-TRUE" href="#refinery-aUMOWvqBGMJmEq5FBgfQD-icon-TRUE"/>
<g><text text-anchor="start" x="150.81" y="-94.4" font-size="12.00" class="label label-TRUE">Vertex</text>
</g>
<polyline points="128.81,-110.2 192.84,-110.2" class="node-outline"/>
<rect fill="none" x="128.81" y="-133.6" width="64.03" height="48.8" rx="12" ry="12" class="node-outline"/>
<clipPath id="refinery-aUMOWvqBGMJmEq5FBgfQD-clip-1"><rect stroke="none" x="128.81" y="-133.6" width="64.03" height="48.8" rx="12" ry="12" class="node-bg"/></clipPath></g><g class="node node-IMPLICIT node-exists-TRUE node-equalsSelf-TRUE node-typeHash-i">

<rect stroke="none" x="77.72" y="-48.8" width="84.22" height="48.8" rx="12" ry="12" class="node-bg"/>
<rect stroke="none" x="73" y="-52" width="92" height="27" clip-path="url(#refinery-aUMOWvqBGMJmEq5FBgfQD-clip-2)" class="node-header"/>
<text text-anchor="start" x="114.28" y="-33" font-size="12.00">t1</text>
<use x="83.7178" y="-19.2" width="12" height="12" id="" class="icon icon-TRUE" href="#refinery-aUMOWvqBGMJmEq5FBgfQD-icon-TRUE"/>
<g><text text-anchor="start" x="99.72" y="-9.6" font-size="12.00" class="label label-TRUE">Transition</text>
</g>
<polyline points="77.72,-25.4 161.94,-25.4" class="node-outline"/>
<rect fill="none" x="77.72" y="-48.8" width="84.22" height="48.8" rx="12" ry="12" class="node-outline"/>
<clipPath id="refinery-aUMOWvqBGMJmEq5FBgfQD-clip-2"><rect stroke="none" x="77.72" y="-48.8" width="84.22" height="48.8" rx="12" ry="12" class="node-bg"/></clipPath></g><g class="edge edge-TRUE">

<path fill="none" d="M84.13,-85.14C87.58,-76.95 92.06,-67.57 96.71,-58.7" class="edge-line"/>
<polygon points="99.76,-60.41 101.47,-49.96 93.61,-57.06 99.76,-60.41" class="edge-line edge-arrow"/>
<text text-anchor="middle" x="46.32" y="-57.24" font-size="10.50">outgoingTransition</text>
</g><g class="edge edge-TRUE">

<path fill="none" d="M137.47,-48.63C142.07,-56.74 146.83,-66.01 150.92,-74.79" class="edge-line"/>
<polygon points="147.65,-76.04 154.91,-83.75 154.04,-73.19 147.65,-76.04" class="edge-line edge-arrow"/>
<text text-anchor="middle" x="132.53" y="-57.44" font-size="10.50">target</text>
</g><g class="edge edge-TRUE">

<path fill="none" d="M143.28,-85.14C138.68,-77.04 133.92,-67.77 129.82,-58.99" class="edge-line"/>
<polygon points="133.08,-57.72 125.81,-50.01 126.69,-60.57 133.08,-57.72" class="edge-line edge-arrow"/>
<text text-anchor="middle" x="180.75" y="-70.04" font-size="10.50">incomingTransition</text>
</g></g>
</svg>