<?xml version="1.0" encoding="UTF-8" standalone="no"?>
<svg width="104pt" height="142pt" viewBox="-6 -6 116.04000091552734 153.60000610351562" xmlns="http://www.w3.org/2000/svg" xmlns:xlink="http://www.w3.org/1999/xlink" class="refinery-KS4S5srdaYqLoF1P1dM89"><style>.refinery-KS4S5srdaYqLoF1P1dM89 .node text{font-family:"Open Sans Variable","Open Sans","Roboto","Helvetica","Arial",sans-serif;fill:#19202b;}.refinery-KS4S5srdaYqLoF1P1dM89 .node .node-outline{stroke:#19202b;}.refinery-KS4S5srdaYqLoF1P1dM89 .node .node-header{fill:rgb(53, 161, 173);}.refinery-KS4S5srdaYqLoF1P1dM89 .node .node-bg{fill:#fff;}.refinery-KS4S5srdaYqLoF1P1dM89 .node-INDIVIDUAL .node-outline{stroke-width:2;}.refinery-KS4S5srdaYqLoF1P1dM89 .node-shadow.node-bg{fill:#19202b;opacity:0.24;}.refinery-KS4S5srdaYqLoF1P1dM89 .node-exists-UNKNOWN .node-outline{stroke-dasharray:5 2;}.refinery-KS4S5srdaYqLoF1P1dM89 .node-typeHash-g .node-header{fill:#e5c07b;}.refinery-KS4S5srdaYqLoF1P1dM89 .node-typeHash-h .node-header{fill:#e06c75;}.refinery-KS4S5srdaYqLoF1P1dM89 .node-typeHash-i .node-header{fill:#98c379;}.refinery-KS4S5srdaYqLoF1P1dM89 .node-typeHash-j .node-header{fill:#c678dd;}.refinery-KS4S5srdaYqLoF1P1dM89 .node-typeHash-k .node-header{fill:#80a7f4;}.refinery-KS4S5srdaYqLoF1P1dM89 .node-typeHash-l .node-header{fill:#e3d1b2;}.refinery-KS4S5srdaYqLoF1P1dM89 .node-typeHash-m .node-header{fill:#e78b8f;}.refinery-KS4S5srdaYqLoF1P1dM89 .node-typeHash-n .node-header{fill:#abcc94;}.refinery-KS4S5srdaYqLoF1P1dM89 .node-typeHash-o .node-header{fill:#dbb2e8;}.refinery-KS4S5srdaYqLoF1P1dM89 .node-typeHash-p .node-header{fill:#92c0e9;}.refinery-KS4S5srdaYqLoF1P1dM89 .edge text{font-family:"Open Sans Variable","Open Sans","Roboto","Helvetica","Arial",sans-serif;fill:#19202b;}.refinery-KS4S5srdaYqLoF1P1dM89 .edge .edge-line{stroke:#19202b;}.refinery-KS4S5srdaYqLoF1P1dM89 .edge .edge-arrow{fill:#19202b;}.refinery-KS4S5srdaYqLoF1P1dM89 .edge-UNKNOWN text{fill:#696c77;}.refinery-KS4S5srdaYqLoF1P1dM89 .edge-UNKNOWN .edge-line{stroke:#696c77;}.refinery-KS4S5srdaYqLoF1P1dM89 .edge-UNKNOWN .edge-arrow{fill:none;}.refinery-KS4S5srdaYqLoF1P1dM89 .edge-ERROR text{fill:#ca1243;}.refinery-KS4S5srdaYqLoF1P1dM89 .edge-ERROR .edge-line{stroke:#ca1243;}.refinery-KS4S5srdaYqLoF1P1dM89 .edge-ERROR .edge-arrow{fill:#ca1243;}.refinery-KS4S5srdaYqLoF1P1dM89 .icon-TRUE{fill:#19202b;}.refinery-KS4S5srdaYqLoF1P1dM89 .icon-UNKNOWN{fill:#696c77;}.refinery-KS4S5srdaYqLoF1P1dM89 .icon-ERROR{fill:#ca1243;}.refinery-KS4S5srdaYqLoF1P1dM89 text.label-UNKNOWN{fill:#696c77;}.refinery-KS4S5srdaYqLoF1P1dM89 text.label-ERROR{fill:#ca1243;}[data-theme="dark"] .refinery-KS4S5srdaYqLoF1P1dM89 .node text{font-family:"Open Sans Variable","Open Sans","Roboto","Helvetica","Arial",sans-serif;fill:#ebebff;}[data-theme="dark"] .refinery-KS4S5srdaYqLoF1P1dM89 .node .node-outline{stroke:#ebebff;}[data-theme="dark"] .refinery-KS4S5srdaYqLoF1P1dM89 .node .node-header{fill:rgb(60, 127, 135);}[data-theme="dark"] .refinery-KS4S5srdaYqLoF1P1dM89 .node .node-bg{fill:#282c34;}[data-theme="dark"] .refinery-KS4S5srdaYqLoF1P1dM89 .node-INDIVIDUAL .node-outline{stroke-width:2;}[data-theme="dark"] .refinery-KS4S5srdaYqLoF1P1dM89 .node-shadow.node-bg{fill:#ebebff;opacity:0.32;}[data-theme="dark"] .refinery-KS4S5srdaYqLoF1P1dM89 .node-exists-UNKNOWN .node-outline{stroke-dasharray:5 2;}[data-theme="dark"] .refinery-KS4S5srdaYqLoF1P1dM89 .node-typeHash-g .node-header{fill:#ae8003;}[data-theme="dark"] .refinery-KS4S5srdaYqLoF1P1dM89 .node-typeHash-h .node-header{fill:#a23b47;}[data-theme="dark"] .refinery-KS4S5srdaYqLoF1P1dM89 .node-typeHash-i .node-header{fill:#428141;}[data-theme="dark"] .refinery-KS4S5srdaYqLoF1P1dM89 .node-typeHash-j .node-header{fill:#854797;}[data-theme="dark"] .refinery-KS4S5srdaYqLoF1P1dM89 .node-typeHash-k .node-header{fill:#3982bb;}[data-theme="dark"] .refinery-KS4S5srdaYqLoF1P1dM89 .node-typeHash-l .node-header{fill:#827662;}[data-theme="dark"] .refinery-KS4S5srdaYqLoF1P1dM89 .node-typeHash-m .node-header{fill:#904f53;}[data-theme="dark"] .refinery-KS4S5srdaYqLoF1P1dM89 .node-typeHash-n .node-header{fill:#647e63;}[data-theme="dark"] .refinery-KS4S5srdaYqLoF1P1dM89 .node-typeHash-o .node-header{fill:#805f89;}[data-theme="dark"] .refinery-KS4S5srdaYqLoF1P1dM89 .node-typeHash-p .node-header{fill:#4f7799;}[data-theme="dark"] .refinery-KS4S5srdaYqLoF1P1dM89 .edge text{font-family:"Open Sans Variable","Open Sans","Roboto","Helvetica","Arial",sans-serif;fill:#ebebff;}[data-theme="dark"] .refinery-KS4S5srdaYqLoF1P1dM89 .edge .edge-line{stroke:#ebebff;}[data-theme="dark"] .refinery-KS4S5srdaYqLoF1P1dM89 .edge .edge-arrow{fill:#ebebff;}[data-theme="dark"] .refinery-KS4S5srdaYqLoF1P1dM89 .edge-UNKNOWN text{fill:#abb2bf;}[data-theme="dark"] .refinery-KS4S5srdaYqLoF1P1dM89 .edge-UNKNOWN .edge-line{stroke:#abb2bf;}[data-theme="dark"] .refinery-KS4S5srdaYqLoF1P1dM89 .edge-UNKNOWN .edge-arrow{fill:none;}[data-theme="dark"] .refinery-KS4S5srdaYqLoF1P1dM89 .edge-ERROR text{fill:#e06c75;}[data-theme="dark"] .refinery-KS4S5srdaYqLoF1P1dM89 .edge-ERROR .edge-line{stroke:#e06c75;}[data-theme="dark"] .refinery-KS4S5srdaYqLoF1P1dM89 .edge-ERROR .edge-arrow{fill:#e06c75;}[data-theme="dark"] .refinery-KS4S5srdaYqLoF1P1dM89 .icon-TRUE{fill:#ebebff;}[data-theme="dark"] .refinery-KS4S5srdaYqLoF1P1dM89 .icon-UNKNOWN{fill:#abb2bf;}[data-theme="dark"] .refinery-KS4S5srdaYqLoF1P1dM89 .icon-ERROR{fill:#e06c75;}[data-theme="dark"] .refinery-KS4S5srdaYqLoF1P1dM89 text.label-UNKNOWN{fill:#abb2bf;}[data-theme="dark"] .refinery-KS4S5srdaYqLoF1P1dM89 text.label-ERROR{fill:#e06c75;}</style><defs><svg xmlns="http://www.w3.org/2000/svg" width="24" height="24" viewBox="0 0 24 24" id="refinery-KS4S5srdaYqLoF1P1dM89-icon-TRUE" class="icon-TRUE"><path d="M17.63 5.84C17.27 5.33 16.67 5 16 5L5 5.01C3.9 5.01 3 5.9 3 7v10c0 1.1.9 1.99 2 1.99L16 19c.67 0 1.27-.33 1.63-.84L22 12l-4.37-6.16z"/></svg><svg xmlns="http://www.w3.org/2000/svg" width="24" height="24" viewBox="0 0 24 24" id="refinery-KS4S5srdaYqLoF1P1dM89-icon-UNKNOWN" class="icon-UNKNOWN"><path d="M17.63 5.84C17.27 5.33 16.67 5 16 5L5 5.01C3.9 5.01 3 5.9 3 7v10c0 1.1.9 1.99 2 1.99L16 19c.67 0 1.27-.33 1.63-.84L22 12l-4.37-6.16zM16 17H5V7h11l3.55 5L16 17z"/></svg><svg xmlns="http://www.w3.org/2000/svg" width="24" height="24" viewBox="0 0 24 24" id="refinery-KS4S5srdaYqLoF1P1dM89-icon-ERROR" class="icon-ERROR"><path d="M12 2C6.47 2 2 6.47 2 12s4.47 10 10 10s10-4.47 10-10S17.53 2 12 2zm5 13.59L15.59 17L12 13.41L8.41 17L7 15.59L10.59 12L7 8.41L8.41 7L12 10.59L15.59 7L17 8.41L13.41 12L17 15.59z"/></svg></defs>
<g class="graph" transform="translate(4, 137.60000610351562)">
<!-- n0 -->
<g class="node node-NEW node-exists-UNKNOWN node-equalsSelf-UNKNOWN node-typeHash-h"><rect stroke="none" x="15.5" y="-42.5" width="76" height="49" rx="12.5" ry="12.5" class="node-shadow node-bg"/>

<rect stroke="none" x="10.1" y="-48.8" width="75.84" height="48.8" rx="12" ry="12" class="node-bg"/>
<rect stroke="none" x="6" y="-52" width="83" height="27" clip-path="url(#refinery-KS4S5srdaYqLoF1P1dM89-clip-0)" class="node-header"/>
<text text-anchor="start" x="15.1" y="-33" font-size="12.00">Vertex::new</text>
<use x="16.0957" y="-19.2" width="12" height="12" id="" class="icon icon-TRUE" href="#refinery-KS4S5srdaYqLoF1P1dM89-icon-TRUE"/>
<g><text text-anchor="start" x="32.1" y="-9.6" font-size="12.00" class="label label-TRUE">Vertex</text>
</g>
<polyline points="10.1,-25.4 85.94,-25.4" class="node-outline"/>
<rect fill="none" x="10.1" y="-48.8" width="75.84" height="48.8" rx="12" ry="12" class="node-outline"/>
<clipPath id="refinery-KS4S5srdaYqLoF1P1dM89-clip-0"><rect stroke="none" x="10.1" y="-48.8" width="75.84" height="48.8" rx="12" ry="12" class="node-bg"/></clipPath></g>
<!-- n1 -->
<g class="node node-NEW node-exists-UNKNOWN node-equalsSelf-UNKNOWN node-typeHash-i"><rect stroke="none" x="5.5" y="-127.5" width="97" height="49" rx="12.5" ry="12.5" class="node-shadow node-bg"/>

<rect stroke="none" x="0" y="-133.6" width="96.04" height="48.8" rx="12" ry="12" class="node-bg"/>
<rect stroke="none" x="-4" y="-137" width="104" height="27" clip-path="url(#refinery-KS4S5srdaYqLoF1P1dM89-clip-1)" class="node-header"/>
<text text-anchor="start" x="5" y="-117.8" font-size="12.00">Transition::new</text>
<use x="6" y="-104" width="12" height="12" id="" class="icon icon-TRUE" href="#refinery-KS4S5srdaYqLoF1P1dM89-icon-TRUE"/>
<g><text text-anchor="start" x="22" y="-94.4" font-size="12.00" class="label label-TRUE">Transition</text>
</g>
<polyline points="0,-110.2 96.04,-110.2" class="node-outline"/>
<rect fill="none" x="0" y="-133.6" width="96.04" height="48.8" rx="12" ry="12" class="node-outline"/>
<clipPath id="refinery-KS4S5srdaYqLoF1P1dM89-clip-1"><rect stroke="none" x="0" y="-133.6" width="96.04" height="48.8" rx="12" ry="12" class="node-bg"/></clipPath></g>
<!-- n1&#45;&gt;n0 -->
<g class="edge edge-UNKNOWN">

<path fill="none" stroke-dasharray="5,2" d="M41.9,-85.14C41.32,-77.31 41.14,-68.38 41.35,-59.86" class="edge-line"/>
<polygon points="44.84,-60.29 41.81,-50.14 37.85,-59.96 44.84,-60.29" class="edge-line edge-arrow"/>
<text text-anchor="middle" x="24.78" y="-70.26" font-size="10.50">source</text>
</g>
<!-- n1&#45;&gt;n0 -->
<g class="edge edge-UNKNOWN">

<path fill="none" stroke-dasharray="5,2" d="M54.14,-85.14C54.71,-77.31 54.9,-68.38 54.68,-59.86" class="edge-line"/>
<polygon points="58.19,-59.96 54.23,-50.14 51.2,-60.29 58.19,-59.96" class="edge-line edge-arrow"/>
<text text-anchor="middle" x="40.18" y="-57.66" font-size="10.50">target</text>
</g>
</g>
</svg>