<?xml version="1.0" encoding="UTF-8" standalone="no"?>
<svg width="250pt" height="157pt" viewBox="-6 -6 262.17999267578125 169.1999969482422" xmlns="http://www.w3.org/2000/svg" xmlns:xlink="http://www.w3.org/1999/xlink" class="refinery-yow0X_ZN3HQDi30KE0Sac"><style>.refinery-yow0X_ZN3HQDi30KE0Sac .node text{font-family:"Open Sans Variable","Open Sans","Roboto","Helvetica","Arial",sans-serif;fill:#19202b;}.refinery-yow0X_ZN3HQDi30KE0Sac .node .node-outline{stroke:#19202b;}.refinery-yow0X_ZN3HQDi30KE0Sac .node .node-header{fill:rgb(53, 161, 173);}.refinery-yow0X_ZN3HQDi30KE0Sac .node .node-bg{fill:#fff;}.refinery-yow0X_ZN3HQDi30KE0Sac .node-INDIVIDUAL .node-outline{stroke-width:2;}.refinery-yow0X_ZN3HQDi30KE0Sac .node-shadow.node-bg{fill:#19202b;opacity:0.24;}.refinery-yow0X_ZN3HQDi30KE0Sac .node-exists-UNKNOWN .node-outline{stroke-dasharray:5 2;}.refinery-yow0X_ZN3HQDi30KE0Sac .node-typeHash-g .node-header{fill:#e5c07b;}.refinery-yow0X_ZN3HQDi30KE0Sac .node-typeHash-h .node-header{fill:#e06c75;}.refinery-yow0X_ZN3HQDi30KE0Sac .node-typeHash-i .node-header{fill:#98c379;}.refinery-yow0X_ZN3HQDi30KE0Sac .node-typeHash-j .node-header{fill:#c678dd;}.refinery-yow0X_ZN3HQDi30KE0Sac .node-typeHash-k .node-header{fill:#80a7f4;}.refinery-yow0X_ZN3HQDi30KE0Sac .node-typeHash-l .node-header{fill:#e3d1b2;}.refinery-yow0X_ZN3HQDi30KE0Sac .node-typeHash-m .node-header{fill:#e78b8f;}.refinery-yow0X_ZN3HQDi30KE0Sac .node-typeHash-n .node-header{fill:#abcc94;}.refinery-yow0X_ZN3HQDi30KE0Sac .node-typeHash-o .node-header{fill:#dbb2e8;}.refinery-yow0X_ZN3HQDi30KE0Sac .node-typeHash-p .node-header{fill:#92c0e9;}.refinery-yow0X_ZN3HQDi30KE0Sac .edge text{font-family:"Open Sans Variable","Open Sans","Roboto","Helvetica","Arial",sans-serif;fill:#19202b;}.refinery-yow0X_ZN3HQDi30KE0Sac .edge .edge-line{stroke:#19202b;}.refinery-yow0X_ZN3HQDi30KE0Sac .edge .edge-arrow{fill:#19202b;}.refinery-yow0X_ZN3HQDi30KE0Sac .edge-UNKNOWN text{fill:#696c77;}.refinery-yow0X_ZN3HQDi30KE0Sac .edge-UNKNOWN .edge-line{stroke:#696c77;}.refinery-yow0X_ZN3HQDi30KE0Sac .edge-UNKNOWN .edge-arrow{fill:none;}.refinery-yow0X_ZN3HQDi30KE0Sac .edge-ERROR text{fill:#ca1243;}.refinery-yow0X_ZN3HQDi30KE0Sac .edge-ERROR .edge-line{stroke:#ca1243;}.refinery-yow0X_ZN3HQDi30KE0Sac .edge-ERROR .edge-arrow{fill:#ca1243;}.refinery-yow0X_ZN3HQDi30KE0Sac .icon-TRUE{fill:#19202b;}.refinery-yow0X_ZN3HQDi30KE0Sac .icon-UNKNOWN{fill:#696c77;}.refinery-yow0X_ZN3HQDi30KE0Sac .icon-ERROR{fill:#ca1243;}.refinery-yow0X_ZN3HQDi30KE0Sac text.label-UNKNOWN{fill:#696c77;}.refinery-yow0X_ZN3HQDi30KE0Sac text.label-ERROR{fill:#ca1243;}[data-theme="dark"] .refinery-yow0X_ZN3HQDi30KE0Sac .node text{font-family:"Open Sans Variable","Open Sans","Roboto","Helvetica","Arial",sans-serif;fill:#ebebff;}[data-theme="dark"] .refinery-yow0X_ZN3HQDi30KE0Sac .node .node-outline{stroke:#ebebff;}[data-theme="dark"] .refinery-yow0X_ZN3HQDi30KE0Sac .node .node-header{fill:rgb(60, 127, 135);}[data-theme="dark"] .refinery-yow0X_ZN3HQDi30KE0Sac .node .node-bg{fill:#282c34;}[data-theme="dark"] .refinery-yow0X_ZN3HQDi30KE0Sac .node-INDIVIDUAL .node-outline{stroke-width:2;}[data-theme="dark"] .refinery-yow0X_ZN3HQDi30KE0Sac .node-shadow.node-bg{fill:#ebebff;opacity:0.32;}[data-theme="dark"] .refinery-yow0X_ZN3HQDi30KE0Sac .node-exists-UNKNOWN .node-outline{stroke-dasharray:5 2;}[data-theme="dark"] .refinery-yow0X_ZN3HQDi30KE0Sac .node-typeHash-g .node-header{fill:#ae8003;}[data-theme="dark"] .refinery-yow0X_ZN3HQDi30KE0Sac .node-typeHash-h .node-header{fill:#a23b47;}[data-theme="dark"] .refinery-yow0X_ZN3HQDi30KE0Sac .node-typeHash-i .node-header{fill:#428141;}[data-theme="dark"] .refinery-yow0X_ZN3HQDi30KE0Sac .node-typeHash-j .node-header{fill:#854797;}[data-theme="dark"] .refinery-yow0X_ZN3HQDi30KE0Sac .node-typeHash-k .node-header{fill:#3982bb;}[data-theme="dark"] .refinery-yow0X_ZN3HQDi30KE0Sac .node-typeHash-l .node-header{fill:#827662;}[data-theme="dark"] .refinery-yow0X_ZN3HQDi30KE0Sac .node-typeHash-m .node-header{fill:#904f53;}[data-theme="dark"] .refinery-yow0X_ZN3HQDi30KE0Sac .node-typeHash-n .node-header{fill:#647e63;}[data-theme="dark"] .refinery-yow0X_ZN3HQDi30KE0Sac .node-typeHash-o .node-header{fill:#805f89;}[data-theme="dark"] .refinery-yow0X_ZN3HQDi30KE0Sac .node-typeHash-p .node-header{fill:#4f7799;}[data-theme="dark"] .refinery-yow0X_ZN3HQDi30KE0Sac .edge text{font-family:"Open Sans Variable","Open Sans","Roboto","Helvetica","Arial",sans-serif;fill:#ebebff;}[data-theme="dark"] .refinery-yow0X_ZN3HQDi30KE0Sac .edge .edge-line{stroke:#ebebff;}[data-theme="dark"] .refinery-yow0X_ZN3HQDi30KE0Sac .edge .edge-arrow{fill:#ebebff;}[data-theme="dark"] .refinery-yow0X_ZN3HQDi30KE0Sac .edge-UNKNOWN text{fill:#abb2bf;}[data-theme="dark"] .refinery-yow0X_ZN3HQDi30KE0Sac .edge-UNKNOWN .edge-line{stroke:#abb2bf;}[data-theme="dark"] .refinery-yow0X_ZN3HQDi30KE0Sac .edge-UNKNOWN .edge-arrow{fill:none;}[data-theme="dark"] .refinery-yow0X_ZN3HQDi30KE0Sac .edge-ERROR text{fill:#e06c75;}[data-theme="dark"] .refinery-yow0X_ZN3HQDi30KE0Sac .edge-ERROR .edge-line{stroke:#e06c75;}[data-theme="dark"] .refinery-yow0X_ZN3HQDi30KE0Sac .edge-ERROR .edge-arrow{fill:#e06c75;}[data-theme="dark"] .refinery-yow0X_ZN3HQDi30KE0Sac .icon-TRUE{fill:#ebebff;}[data-theme="dark"] .refinery-yow0X_ZN3HQDi30KE0Sac .icon-UNKNOWN{fill:#abb2bf;}[data-theme="dark"] .refinery-yow0X_ZN3HQDi30KE0Sac .icon-ERROR{fill:#e06c75;}[data-theme="dark"] .refinery-yow0X_ZN3HQDi30KE0Sac text.label-UNKNOWN{fill:#abb2bf;}[data-theme="dark"] .refinery-yow0X_ZN3HQDi30KE0Sac text.label-ERROR{fill:#e06c75;}</style><defs><svg xmlns="http://www.w3.org/2000/svg" width="24" height="24" viewBox="0 0 24 24" id="refinery-yow0X_ZN3HQDi30KE0Sac-icon-TRUE" class="icon-TRUE"><path d="M17.63 5.84C17.27 5.33 16.67 5 16 5L5 5.01C3.9 5.01 3 5.9 3 7v10c0 1.1.9 1.99 2 1.99L16 19c.67 0 1.27-.33 1.63-.84L22 12l-4.37-6.16z"/></svg><svg xmlns="http://www.w3.org/2000/svg" width="24" height="24" viewBox="0 0 24 24" id="refinery-yow0X_ZN3HQDi30KE0Sac-icon-UNKNOWN" class="icon-UNKNOWN"><path d="M17.63 5.84C17.27 5.33 16.67 5 16 5L5 5.01C3.9 5.01 3 5.9 3 7v10c0 1.1.9 1.99 2 1.99L16 19c.67 0 1.27-.33 1.63-.84L22 12l-4.37-6.16zM16 17H5V7h11l3.55 5L16 17z"/></svg><svg xmlns="http://www.w3.org/2000/svg" width="24" height="24" viewBox="0 0 24 24" id="refinery-yow0X_ZN3HQDi30KE0Sac-icon-ERROR" class="icon-ERROR"><path d="M12 2C6.47 2 2 6.47 2 12s4.47 10 10 10s10-4.47 10-10S17.53 2 12 2zm5 13.59L15.59 17L12 13.41L8.41 17L7 15.59L10.59 12L7 8.41L8.41 7L12 10.59L15.59 7L17 8.41L13.41 12L17 15.59z"/></svg></defs>
<g class="graph" transform="translate(4, 153.1999969482422)">
<!-- n3 -->
<g class="node node-NEW node-exists-UNKNOWN node-equalsSelf-UNKNOWN node-typeHash-k"><rect stroke="none" x="6.5" y="-143.5" width="79" height="49" rx="12.5" ry="12.5" class="node-shadow node-bg"/>

<rect stroke="none" x="1.07" y="-149.2" width="78.19000000000001" height="48.79999999999998" rx="12" ry="12" class="node-bg"/>
<rect stroke="none" x="-3" y="-153" width="86" height="27" clip-path="url(#refinery-yow0X_ZN3HQDi30KE0Sac-clip-0)" class="node-header"/>
<text text-anchor="start" x="6.07" y="-133.4" font-size="12.00">Region::new</text>
<use x="7.07291" y="-119.6" width="12" height="12" id="" class="icon icon-TRUE" href="#refinery-yow0X_ZN3HQDi30KE0Sac-icon-TRUE"/>
<g><text text-anchor="start" x="23.07" y="-110" font-size="12.00" class="label label-TRUE">Region</text>
</g>
<polyline points="1.07,-125.8 79.26,-125.8" class="node-outline"/>
<rect fill="none" x="1.07" y="-149.2" width="78.19000000000001" height="48.79999999999998" rx="12" ry="12" class="node-outline"/>
<clipPath id="refinery-yow0X_ZN3HQDi30KE0Sac-clip-0"><rect stroke="none" x="1.07" y="-149.2" width="78.19000000000001" height="48.79999999999998" rx="12" ry="12" class="node-bg"/></clipPath></g>
<!-- n4 -->
<g class="node node-NEW node-exists-UNKNOWN node-equalsSelf-UNKNOWN node-typeHash-j"><rect stroke="none" x="14.5" y="-58.5" width="69" height="65" rx="12.5" ry="12.5" class="node-shadow node-bg"/>

<rect stroke="none" x="9.03" y="-64.4" width="68.28" height="64.4" rx="12" ry="12" class="node-bg"/>
<rect stroke="none" x="5" y="-68" width="76" height="27" clip-path="url(#refinery-yow0X_ZN3HQDi30KE0Sac-clip-1)" class="node-header"/>
<text text-anchor="start" x="14.03" y="-48.6" font-size="12.00">State::new</text>
<use x="15.027" y="-35" width="12" height="12" id="" class="icon icon-TRUE" href="#refinery-yow0X_ZN3HQDi30KE0Sac-icon-TRUE"/>
<g><text text-anchor="start" x="31.01" y="-25.2" font-size="12.00" class="label label-TRUE">Vertex</text>
</g>
<use x="15.027" y="-19" width="12" height="12" id="" class="icon icon-TRUE" href="#refinery-yow0X_ZN3HQDi30KE0Sac-icon-TRUE"/>
<g><text text-anchor="start" x="31.03" y="-9.2" font-size="12.00" class="label label-TRUE">State</text>
</g>
<polyline points="9.03,-41 77.31,-41" class="node-outline"/>
<rect fill="none" x="9.03" y="-64.4" width="68.28" height="64.4" rx="12" ry="12" class="node-outline"/>
<clipPath id="refinery-yow0X_ZN3HQDi30KE0Sac-clip-1"><rect stroke="none" x="9.03" y="-64.4" width="68.28" height="64.4" rx="12" ry="12" class="node-bg"/></clipPath></g>
<!-- n3&#45;&gt;n4 -->
<g class="edge edge-UNKNOWN">

<path fill="none" stroke-width="2" stroke-dasharray="5,2" d="M40.94,-100.47C41.19,-92.98 41.47,-84.45 41.75,-76.02" class="edge-line"/>
<polygon stroke-width="2" points="44.81,-76.18 42.04,-67.34 38.69,-75.98 44.81,-76.18" class="edge-line edge-arrow"/>
<text text-anchor="start" x="0" y="-86.89" font-weight="bold" font-size="10.50">vertices</text>
</g>
<!-- n8 -->
<!-- n4 -->
<g class="node node-IMPLICIT node-exists-TRUE node-equalsSelf-TRUE node-typeHash-h">

<rect stroke="none" x="96.17" y="-64.4" width="63.999999999999986" height="64.4" rx="12" ry="12" class="node-bg"/>
<rect stroke="none" x="92" y="-68" width="71" height="27" clip-path="url(#refinery-yow0X_ZN3HQDi30KE0Sac-clip-2)" class="node-header"/>
<text text-anchor="start" x="121.73" y="-48.6" font-size="12.00">v1</text>
<use x="102.169" y="-35" width="12" height="12" id="" class="icon icon-TRUE" href="#refinery-yow0X_ZN3HQDi30KE0Sac-icon-TRUE"/>
<g><text text-anchor="start" x="118.15" y="-25.2" font-size="12.00" class="label label-TRUE">Vertex</text>
</g>
<use x="102.169" y="-19" width="12" height="12" id="" class="icon icon-UNKNOWN" href="#refinery-yow0X_ZN3HQDi30KE0Sac-icon-UNKNOWN"/>
<g><text text-anchor="start" x="118.17" y="-9.2" font-size="12.00" class="label label-UNKNOWN">State</text>
</g>
<polyline points="96.17,-41 160.17,-41" class="node-outline"/>
<rect fill="none" x="96.17" y="-64.4" width="63.999999999999986" height="64.4" rx="12" ry="12" class="node-outline"/>
<clipPath id="refinery-yow0X_ZN3HQDi30KE0Sac-clip-2"><rect stroke="none" x="96.17" y="-64.4" width="63.999999999999986" height="64.4" rx="12" ry="12" class="node-bg"/></clipPath></g><!-- n0&#45;&gt;n3 -->
<g class="node node-IMPLICIT node-exists-TRUE node-equalsSelf-TRUE node-typeHash-k">

<rect stroke="none" x="96.98" y="-149.2" width="66.38000000000001" height="48.79999999999998" rx="12" ry="12" class="node-bg"/>
<rect stroke="none" x="92" y="-153" width="74" height="27" clip-path="url(#refinery-yow0X_ZN3HQDi30KE0Sac-clip-3)" class="node-header"/>
<text text-anchor="start" x="124.29" y="-133.4" font-size="12.00">r1</text>
<use x="102.982" y="-119.6" width="12" height="12" id="" class="icon icon-TRUE" href="#refinery-yow0X_ZN3HQDi30KE0Sac-icon-TRUE"/>
<g><text text-anchor="start" x="118.98" y="-110" font-size="12.00" class="label label-TRUE">Region</text>
</g>
<polyline points="96.98,-125.8 163.36,-125.8" class="node-outline"/>
<rect fill="none" x="96.98" y="-149.2" width="66.38000000000001" height="48.79999999999998" rx="12" ry="12" class="node-outline"/>
<clipPath id="refinery-yow0X_ZN3HQDi30KE0Sac-clip-3"><rect stroke="none" x="96.98" y="-149.2" width="66.38000000000001" height="48.79999999999998" rx="12" ry="12" class="node-bg"/></clipPath></g><g class="node node-IMPLICIT node-exists-TRUE node-equalsSelf-TRUE node-typeHash-h">

<rect stroke="none" x="178.15" y="-56.6" width="64.03" height="48.800000000000004" rx="12" ry="12" class="node-bg"/>
<rect stroke="none" x="174" y="-60" width="72" height="27" clip-path="url(#refinery-yow0X_ZN3HQDi30KE0Sac-clip-4)" class="node-header"/>
<text text-anchor="start" x="203.73" y="-40.8" font-size="12.00">v2</text>
<use x="184.154" y="-27" width="12" height="12" id="" class="icon icon-TRUE" href="#refinery-yow0X_ZN3HQDi30KE0Sac-icon-TRUE"/>
<g><text text-anchor="start" x="200.15" y="-17.4" font-size="12.00" class="label label-TRUE">Vertex</text>
</g>


<polyline points="178.15,-33.2 242.18,-33.2" class="node-outline"/><rect fill="none" x="178.15" y="-56.6" width="64.03" height="48.800000000000004" rx="12" ry="12" class="node-outline"/><clipPath id="refinery-yow0X_ZN3HQDi30KE0Sac-clip-4"><rect stroke="none" x="178.15" y="-56.6" width="64.03" height="48.800000000000004" rx="12" ry="12" class="node-bg"/></clipPath></g>
<g class="edge edge-UNKNOWN">

<path fill="none" stroke-width="2" stroke-dasharray="5,2" d="M107.76,-100.47C99.59,-91.95 90.1,-82.07 80.95,-72.55" class="edge-line"/>
<polygon stroke-width="2" points="83.41,-70.68 75.14,-66.49 78.99,-74.93 83.41,-70.68" class="edge-line edge-arrow"/>
<text text-anchor="start" x="48.91" y="-86.57" font-weight="bold" font-size="10.50">vertices</text>
</g>
<!-- n2&#45;&gt;n0 -->

<!-- n3&#45;&gt;n0 -->

<!-- n3&#45;&gt;n4 -->

<g class="edge edge-TRUE">

<path fill="none" stroke-width="2" d="M129.65,-100.47C129.49,-92.98 129.3,-84.45 129.11,-76.02" class="edge-line"/>
<polygon stroke-width="2" points="132.18,-76.02 128.92,-67.34 126.05,-76.15 132.18,-76.02" class="edge-line edge-arrow"/>
<text text-anchor="start" x="129.26" y="-86.89" font-weight="bold" font-size="10.50">vertices</text>
</g>
<g class="edge edge-TRUE">

<path fill="none" stroke-width="2" d="M150.77,-100.47C160.29,-89.69 171.74,-76.72 182.04,-65.06" class="edge-line"/>
<polygon stroke-width="2" points="184.14,-67.31 187.63,-58.72 179.55,-63.25 184.14,-67.31" class="edge-line edge-arrow"/>
<text text-anchor="start" x="128.85" y="-69.81" font-weight="bold" font-size="10.50">vertices</text>
</g></g>
</svg>