<?xml version="1.0" encoding="UTF-8" standalone="no"?>
<svg width="327pt" height="157pt" viewBox="-6 -6 339.3299865722656 169.1999969482422" xmlns="http://www.w3.org/2000/svg" xmlns:xlink="http://www.w3.org/1999/xlink" class="refinery-p_2c2ycZZXd-I3Xg-BBah"><style>.refinery-p_2c2ycZZXd-I3Xg-BBah .node text{font-family:"Open Sans Variable","Open Sans","Roboto","Helvetica","Arial",sans-serif;fill:#19202b;}.refinery-p_2c2ycZZXd-I3Xg-BBah .node .node-outline{stroke:#19202b;}.refinery-p_2c2ycZZXd-I3Xg-BBah .node .node-header{fill:rgb(53, 161, 173);}.refinery-p_2c2ycZZXd-I3Xg-BBah .node .node-bg{fill:#fff;}.refinery-p_2c2ycZZXd-I3Xg-BBah .node-INDIVIDUAL .node-outline{stroke-width:2;}.refinery-p_2c2ycZZXd-I3Xg-BBah .node-shadow.node-bg{fill:#19202b;opacity:0.24;}.refinery-p_2c2ycZZXd-I3Xg-BBah .node-exists-UNKNOWN .node-outline{stroke-dasharray:5 2;}.refinery-p_2c2ycZZXd-I3Xg-BBah .node-typeHash-g .node-header{fill:#e5c07b;}.refinery-p_2c2ycZZXd-I3Xg-BBah .node-typeHash-h .node-header{fill:#e06c75;}.refinery-p_2c2ycZZXd-I3Xg-BBah .node-typeHash-i .node-header{fill:#98c379;}.refinery-p_2c2ycZZXd-I3Xg-BBah .node-typeHash-j .node-header{fill:#c678dd;}.refinery-p_2c2ycZZXd-I3Xg-BBah .node-typeHash-k .node-header{fill:#80a7f4;}.refinery-p_2c2ycZZXd-I3Xg-BBah .node-typeHash-l .node-header{fill:#e3d1b2;}.refinery-p_2c2ycZZXd-I3Xg-BBah .node-typeHash-m .node-header{fill:#e78b8f;}.refinery-p_2c2ycZZXd-I3Xg-BBah .node-typeHash-n .node-header{fill:#abcc94;}.refinery-p_2c2ycZZXd-I3Xg-BBah .node-typeHash-o .node-header{fill:#dbb2e8;}.refinery-p_2c2ycZZXd-I3Xg-BBah .node-typeHash-p .node-header{fill:#92c0e9;}.refinery-p_2c2ycZZXd-I3Xg-BBah .edge text{font-family:"Open Sans Variable","Open Sans","Roboto","Helvetica","Arial",sans-serif;fill:#19202b;}.refinery-p_2c2ycZZXd-I3Xg-BBah .edge .edge-line{stroke:#19202b;}.refinery-p_2c2ycZZXd-I3Xg-BBah .edge .edge-arrow{fill:#19202b;}.refinery-p_2c2ycZZXd-I3Xg-BBah .edge-UNKNOWN text{fill:#696c77;}.refinery-p_2c2ycZZXd-I3Xg-BBah .edge-UNKNOWN .edge-line{stroke:#696c77;}.refinery-p_2c2ycZZXd-I3Xg-BBah .edge-UNKNOWN .edge-arrow{fill:none;}.refinery-p_2c2ycZZXd-I3Xg-BBah .edge-ERROR text{fill:#ca1243;}.refinery-p_2c2ycZZXd-I3Xg-BBah .edge-ERROR .edge-line{stroke:#ca1243;}.refinery-p_2c2ycZZXd-I3Xg-BBah .edge-ERROR .edge-arrow{fill:#ca1243;}.refinery-p_2c2ycZZXd-I3Xg-BBah .icon-TRUE{fill:#19202b;}.refinery-p_2c2ycZZXd-I3Xg-BBah .icon-UNKNOWN{fill:#696c77;}.refinery-p_2c2ycZZXd-I3Xg-BBah .icon-ERROR{fill:#ca1243;}.refinery-p_2c2ycZZXd-I3Xg-BBah text.label-UNKNOWN{fill:#696c77;}.refinery-p_2c2ycZZXd-I3Xg-BBah text.label-ERROR{fill:#ca1243;}[data-theme="dark"] .refinery-p_2c2ycZZXd-I3Xg-BBah .node text{font-family:"Open Sans Variable","Open Sans","Roboto","Helvetica","Arial",sans-serif;fill:#ebebff;}[data-theme="dark"] .refinery-p_2c2ycZZXd-I3Xg-BBah .node .node-outline{stroke:#ebebff;}[data-theme="dark"] .refinery-p_2c2ycZZXd-I3Xg-BBah .node .node-header{fill:rgb(60, 127, 135);}[data-theme="dark"] .refinery-p_2c2ycZZXd-I3Xg-BBah .node .node-bg{fill:#282c34;}[data-theme="dark"] .refinery-p_2c2ycZZXd-I3Xg-BBah .node-INDIVIDUAL .node-outline{stroke-width:2;}[data-theme="dark"] .refinery-p_2c2ycZZXd-I3Xg-BBah .node-shadow.node-bg{fill:#ebebff;opacity:0.32;}[data-theme="dark"] .refinery-p_2c2ycZZXd-I3Xg-BBah .node-exists-UNKNOWN .node-outline{stroke-dasharray:5 2;}[data-theme="dark"] .refinery-p_2c2ycZZXd-I3Xg-BBah .node-typeHash-g .node-header{fill:#ae8003;}[data-theme="dark"] .refinery-p_2c2ycZZXd-I3Xg-BBah .node-typeHash-h .node-header{fill:#a23b47;}[data-theme="dark"] .refinery-p_2c2ycZZXd-I3Xg-BBah .node-typeHash-i .node-header{fill:#428141;}[data-theme="dark"] .refinery-p_2c2ycZZXd-I3Xg-BBah .node-typeHash-j .node-header{fill:#854797;}[data-theme="dark"] .refinery-p_2c2ycZZXd-I3Xg-BBah .node-typeHash-k .node-header{fill:#3982bb;}[data-theme="dark"] .refinery-p_2c2ycZZXd-I3Xg-BBah .node-typeHash-l .node-header{fill:#827662;}[data-theme="dark"] .refinery-p_2c2ycZZXd-I3Xg-BBah .node-typeHash-m .node-header{fill:#904f53;}[data-theme="dark"] .refinery-p_2c2ycZZXd-I3Xg-BBah .node-typeHash-n .node-header{fill:#647e63;}[data-theme="dark"] .refinery-p_2c2ycZZXd-I3Xg-BBah .node-typeHash-o .node-header{fill:#805f89;}[data-theme="dark"] .refinery-p_2c2ycZZXd-I3Xg-BBah .node-typeHash-p .node-header{fill:#4f7799;}[data-theme="dark"] .refinery-p_2c2ycZZXd-I3Xg-BBah .edge text{font-family:"Open Sans Variable","Open Sans","Roboto","Helvetica","Arial",sans-serif;fill:#ebebff;}[data-theme="dark"] .refinery-p_2c2ycZZXd-I3Xg-BBah .edge .edge-line{stroke:#ebebff;}[data-theme="dark"] .refinery-p_2c2ycZZXd-I3Xg-BBah .edge .edge-arrow{fill:#ebebff;}[data-theme="dark"] .refinery-p_2c2ycZZXd-I3Xg-BBah .edge-UNKNOWN text{fill:#abb2bf;}[data-theme="dark"] .refinery-p_2c2ycZZXd-I3Xg-BBah .edge-UNKNOWN .edge-line{stroke:#abb2bf;}[data-theme="dark"] .refinery-p_2c2ycZZXd-I3Xg-BBah .edge-UNKNOWN .edge-arrow{fill:none;}[data-theme="dark"] .refinery-p_2c2ycZZXd-I3Xg-BBah .edge-ERROR text{fill:#e06c75;}[data-theme="dark"] .refinery-p_2c2ycZZXd-I3Xg-BBah .edge-ERROR .edge-line{stroke:#e06c75;}[data-theme="dark"] .refinery-p_2c2ycZZXd-I3Xg-BBah .edge-ERROR .edge-arrow{fill:#e06c75;}[data-theme="dark"] .refinery-p_2c2ycZZXd-I3Xg-BBah .icon-TRUE{fill:#ebebff;}[data-theme="dark"] .refinery-p_2c2ycZZXd-I3Xg-BBah .icon-UNKNOWN{fill:#abb2bf;}[data-theme="dark"] .refinery-p_2c2ycZZXd-I3Xg-BBah .icon-ERROR{fill:#e06c75;}[data-theme="dark"] .refinery-p_2c2ycZZXd-I3Xg-BBah text.label-UNKNOWN{fill:#abb2bf;}[data-theme="dark"] .refinery-p_2c2ycZZXd-I3Xg-BBah text.label-ERROR{fill:#e06c75;}</style><defs><svg xmlns="http://www.w3.org/2000/svg" width="24" height="24" viewBox="0 0 24 24" id="refinery-p_2c2ycZZXd-I3Xg-BBah-icon-TRUE" class="icon-TRUE"><path d="M17.63 5.84C17.27 5.33 16.67 5 16 5L5 5.01C3.9 5.01 3 5.9 3 7v10c0 1.1.9 1.99 2 1.99L16 19c.67 0 1.27-.33 1.63-.84L22 12l-4.37-6.16z"/></svg><svg xmlns="http://www.w3.org/2000/svg" width="24" height="24" viewBox="0 0 24 24" id="refinery-p_2c2ycZZXd-I3Xg-BBah-icon-UNKNOWN" class="icon-UNKNOWN"><path d="M17.63 5.84C17.27 5.33 16.67 5 16 5L5 5.01C3.9 5.01 3 5.9 3 7v10c0 1.1.9 1.99 2 1.99L16 19c.67 0 1.27-.33 1.63-.84L22 12l-4.37-6.16zM16 17H5V7h11l3.55 5L16 17z"/></svg><svg xmlns="http://www.w3.org/2000/svg" width="24" height="24" viewBox="0 0 24 24" id="refinery-p_2c2ycZZXd-I3Xg-BBah-icon-ERROR" class="icon-ERROR"><path d="M12 2C6.47 2 2 6.47 2 12s4.47 10 10 10s10-4.47 10-10S17.53 2 12 2zm5 13.59L15.59 17L12 13.41L8.41 17L7 15.59L10.59 12L7 8.41L8.41 7L12 10.59L15.59 7L17 8.41L13.41 12L17 15.59z"/></svg></defs>
<g class="graph" transform="scale(1 1) rotate(0) translate(4 153.2)">
<!-- n0 -->

<!-- n2 -->
<g class="node node-NEW node-exists-UNKNOWN node-equalsSelf-UNKNOWN node-typeHash-j"><rect stroke="none" x="5.5" y="-58.5" width="69" height="65" rx="12.5" ry="12.5" class="node-shadow node-bg"/>

<rect stroke="none" x="0" y="-64.4" width="68.28" height="64.4" rx="12" ry="12" class="node-bg"/>
<rect stroke="none" x="-4" y="-68" width="76" height="27" clip-path="url(#refinery-p_2c2ycZZXd-I3Xg-BBah-clip-0)" class="node-header"/>
<text text-anchor="start" x="5" y="-48.6" font-size="12.00">State::new</text>
<use x="6" y="-35" width="12" height="12" id="" class="icon icon-TRUE" href="#refinery-p_2c2ycZZXd-I3Xg-BBah-icon-TRUE"/>
<g><text text-anchor="start" x="21.99" y="-25.2" font-size="12.00" class="label label-TRUE">Vertex</text>
</g>
<use x="6" y="-19" width="12" height="12" id="" class="icon icon-TRUE" href="#refinery-p_2c2ycZZXd-I3Xg-BBah-icon-TRUE"/>
<g><text text-anchor="start" x="22" y="-9.2" font-size="12.00" class="label label-TRUE">State</text>
</g>
<polyline points="0,-41 68.28,-41" class="node-outline"/>
<rect fill="none" x="0" y="-64.4" width="68.28" height="64.4" rx="12" ry="12" class="node-outline"/>
<clipPath id="refinery-p_2c2ycZZXd-I3Xg-BBah-clip-0"><rect stroke="none" x="0" y="-64.4" width="68.28" height="64.4" rx="12" ry="12" class="node-bg"/></clipPath></g>
<!-- n0&#45;&gt;n2 -->

<!-- n3 -->
<g class="node node-IMPLICIT node-exists-TRUE node-equalsSelf-TRUE node-typeHash-k">

<rect stroke="none" x="84.96" y="-149.2" width="66.37000000000002" height="48.79999999999998" rx="12" ry="12" class="node-bg"/>
<rect stroke="none" x="80" y="-153" width="74" height="27" clip-path="url(#refinery-p_2c2ycZZXd-I3Xg-BBah-clip-1)" class="node-header"/>
<text text-anchor="start" x="112.26" y="-133.4" font-size="12.00">r1</text>
<use x="90.9551" y="-119.6" width="12" height="12" id="" class="icon icon-TRUE" href="#refinery-p_2c2ycZZXd-I3Xg-BBah-icon-TRUE"/>
<g><text text-anchor="start" x="106.96" y="-110" font-size="12.00" class="label label-TRUE">Region</text>
</g>
<polyline points="84.96,-125.8 151.33,-125.8" class="node-outline"/>
<rect fill="none" x="84.96" y="-149.2" width="66.37000000000002" height="48.79999999999998" rx="12" ry="12" class="node-outline"/>
<clipPath id="refinery-p_2c2ycZZXd-I3Xg-BBah-clip-1"><rect stroke="none" x="84.96" y="-149.2" width="66.37000000000002" height="48.79999999999998" rx="12" ry="12" class="node-bg"/></clipPath></g>
<!-- n3&#45;&gt;n2 -->
<g class="edge edge-UNKNOWN">

<path fill="none" stroke-width="2" stroke-dasharray="5,2" d="M96.51,-100.47C88.69,-92.04 79.64,-82.27 70.89,-72.83" class="edge-line"/>
<polygon stroke-width="2" points="73.24,-70.86 65.04,-66.53 68.75,-75.03 73.24,-70.86" class="edge-line edge-arrow"/>
<text text-anchor="start" x="38.02" y="-86.32" font-weight="bold" font-size="10.50">vertices</text>
</g>
<!-- n4 -->
<g class="node node-IMPLICIT node-exists-TRUE node-equalsSelf-TRUE node-typeHash-h">

<rect stroke="none" x="86.14" y="-64.4" width="63.999999999999986" height="64.4" rx="12" ry="12" class="node-bg"/>
<rect stroke="none" x="82" y="-68" width="71" height="27" clip-path="url(#refinery-p_2c2ycZZXd-I3Xg-BBah-clip-2)" class="node-header"/>
<text text-anchor="start" x="111.71" y="-48.6" font-size="12.00">v1</text>
<use x="92.1416" y="-35" width="12" height="12" id="" class="icon icon-TRUE" href="#refinery-p_2c2ycZZXd-I3Xg-BBah-icon-TRUE"/>
<g><text text-anchor="start" x="108.13" y="-25.2" font-size="12.00" class="label label-TRUE">Vertex</text>
</g>
<use x="92.1416" y="-19" width="12" height="12" id="" class="icon icon-UNKNOWN" href="#refinery-p_2c2ycZZXd-I3Xg-BBah-icon-UNKNOWN"/>
<g><text text-anchor="start" x="108.14" y="-9.2" font-size="12.00" class="label label-UNKNOWN">State</text>
</g>
<polyline points="86.14,-41 150.14,-41" class="node-outline"/>
<rect fill="none" x="86.14" y="-64.4" width="63.999999999999986" height="64.4" rx="12" ry="12" class="node-outline"/>
<clipPath id="refinery-p_2c2ycZZXd-I3Xg-BBah-clip-2"><rect stroke="none" x="86.14" y="-64.4" width="63.999999999999986" height="64.4" rx="12" ry="12" class="node-bg"/></clipPath></g>
<!-- n3&#45;&gt;n4 -->
<g class="edge edge-TRUE">

<path fill="none" stroke-width="2" d="M118.14,-100.47C118.14,-92.98 118.14,-84.45 118.14,-76.02" class="edge-line"/>
<polygon stroke-width="2" points="121.2,-76.09 118.14,-67.34 115.08,-76.09 121.2,-76.09" class="edge-line edge-arrow"/>
<text text-anchor="start" x="118.14" y="-86.89" font-weight="bold" font-size="10.50">vertices</text>
</g>
<!-- n5 -->
<g class="node node-IMPLICIT node-exists-TRUE node-equalsSelf-TRUE node-typeHash-k">

<rect stroke="none" x="168.96" y="-149.2" width="66.37" height="48.79999999999998" rx="12" ry="12" class="node-bg"/>
<rect stroke="none" x="164" y="-153" width="74" height="27" clip-path="url(#refinery-p_2c2ycZZXd-I3Xg-BBah-clip-3)" class="node-header"/>
<text text-anchor="start" x="196.26" y="-133.4" font-size="12.00">r2</text>
<use x="174.955" y="-119.6" width="12" height="12" id="" class="icon icon-TRUE" href="#refinery-p_2c2ycZZXd-I3Xg-BBah-icon-TRUE"/>
<g><text text-anchor="start" x="190.96" y="-110" font-size="12.00" class="label label-TRUE">Region</text>
</g>
<polyline points="168.96,-125.8 235.33,-125.8" class="node-outline"/>
<rect fill="none" x="168.96" y="-149.2" width="66.37" height="48.79999999999998" rx="12" ry="12" class="node-outline"/>
<clipPath id="refinery-p_2c2ycZZXd-I3Xg-BBah-clip-3"><rect stroke="none" x="168.96" y="-149.2" width="66.37" height="48.79999999999998" rx="12" ry="12" class="node-bg"/></clipPath></g>
<!-- n6 -->
<g class="node node-IMPLICIT node-exists-TRUE node-equalsSelf-TRUE node-typeHash-h">

<rect stroke="none" x="170.14" y="-64.4" width="64" height="64.4" rx="12" ry="12" class="node-bg"/>
<rect stroke="none" x="166" y="-68" width="72" height="27" clip-path="url(#refinery-p_2c2ycZZXd-I3Xg-BBah-clip-4)" class="node-header"/>
<text text-anchor="start" x="195.71" y="-48.6" font-size="12.00">v2</text>
<use x="176.142" y="-35" width="12" height="12" id="" class="icon icon-TRUE" href="#refinery-p_2c2ycZZXd-I3Xg-BBah-icon-TRUE"/>
<g><text text-anchor="start" x="192.13" y="-25.2" font-size="12.00" class="label label-TRUE">Vertex</text>
</g>
<use x="176.142" y="-19" width="12" height="12" id="" class="icon icon-UNKNOWN" href="#refinery-p_2c2ycZZXd-I3Xg-BBah-icon-UNKNOWN"/>
<g><text text-anchor="start" x="192.14" y="-9.2" font-size="12.00" class="label label-UNKNOWN">State</text>
</g>
<polyline points="170.14,-41 234.14,-41" class="node-outline"/>
<rect fill="none" x="170.14" y="-64.4" width="64" height="64.4" rx="12" ry="12" class="node-outline"/>
<clipPath id="refinery-p_2c2ycZZXd-I3Xg-BBah-clip-4"><rect stroke="none" x="170.14" y="-64.4" width="64" height="64.4" rx="12" ry="12" class="node-bg"/></clipPath></g>
<!-- n5&#45;&gt;n6 -->
<g class="edge edge-TRUE">

<path fill="none" stroke-width="2" d="M202.14,-100.47C202.14,-92.98 202.14,-84.45 202.14,-76.02" class="edge-line"/>
<polygon stroke-width="2" points="205.2,-76.09 202.14,-67.34 199.08,-76.09 205.2,-76.09" class="edge-line edge-arrow"/>
<text text-anchor="start" x="160.61" y="-86.89" font-weight="bold" font-size="10.50">vertices</text>
</g><g class="node node-IMPLICIT node-exists-TRUE node-equalsSelf-TRUE node-typeHash-h">

<rect stroke="none" x="254.14" y="-64.4" width="64" height="64.4" rx="12" ry="12" class="node-bg"/>
<rect stroke="none" x="250" y="-68" width="72" height="27" clip-path="url(#refinery-p_2c2ycZZXd-I3Xg-BBah-clip-5)" class="node-header"/>
<text text-anchor="start" x="279.71" y="-48.6" font-size="12.00">v3</text>
<use x="260.142" y="-35" width="12" height="12" id="" class="icon icon-TRUE" href="#refinery-p_2c2ycZZXd-I3Xg-BBah-icon-TRUE"/>
<g><text text-anchor="start" x="276.13" y="-25.2" font-size="12.00" class="label label-TRUE">Vertex</text>
</g>
<use x="260.142" y="-19" width="12" height="12" id="" class="icon icon-UNKNOWN" href="#refinery-p_2c2ycZZXd-I3Xg-BBah-icon-UNKNOWN"/>
<g><text text-anchor="start" x="276.14" y="-9.2" font-size="12.00" class="label label-UNKNOWN">State</text>
</g>
<polyline points="254.14,-41 318.14,-41" class="node-outline"/>
<rect fill="none" x="254.14" y="-64.4" width="64" height="64.4" rx="12" ry="12" class="node-outline"/>
<clipPath id="refinery-p_2c2ycZZXd-I3Xg-BBah-clip-5"><rect stroke="none" x="254.14" y="-64.4" width="64" height="64.4" rx="12" ry="12" class="node-bg"/></clipPath></g>
<g class="node node-IMPLICIT node-exists-TRUE node-equalsSelf-TRUE node-typeHash-k">

<rect stroke="none" x="252.96" y="-149.2" width="66.36999999999998" height="48.79999999999998" rx="12" ry="12" class="node-bg"/>
<rect stroke="none" x="248" y="-153" width="74" height="27" clip-path="url(#refinery-p_2c2ycZZXd-I3Xg-BBah-clip-6)" class="node-header"/>
<text text-anchor="start" x="280.26" y="-133.4" font-size="12.00">r3</text>
<use x="258.955" y="-119.6" width="12" height="12" id="" class="icon icon-TRUE" href="#refinery-p_2c2ycZZXd-I3Xg-BBah-icon-TRUE"/>
<g><text text-anchor="start" x="274.96" y="-110" font-size="12.00" class="label label-TRUE">Region</text>
</g>
<polyline points="252.96,-125.8 319.33,-125.8" class="node-outline"/>
<rect fill="none" x="252.96" y="-149.2" width="66.36999999999998" height="48.79999999999998" rx="12" ry="12" class="node-outline"/>
<clipPath id="refinery-p_2c2ycZZXd-I3Xg-BBah-clip-6"><rect stroke="none" x="252.96" y="-149.2" width="66.36999999999998" height="48.79999999999998" rx="12" ry="12" class="node-bg"/></clipPath></g><!-- n7&#45;&gt;n8 -->
<g class="edge edge-TRUE">

<path fill="none" stroke-width="2" d="M286.14,-100.47C286.14,-92.98 286.14,-84.45 286.14,-76.02" class="edge-line"/>
<polygon stroke-width="2" points="289.2,-76.09 286.14,-67.34 283.08,-76.09 289.2,-76.09" class="edge-line edge-arrow"/>
<text text-anchor="start" x="244.61" y="-86.89" font-weight="bold" font-size="10.50">vertices</text>
</g>
</g>
</svg>