<?xml version="1.0" encoding="UTF-8" standalone="no"?>
<svg width="246pt" height="157pt" viewBox="-6 -6 258.2899932861328 169.1999969482422" xmlns="http://www.w3.org/2000/svg" xmlns:xlink="http://www.w3.org/1999/xlink" class="refinery-J5TgkNWMX1Aj-K6cbPdd9"><style>.refinery-J5TgkNWMX1Aj-K6cbPdd9 .node text{font-family:"Open Sans Variable","Open Sans","Roboto","Helvetica","Arial",sans-serif;fill:#19202b;}.refinery-J5TgkNWMX1Aj-K6cbPdd9 .node .node-outline{stroke:#19202b;}.refinery-J5TgkNWMX1Aj-K6cbPdd9 .node .node-header{fill:rgb(53, 161, 173);}.refinery-J5TgkNWMX1Aj-K6cbPdd9 .node .node-bg{fill:#fff;}.refinery-J5TgkNWMX1Aj-K6cbPdd9 .node-INDIVIDUAL .node-outline{stroke-width:2;}.refinery-J5TgkNWMX1Aj-K6cbPdd9 .node-shadow.node-bg{fill:#19202b;opacity:0.24;}.refinery-J5TgkNWMX1Aj-K6cbPdd9 .node-exists-UNKNOWN .node-outline{stroke-dasharray:5 2;}.refinery-J5TgkNWMX1Aj-K6cbPdd9 .node-typeHash-g .node-header{fill:#e5c07b;}.refinery-J5TgkNWMX1Aj-K6cbPdd9 .node-typeHash-h .node-header{fill:#e06c75;}.refinery-J5TgkNWMX1Aj-K6cbPdd9 .node-typeHash-i .node-header{fill:#98c379;}.refinery-J5TgkNWMX1Aj-K6cbPdd9 .node-typeHash-j .node-header{fill:#c678dd;}.refinery-J5TgkNWMX1Aj-K6cbPdd9 .node-typeHash-k .node-header{fill:#80a7f4;}.refinery-J5TgkNWMX1Aj-K6cbPdd9 .node-typeHash-l .node-header{fill:#e3d1b2;}.refinery-J5TgkNWMX1Aj-K6cbPdd9 .node-typeHash-m .node-header{fill:#e78b8f;}.refinery-J5TgkNWMX1Aj-K6cbPdd9 .node-typeHash-n .node-header{fill:#abcc94;}.refinery-J5TgkNWMX1Aj-K6cbPdd9 .node-typeHash-o .node-header{fill:#dbb2e8;}.refinery-J5TgkNWMX1Aj-K6cbPdd9 .node-typeHash-p .node-header{fill:#92c0e9;}.refinery-J5TgkNWMX1Aj-K6cbPdd9 .edge text{font-family:"Open Sans Variable","Open Sans","Roboto","Helvetica","Arial",sans-serif;fill:#19202b;}.refinery-J5TgkNWMX1Aj-K6cbPdd9 .edge .edge-line{stroke:#19202b;}.refinery-J5TgkNWMX1Aj-K6cbPdd9 .edge .edge-arrow{fill:#19202b;}.refinery-J5TgkNWMX1Aj-K6cbPdd9 .edge-UNKNOWN text{fill:#696c77;}.refinery-J5TgkNWMX1Aj-K6cbPdd9 .edge-UNKNOWN .edge-line{stroke:#696c77;}.refinery-J5TgkNWMX1Aj-K6cbPdd9 .edge-UNKNOWN .edge-arrow{fill:none;}.refinery-J5TgkNWMX1Aj-K6cbPdd9 .edge-ERROR text{fill:#ca1243;}.refinery-J5TgkNWMX1Aj-K6cbPdd9 .edge-ERROR .edge-line{stroke:#ca1243;}.refinery-J5TgkNWMX1Aj-K6cbPdd9 .edge-ERROR .edge-arrow{fill:#ca1243;}.refinery-J5TgkNWMX1Aj-K6cbPdd9 .icon-TRUE{fill:#19202b;}.refinery-J5TgkNWMX1Aj-K6cbPdd9 .icon-UNKNOWN{fill:#696c77;}.refinery-J5TgkNWMX1Aj-K6cbPdd9 .icon-ERROR{fill:#ca1243;}.refinery-J5TgkNWMX1Aj-K6cbPdd9 text.label-UNKNOWN{fill:#696c77;}.refinery-J5TgkNWMX1Aj-K6cbPdd9 text.label-ERROR{fill:#ca1243;}[data-theme="dark"] .refinery-J5TgkNWMX1Aj-K6cbPdd9 .node text{font-family:"Open Sans Variable","Open Sans","Roboto","Helvetica","Arial",sans-serif;fill:#ebebff;}[data-theme="dark"] .refinery-J5TgkNWMX1Aj-K6cbPdd9 .node .node-outline{stroke:#ebebff;}[data-theme="dark"] .refinery-J5TgkNWMX1Aj-K6cbPdd9 .node .node-header{fill:rgb(60, 127, 135);}[data-theme="dark"] .refinery-J5TgkNWMX1Aj-K6cbPdd9 .node .node-bg{fill:#282c34;}[data-theme="dark"] .refinery-J5TgkNWMX1Aj-K6cbPdd9 .node-INDIVIDUAL .node-outline{stroke-width:2;}[data-theme="dark"] .refinery-J5TgkNWMX1Aj-K6cbPdd9 .node-shadow.node-bg{fill:#ebebff;opacity:0.32;}[data-theme="dark"] .refinery-J5TgkNWMX1Aj-K6cbPdd9 .node-exists-UNKNOWN .node-outline{stroke-dasharray:5 2;}[data-theme="dark"] .refinery-J5TgkNWMX1Aj-K6cbPdd9 .node-typeHash-g .node-header{fill:#ae8003;}[data-theme="dark"] .refinery-J5TgkNWMX1Aj-K6cbPdd9 .node-typeHash-h .node-header{fill:#a23b47;}[data-theme="dark"] .refinery-J5TgkNWMX1Aj-K6cbPdd9 .node-typeHash-i .node-header{fill:#428141;}[data-theme="dark"] .refinery-J5TgkNWMX1Aj-K6cbPdd9 .node-typeHash-j .node-header{fill:#854797;}[data-theme="dark"] .refinery-J5TgkNWMX1Aj-K6cbPdd9 .node-typeHash-k .node-header{fill:#3982bb;}[data-theme="dark"] .refinery-J5TgkNWMX1Aj-K6cbPdd9 .node-typeHash-l .node-header{fill:#827662;}[data-theme="dark"] .refinery-J5TgkNWMX1Aj-K6cbPdd9 .node-typeHash-m .node-header{fill:#904f53;}[data-theme="dark"] .refinery-J5TgkNWMX1Aj-K6cbPdd9 .node-typeHash-n .node-header{fill:#647e63;}[data-theme="dark"] .refinery-J5TgkNWMX1Aj-K6cbPdd9 .node-typeHash-o .node-header{fill:#805f89;}[data-theme="dark"] .refinery-J5TgkNWMX1Aj-K6cbPdd9 .node-typeHash-p .node-header{fill:#4f7799;}[data-theme="dark"] .refinery-J5TgkNWMX1Aj-K6cbPdd9 .edge text{font-family:"Open Sans Variable","Open Sans","Roboto","Helvetica","Arial",sans-serif;fill:#ebebff;}[data-theme="dark"] .refinery-J5TgkNWMX1Aj-K6cbPdd9 .edge .edge-line{stroke:#ebebff;}[data-theme="dark"] .refinery-J5TgkNWMX1Aj-K6cbPdd9 .edge .edge-arrow{fill:#ebebff;}[data-theme="dark"] .refinery-J5TgkNWMX1Aj-K6cbPdd9 .edge-UNKNOWN text{fill:#abb2bf;}[data-theme="dark"] .refinery-J5TgkNWMX1Aj-K6cbPdd9 .edge-UNKNOWN .edge-line{stroke:#abb2bf;}[data-theme="dark"] .refinery-J5TgkNWMX1Aj-K6cbPdd9 .edge-UNKNOWN .edge-arrow{fill:none;}[data-theme="dark"] .refinery-J5TgkNWMX1Aj-K6cbPdd9 .edge-ERROR text{fill:#e06c75;}[data-theme="dark"] .refinery-J5TgkNWMX1Aj-K6cbPdd9 .edge-ERROR .edge-line{stroke:#e06c75;}[data-theme="dark"] .refinery-J5TgkNWMX1Aj-K6cbPdd9 .edge-ERROR .edge-arrow{fill:#e06c75;}[data-theme="dark"] .refinery-J5TgkNWMX1Aj-K6cbPdd9 .icon-TRUE{fill:#ebebff;}[data-theme="dark"] .refinery-J5TgkNWMX1Aj-K6cbPdd9 .icon-UNKNOWN{fill:#abb2bf;}[data-theme="dark"] .refinery-J5TgkNWMX1Aj-K6cbPdd9 .icon-ERROR{fill:#e06c75;}[data-theme="dark"] .refinery-J5TgkNWMX1Aj-K6cbPdd9 text.label-UNKNOWN{fill:#abb2bf;}[data-theme="dark"] .refinery-J5TgkNWMX1Aj-K6cbPdd9 text.label-ERROR{fill:#e06c75;}</style><defs><svg xmlns="http://www.w3.org/2000/svg" width="24" height="24" viewBox="0 0 24 24" id="refinery-J5TgkNWMX1Aj-K6cbPdd9-icon-TRUE" class="icon-TRUE"><path d="M17.63 5.84C17.27 5.33 16.67 5 16 5L5 5.01C3.9 5.01 3 5.9 3 7v10c0 1.1.9 1.99 2 1.99L16 19c.67 0 1.27-.33 1.63-.84L22 12l-4.37-6.16z"/></svg><svg xmlns="http://www.w3.org/2000/svg" width="24" height="24" viewBox="0 0 24 24" id="refinery-J5TgkNWMX1Aj-K6cbPdd9-icon-UNKNOWN" class="icon-UNKNOWN"><path d="M17.63 5.84C17.27 5.33 16.67 5 16 5L5 5.01C3.9 5.01 3 5.9 3 7v10c0 1.1.9 1.99 2 1.99L16 19c.67 0 1.27-.33 1.63-.84L22 12l-4.37-6.16zM16 17H5V7h11l3.55 5L16 17z"/></svg><svg xmlns="http://www.w3.org/2000/svg" width="24" height="24" viewBox="0 0 24 24" id="refinery-J5TgkNWMX1Aj-K6cbPdd9-icon-ERROR" class="icon-ERROR"><path d="M12 2C6.47 2 2 6.47 2 12s4.47 10 10 10s10-4.47 10-10S17.53 2 12 2zm5 13.59L15.59 17L12 13.41L8.41 17L7 15.59L10.59 12L7 8.41L8.41 7L12 10.59L15.59 7L17 8.41L13.41 12L17 15.59z"/></svg></defs>
<g class="graph" transform="scale(1 1) rotate(0) translate(4 153.2)">
<!-- n0 -->
<g class="node node-NEW node-exists-UNKNOWN node-equalsSelf-UNKNOWN node-typeHash-k"><rect stroke="none" x="74.5" y="-143.5" width="117" height="49" rx="12.5" ry="12.5" class="node-shadow node-bg"/>

<rect stroke="none" x="69.69" y="-149.2" width="116.18" height="48.79999999999998" rx="12" ry="12" class="node-bg"/>
<rect stroke="none" x="65" y="-153" width="124" height="27" clip-path="url(#refinery-J5TgkNWMX1Aj-K6cbPdd9-clip-0)" class="node-header"/>
<text text-anchor="start" x="74.69" y="-133.4" font-size="12.00">Region::new [0..70]</text>
<use x="75.6895" y="-119.6" width="12" height="12" id="" class="icon icon-TRUE" href="#refinery-J5TgkNWMX1Aj-K6cbPdd9-icon-TRUE"/>
<g><text text-anchor="start" x="91.69" y="-110" font-size="12.00" class="label label-TRUE">Region</text>
</g>
<polyline points="69.69,-125.8 185.87,-125.8" class="node-outline"/>
<rect fill="none" x="69.69" y="-149.2" width="116.18" height="48.79999999999998" rx="12" ry="12" class="node-outline"/>
<clipPath id="refinery-J5TgkNWMX1Aj-K6cbPdd9-clip-0"><rect stroke="none" x="69.69" y="-149.2" width="116.18" height="48.79999999999998" rx="12" ry="12" class="node-bg"/></clipPath></g>
<!-- n2 -->
<g class="node node-NEW node-exists-TRUE node-equalsSelf-UNKNOWN node-typeHash-j"><rect stroke="none" x="150.5" y="-58.5" width="94" height="65" rx="12.5" ry="12.5" class="node-shadow node-bg"/>

<rect stroke="none" x="145.27" y="-64.4" width="93.01999999999998" height="64.4" rx="12" ry="12" class="node-bg"/>
<rect stroke="none" x="141" y="-68" width="101" height="27" clip-path="url(#refinery-J5TgkNWMX1Aj-K6cbPdd9-clip-1)" class="node-header"/>
<text text-anchor="start" x="150.27" y="-48.6" font-size="12.00">State::new [20]</text>
<use x="151.268" y="-35" width="12" height="12" id="" class="icon icon-TRUE" href="#refinery-J5TgkNWMX1Aj-K6cbPdd9-icon-TRUE"/>
<g><text text-anchor="start" x="167.25" y="-25.2" font-size="12.00" class="label label-TRUE">Vertex</text>
</g>
<use x="151.268" y="-19" width="12" height="12" id="" class="icon icon-TRUE" href="#refinery-J5TgkNWMX1Aj-K6cbPdd9-icon-TRUE"/>
<g><text text-anchor="start" x="167.27" y="-9.2" font-size="12.00" class="label label-TRUE">State</text>
</g>
<polyline points="145.27,-41 238.29,-41" class="node-outline"/>
<rect fill="none" x="145.27" y="-64.4" width="93.01999999999998" height="64.4" rx="12" ry="12" class="node-outline"/>
<clipPath id="refinery-J5TgkNWMX1Aj-K6cbPdd9-clip-1"><rect stroke="none" x="145.27" y="-64.4" width="93.01999999999998" height="64.4" rx="12" ry="12" class="node-bg"/></clipPath></g><g class="node node-NEW node-exists-TRUE node-equalsSelf-UNKNOWN node-typeHash-h"><rect stroke="none" x="5.5" y="-50.5" width="128" height="49" rx="12.5" ry="12.5" class="node-shadow node-bg"/>

<rect stroke="none" x="0" y="-56.6" width="127.56" height="48.800000000000004" rx="12" ry="12" class="node-bg"/>
<rect stroke="none" x="-4" y="-60" width="135" height="27" clip-path="url(#refinery-J5TgkNWMX1Aj-K6cbPdd9-clip-2)" class="node-header"/>
<text text-anchor="start" x="5" y="-40.8" font-size="12.00">Vertex::new [30..100]</text>
<use x="6" y="-27" width="12" height="12" id="" class="icon icon-TRUE" href="#refinery-J5TgkNWMX1Aj-K6cbPdd9-icon-TRUE"/>
<g><text text-anchor="start" x="22" y="-17.4" font-size="12.00" class="label label-TRUE">Vertex</text>
</g>
<polyline points="0,-33.2 127.56,-33.2" class="node-outline"/>
<rect fill="none" x="0" y="-56.6" width="127.56" height="48.800000000000004" rx="12" ry="12" class="node-outline"/>
<clipPath id="refinery-J5TgkNWMX1Aj-K6cbPdd9-clip-2"><rect stroke="none" x="0" y="-56.6" width="127.56" height="48.800000000000004" rx="12" ry="12" class="node-bg"/></clipPath></g>
<!-- n0&#45;&gt;n2 -->
<g class="edge edge-UNKNOWN">

<path fill="none" stroke-width="2" stroke-dasharray="5,2" d="M111.3,-100.47C103.83,-89.9 94.88,-77.23 86.77,-65.75" class="edge-line"/>
<polygon stroke-width="2" points="89.5,-64.3 81.95,-58.93 84.5,-67.84 89.5,-64.3" class="edge-line edge-arrow"/>
<text text-anchor="start" x="54.2" y="-82.58" font-weight="bold" font-size="10.50">vertices</text>
</g>
<!-- n3 -->

<!-- n3&#45;&gt;n2 -->
<g class="edge edge-UNKNOWN">

<path fill="none" stroke-width="2" stroke-dasharray="5,2" d="M144.26,-100.47C150.03,-92.3 156.69,-82.87 163.17,-73.7" class="edge-line"/>
<polygon stroke-width="2" points="165.51,-75.7 168.06,-66.78 160.51,-72.16 165.51,-75.7" class="edge-line edge-arrow"/>
<text text-anchor="start" x="115.55" y="-86.47" font-weight="bold" font-size="10.50">vertices</text>
</g>
</g>
</svg>