<?xml version="1.0" encoding="UTF-8" standalone="no"?>
<svg width="301pt" height="311pt" viewBox="-6 -6 313.2200012207031 323.20001220703125" xmlns="http://www.w3.org/2000/svg" xmlns:xlink="http://www.w3.org/1999/xlink" class="refinery-83G8OR--ePj0Ssqa0Eja5"><style>.refinery-83G8OR--ePj0Ssqa0Eja5 .node text{font-family:"Open Sans Variable","Open Sans","Roboto","Helvetica","Arial",sans-serif;fill:#19202b;}.refinery-83G8OR--ePj0Ssqa0Eja5 .node .node-outline{stroke:#19202b;}.refinery-83G8OR--ePj0Ssqa0Eja5 .node .node-header{fill:rgb(53, 161, 173);}.refinery-83G8OR--ePj0Ssqa0Eja5 .node .node-bg{fill:#fff;}.refinery-83G8OR--ePj0Ssqa0Eja5 .node-INDIVIDUAL .node-outline{stroke-width:2;}.refinery-83G8OR--ePj0Ssqa0Eja5 .node-shadow.node-bg{fill:#19202b;opacity:0.24;}.refinery-83G8OR--ePj0Ssqa0Eja5 .node-exists-UNKNOWN .node-outline{stroke-dasharray:5 2;}.refinery-83G8OR--ePj0Ssqa0Eja5 .node-typeHash-g .node-header{fill:#e5c07b;}.refinery-83G8OR--ePj0Ssqa0Eja5 .node-typeHash-h .node-header{fill:#e06c75;}.refinery-83G8OR--ePj0Ssqa0Eja5 .node-typeHash-i .node-header{fill:#98c379;}.refinery-83G8OR--ePj0Ssqa0Eja5 .node-typeHash-j .node-header{fill:#c678dd;}.refinery-83G8OR--ePj0Ssqa0Eja5 .node-typeHash-k .node-header{fill:#80a7f4;}.refinery-83G8OR--ePj0Ssqa0Eja5 .node-typeHash-l .node-header{fill:#e3d1b2;}.refinery-83G8OR--ePj0Ssqa0Eja5 .node-typeHash-m .node-header{fill:#e78b8f;}.refinery-83G8OR--ePj0Ssqa0Eja5 .node-typeHash-n .node-header{fill:#abcc94;}.refinery-83G8OR--ePj0Ssqa0Eja5 .node-typeHash-o .node-header{fill:#dbb2e8;}.refinery-83G8OR--ePj0Ssqa0Eja5 .node-typeHash-p .node-header{fill:#92c0e9;}.refinery-83G8OR--ePj0Ssqa0Eja5 .edge text{font-family:"Open Sans Variable","Open Sans","Roboto","Helvetica","Arial",sans-serif;fill:#19202b;}.refinery-83G8OR--ePj0Ssqa0Eja5 .edge .edge-line{stroke:#19202b;}.refinery-83G8OR--ePj0Ssqa0Eja5 .edge .edge-arrow{fill:#19202b;}.refinery-83G8OR--ePj0Ssqa0Eja5 .edge-UNKNOWN text{fill:#696c77;}.refinery-83G8OR--ePj0Ssqa0Eja5 .edge-UNKNOWN .edge-line{stroke:#696c77;}.refinery-83G8OR--ePj0Ssqa0Eja5 .edge-UNKNOWN .edge-arrow{fill:none;}.refinery-83G8OR--ePj0Ssqa0Eja5 .edge-ERROR text{fill:#ca1243;}.refinery-83G8OR--ePj0Ssqa0Eja5 .edge-ERROR .edge-line{stroke:#ca1243;}.refinery-83G8OR--ePj0Ssqa0Eja5 .edge-ERROR .edge-arrow{fill:#ca1243;}.refinery-83G8OR--ePj0Ssqa0Eja5 .icon-TRUE{fill:#19202b;}.refinery-83G8OR--ePj0Ssqa0Eja5 .icon-UNKNOWN{fill:#696c77;}.refinery-83G8OR--ePj0Ssqa0Eja5 .icon-ERROR{fill:#ca1243;}.refinery-83G8OR--ePj0Ssqa0Eja5 text.label-UNKNOWN{fill:#696c77;}.refinery-83G8OR--ePj0Ssqa0Eja5 text.label-ERROR{fill:#ca1243;}.refinery-83G8OR--ePj0Ssqa0Eja5 .node-exists-FALSE text:not(.label-ERROR){fill:#696c77;}.refinery-83G8OR--ePj0Ssqa0Eja5 .node-exists-FALSE .node-outline{stroke:#696c77;stroke-dasharray:2 4;}.refinery-83G8OR--ePj0Ssqa0Eja5 .node-exists-FALSE .node-header{fill:#fff;}.refinery-83G8OR--ePj0Ssqa0Eja5 .node-exists-FALSE .icon-TRUE{fill:#696c77;}[data-theme="dark"] .refinery-83G8OR--ePj0Ssqa0Eja5 .node text{font-family:"Open Sans Variable","Open Sans","Roboto","Helvetica","Arial",sans-serif;fill:#ebebff;}[data-theme="dark"] .refinery-83G8OR--ePj0Ssqa0Eja5 .node .node-outline{stroke:#ebebff;}[data-theme="dark"] .refinery-83G8OR--ePj0Ssqa0Eja5 .node .node-header{fill:rgb(60, 127, 135);}[data-theme="dark"] .refinery-83G8OR--ePj0Ssqa0Eja5 .node .node-bg{fill:#282c34;}[data-theme="dark"] .refinery-83G8OR--ePj0Ssqa0Eja5 .node-INDIVIDUAL .node-outline{stroke-width:2;}[data-theme="dark"] .refinery-83G8OR--ePj0Ssqa0Eja5 .node-shadow.node-bg{fill:#ebebff;opacity:0.32;}[data-theme="dark"] .refinery-83G8OR--ePj0Ssqa0Eja5 .node-exists-UNKNOWN .node-outline{stroke-dasharray:5 2;}[data-theme="dark"] .refinery-83G8OR--ePj0Ssqa0Eja5 .node-typeHash-g .node-header{fill:#ae8003;}[data-theme="dark"] .refinery-83G8OR--ePj0Ssqa0Eja5 .node-typeHash-h .node-header{fill:#a23b47;}[data-theme="dark"] .refinery-83G8OR--ePj0Ssqa0Eja5 .node-typeHash-i .node-header{fill:#428141;}[data-theme="dark"] .refinery-83G8OR--ePj0Ssqa0Eja5 .node-typeHash-j .node-header{fill:#854797;}[data-theme="dark"] .refinery-83G8OR--ePj0Ssqa0Eja5 .node-typeHash-k .node-header{fill:#3982bb;}[data-theme="dark"] .refinery-83G8OR--ePj0Ssqa0Eja5 .node-typeHash-l .node-header{fill:#827662;}[data-theme="dark"] .refinery-83G8OR--ePj0Ssqa0Eja5 .node-typeHash-m .node-header{fill:#904f53;}[data-theme="dark"] .refinery-83G8OR--ePj0Ssqa0Eja5 .node-typeHash-n .node-header{fill:#647e63;}[data-theme="dark"] .refinery-83G8OR--ePj0Ssqa0Eja5 .node-typeHash-o .node-header{fill:#805f89;}[data-theme="dark"] .refinery-83G8OR--ePj0Ssqa0Eja5 .node-typeHash-p .node-header{fill:#4f7799;}[data-theme="dark"] .refinery-83G8OR--ePj0Ssqa0Eja5 .edge text{font-family:"Open Sans Variable","Open Sans","Roboto","Helvetica","Arial",sans-serif;fill:#ebebff;}[data-theme="dark"] .refinery-83G8OR--ePj0Ssqa0Eja5 .edge .edge-line{stroke:#ebebff;}[data-theme="dark"] .refinery-83G8OR--ePj0Ssqa0Eja5 .edge .edge-arrow{fill:#ebebff;}[data-theme="dark"] .refinery-83G8OR--ePj0Ssqa0Eja5 .edge-UNKNOWN text{fill:#abb2bf;}[data-theme="dark"] .refinery-83G8OR--ePj0Ssqa0Eja5 .edge-UNKNOWN .edge-line{stroke:#abb2bf;}[data-theme="dark"] .refinery-83G8OR--ePj0Ssqa0Eja5 .edge-UNKNOWN .edge-arrow{fill:none;}[data-theme="dark"] .refinery-83G8OR--ePj0Ssqa0Eja5 .edge-ERROR text{fill:#e06c75;}[data-theme="dark"] .refinery-83G8OR--ePj0Ssqa0Eja5 .edge-ERROR .edge-line{stroke:#e06c75;}[data-theme="dark"] .refinery-83G8OR--ePj0Ssqa0Eja5 .edge-ERROR .edge-arrow{fill:#e06c75;}[data-theme="dark"] .refinery-83G8OR--ePj0Ssqa0Eja5 .icon-TRUE{fill:#ebebff;}[data-theme="dark"] .refinery-83G8OR--ePj0Ssqa0Eja5 .icon-UNKNOWN{fill:#abb2bf;}[data-theme="dark"] .refinery-83G8OR--ePj0Ssqa0Eja5 .icon-ERROR{fill:#e06c75;}[data-theme="dark"] .refinery-83G8OR--ePj0Ssqa0Eja5 text.label-UNKNOWN{fill:#abb2bf;}[data-theme="dark"] .refinery-83G8OR--ePj0Ssqa0Eja5 text.label-ERROR{fill:#e06c75;}[data-theme="dark"] .refinery-83G8OR--ePj0Ssqa0Eja5 .node-exists-FALSE text:not(.label-ERROR){fill:#abb2bf;}[data-theme="dark"] .refinery-83G8OR--ePj0Ssqa0Eja5 .node-exists-FALSE .node-outline{stroke:#abb2bf;stroke-dasharray:2 4;}[data-theme="dark"] .refinery-83G8OR--ePj0Ssqa0Eja5 .node-exists-FALSE .node-header{fill:#282c34;}[data-theme="dark"] .refinery-83G8OR--ePj0Ssqa0Eja5 .node-exists-FALSE .icon-TRUE{fill:#abb2bf;}</style><defs><svg xmlns="http://www.w3.org/2000/svg" width="24" height="24" viewBox="0 0 24 24" id="refinery-83G8OR--ePj0Ssqa0Eja5-icon-TRUE" class="icon-TRUE"><path d="M17.63 5.84C17.27 5.33 16.67 5 16 5L5 5.01C3.9 5.01 3 5.9 3 7v10c0 1.1.9 1.99 2 1.99L16 19c.67 0 1.27-.33 1.63-.84L22 12l-4.37-6.16z"/></svg><svg xmlns="http://www.w3.org/2000/svg" width="24" height="24" viewBox="0 0 24 24" id="refinery-83G8OR--ePj0Ssqa0Eja5-icon-UNKNOWN" class="icon-UNKNOWN"><path d="M17.63 5.84C17.27 5.33 16.67 5 16 5L5 5.01C3.9 5.01 3 5.9 3 7v10c0 1.1.9 1.99 2 1.99L16 19c.67 0 1.27-.33 1.63-.84L22 12l-4.37-6.16zM16 17H5V7h11l3.55 5L16 17z"/></svg><svg xmlns="http://www.w3.org/2000/svg" width="24" height="24" viewBox="0 0 24 24" id="refinery-83G8OR--ePj0Ssqa0Eja5-icon-ERROR" class="icon-ERROR"><path d="M12 2C6.47 2 2 6.47 2 12s4.47 10 10 10s10-4.47 10-10S17.53 2 12 2zm5 13.59L15.59 17L12 13.41L8.41 17L7 15.59L10.59 12L7 8.41L8.41 7L12 10.59L15.59 7L17 8.41L13.41 12L17 15.59z"/></svg></defs>
<g class="graph" transform="translate(4, 307.20001220703125)">
<!-- n4 -->
<g class="node node-IMPLICIT node-exists-TRUE node-equalsSelf-TRUE node-typeHash-g">

<rect stroke="none" x="9.41" y="-303.2" width="86.62" height="48.79999999999998" rx="12" ry="12" class="node-bg"/>
<rect stroke="none" x="5" y="-307" width="94" height="27" clip-path="url(#refinery-83G8OR--ePj0Ssqa0Eja5-clip-0)" class="node-header"/>
<text text-anchor="start" x="21.04" y="-287.4" font-size="12.00">filesystem1</text>
<use x="15.4093" y="-273.6" width="12" height="12" href="#refinery-83G8OR--ePj0Ssqa0Eja5-icon-TRUE" class="icon icon-TRUE"/>
<g><text text-anchor="start" x="31.41" y="-264" font-size="12.00" class="label label-TRUE">Filesystem</text>
</g>
<polyline points="9.41,-279.8 96.03,-279.8" class="node-outline"/>
<rect fill="none" x="9.41" y="-303.2" width="86.62" height="48.79999999999998" rx="12" ry="12" class="node-outline"/>
<clipPath id="refinery-83G8OR--ePj0Ssqa0Eja5-clip-0"><rect stroke="none" x="9.41" y="-303.2" width="86.62" height="48.79999999999998" rx="12" ry="12" class="node-bg"/></clipPath></g>
<!-- n8 -->
<g class="node node-IMPLICIT node-exists-TRUE node-equalsSelf-TRUE node-typeHash-n">

<rect stroke="none" x="30.38" y="-218.4" width="44.68000000000001" height="48.80000000000001" rx="12" ry="12" class="node-bg"/>
<rect stroke="none" x="26" y="-222" width="52" height="27" clip-path="url(#refinery-83G8OR--ePj0Ssqa0Eja5-clip-1)" class="node-header"/>
<text text-anchor="start" x="41.65" y="-202.6" font-size="12.00">dir2</text>
<use x="36.38" y="-188.8" width="12" height="12" href="#refinery-83G8OR--ePj0Ssqa0Eja5-icon-TRUE" class="icon icon-TRUE"/>
<g><text text-anchor="start" x="52.38" y="-179.2" font-size="12.00" class="label label-TRUE">Dir</text>
</g>
<polyline points="30.38,-195 75.06,-195" class="node-outline"/>
<rect fill="none" x="30.38" y="-218.4" width="44.68000000000001" height="48.80000000000001" rx="12" ry="12" class="node-outline"/>
<clipPath id="refinery-83G8OR--ePj0Ssqa0Eja5-clip-1"><rect stroke="none" x="30.38" y="-218.4" width="44.68000000000001" height="48.80000000000001" rx="12" ry="12" class="node-bg"/></clipPath></g>
<!-- n4&#45;&gt;n8 -->
<g class="edge edge-TRUE">

<path fill="none" stroke-width="2" d="M52.72,-254.74C52.72,-246.99 52.72,-238.18 52.72,-229.75" class="edge-line"/>
<polygon stroke-width="2" points="55.78,-230 52.72,-221.25 49.66,-230.01 55.78,-230" class="edge-line edge-arrow"/>
<text text-anchor="start" x="30.39" y="-240.67" font-weight="bold" font-size="10.50">root</text>
</g>
<!-- n5 -->
<g class="node node-IMPLICIT node-exists-TRUE node-equalsSelf-TRUE node-typeHash-g">

<rect stroke="none" x="128.41" y="-303.2" width="86.62" height="48.79999999999998" rx="12" ry="12" class="node-bg"/>
<rect stroke="none" x="124" y="-307" width="94" height="27" clip-path="url(#refinery-83G8OR--ePj0Ssqa0Eja5-clip-2)" class="node-header"/>
<text text-anchor="start" x="140.04" y="-287.4" font-size="12.00">filesystem2</text>
<use x="134.409" y="-273.6" width="12" height="12" href="#refinery-83G8OR--ePj0Ssqa0Eja5-icon-TRUE" class="icon icon-TRUE"/>
<g><text text-anchor="start" x="150.41" y="-264" font-size="12.00" class="label label-TRUE">Filesystem</text>
</g>
<polyline points="128.41,-279.8 215.03,-279.8" class="node-outline"/>
<rect fill="none" x="128.41" y="-303.2" width="86.62" height="48.79999999999998" rx="12" ry="12" class="node-outline"/>
<clipPath id="refinery-83G8OR--ePj0Ssqa0Eja5-clip-2"><rect stroke="none" x="128.41" y="-303.2" width="86.62" height="48.79999999999998" rx="12" ry="12" class="node-bg"/></clipPath></g>
<!-- n6 -->
<g class="node node-IMPLICIT node-exists-TRUE node-equalsSelf-TRUE node-typeHash-n">

<rect stroke="none" x="149.38" y="-218.4" width="44.68000000000001" height="48.80000000000001" rx="12" ry="12" class="node-bg"/>
<rect stroke="none" x="145" y="-222" width="52" height="27" clip-path="url(#refinery-83G8OR--ePj0Ssqa0Eja5-clip-3)" class="node-header"/>
<text text-anchor="start" x="160.65" y="-202.6" font-size="12.00">dir1</text>
<use x="155.38" y="-188.8" width="12" height="12" href="#refinery-83G8OR--ePj0Ssqa0Eja5-icon-TRUE" class="icon icon-TRUE"/>
<g><text text-anchor="start" x="171.38" y="-179.2" font-size="12.00" class="label label-TRUE">Dir</text>
</g>
<polyline points="149.38,-195 194.06,-195" class="node-outline"/>
<rect fill="none" x="149.38" y="-218.4" width="44.68000000000001" height="48.80000000000001" rx="12" ry="12" class="node-outline"/>
<clipPath id="refinery-83G8OR--ePj0Ssqa0Eja5-clip-3"><rect stroke="none" x="149.38" y="-218.4" width="44.68000000000001" height="48.80000000000001" rx="12" ry="12" class="node-bg"/></clipPath></g>
<!-- n5&#45;&gt;n6 -->
<g class="edge edge-TRUE">

<path fill="none" stroke-width="2" d="M171.72,-254.74C171.72,-246.99 171.72,-238.18 171.72,-229.75" class="edge-line"/>
<polygon stroke-width="2" points="174.78,-230 171.72,-221.25 168.66,-230.01 174.78,-230" class="edge-line edge-arrow"/>
<text text-anchor="start" x="149.39" y="-240.67" font-weight="bold" font-size="10.50">root</text>
</g>
<!-- n7 -->
<g class="node node-IMPLICIT node-exists-TRUE node-equalsSelf-TRUE node-typeHash-h">

<rect stroke="none" x="146.26" y="-133.6" width="50.920000000000016" height="48.8" rx="12" ry="12" class="node-bg"/>
<rect stroke="none" x="142" y="-137" width="58" height="27" clip-path="url(#refinery-83G8OR--ePj0Ssqa0Eja5-clip-4)" class="node-header"/>
<text text-anchor="start" x="158.42" y="-117.8" font-size="12.00">link1</text>
<use x="152.257" y="-104" width="12" height="12" href="#refinery-83G8OR--ePj0Ssqa0Eja5-icon-TRUE" class="icon icon-TRUE"/>
<g><text text-anchor="start" x="168.26" y="-94.4" font-size="12.00" class="label label-TRUE">Link</text>
</g>
<polyline points="146.26,-110.2 197.18,-110.2" class="node-outline"/>
<rect fill="none" x="146.26" y="-133.6" width="50.920000000000016" height="48.8" rx="12" ry="12" class="node-outline"/>
<clipPath id="refinery-83G8OR--ePj0Ssqa0Eja5-clip-4"><rect stroke="none" x="146.26" y="-133.6" width="50.920000000000016" height="48.8" rx="12" ry="12" class="node-bg"/></clipPath></g>
<!-- n6&#45;&gt;n7 -->
<g class="edge edge-TRUE">

<path fill="none" stroke-width="2" d="M165.6,-169.94C165.03,-162.19 164.85,-153.38 165.05,-144.95" class="edge-line"/>
<polygon stroke-width="2" points="168.1,-145.33 165.44,-136.45 161.98,-145.05 168.1,-145.33" class="edge-line edge-arrow"/>
<text text-anchor="start" x="118.73" y="-155.87" font-weight="bold" font-size="10.50">contents</text>
</g>
<!-- n9 -->
<g class="node node-IMPLICIT node-exists-TRUE node-equalsSelf-TRUE node-typeHash-n">

<rect stroke="none" x="215.38" y="-133.6" width="44.68000000000001" height="48.8" rx="12" ry="12" class="node-bg"/>
<rect stroke="none" x="211" y="-137" width="52" height="27" clip-path="url(#refinery-83G8OR--ePj0Ssqa0Eja5-clip-5)" class="node-header"/>
<text text-anchor="start" x="226.65" y="-117.8" font-size="12.00">dir3</text>
<use x="221.38" y="-104" width="12" height="12" href="#refinery-83G8OR--ePj0Ssqa0Eja5-icon-TRUE" class="icon icon-TRUE"/>
<g><text text-anchor="start" x="237.38" y="-94.4" font-size="12.00" class="label label-TRUE">Dir</text>
</g>
<polyline points="215.38,-110.2 260.06,-110.2" class="node-outline"/>
<rect fill="none" x="215.38" y="-133.6" width="44.68000000000001" height="48.8" rx="12" ry="12" class="node-outline"/>
<clipPath id="refinery-83G8OR--ePj0Ssqa0Eja5-clip-5"><rect stroke="none" x="215.38" y="-133.6" width="44.68000000000001" height="48.8" rx="12" ry="12" class="node-bg"/></clipPath></g>
<!-- n6&#45;&gt;n9 -->
<g class="edge edge-TRUE">

<path fill="none" stroke-width="2" d="M190.11,-169.94C196.84,-161.48 204.6,-151.75 211.87,-142.63" class="edge-line"/>
<polygon stroke-width="2" points="214.26,-144.55 217.32,-135.79 209.47,-140.73 214.26,-144.55" class="edge-line edge-arrow"/>
<text text-anchor="start" x="204.61" y="-155.89" font-weight="bold" font-size="10.50">contents</text>
</g>
<!-- n7&#45;&gt;n6 -->
<g class="edge edge-TRUE">

<path fill="none" d="M177.86,-133.43C178.42,-141.27 178.6,-150.2 178.38,-158.72" class="edge-line"/>
<polygon points="174.9,-158.27 177.92,-168.42 181.89,-158.6 174.9,-158.27" class="edge-line edge-arrow"/>
<text text-anchor="middle" x="163.88" y="-142.02" font-size="10.50">target</text>
</g>
<!-- n7&#45;&gt;n6 -->
<g class="node node-IMPLICIT node-exists-TRUE node-equalsSelf-TRUE node-typeHash-i">

<rect stroke="none" x="16.22" y="-133.6" width="47" height="48.8" rx="12" ry="12" class="node-bg"/>
<rect stroke="none" x="12" y="-137" width="55" height="27" clip-path="url(#refinery-83G8OR--ePj0Ssqa0Eja5-clip-6)" class="node-header"/>
<text text-anchor="start" x="27.86" y="-117.8" font-size="12.00">file3</text>
<use x="22.2228" y="-104" width="12" height="12" href="#refinery-83G8OR--ePj0Ssqa0Eja5-icon-TRUE" class="icon icon-TRUE"/>
<g><text text-anchor="start" x="38.22" y="-94.4" font-size="12.00" class="label label-TRUE">File</text>
</g>
<polyline points="16.22,-110.2 63.22,-110.2" class="node-outline"/>
<rect fill="none" x="16.22" y="-133.6" width="47" height="48.8" rx="12" ry="12" class="node-outline"/>
<clipPath id="refinery-83G8OR--ePj0Ssqa0Eja5-clip-6"><rect stroke="none" x="16.22" y="-133.6" width="47" height="48.8" rx="12" ry="12" class="node-bg"/></clipPath></g>
<!-- n12 -->
<g class="edge edge-TRUE">

<path fill="none" stroke-width="2" d="M49.1,-169.94C47.88,-162.19 46.5,-153.38 45.18,-144.95" class="edge-line"/>
<polygon stroke-width="2" points="48.22,-144.59 43.84,-136.42 42.17,-145.54 48.22,-144.59" class="edge-line edge-arrow"/>
<text text-anchor="start" x="0" y="-155.87" font-weight="bold" font-size="10.50">contents</text>
</g>
<!-- n8&#45;&gt;n12 -->
<g class="node node-IMPLICIT node-exists-TRUE node-equalsSelf-TRUE node-typeHash-i">

<rect stroke="none" x="81.22" y="-133.6" width="47" height="48.8" rx="12" ry="12" class="node-bg"/>
<rect stroke="none" x="77" y="-137" width="55" height="27" clip-path="url(#refinery-83G8OR--ePj0Ssqa0Eja5-clip-7)" class="node-header"/>
<text text-anchor="start" x="92.86" y="-117.8" font-size="12.00">file4</text>
<use x="87.2228" y="-104" width="12" height="12" href="#refinery-83G8OR--ePj0Ssqa0Eja5-icon-TRUE" class="icon icon-TRUE"/>
<g><text text-anchor="start" x="103.22" y="-94.4" font-size="12.00" class="label label-TRUE">File</text>
</g>
<polyline points="81.22,-110.2 128.22,-110.2" class="node-outline"/>
<rect fill="none" x="81.22" y="-133.6" width="47" height="48.8" rx="12" ry="12" class="node-outline"/>
<clipPath id="refinery-83G8OR--ePj0Ssqa0Eja5-clip-7"><rect stroke="none" x="81.22" y="-133.6" width="47" height="48.8" rx="12" ry="12" class="node-bg"/></clipPath></g>
<!-- n13 -->
<g class="edge edge-TRUE">

<path fill="none" stroke-width="2" d="M67.21,-169.94C72.4,-161.66 78.37,-152.16 83.99,-143.21" class="edge-line"/>
<polygon stroke-width="2" points="86.46,-145.03 88.52,-135.99 81.28,-141.77 86.46,-145.03" class="edge-line edge-arrow"/>
<text text-anchor="start" x="32.41" y="-143.26" font-weight="bold" font-size="10.50">contents</text>
</g>
<!-- n8&#45;&gt;n13 -->
<g class="node node-IMPLICIT node-exists-TRUE node-equalsSelf-TRUE node-typeHash-i">

<rect stroke="none" x="181.22" y="-48.8" width="47" height="48.8" rx="12" ry="12" class="node-bg"/>
<rect stroke="none" x="177" y="-52" width="55" height="27" clip-path="url(#refinery-83G8OR--ePj0Ssqa0Eja5-clip-8)" class="node-header"/>
<text text-anchor="start" x="192.86" y="-33" font-size="12.00">file1</text>
<use x="187.223" y="-19.2" width="12" height="12" href="#refinery-83G8OR--ePj0Ssqa0Eja5-icon-TRUE" class="icon icon-TRUE"/>
<g><text text-anchor="start" x="203.22" y="-9.6" font-size="12.00" class="label label-TRUE">File</text>
</g>
<polyline points="181.22,-25.4 228.22,-25.4" class="node-outline"/>
<rect fill="none" x="181.22" y="-48.8" width="47" height="48.8" rx="12" ry="12" class="node-outline"/>
<clipPath id="refinery-83G8OR--ePj0Ssqa0Eja5-clip-8"><rect stroke="none" x="181.22" y="-48.8" width="47" height="48.8" rx="12" ry="12" class="node-bg"/></clipPath></g>
<!-- n9&#45;&gt;n6 -->
<g class="edge edge-TRUE">

<path fill="none" stroke-width="2" d="M228.53,-85.14C225.37,-77.22 221.77,-68.18 218.34,-59.57" class="edge-line"/>
<polygon stroke-width="2" points="221.18,-58.43 215.1,-51.44 215.49,-60.7 221.18,-58.43" class="edge-line edge-arrow"/>
<text text-anchor="start" x="175.02" y="-71.05" font-weight="bold" font-size="10.50">contents</text>
</g>
<!-- n10 -->
<g class="node node-IMPLICIT node-exists-TRUE node-equalsSelf-TRUE node-typeHash-i">

<rect stroke="none" x="246.22" y="-48.8" width="47.00000000000003" height="48.8" rx="12" ry="12" class="node-bg"/>
<rect stroke="none" x="242" y="-52" width="55" height="27" clip-path="url(#refinery-83G8OR--ePj0Ssqa0Eja5-clip-9)" class="node-header"/>
<text text-anchor="start" x="257.86" y="-33" font-size="12.00">file2</text>
<use x="252.223" y="-19.2" width="12" height="12" href="#refinery-83G8OR--ePj0Ssqa0Eja5-icon-TRUE" class="icon icon-TRUE"/>
<g><text text-anchor="start" x="268.22" y="-9.6" font-size="12.00" class="label label-TRUE">File</text>
</g>
<polyline points="246.22,-25.4 293.22,-25.4" class="node-outline"/>
<rect fill="none" x="246.22" y="-48.8" width="47.00000000000003" height="48.8" rx="12" ry="12" class="node-outline"/>
<clipPath id="refinery-83G8OR--ePj0Ssqa0Eja5-clip-9"><rect stroke="none" x="246.22" y="-48.8" width="47.00000000000003" height="48.8" rx="12" ry="12" class="node-bg"/></clipPath></g>
<!-- n9&#45;&gt;n10 -->
<g class="edge edge-TRUE">

<path fill="none" stroke-width="2" d="M246.63,-85.14C249.69,-77.22 253.19,-68.18 256.52,-59.57" class="edge-line"/>
<polygon stroke-width="2" points="259.35,-60.72 259.65,-51.45 253.64,-58.51 259.35,-60.72" class="edge-line edge-arrow"/>
<text text-anchor="start" x="207.44" y="-58.45" font-weight="bold" font-size="10.50">contents</text>
</g>
</g>
</svg>