<?xml version="1.0" encoding="UTF-8" standalone="no"?>
<svg width="508pt" height="57pt" viewBox="-6 -6 519.5700073242188 68.79999923706055" xmlns="http://www.w3.org/2000/svg" xmlns:xlink="http://www.w3.org/1999/xlink" class="refinery-meygjgDtG1kB8-FV4IATS"><style>.refinery-meygjgDtG1kB8-FV4IATS .node text{font-family:"Open Sans Variable","Open Sans","Roboto","Helvetica","Arial",sans-serif;fill:#19202b;}.refinery-meygjgDtG1kB8-FV4IATS .node .node-outline{stroke:#19202b;}.refinery-meygjgDtG1kB8-FV4IATS .node .node-header{fill:rgb(53, 161, 173);}.refinery-meygjgDtG1kB8-FV4IATS .node .node-bg{fill:#fff;}.refinery-meygjgDtG1kB8-FV4IATS .node-INDIVIDUAL .node-outline{stroke-width:2;}.refinery-meygjgDtG1kB8-FV4IATS .node-shadow.node-bg{fill:#19202b;opacity:0.24;}.refinery-meygjgDtG1kB8-FV4IATS .node-exists-UNKNOWN .node-outline{stroke-dasharray:5 2;}.refinery-meygjgDtG1kB8-FV4IATS .node-typeHash-g .node-header{fill:#e5c07b;}.refinery-meygjgDtG1kB8-FV4IATS .node-typeHash-h .node-header{fill:#e06c75;}.refinery-meygjgDtG1kB8-FV4IATS .node-typeHash-i .node-header{fill:#98c379;}.refinery-meygjgDtG1kB8-FV4IATS .node-typeHash-j .node-header{fill:#c678dd;}.refinery-meygjgDtG1kB8-FV4IATS .node-typeHash-k .node-header{fill:#80a7f4;}.refinery-meygjgDtG1kB8-FV4IATS .node-typeHash-l .node-header{fill:#e3d1b2;}.refinery-meygjgDtG1kB8-FV4IATS .node-typeHash-m .node-header{fill:#e78b8f;}.refinery-meygjgDtG1kB8-FV4IATS .node-typeHash-n .node-header{fill:#abcc94;}.refinery-meygjgDtG1kB8-FV4IATS .node-typeHash-o .node-header{fill:#dbb2e8;}.refinery-meygjgDtG1kB8-FV4IATS .node-typeHash-p .node-header{fill:#92c0e9;}.refinery-meygjgDtG1kB8-FV4IATS .edge text{font-family:"Open Sans Variable","Open Sans","Roboto","Helvetica","Arial",sans-serif;fill:#19202b;}.refinery-meygjgDtG1kB8-FV4IATS .edge .edge-line{stroke:#19202b;}.refinery-meygjgDtG1kB8-FV4IATS .edge .edge-arrow{fill:#19202b;}.refinery-meygjgDtG1kB8-FV4IATS .edge-UNKNOWN text{fill:#696c77;}.refinery-meygjgDtG1kB8-FV4IATS .edge-UNKNOWN .edge-line{stroke:#696c77;}.refinery-meygjgDtG1kB8-FV4IATS .edge-UNKNOWN .edge-arrow{fill:none;}.refinery-meygjgDtG1kB8-FV4IATS .edge-ERROR text{fill:#ca1243;}.refinery-meygjgDtG1kB8-FV4IATS .edge-ERROR .edge-line{stroke:#ca1243;}.refinery-meygjgDtG1kB8-FV4IATS .edge-ERROR .edge-arrow{fill:#ca1243;}.refinery-meygjgDtG1kB8-FV4IATS .icon-TRUE{fill:#19202b;}.refinery-meygjgDtG1kB8-FV4IATS .icon-UNKNOWN{fill:#696c77;}.refinery-meygjgDtG1kB8-FV4IATS .icon-ERROR{fill:#ca1243;}.refinery-meygjgDtG1kB8-FV4IATS text.label-UNKNOWN{fill:#696c77;}.refinery-meygjgDtG1kB8-FV4IATS text.label-ERROR{fill:#ca1243;}[data-theme="dark"] .refinery-meygjgDtG1kB8-FV4IATS .node text{font-family:"Open Sans Variable","Open Sans","Roboto","Helvetica","Arial",sans-serif;fill:#ebebff;}[data-theme="dark"] .refinery-meygjgDtG1kB8-FV4IATS .node .node-outline{stroke:#ebebff;}[data-theme="dark"] .refinery-meygjgDtG1kB8-FV4IATS .node .node-header{fill:rgb(60, 127, 135);}[data-theme="dark"] .refinery-meygjgDtG1kB8-FV4IATS .node .node-bg{fill:#282c34;}[data-theme="dark"] .refinery-meygjgDtG1kB8-FV4IATS .node-INDIVIDUAL .node-outline{stroke-width:2;}[data-theme="dark"] .refinery-meygjgDtG1kB8-FV4IATS .node-shadow.node-bg{fill:#ebebff;opacity:0.32;}[data-theme="dark"] .refinery-meygjgDtG1kB8-FV4IATS .node-exists-UNKNOWN .node-outline{stroke-dasharray:5 2;}[data-theme="dark"] .refinery-meygjgDtG1kB8-FV4IATS .node-typeHash-g .node-header{fill:#ae8003;}[data-theme="dark"] .refinery-meygjgDtG1kB8-FV4IATS .node-typeHash-h .node-header{fill:#a23b47;}[data-theme="dark"] .refinery-meygjgDtG1kB8-FV4IATS .node-typeHash-i .node-header{fill:#428141;}[data-theme="dark"] .refinery-meygjgDtG1kB8-FV4IATS .node-typeHash-j .node-header{fill:#854797;}[data-theme="dark"] .refinery-meygjgDtG1kB8-FV4IATS .node-typeHash-k .node-header{fill:#3982bb;}[data-theme="dark"] .refinery-meygjgDtG1kB8-FV4IATS .node-typeHash-l .node-header{fill:#827662;}[data-theme="dark"] .refinery-meygjgDtG1kB8-FV4IATS .node-typeHash-m .node-header{fill:#904f53;}[data-theme="dark"] .refinery-meygjgDtG1kB8-FV4IATS .node-typeHash-n .node-header{fill:#647e63;}[data-theme="dark"] .refinery-meygjgDtG1kB8-FV4IATS .node-typeHash-o .node-header{fill:#805f89;}[data-theme="dark"] .refinery-meygjgDtG1kB8-FV4IATS .node-typeHash-p .node-header{fill:#4f7799;}[data-theme="dark"] .refinery-meygjgDtG1kB8-FV4IATS .edge text{font-family:"Open Sans Variable","Open Sans","Roboto","Helvetica","Arial",sans-serif;fill:#ebebff;}[data-theme="dark"] .refinery-meygjgDtG1kB8-FV4IATS .edge .edge-line{stroke:#ebebff;}[data-theme="dark"] .refinery-meygjgDtG1kB8-FV4IATS .edge .edge-arrow{fill:#ebebff;}[data-theme="dark"] .refinery-meygjgDtG1kB8-FV4IATS .edge-UNKNOWN text{fill:#abb2bf;}[data-theme="dark"] .refinery-meygjgDtG1kB8-FV4IATS .edge-UNKNOWN .edge-line{stroke:#abb2bf;}[data-theme="dark"] .refinery-meygjgDtG1kB8-FV4IATS .edge-UNKNOWN .edge-arrow{fill:none;}[data-theme="dark"] .refinery-meygjgDtG1kB8-FV4IATS .edge-ERROR text{fill:#e06c75;}[data-theme="dark"] .refinery-meygjgDtG1kB8-FV4IATS .edge-ERROR .edge-line{stroke:#e06c75;}[data-theme="dark"] .refinery-meygjgDtG1kB8-FV4IATS .edge-ERROR .edge-arrow{fill:#e06c75;}[data-theme="dark"] .refinery-meygjgDtG1kB8-FV4IATS .icon-TRUE{fill:#ebebff;}[data-theme="dark"] .refinery-meygjgDtG1kB8-FV4IATS .icon-UNKNOWN{fill:#abb2bf;}[data-theme="dark"] .refinery-meygjgDtG1kB8-FV4IATS .icon-ERROR{fill:#e06c75;}[data-theme="dark"] .refinery-meygjgDtG1kB8-FV4IATS text.label-UNKNOWN{fill:#abb2bf;}[data-theme="dark"] .refinery-meygjgDtG1kB8-FV4IATS text.label-ERROR{fill:#e06c75;}</style><defs><svg xmlns="http://www.w3.org/2000/svg" width="24" height="24" viewBox="0 0 24 24" id="refinery-meygjgDtG1kB8-FV4IATS-icon-TRUE" class="icon-TRUE"><path d="M17.63 5.84C17.27 5.33 16.67 5 16 5L5 5.01C3.9 5.01 3 5.9 3 7v10c0 1.1.9 1.99 2 1.99L16 19c.67 0 1.27-.33 1.63-.84L22 12l-4.37-6.16z"/></svg><svg xmlns="http://www.w3.org/2000/svg" width="24" height="24" viewBox="0 0 24 24" id="refinery-meygjgDtG1kB8-FV4IATS-icon-UNKNOWN" class="icon-UNKNOWN"><path d="M17.63 5.84C17.27 5.33 16.67 5 16 5L5 5.01C3.9 5.01 3 5.9 3 7v10c0 1.1.9 1.99 2 1.99L16 19c.67 0 1.27-.33 1.63-.84L22 12l-4.37-6.16zM16 17H5V7h11l3.55 5L16 17z"/></svg><svg xmlns="http://www.w3.org/2000/svg" width="24" height="24" viewBox="0 0 24 24" id="refinery-meygjgDtG1kB8-FV4IATS-icon-ERROR" class="icon-ERROR"><path d="M12 2C6.47 2 2 6.47 2 12s4.47 10 10 10s10-4.47 10-10S17.53 2 12 2zm5 13.59L15.59 17L12 13.41L8.41 17L7 15.59L10.59 12L7 8.41L8.41 7L12 10.59L15.59 7L17 8.41L13.41 12L17 15.59z"/></svg></defs>
<g class="graph" transform="translate(4, 52.79999923706055)">
<!-- n0 -->
<g class="node node-IMPLICIT node-exists-TRUE node-equalsSelf-TRUE">

<rect stroke="none" x="0" y="-48.8" width="59.74" height="48.8" rx="12" ry="12" class="node-bg"/>
<rect stroke="none" x="-4" y="-52" width="67" height="27" clip-path="url(#refinery-meygjgDtG1kB8-FV4IATS-clip-0)" class="node-header"/>
<text text-anchor="start" x="6.58" y="-33" font-size="12.00">node [1]</text>


<polyline points="0,-25.4 59.74,-25.4" class="node-outline"/><use x="6" y="-19.2" width="12" height="12" id="" class="icon icon-TRUE" href="#refinery-meygjgDtG1kB8-FV4IATS-icon-TRUE"/>
<rect fill="none" x="0" y="-48.8" width="59.74" height="48.8" rx="12" ry="12" class="node-outline"/><g><text text-anchor="start" x="22" y="-9.6" font-size="12.00" class="label label-TRUE">exists</text>
</g>
<clipPath id="refinery-meygjgDtG1kB8-FV4IATS-clip-0"><rect stroke="none" x="0" y="-48.8" width="59.74" height="48.8" rx="12" ry="12" class="node-bg"/></clipPath></g>
<!-- n0&#45;&gt;n0 -->
<g class="edge edge-TRUE">

<path fill="none" d="M59.32,-33.55C69.51,-33.64 77.74,-30.6 77.74,-24.4 77.74,-20.82 74.99,-18.29 70.7,-16.81" class="edge-line"/>
<polygon points="71.2,-13.35 60.82,-15.46 70.25,-20.28 71.2,-13.35" class="edge-line edge-arrow"/>
<text text-anchor="middle" x="75.93" y="-36.7" font-size="10.50">equals</text>
</g>
<!-- n1 -->
<g class="node node-IMPLICIT node-exists-UNKNOWN node-equalsSelf-TRUE">

<rect stroke="none" x="95.38" y="-48.8" width="100.98000000000002" height="48.8" rx="12" ry="12" class="node-bg"/>
<rect stroke="none" x="91" y="-52" width="108" height="27" clip-path="url(#refinery-meygjgDtG1kB8-FV4IATS-clip-1)" class="node-header"/>
<text text-anchor="start" x="100.38" y="-33" font-size="12.00">removable [0..1]</text>


<use x="101.384" y="-19.2" width="12" height="12" id="" class="icon icon-UNKNOWN" href="#refinery-meygjgDtG1kB8-FV4IATS-icon-UNKNOWN"/>
<g><text text-anchor="start" x="117.38" y="-9.6" font-size="12.00" class="label label-UNKNOWN">exists</text>
</g>
<polyline points="95.38,-25.4 196.36,-25.4" class="node-outline"/><rect fill="none" x="95.38" y="-48.8" width="100.98000000000002" height="48.8" rx="12" ry="12" class="node-outline"/><clipPath id="refinery-meygjgDtG1kB8-FV4IATS-clip-1"><rect stroke="none" x="95.38" y="-48.8" width="100.98000000000002" height="48.8" rx="12" ry="12" class="node-bg"/></clipPath></g>
<!-- n1&#45;&gt;n1 -->
<g class="edge edge-TRUE">

<path fill="none" d="M196.34,-33.23C206.82,-32.3 214.36,-29.36 214.36,-24.4 214.36,-21.46 211.7,-19.22 207.35,-17.7" class="edge-line"/>
<polygon points="208.31,-14.32 197.83,-15.86 206.98,-21.2 208.31,-14.32" class="edge-line edge-arrow"/>
<text text-anchor="middle" x="213.45" y="-36.29" font-size="10.50">equals</text>
</g>
<!-- n2 -->
<g class="node node-IMPLICIT node-exists-TRUE node-equalsSelf-UNKNOWN"><rect stroke="none" x="237.5" y="-42.5" width="70" height="49" rx="12.5" ry="12.5" class="node-shadow node-bg"/>

<rect stroke="none" x="232.01" y="-48.8" width="69.72000000000003" height="48.8" rx="12" ry="12" class="node-bg"/>
<rect stroke="none" x="228" y="-52" width="77" height="27" clip-path="url(#refinery-meygjgDtG1kB8-FV4IATS-clip-2)" class="node-header"/>
<text text-anchor="start" x="237.01" y="-33" font-size="12.00">multi [1..*]</text>
<use x="238.011" y="-19.2" width="12" height="12" id="" class="icon icon-TRUE" href="#refinery-meygjgDtG1kB8-FV4IATS-icon-TRUE"/>
<g><text text-anchor="start" x="254.01" y="-9.6" font-size="12.00" class="label label-TRUE">exists</text>
</g>
<polyline points="232.01,-25.4 301.73,-25.4" class="node-outline"/>
<rect fill="none" x="232.01" y="-48.8" width="69.72000000000003" height="48.8" rx="12" ry="12" class="node-outline"/>
<clipPath id="refinery-meygjgDtG1kB8-FV4IATS-clip-2"><rect stroke="none" x="232.01" y="-48.8" width="69.72000000000003" height="48.8" rx="12" ry="12" class="node-bg"/></clipPath></g>
<!-- n2&#45;&gt;n2 -->
<g class="edge edge-UNKNOWN">

<path fill="none" d="M301.69,-33.52C311.86,-33.21 319.73,-30.17 319.73,-24.4 319.73,-21.07 317.1,-18.64 312.91,-17.13" class="edge-line" stroke-dasharray="5,2"/>
<polygon points="313.62,-13.7 303.19,-15.52 312.48,-20.61 313.62,-13.7" class="edge-line edge-arrow"/>
<text text-anchor="middle" x="318.3" y="-36.66" font-size="10.50">equals</text>
</g>
<!-- n3 -->
<g class="node node-IMPLICIT node-exists-UNKNOWN node-equalsSelf-UNKNOWN"><rect stroke="none" x="342.5" y="-42.5" width="130" height="49" rx="12.5" ry="12.5" class="node-shadow node-bg"/>

<rect stroke="none" x="337.25" y="-48.8" width="129.24" height="48.8" rx="12" ry="12" class="node-bg"/>
<rect stroke="none" x="333" y="-52" width="137" height="27" clip-path="url(#refinery-meygjgDtG1kB8-FV4IATS-clip-3)" class="node-header"/>
<text text-anchor="start" x="342.25" y="-33" font-size="12.00">removableMulti [0..*]</text>
<use x="343.251" y="-19.2" width="12" height="12" id="" class="icon icon-UNKNOWN" href="#refinery-meygjgDtG1kB8-FV4IATS-icon-UNKNOWN"/>
<g><text text-anchor="start" x="359.25" y="-9.6" font-size="12.00" class="label label-UNKNOWN">exists</text>
</g>
<polyline points="337.25,-25.4 466.49,-25.4" class="node-outline"/>
<rect fill="none" x="337.25" y="-48.8" width="129.24" height="48.8" rx="12" ry="12" class="node-outline"/>
<clipPath id="refinery-meygjgDtG1kB8-FV4IATS-clip-3"><rect stroke="none" x="337.25" y="-48.8" width="129.24" height="48.8" rx="12" ry="12" class="node-bg"/></clipPath></g>
<!-- n3&#45;&gt;n3 -->
<g class="edge edge-UNKNOWN">

<path fill="none" stroke-dasharray="5,2" d="M466.3,-32.9C477.06,-31.71 484.49,-28.88 484.49,-24.4 484.49,-21.74 481.87,-19.66 477.49,-18.16" class="edge-line"/>
<polygon points="478.28,-14.75 467.78,-16.2 476.89,-21.61 478.28,-14.75" class="edge-line edge-arrow"/>
<text text-anchor="middle" x="483.44" y="-35.94" font-size="10.50">equals</text>
</g>
</g>
</svg>