<?xml version="1.0" encoding="UTF-8" standalone="no"?>
<svg width="260pt" height="157pt" viewBox="-6 -6 271.9100036621094 169.1999969482422" xmlns="http://www.w3.org/2000/svg" xmlns:xlink="http://www.w3.org/1999/xlink" class="refinery--ID4ju8v8LPQmawWdGqBG"><style>.refinery--ID4ju8v8LPQmawWdGqBG .node text{font-family:"Open Sans Variable","Open Sans","Roboto","Helvetica","Arial",sans-serif;fill:#19202b;}.refinery--ID4ju8v8LPQmawWdGqBG .node .node-outline{stroke:#19202b;}.refinery--ID4ju8v8LPQmawWdGqBG .node .node-header{fill:rgb(53, 161, 173);}.refinery--ID4ju8v8LPQmawWdGqBG .node .node-bg{fill:#fff;}.refinery--ID4ju8v8LPQmawWdGqBG .node-INDIVIDUAL .node-outline{stroke-width:2;}.refinery--ID4ju8v8LPQmawWdGqBG .node-shadow.node-bg{fill:#19202b;opacity:0.24;}.refinery--ID4ju8v8LPQmawWdGqBG .node-exists-UNKNOWN .node-outline{stroke-dasharray:5 2;}.refinery--ID4ju8v8LPQmawWdGqBG .node-typeHash-g .node-header{fill:#e5c07b;}.refinery--ID4ju8v8LPQmawWdGqBG .node-typeHash-h .node-header{fill:#e06c75;}.refinery--ID4ju8v8LPQmawWdGqBG .node-typeHash-i .node-header{fill:#98c379;}.refinery--ID4ju8v8LPQmawWdGqBG .node-typeHash-j .node-header{fill:#c678dd;}.refinery--ID4ju8v8LPQmawWdGqBG .node-typeHash-k .node-header{fill:#80a7f4;}.refinery--ID4ju8v8LPQmawWdGqBG .node-typeHash-l .node-header{fill:#e3d1b2;}.refinery--ID4ju8v8LPQmawWdGqBG .node-typeHash-m .node-header{fill:#e78b8f;}.refinery--ID4ju8v8LPQmawWdGqBG .node-typeHash-n .node-header{fill:#abcc94;}.refinery--ID4ju8v8LPQmawWdGqBG .node-typeHash-o .node-header{fill:#dbb2e8;}.refinery--ID4ju8v8LPQmawWdGqBG .node-typeHash-p .node-header{fill:#92c0e9;}.refinery--ID4ju8v8LPQmawWdGqBG .edge text{font-family:"Open Sans Variable","Open Sans","Roboto","Helvetica","Arial",sans-serif;fill:#19202b;}.refinery--ID4ju8v8LPQmawWdGqBG .edge .edge-line{stroke:#19202b;}.refinery--ID4ju8v8LPQmawWdGqBG .edge .edge-arrow{fill:#19202b;}.refinery--ID4ju8v8LPQmawWdGqBG .edge-UNKNOWN text{fill:#696c77;}.refinery--ID4ju8v8LPQmawWdGqBG .edge-UNKNOWN .edge-line{stroke:#696c77;}.refinery--ID4ju8v8LPQmawWdGqBG .edge-UNKNOWN .edge-arrow{fill:none;}.refinery--ID4ju8v8LPQmawWdGqBG .edge-ERROR text{fill:#ca1243;}.refinery--ID4ju8v8LPQmawWdGqBG .edge-ERROR .edge-line{stroke:#ca1243;}.refinery--ID4ju8v8LPQmawWdGqBG .edge-ERROR .edge-arrow{fill:#ca1243;}.refinery--ID4ju8v8LPQmawWdGqBG .icon-TRUE{fill:#19202b;}.refinery--ID4ju8v8LPQmawWdGqBG .icon-UNKNOWN{fill:#696c77;}.refinery--ID4ju8v8LPQmawWdGqBG .icon-ERROR{fill:#ca1243;}.refinery--ID4ju8v8LPQmawWdGqBG text.label-UNKNOWN{fill:#696c77;}.refinery--ID4ju8v8LPQmawWdGqBG text.label-ERROR{fill:#ca1243;}[data-theme="dark"] .refinery--ID4ju8v8LPQmawWdGqBG .node text{font-family:"Open Sans Variable","Open Sans","Roboto","Helvetica","Arial",sans-serif;fill:#ebebff;}[data-theme="dark"] .refinery--ID4ju8v8LPQmawWdGqBG .node .node-outline{stroke:#ebebff;}[data-theme="dark"] .refinery--ID4ju8v8LPQmawWdGqBG .node .node-header{fill:rgb(60, 127, 135);}[data-theme="dark"] .refinery--ID4ju8v8LPQmawWdGqBG .node .node-bg{fill:#282c34;}[data-theme="dark"] .refinery--ID4ju8v8LPQmawWdGqBG .node-INDIVIDUAL .node-outline{stroke-width:2;}[data-theme="dark"] .refinery--ID4ju8v8LPQmawWdGqBG .node-shadow.node-bg{fill:#ebebff;opacity:0.32;}[data-theme="dark"] .refinery--ID4ju8v8LPQmawWdGqBG .node-exists-UNKNOWN .node-outline{stroke-dasharray:5 2;}[data-theme="dark"] .refinery--ID4ju8v8LPQmawWdGqBG .node-typeHash-g .node-header{fill:#ae8003;}[data-theme="dark"] .refinery--ID4ju8v8LPQmawWdGqBG .node-typeHash-h .node-header{fill:#a23b47;}[data-theme="dark"] .refinery--ID4ju8v8LPQmawWdGqBG .node-typeHash-i .node-header{fill:#428141;}[data-theme="dark"] .refinery--ID4ju8v8LPQmawWdGqBG .node-typeHash-j .node-header{fill:#854797;}[data-theme="dark"] .refinery--ID4ju8v8LPQmawWdGqBG .node-typeHash-k .node-header{fill:#3982bb;}[data-theme="dark"] .refinery--ID4ju8v8LPQmawWdGqBG .node-typeHash-l .node-header{fill:#827662;}[data-theme="dark"] .refinery--ID4ju8v8LPQmawWdGqBG .node-typeHash-m .node-header{fill:#904f53;}[data-theme="dark"] .refinery--ID4ju8v8LPQmawWdGqBG .node-typeHash-n .node-header{fill:#647e63;}[data-theme="dark"] .refinery--ID4ju8v8LPQmawWdGqBG .node-typeHash-o .node-header{fill:#805f89;}[data-theme="dark"] .refinery--ID4ju8v8LPQmawWdGqBG .node-typeHash-p .node-header{fill:#4f7799;}[data-theme="dark"] .refinery--ID4ju8v8LPQmawWdGqBG .edge text{font-family:"Open Sans Variable","Open Sans","Roboto","Helvetica","Arial",sans-serif;fill:#ebebff;}[data-theme="dark"] .refinery--ID4ju8v8LPQmawWdGqBG .edge .edge-line{stroke:#ebebff;}[data-theme="dark"] .refinery--ID4ju8v8LPQmawWdGqBG .edge .edge-arrow{fill:#ebebff;}[data-theme="dark"] .refinery--ID4ju8v8LPQmawWdGqBG .edge-UNKNOWN text{fill:#abb2bf;}[data-theme="dark"] .refinery--ID4ju8v8LPQmawWdGqBG .edge-UNKNOWN .edge-line{stroke:#abb2bf;}[data-theme="dark"] .refinery--ID4ju8v8LPQmawWdGqBG .edge-UNKNOWN .edge-arrow{fill:none;}[data-theme="dark"] .refinery--ID4ju8v8LPQmawWdGqBG .edge-ERROR text{fill:#e06c75;}[data-theme="dark"] .refinery--ID4ju8v8LPQmawWdGqBG .edge-ERROR .edge-line{stroke:#e06c75;}[data-theme="dark"] .refinery--ID4ju8v8LPQmawWdGqBG .edge-ERROR .edge-arrow{fill:#e06c75;}[data-theme="dark"] .refinery--ID4ju8v8LPQmawWdGqBG .icon-TRUE{fill:#ebebff;}[data-theme="dark"] .refinery--ID4ju8v8LPQmawWdGqBG .icon-UNKNOWN{fill:#abb2bf;}[data-theme="dark"] .refinery--ID4ju8v8LPQmawWdGqBG .icon-ERROR{fill:#e06c75;}[data-theme="dark"] .refinery--ID4ju8v8LPQmawWdGqBG text.label-UNKNOWN{fill:#abb2bf;}[data-theme="dark"] .refinery--ID4ju8v8LPQmawWdGqBG text.label-ERROR{fill:#e06c75;}</style><defs><svg xmlns="http://www.w3.org/2000/svg" width="24" height="24" viewBox="0 0 24 24" id="refinery--ID4ju8v8LPQmawWdGqBG-icon-TRUE" class="icon-TRUE"><path d="M17.63 5.84C17.27 5.33 16.67 5 16 5L5 5.01C3.9 5.01 3 5.9 3 7v10c0 1.1.9 1.99 2 1.99L16 19c.67 0 1.27-.33 1.63-.84L22 12l-4.37-6.16z"/></svg><svg xmlns="http://www.w3.org/2000/svg" width="24" height="24" viewBox="0 0 24 24" id="refinery--ID4ju8v8LPQmawWdGqBG-icon-UNKNOWN" class="icon-UNKNOWN"><path d="M17.63 5.84C17.27 5.33 16.67 5 16 5L5 5.01C3.9 5.01 3 5.9 3 7v10c0 1.1.9 1.99 2 1.99L16 19c.67 0 1.27-.33 1.63-.84L22 12l-4.37-6.16zM16 17H5V7h11l3.55 5L16 17z"/></svg><svg xmlns="http://www.w3.org/2000/svg" width="24" height="24" viewBox="0 0 24 24" id="refinery--ID4ju8v8LPQmawWdGqBG-icon-ERROR" class="icon-ERROR"><path d="M12 2C6.47 2 2 6.47 2 12s4.47 10 10 10s10-4.47 10-10S17.53 2 12 2zm5 13.59L15.59 17L12 13.41L8.41 17L7 15.59L10.59 12L7 8.41L8.41 7L12 10.59L15.59 7L17 8.41L13.41 12L17 15.59z"/></svg></defs>
<g class="graph" transform="scale(1 1) rotate(0) translate(4 153.2)">
<!-- n0 -->
<g class="node node-NEW node-exists-UNKNOWN node-equalsSelf-UNKNOWN node-typeHash-k"><rect stroke="none" x="74.5" y="-143.5" width="117" height="49" rx="12.5" ry="12.5" class="node-shadow node-bg"/>

<rect stroke="none" x="69.26" y="-149.2" width="116.17999999999999" height="48.79999999999998" rx="12" ry="12" class="node-bg"/>
<rect stroke="none" x="65" y="-153" width="124" height="27" clip-path="url(#refinery--ID4ju8v8LPQmawWdGqBG-clip-0)" class="node-header"/>
<text text-anchor="start" x="74.26" y="-133.4" font-size="12.00">Region::new [0..70]</text>
<use x="75.2588" y="-119.6" width="12" height="12" id="" class="icon icon-TRUE" href="#refinery--ID4ju8v8LPQmawWdGqBG-icon-TRUE"/>
<g><text text-anchor="start" x="91.26" y="-110" font-size="12.00" class="label label-TRUE">Region</text>
</g>
<polyline points="69.26,-125.8 185.44,-125.8" class="node-outline"/>
<rect fill="none" x="69.26" y="-149.2" width="116.17999999999999" height="48.79999999999998" rx="12" ry="12" class="node-outline"/>
<clipPath id="refinery--ID4ju8v8LPQmawWdGqBG-clip-0"><rect stroke="none" x="69.26" y="-149.2" width="116.17999999999999" height="48.79999999999998" rx="12" ry="12" class="node-bg"/></clipPath></g>
<!-- n2 -->
<g class="node node-NEW node-exists-UNKNOWN node-equalsSelf-UNKNOWN node-typeHash-j"><rect stroke="none" x="143.5" y="-58.5" width="114" height="65" rx="12.5" ry="12.5" class="node-shadow node-bg"/>

<rect stroke="none" x="138.78" y="-64.4" width="113.13" height="64.4" rx="12" ry="12" class="node-bg"/>
<rect stroke="none" x="134" y="-68" width="121" height="27" clip-path="url(#refinery--ID4ju8v8LPQmawWdGqBG-clip-1)" class="node-header"/>
<text text-anchor="start" x="143.78" y="-48.6" font-size="12.00">State::new [0..120]</text>
<use x="144.782" y="-35" width="12" height="12" id="" class="icon icon-TRUE" href="#refinery--ID4ju8v8LPQmawWdGqBG-icon-TRUE"/>
<g><text text-anchor="start" x="160.77" y="-25.2" font-size="12.00" class="label label-TRUE">Vertex</text>
</g>
<use x="144.782" y="-19" width="12" height="12" id="" class="icon icon-TRUE" href="#refinery--ID4ju8v8LPQmawWdGqBG-icon-TRUE"/>
<g><text text-anchor="start" x="160.78" y="-9.2" font-size="12.00" class="label label-TRUE">State</text>
</g>
<polyline points="138.78,-41 251.91,-41" class="node-outline"/>
<rect fill="none" x="138.78" y="-64.4" width="113.13" height="64.4" rx="12" ry="12" class="node-outline"/>
<clipPath id="refinery--ID4ju8v8LPQmawWdGqBG-clip-1"><rect stroke="none" x="138.78" y="-64.4" width="113.13" height="64.4" rx="12" ry="12" class="node-bg"/></clipPath></g><g class="node node-NEW node-exists-UNKNOWN node-equalsSelf-UNKNOWN node-typeHash-h"><rect stroke="none" x="5.5" y="-50.5" width="121" height="49" rx="12.5" ry="12.5" class="node-shadow node-bg"/>

<rect stroke="none" x="0" y="-56.6" width="120.7" height="48.800000000000004" rx="12" ry="12" class="node-bg"/>
<rect stroke="none" x="-4" y="-60" width="128" height="27" clip-path="url(#refinery--ID4ju8v8LPQmawWdGqBG-clip-2)" class="node-header"/>
<text text-anchor="start" x="5" y="-40.8" font-size="12.00">Vertex::new [0..120]</text>
<use x="6" y="-27" width="12" height="12" id="" class="icon icon-TRUE" href="#refinery--ID4ju8v8LPQmawWdGqBG-icon-TRUE"/>
<g><text text-anchor="start" x="22" y="-17.4" font-size="12.00" class="label label-TRUE">Vertex</text>
</g>
<polyline points="0,-33.2 120.7,-33.2" class="node-outline"/>
<rect fill="none" x="0" y="-56.6" width="120.7" height="48.800000000000004" rx="12" ry="12" class="node-outline"/>
<clipPath id="refinery--ID4ju8v8LPQmawWdGqBG-clip-2"><rect stroke="none" x="0" y="-56.6" width="120.7" height="48.800000000000004" rx="12" ry="12" class="node-bg"/></clipPath></g>
<!-- n0&#45;&gt;n2 -->
<g class="edge edge-UNKNOWN">

<path fill="none" stroke-width="2" stroke-dasharray="5,2" d="M110.09,-100.47C102.28,-89.9 92.91,-77.23 84.42,-65.75" class="edge-line"/>
<polygon stroke-width="2" points="87.01,-64.1 79.34,-58.89 82.08,-67.74 87.01,-64.1" class="edge-line edge-arrow"/>
<text text-anchor="start" x="52.27" y="-82.58" font-weight="bold" font-size="10.50">vertices</text>
</g>
<!-- n3 -->

<!-- n3&#45;&gt;n2 -->
<g class="edge edge-UNKNOWN">

<path fill="none" stroke-width="2" stroke-dasharray="5,2" d="M144.86,-100.47C150.99,-92.3 158.07,-82.87 164.95,-73.7" class="edge-line"/>
<polygon stroke-width="2" points="167.38,-75.57 170.18,-66.73 162.48,-71.89 167.38,-75.57" class="edge-line edge-arrow"/>
<text text-anchor="start" x="116.95" y="-86.47" font-weight="bold" font-size="10.50">vertices</text>
</g>
</g>
</svg>