<svg xmlns="http://www.w3.org/2000/svg" width="1280" height="720" viewBox="0 0 1280 720"><path fill="#fff" fill-opacity=".4" d="M0 95h1280v530H0z"/><path class="videocolor" fill-opacity=".702" d="M0 171h1205v378H0z"/><path class="videohighlight" d="M1261 95h19v530h-19z"/><path class="videocolor" d="M0 171h19v378H0z"/><g class="videotitle"><path fill-rule="evenodd" d="M1143 387.09v26.293c-69.4 3.985-192.57 26.695-256 95.615v-31.074c64.343-63.744 180.16-88.046 256-90.834M887 211c55.152 64.14 162.7 91.63 256 98.004V335.3c-93.3 6.374-200.85 33.866-256 98.003v-30.676c22.983-34.262 96.979-66.532 153.51-80.476-56.535-13.944-130.53-46.214-153.51-80.475z"/><text font-size="72" font-weight="800" transform="translate(31 439)">Video</text><text font-size="72" font-weight="800" transform="translate(31 525)">introduction</text></g><path class="videoplay" fill-rule="evenodd" d="M593.12 284.23v151.53l131.07-75.765zm46.879-85.227c88.918 0 161 72.082 161 161s-72.082 161-161 161-161-72.082-161-161 72.082-161 161-161"/></svg>
