<svg xmlns="http://www.w3.org/2000/svg" width="328" height="189" viewBox="0 0 328 189"><path d="m223.98 61.834-4.984.18.048 1.332 4.961-.178.54.016.042-1.332-.562-.018zm3.006.094-.041 1.332 5.547.174.04-1.332zm-10.39.174-5.398.193-.044.004-.147.015.137 1.327.125-.014 5.377-.193zm18.335.074-.041 1.334 1.853.058 3.633.36.131-1.326-3.654-.364-.045-.002zm-26.312.387-5.52.574.14 1.326 5.519-.574zm34.277.275-.131 1.328 5.522.549.132-1.328zm-42.184.547-2.28.236-.044.008-3.211.555.226 1.314 3.19-.553 2.256-.234zm50.129.328-.22 1.314 5.472.92.22-1.314zm-58.03.879-5.468.947.229 1.313 5.468-.946zm65.87.44-.22 1.314 3.542.595 1.897.385.263-1.306-1.906-.387-.021-.004zm-73.734.98-5.393 1.312.315 1.295 5.392-1.312zm81.57.486-.266 1.307 5.438 1.103.265-1.306zm-89.295 1.393-3.906.95-.043.013-1.46.462.403 1.272 1.438-.455 3.882-.945zm97.086.19-.266 1.306 5.438 1.103.265-1.306zm7.79 1.581-.265 1.307 5.438 1.103.265-1.306zm-112.57.379-5.29 1.674.402 1.271 5.291-1.675zm120.37 1.203-.265 1.307 5.438 1.105.265-1.306zm-127.94 1.195-.866.274-.041.014-4.323 1.697.489 1.24 4.298-1.687.844-.268zm135.73.387-.263 1.307 5.438 1.105.265-1.306zm7.792 1.582-.264 1.307 1.156.236.266-1.307zm-150.99.893-5.166 2.027.486 1.24 5.168-2.027zm-7.383 3.058-5.018 2.371.57 1.206 5.018-2.372zm-7.187 3.397-2.377 1.125-.041.02-2.55 1.423.651 1.164 2.53-1.412 2.357-1.115zm-7.063 3.738-4.846 2.705.65 1.164 4.846-2.705zm-6.963 3.926-4.652 3.027.726 1.117 4.653-3.027zm-6.664 4.336-3.644 2.373-.038.025-.96.72.8 1.067.944-.707 3.625-2.361zm-6.56 4.562-4.438 3.334.8 1.065 4.438-3.334zm-6.356 4.776-.984.74-.035.03-3.27 2.82.871 1.01 3.252-2.807.967-.727zm-6.105 5.158-4.202 3.625.871 1.01 4.202-3.625zm-5.965 5.318-3.948 3.903.938.947 3.947-3.902zm-5.655 5.59-2.091 2.069-.032.033-1.726 1.953 1 .883 1.71-1.936 2.077-2.055zm-5.437 5.856-3.674 4.16 1 .88 3.674-4.16zm-5.281 6-3.385 4.4 1.057.813 3.384-4.399zm-4.848 6.302-2.834 3.686-.027.037-.5.748 1.11.74.487-.73 2.82-3.668zm-4.691 6.467-3.078 4.62 1.109.738 3.078-4.618zm-4.41 6.615-.846 1.27-.026.039-2 3.492 1.157.662 1.99-3.472.834-1.25zm-4.065 6.883-2.758 4.815 1.156.664 2.76-4.817zm-3.916 6.944-2.594 4.906 1.178.623 2.596-4.906zm-3.715 7.027-2.596 4.906 1.18.623 2.594-4.906zm-3.717 7.027-2.595 4.906 1.18.625 2.593-4.906z" class="ucdraw"/><g class="uchighlight"><path d="m240.37 55.167-.066 2.333-9.803-3.814 10-3.186-.065 2.333z"/><path d="m240.3 49.865-10 3.186a.667.667 0 0 0-.04 1.255l9.804 3.815a.667.667 0 0 0 .908-.602l.133-4.668.064-2.332a.667.667 0 0 0-.869-.654m-.488 1.555-.04 1.394-.066 2.334-.039 1.387-7.164-2.787z"/></g><g class="uchighlight"><path d="m130.34 78.475 1.156 1.987-11 2.038 7.533-8 1.156 1.987z"/><path d="M128.11 73.838a.67.67 0 0 0-.562.205l-7.534 8a.667.667 0 0 0 .608 1.113l11-2.039a.667.667 0 0 0 .455-.99l-1.156-1.986-1.155-1.989-1.156-1.988a.67.67 0 0 0-.5-.326zm-.203 1.77.707 1.214 1.154 1.989.68 1.168-8.063 1.494z"/></g><g class="uchighlight"><path d="m50.436 158.7 2.064 1.098-8 7.707 1.808-11 2.064 1.097z"/><path d="M46.012 155.9a.67.67 0 0 0-.361.49l-1.809 11a.667.667 0 0 0 1.121.588l8-7.707a.667.667 0 0 0-.15-1.068l-2.063-1.1-2.064-1.098-2.065-1.095a.67.67 0 0 0-.61-.01zm.805 1.621 1.242.662 2.064 1.098 1.254.666-5.892 5.676z"/></g><g class="uchighlight"><path d="M152.5 31.834c-10.52 0-20.61 4.18-28.049 11.617a39.674 39.674 0 0 0 0 56.098A39.667 39.667 0 1 0 152.5 31.834m0 1.332a38.337 38.337 0 0 1 27.107 65.439A38.336 38.336 0 0 1 114.166 71.5 38.335 38.335 0 0 1 152.5 33.166"/><path d="m162.7 60.635-25.027 10.097 24.341-8.45 3.626 9.433-22.578 8.92-3.938-9.971-1.448.073-.021-.03 4.694 11.674 25.022-9.915z"/><path d="M157.6 65.863a.67.67 0 0 0-.559.076l-10.902 7a.667.667 0 0 0 .46 1.22l13-1.958a.667.667 0 0 0 .515-.916l-2.098-5.041a.67.67 0 0 0-.416-.381zm-.508 1.627 1.463 3.518-9.072 1.367z"/></g><path d="m187.7 68.619-25.053 10.393 24.277-8.664 3.723 9.904-22.586 9.367-3.753-9.97 22.515-9.265-24.177 8.628.227.604 4.423 11.766 25.053-10.393z" class="ucdraw"/><g class="ucdraw"><path d="M86.871 166.16h4v1h-4zM93.46 165.34a.75.75 0 0 0-.628.3q-.23.3-.23.823 0 .519.23.822.232.3.628.301c.396.001.473-.1.627-.301q.23-.303.23-.822 0-.523-.23-.822a.75.75 0 0 0-.627-.301m1.167-2.044v.594a2.2 2.2 0 0 0-.447-.177 1.7 1.7 0 0 0-.447-.062q-.581 0-.89.436-.305.436-.35 1.317.172-.28.43-.43.26-.15.571-.15.656 0 1.035.44.38.44.38 1.199 0 .742-.396 1.192-.396.448-1.053.448-.754 0-1.153-.64-.398-.642-.398-1.859 0-1.142.489-1.822t1.312-.68q.22 0 .447.05.225.048.47.144M97.41 163.62q-.454 0-.682.496-.228.494-.228 1.49 0 .99.228 1.485.23.496.682.496.457 0 .685-.496.228-.495.229-1.486 0-.995-.23-1.49-.227-.495-.684-.495m0-.516q.73 0 1.115.641.386.64.386 1.86 0 1.216-.386 1.858-.384.64-1.115.64-.73 0-1.114-.64-.386-.641-.386-1.858 0-1.22.386-1.86.385-.641 1.114-.641M115.87 166.16h4v1h-4zM121.1 163.1h2.462v.56h-1.888v1.2a1.6 1.6 0 0 1 .547-.097q.776 0 1.23.45t.453 1.218q0 .791-.466 1.23-.465.44-1.314.439-.291 0-.595-.053a4.5 4.5 0 0 1-.625-.157v-.668a2.37 2.37 0 0 0 1.208.319q.538 0 .85-.299.314-.299.314-.811t-.314-.81q-.312-.3-.85-.3-.252 0-.502.059t-.51.184zM125.1 163.1h2.462v.56h-1.888v1.2a1.6 1.6 0 0 1 .547-.097q.776 0 1.23.45t.453 1.218q0 .791-.466 1.23-.465.44-1.313.439-.293 0-.596-.053a4.5 4.5 0 0 1-.625-.157v-.668a2.36 2.36 0 0 0 1.208.319q.537 0 .85-.299.314-.299.314-.811t-.314-.81q-.312-.3-.85-.3-.252 0-.502.059-.249.058-.51.184zM144.91 166.16h3v1h-3zM150.11 163.1h2.462v.56h-1.888v1.2a1.6 1.6 0 0 1 .547-.097q.776 0 1.23.45t.453 1.218q0 .791-.466 1.23-.465.44-1.314.439-.291 0-.595-.053a4.5 4.5 0 0 1-.625-.157v-.668a2.36 2.36 0 0 0 1.208.319q.537 0 .85-.299.315-.299.314-.811 0-.512-.314-.81-.313-.3-.85-.3-.252 0-.502.059t-.51.184zM155.41 163.62q-.453 0-.682.496-.228.494-.228 1.49 0 .99.228 1.485.23.496.682.496.457 0 .685-.496.228-.495.229-1.486 0-.995-.23-1.49-.227-.495-.684-.495m0-.516q.73 0 1.115.641.385.64.385 1.86 0 1.216-.385 1.858-.384.64-1.115.64-.73 0-1.114-.64-.385-.641-.385-1.858 0-1.22.385-1.86.384-.641 1.114-.641M172.88 166.16h4v1h-4zM180.37 163.7l-1.875 2.67h1.875zm-.195-.59h.934v3.26h.783v.562h-.783v1.179h-.739v-1.18h-2.478v-.652zM182.11 163.1h2.462v.56h-1.888v1.2a1.6 1.6 0 0 1 .547-.097q.776 0 1.23.45t.453 1.218q0 .791-.466 1.23-.465.44-1.314.439-.291 0-.595-.053a4.5 4.5 0 0 1-.625-.157v-.668a2.36 2.36 0 0 0 1.208.319q.538 0 .85-.299.314-.299.314-.811t-.314-.81q-.312-.3-.85-.3-.252 0-.502.059t-.51.184zM201.88 166.16h4v1h-4zM208.78 163.7l-1.406 2.67h1.406zm-.146-.59h.7v3.26h.588v.562h-.588v1.179h-.554v-1.18h-1.858v-.652zM212.42 163.62q-.453 0-.682.496-.228.494-.228 1.49 0 .99.228 1.485.23.496.682.496.457 0 .685-.496.228-.495.228-1.486 0-.995-.228-1.49t-.685-.495m0-.516q.73 0 1.115.641.385.64.385 1.86 0 1.216-.385 1.858-.384.64-1.115.64-.73 0-1.114-.64-.386-.641-.386-1.858 0-1.22.386-1.86.384-.641 1.114-.641M230.88 166.16h4v1h-4zM237.98 165.41q.442.1.69.417.25.316.25.781 0 .713-.464 1.104-.465.39-1.32.39-.285 0-.59-.06c-.304-.06-.41-.1-.626-.179v-.629q.255.158.56.239t.64.08q.579 0 .882-.241.304-.243.304-.704 0-.426-.282-.666t-.785-.24h-.532v-.537h.556q.455 0 .695-.192.242-.192.242-.553 0-.371-.25-.57-.247-.198-.711-.199-.255 0-.545.059a5 5 0 0 0-.637.18v-.58a6 6 0 0 1 .658-.156q.306-.051.578-.051.703 0 1.11.337.41.338.41.911 0 .401-.217.677-.216.276-.616.382M240.11 163.1h2.462v.56h-1.888v1.2a1.6 1.6 0 0 1 .547-.097q.776 0 1.23.45t.453 1.218q0 .791-.466 1.23-.465.44-1.314.439-.291 0-.595-.053a4.5 4.5 0 0 1-.625-.157v-.668a2.37 2.37 0 0 0 1.208.319q.537 0 .85-.299.314-.299.314-.811t-.314-.81q-.313-.3-.85-.3-.252 0-.502.059t-.51.184zM65.673 155.55h2.231v.559h-3v-.559q.364-.391.992-1.05.63-.66.79-.852.306-.357.428-.607.123-.248.123-.488a.83.83 0 0 0-.264-.638q-.265-.247-.69-.247-.3 0-.634.108-.333.108-.713.33v-.672a5 5 0 0 1 .72-.243q.337-.082.616-.082.735 0 1.17.382.438.381.437 1.019 0 .303-.11.575a2.8 2.8 0 0 1-.396.639q-.079.096-.504.551-.422.456-1.196 1.275M70.965 153.41q.443.1.69.417.25.316.25.781 0 .713-.464 1.104-.465.39-1.319.39-.286 0-.59-.06-.305-.06-.627-.179v-.629q.255.158.56.239t.64.08q.579 0 .882-.242.304-.24.304-.703 0-.426-.282-.666t-.785-.24h-.532v-.537h.556q.454 0 .696-.192.24-.192.24-.553 0-.371-.248-.57-.249-.199-.712-.199-.255 0-.545.059a5 5 0 0 0-.637.18v-.58q.35-.104.658-.156.306-.051.578-.051.703 0 1.11.337.41.338.41.911 0 .401-.217.677t-.616.382zM74.408 151.62q-.454 0-.682.496-.228.495-.228 1.49 0 .99.228 1.485.23.496.682.496.457 0 .685-.496.228-.495.228-1.486 0-.995-.228-1.49t-.685-.495m0-.516q.73 0 1.115.641.385.64.385 1.86 0 1.216-.385 1.858-.384.64-1.115.64-.73 0-1.114-.64-.386-.641-.386-1.858 0-1.22.386-1.86.385-.641 1.114-.641M65.673 126.64h2.231v.447h-3v-.447q.364-.314.992-.84.63-.528.79-.682.306-.285.428-.485a.74.74 0 0 0 .123-.39.61.61 0 0 0-.264-.51q-.265-.2-.69-.199-.3 0-.634.087-.333.087-.713.264v-.538q.386-.128.72-.194.337-.066.616-.066.735 0 1.17.306.438.305.437.815 0 .243-.11.46a2.2 2.2 0 0 1-.396.51q-.079.078-.504.442-.422.364-1.196 1.02M70.965 124.93q.443.08.69.334.25.252.25.625 0 .57-.464.883-.465.312-1.319.312-.286 0-.59-.048a5 5 0 0 1-.627-.144v-.503q.255.127.56.191.306.065.64.065.579 0 .882-.194a.63.63 0 0 0 .304-.562.61.61 0 0 0-.282-.533q-.282-.193-.785-.193h-.532v-.429h.556q.454 0 .696-.153a.5.5 0 0 0 .24-.443.51.51 0 0 0-.248-.456q-.249-.16-.712-.16-.255 0-.545.048-.29.046-.637.144v-.465q.35-.082.658-.124a4 4 0 0 1 .578-.04q.703 0 1.11.27.41.269.41.728a.74.74 0 0 1-.217.541q-.217.221-.616.306M73.1 123.09h2.462v.447h-1.888v.961a2 2 0 0 1 .547-.078q.775 0 1.23.36.453.36.453.975 0 .633-.466.984-.465.351-1.314.351-.291 0-.595-.042a6 6 0 0 1-.625-.126v-.534q.28.129.578.192t.63.063q.537 0 .85-.24a.77.77 0 0 0 .314-.648.77.77 0 0 0-.314-.649q-.312-.24-.85-.24a2.7 2.7 0 0 0-1.012.195zM65.673 97.645h2.231v.447h-3v-.447q.364-.314.992-.84.63-.528.79-.682.306-.285.428-.485a.74.74 0 0 0 .123-.39.61.61 0 0 0-.264-.51q-.265-.2-.69-.199-.3 0-.634.087-.333.087-.713.264v-.538a6 6 0 0 1 .72-.194q.337-.066.616-.066.735 0 1.17.306.438.305.437.815 0 .243-.11.46a2.2 2.2 0 0 1-.396.51q-.079.079-.504.442-.422.365-1.196 1.02M70.772 94.563l-1.406 2.135h1.406zm-.146-.471h.7v2.606h.588v.45h-.588v.943h-.554v-.942h-1.858v-.523zM74.408 94.627q-.454 0-.682.496-.228.494-.228 1.49 0 .99.228 1.485.23.496.682.496.457 0 .685-.496.228-.495.228-1.486 0-.995-.228-1.49t-.685-.495m0-.516q.73 0 1.115.641.385.64.385 1.86 0 1.216-.385 1.858-.384.64-1.115.64-.73 0-1.114-.64-.386-.641-.386-1.858 0-1.22.386-1.86.385-.641 1.114-.641M70.772 65.707l-1.406 2.67h1.406zm-.146-.59h.7v3.26h.588v.562h-.588v1.179h-.554v-1.179h-1.858v-.653zM73.1 65.113h2.462v.56h-1.888v1.2a1.6 1.6 0 0 1 .547-.097q.775 0 1.23.45.453.45.453 1.218 0 .792-.466 1.23-.465.44-1.314.439-.291 0-.595-.053a4.5 4.5 0 0 1-.625-.157v-.668a2.37 2.37 0 0 0 1.208.319q.537 0 .85-.299.314-.299.314-.811 0-.511-.314-.81-.312-.3-.85-.3-.252 0-.502.059t-.51.184zM65.673 40.561h2.231v.559h-3v-.559q.364-.392.992-1.05.63-.66.79-.852.306-.358.428-.606.123-.249.123-.489a.83.83 0 0 0-.264-.638q-.265-.247-.69-.247-.3 0-.634.108a3.7 3.7 0 0 0-.713.33v-.672q.386-.16.72-.243.337-.082.616-.082.735 0 1.17.382.438.381.437 1.02 0 .302-.11.574a2.8 2.8 0 0 1-.396.639q-.079.096-.504.551-.422.457-1.196 1.275M69.1 36.115h2.462v.56h-1.888v1.2a1.6 1.6 0 0 1 .547-.097q.776 0 1.23.45t.453 1.218q0 .792-.466 1.23-.465.44-1.313.439-.293 0-.596-.053a4.5 4.5 0 0 1-.625-.157v-.668a2.37 2.37 0 0 0 1.208.319q.537 0 .85-.299.314-.299.314-.811t-.314-.81q-.312-.3-.85-.3-.252 0-.502.059-.249.058-.51.184zM74.408 36.632q-.454 0-.682.496-.228.495-.228 1.49 0 .99.228 1.485.23.496.682.496.457 0 .685-.496.228-.495.228-1.486 0-.995-.228-1.49t-.685-.495m0-.516q.73 0 1.115.64.385.642.385 1.861 0 1.216-.385 1.858-.384.64-1.115.64-.73 0-1.114-.64-.386-.641-.386-1.858 0-1.22.386-1.86.385-.641 1.114-.641M65.673 11.563h2.231v.559h-3v-.559q.364-.391.992-1.05.63-.66.79-.852.306-.358.428-.606.123-.249.123-.489a.83.83 0 0 0-.264-.638q-.265-.247-.69-.247-.3 0-.634.108-.333.109-.713.33v-.672q.386-.16.72-.243.337-.082.616-.082.735 0 1.17.382.438.381.437 1.02 0 .302-.11.574a2.8 2.8 0 0 1-.396.639q-.079.095-.504.551-.422.457-1.196 1.275M69.1 7.118h2.462v.559h-1.888v1.201a1.6 1.6 0 0 1 .547-.098q.776 0 1.23.45t.453 1.218q0 .792-.466 1.231-.465.438-1.313.438-.293 0-.596-.052a4.5 4.5 0 0 1-.625-.158v-.667a2.37 2.37 0 0 0 1.208.318q.537 0 .85-.298.314-.3.314-.812 0-.51-.314-.81-.312-.3-.85-.3-.252 0-.502.06-.249.058-.51.183zM73.1 7.118h2.462v.559h-1.888v1.201a1.6 1.6 0 0 1 .547-.098q.775 0 1.23.45.453.45.453 1.218 0 .792-.466 1.231-.465.438-1.314.438-.291 0-.595-.052a4.5 4.5 0 0 1-.625-.158v-.667a2.37 2.37 0 0 0 1.208.318q.537 0 .85-.298.314-.3.314-.812 0-.51-.314-.81-.312-.3-.85-.3-.252 0-.502.06-.25.058-.51.183z"/></g><path d="m223.23 40.834-14.213.56-.045.004-14.145 1.52-.045.006-14.008 2.467-.045.01-13.807 3.408-.043.011-13.547 4.33-.043.016-13.22 5.235-.042.017-12.836 6.113-.04.022-12.394 6.963-.037.023-11.893 7.783-.035.028-11.338 8.568-.035.027-10.73 9.313-.032.031-10.074 10.014-.032.033-9.37 10.67-.028.036-8.627 11.277-.025.037-7.842 11.834-.024.037-6.695 11.695-.012.02-15.924 30.07-.008.013-.002.002-.082.147-.326.58 1.162.654.1-.178.014.008.304-.574.008-.014.002-.004.317-.562-.014-.008 15.623-29.5 6.68-11.668 7.816-11.797 8.6-11.242 9.341-10.637 10.041-9.983 10.695-9.283 11.301-8.54 11.854-7.759 12.352-6.943 12.797-6.094 13.18-5.217 13.502-4.316 13.766-3.397 13.963-2.46 14.1-1.514 14.168-.559 14.176.397 14.113 1.351 14.002 2.301 40.814 8.272.655.13.263-1.306-.652-.133-40.828-8.273-.023-.004-14.037-2.307-.043-.006-14.16-1.355-.045-.002-14.22-.399h-.044zm.104 2.865-14.02.547-.045.004-13.951 1.492-.043.006-13.818 2.428-.045.01-13.621 3.355-.043.012-13.363 4.265-.041.016L141.3 60.99l-.041.018-12.664 6.025-.041.02-12.225 6.865-.037.023-11.732 7.672-.037.026-11.186 8.447-.036.027-10.586 9.182-.033.03-9.94 9.872-.03.034-9.249 10.52-.029.036-8.514 11.12-.025.038-7.74 11.668-.024.037-6.648 11.609-.01.02-15.31 28.907-.311.59 1.177.623.313-.588 15.303-28.898 6.633-11.582 7.716-11.63 8.485-11.087 9.219-10.486 9.908-9.841 10.553-9.153 11.148-8.418 11.695-7.648 12.186-6.842 12.623-6.004 13-5.14 13.32-4.252 13.576-3.344 13.773-2.42 13.906-1.488 13.975-.547 13.98.398 13.922 1.338 13.809 2.275 41.29 8.37.655.13.264-1.306-.653-.131-41.305-8.371-.023-.004-13.844-2.283-.045-.004-13.965-1.344-.045-.004-14.025-.396h-.045z" class="ucdraw"/><path d="m224.68 79.834-11.535.377-.045.002-11.482 1.158-.045.006-11.379 1.934-.045.007-11.223 2.702-.043.011-11.014 3.453-.043.014-10.758 4.194-.04.017-10.448 4.912-.04.022-10.095 5.61-.039.022-9.693 6.28-.037.025-9.246 6.924-.036.027-8.757 7.535-.034.03-8.23 8.111-.031.031-7.664 8.65-.03.034-7.062 9.15-.026.035-6.43 9.608-.032.052-12.188 22.414-.319.586 1.172.637.318-.586 12.174-22.387 6.4-9.562 7.036-9.114 7.633-8.615 8.199-8.078 8.725-7.506 9.209-6.894 9.656-6.256 10.055-5.588 10.406-4.893 10.715-4.175 10.97-3.44 11.18-2.69 11.333-1.925 11.439-1.153 11.49-.375 11.488.405 11.436 1.181 10.996 1.899 47.742 9.732.652.133.268-1.305-.655-.135-47.752-9.734-.02-.004-11.028-1.902-.045-.006-11.48-1.187-.045-.004-11.533-.407zm.104 2.879-11.34.363-.045.002-11.291 1.131-.045.006-11.188 1.894-.045.008-10.43 2.504-.014-.043-.615.194-.625.148.01.043-10.236 3.203-.043.016-10.578 4.113-.041.02-10.275 4.822-.041.02-9.928 5.51-.037.02-9.533 6.17-.037.026-9.096 6.8-.035.028-8.615 7.4-.033.032-8.098 7.968-.031.034-7.54 8.498-.029.035-6.949 8.99-.027.037-6.328 9.441-.032.053-11.414 20.982-.318.586 1.172.637.318-.586 11.398-20.955 6.3-9.397 6.921-8.957 7.51-8.464 8.064-7.936 8.582-7.371 9.059-6.774 9.496-6.144 9.887-5.486 10.236-4.805 10.535-4.098 10.789-3.377 10.99-2.635 11.145-1.886 11.244-1.125 11.297-.362 11.293.405 11.24 1.17 10.744 1.86 48.28 9.845.653.133.268-1.307-.655-.133-48.29-9.846-.02-.003-10.775-1.866-.043-.006-11.285-1.175-.045-.004-11.342-.407h-.045z" class="ucdraw"/><path d="m223.47 52.834-.848.031.05 1.332.825-.029.63.018.038-1.332-.65-.02zm3.17.092-.041 1.334 1.5.045.039-1.334zm-6.492.033-1.498.057.049 1.332 1.5-.057zm10.465.086-.04 1.332 1.499.045.04-1.332zm-14.438.062-1.498.057.05 1.332 1.499-.057zm18.41.057-.04 1.332 1.5.045.04-1.334zm-22.381.094-1.5.056.05 1.332 1.499-.056zm26.393.135-.13 1.326 1.493.146.129-1.328zm-30.402.138-1.49.157.138 1.326 1.492-.157zm34.359.246-.131 1.328 1.494.145.129-1.326zm-38.312.17-1.49.157.138 1.326 1.492-.157zm42.268.217-.13 1.326 1.493.145.13-1.326zm-46.221.2-1.49.156.138 1.326 1.492-.156zm50.22.197-.218 1.316 1.48.244.22-1.314zm-54.214.244-1.479.258.229 1.312 1.478-.256zm58.137.406-.219 1.316 1.48.245.22-1.315zm-62.053.275-1.479.258.229 1.313 1.478-.256zm65.975.375-.219 1.317 1.48.246.217-1.317zm-69.891.307-1.479.256.229 1.314 1.478-.257zm73.81.346-.216 1.314 1.393.233.074.013.242-1.312-.08-.014-.012-.002zm-77.726.336-1.205.209-.045.007-.268.067.317 1.295.246-.06 1.183-.206zm81.656.402-.264 1.307 1.47.296.264-1.306zm-85.578.469-1.46.355.317 1.295 1.457-.355zm89.475.318-.264 1.307 1.469.299.265-1.307zm-93.338.625-1.457.356.316 1.294 1.457-.355zm97.234.164-.266 1.307 1.47.297.264-1.307zm-101.1.78-1.457.355.316 1.295 1.457-.356zm104.99.007-.264 1.309 1.47.297.264-1.307zm3.896.79-.263 1.306 1.47.297.264-1.307zm-112.77.238-1.43.453.403 1.271 1.43-.453zm116.66.55-.263 1.307 1.468.297.266-1.307zm-120.45.65-1.431.454.404 1.27 1.43-.454zm124.35.137-.265 1.307 1.47.299.266-1.307zm3.897.79-.266 1.306 1.47.297.264-1.307zm-132.04.275-1.43.453.404 1.27 1.43-.454zm135.93.512-.264 1.308 1.47.297.264-1.306zm-139.72.687-.258.082-.041.016-1.145.449.487 1.24 1.125-.441.236-.074zm143.62.102-.264 1.306 1.47.297.264-1.306zm3.896.789-.263 1.306 1.468.297.266-1.306zm-151.26.562-1.396.547.488 1.242 1.396-.548zm-3.699 1.453-1.396.55.488 1.24 1.396-.55zm-3.7 1.453-1.396.55.489 1.24 1.394-.55zm-3.68 1.608-1.358.64.57 1.206 1.356-.641zm-3.595 1.7-1.357.64.57 1.207 1.358-.643zm-3.593 1.698-1.356.643.57 1.205 1.356-.643zm-3.612 1.762-1.31.732.65 1.164 1.309-.732zm-3.47 1.937-1.311.733.65 1.164 1.309-.732zm-3.471 1.94-1.31.73.65 1.165 1.31-.73zm-3.47 1.937-.704.393-.039.023-.582.38.727 1.117.564-.368.684-.38zm-3.4 2.145-1.257.816.727 1.12 1.257-.819zm-3.331 2.166-1.258.818.727 1.118 1.257-.817zm-3.332 2.168-1.258.818.727 1.118 1.257-.819zm-3.305 2.285-1.2.903.802 1.064 1.199-.9zm-3.178 2.389-1.2.9.802 1.067 1.2-.9zm-3.18 2.387-1.198.9.8 1.066 1.2-.9zm-3.204 2.425-1.135.98.87 1.009 1.136-.979zm-3.01 2.596-1.135.98.871 1.01 1.135-.98zm-3.01 2.598-1.135.98.871 1.008 1.135-.978zm-3.01 2.595-.986.854-.033.03-.14.138.937.947.123-.12.97-.839zm-2.92 2.762-1.066 1.053.937.95 1.067-1.056zm-2.826 2.793-1.068 1.055.937.95 1.069-1.056zm-2.828 2.795-1.066 1.055.937.947 1.067-1.055zm-2.799 2.883-.994 1.123 1 .883.992-1.123zm-2.633 2.978-.992 1.123.998.883.994-1.123zm-2.63 2.979-.995 1.123 1 .883.993-1.123zm-2.633 2.978-.192.217-.029.035-.738.96 1.056.814.725-.942.178-.2zm-2.47 3.172-.913 1.19 1.056.812.915-1.187zm-2.423 3.15-.914 1.19 1.057.813.914-1.188zm-2.424 3.151-.914 1.19 1.057.812.914-1.188zm-2.328 3.275-.832 1.248 1.11.739.832-1.248zm-2.205 3.307-.832 1.248 1.11.74.832-1.248zm-2.205 3.307-.832 1.248 1.11.74.831-1.248zm-2.187 3.37-.747 1.302 1.155.664.748-1.3zm-1.981 3.448-.748 1.299 1.156.666.748-1.3zm-1.982 3.445-.748 1.301 1.156.664.748-1.3zm-1.979 3.444c-.266.458-.492.913-.723 1.338l1.174.634c.246-.453.465-.896.701-1.302zm-1.885 3.53-.703 1.323 1.178.625.703-1.324zm-1.863 3.509-.703 1.326 1.178.625.703-1.326zm-1.863 3.512-.703 1.326 1.177.625.703-1.326zm-1.864 3.511-.703 1.324 1.178.625.703-1.324zm-1.863 3.512-.703 1.324 1.178.625.703-1.324zm-1.863 3.51-.703 1.326 1.177.625.704-1.326zm-1.863 3.511-.223.416 1.18.625.22-.416z" class="uchighlight"/><path d="m224.81 70.854-.045 1.332 1.5.05.045-1.333zm-2.52.045-1.497.053.044 1.332 1.5-.053zm6.493.086-.045 1.334 1.5.049.045-1.332zm-10.465.05-1.498.053.045 1.332 1.5-.052zm14.438.083-.045 1.332 1.5.048.045-1.332zm-18.41.054-1.498.051.045 1.334 1.5-.053zm22.426.102-.133 1.326 1.492.15.135-1.326zm-26.436.148-1.493.153.137 1.326 1.492-.152zm30.39.252-.132 1.327 1.492.15.133-1.326zm-34.343.153-1.493.152.135 1.326 1.492-.152zm38.299.246-.133 1.328 1.492.15.133-1.326zm-42.254.158-1.493.152.137 1.328 1.492-.154zm46.254.252-.225 1.314 1.479.252.224-1.314zm-50.24.25-1.479.254.225 1.314 1.478-.254zm54.158.416-.223 1.314 1.479.252.222-1.314zm-58.076.256-1.479.252.225 1.314 1.478-.252zm61.996.41-.225 1.314 1.479.252.224-1.314zm-65.914.26-1.479.254.225 1.314 1.478-.254zm69.732.384a.667.667 0 0 0-.254 1.31l.011.001.12.025.027.004.809.164.265-1.306-.662-.133-.008-.008-.012-.002-.275-.05-.01-.003zm-73.68.368-1.46.353.315 1.295 1.457-.351zm77.084.324-.266 1.306 1.47.297.266-1.306zm-80.947.61-1.46.353.315 1.295 1.457-.352zm84.842.18-.264 1.307 1.469.3.265-1.307zm-88.707.753-1.457.353.312 1.295 1.46-.351zm92.604.039-.266 1.306 1.47.3.266-1.307zm3.894.79-.263 1.308 1.468.298.266-1.306zm-100.39.173-1.431.449.4 1.272 1.432-.45zm104.29.619-.265 1.307 1.47.298.266-1.306zm-108.08.572-1.43.451.399 1.272 1.432-.451zm111.97.219-.263 1.307 1.468.298.266-1.306zm3.897.791-.266 1.307 1.47.298.266-1.306zm-119.66.184-1.432.449.4 1.271 1.432-.449zm123.55.607-.264 1.307 1.469.298.265-1.306zm-127.38.637-1.397.545.485 1.242 1.398-.545zm131.27.154-.266 1.307 1.47.298.264-1.306zm3.894.791-.265 1.307 1.47.298.266-1.306zm-138.87.5-1.396.545.484 1.242 1.398-.545zm142.77.291-.265 1.307 1.47.298.264-1.306zm3.895.791-.266 1.307.037.007.266-1.306zm-150.36.363-1.399.547.485 1.24 1.398-.544zm-3.737 1.485-1.357.638.568 1.206 1.358-.64zm-3.595 1.691-1.358.639.567 1.207 1.357-.639zm-3.598 1.694-1.357.638.568 1.207 1.357-.638zm-3.635 1.716-1.31.729.648 1.166 1.31-.729zm-3.474 1.932-1.311.728.648 1.166 1.311-.728zm-3.475 1.932-1.31.728.648 1.166 1.31-.728zm-3.473 1.931-.172.094-.037.023-1.095.711.724 1.12 1.076-.7.15-.082zm-3.38 2.174-1.26.816.726 1.12 1.258-.817zm-3.337 2.162-1.257.816.724 1.12 1.258-.817zm-3.335 2.162-.38.246-.036.028-.838.626.799 1.069.82-.615.361-.235zm-3.237 2.385-1.2.898.8 1.067 1.2-.899zm-3.181 2.38-1.202.901.8 1.067 1.2-.899zm-3.182 2.384-.566.423-.036.03-.601.515.87 1.012.583-.502.549-.41zm-3.078 2.584-1.139.976.87 1.012 1.138-.979zm-3.014 2.591-1.138.977.87 1.012 1.137-.979zm-3.013 2.592-.73.627-.034.031-.383.377.936.95.367-.362.713-.613zm-2.91 2.772-1.069 1.054.937.95 1.069-1.053zm-2.83 2.79-1.07 1.053.936.95 1.069-1.053zm-2.833 2.792-.865.851-.031.034-.19.212.998.885.176-.197.848-.836zm-2.726 2.949-.994 1.123.998.885.994-1.123zm-2.637 2.977-.994 1.12.998.885.994-1.123zm-2.637 2.974-.972 1.098-.028.035-.021.025 1.056.815.006-.008.957-1.08zm-2.533 3.117-.918 1.188 1.057.814.916-1.187zm-2.43 3.147-.916 1.187 1.055.815.916-1.188zm-2.43 3.146-.915 1.188 1.054.814.918-1.187zm-2.33 3.272-.835 1.248 1.11.74.833-1.246zm-2.21 3.305-.834 1.246 1.107.742.834-1.246zm-2.211 3.302-.834 1.248 1.107.74.834-1.246zm-2.117 3.416-.746 1.303 1.158.662.744-1.3zm-1.977 3.45-.746 1.302 1.158.662.746-1.3zm-1.975 3.449-.746 1.302 1.157.662.746-1.3zm-1.658 2.939-.701 1.326 1.178.623.7-1.326zm-1.86 3.514-.7 1.326 1.18.623.7-1.326zm-1.857 3.513-.7 1.327 1.179.623.701-1.327zm-1.857 3.514-.701 1.326 1.178.623.7-1.326zm-1.86 3.516-.7 1.324 1.18.625.7-1.326z" class="ucdraw"/><g class="uchighlight"><path d="m49.219 26.145-.53 1.225 1.378.593.529-1.222zm3.648 1.576-.529 1.225 1.377.595.53-1.224zm3.649 1.578-.53 1.223 1.378.596.529-1.225zm3.648 1.576-.527 1.225 1.377.594.527-1.223zm3.65 1.577-.529 1.224 1.377.594.53-1.223zm3.649 1.576-.53 1.225 1.378.595.529-1.224zm3.648 1.578-.529 1.223 1.377.595.53-1.224zm3.649 1.576-.528 1.225L75.61 39l.528-1.223zm3.65 1.576-.53 1.225 1.378.596.53-1.225zm3.649 1.578-.53 1.223 1.377.596.53-1.225zm3.648 1.577-.53 1.224 1.378.594.529-1.223zm3.648 1.576-.529 1.225 1.377.593.53-1.222zm3.65 1.576-.529 1.225 1.377.595.53-1.224zm3.65 1.578-.53 1.223 1.377.596.53-1.225zm3.648 1.576-.53 1.225 1.377.594.53-1.223zm3.648 1.577-.53 1.224 1.378.596.529-1.225zm3.648 1.578-.527 1.222 1.377.596.527-1.224zm3.65 1.576-.529 1.224 1.377.594.53-1.222zm3.65 1.576-.53 1.225 1.377.593.53-1.222zm3.648 1.576-.53 1.225 1.377.596.53-1.225zm3.648 1.578-.527 1.223 1.377.596.527-1.225zm3.65 1.577-.529 1.224 1.377.594.53-1.223zm3.649 1.576-.53 1.224 1.377.596.53-1.224zm3.648 1.578-.53 1.223 1.378.595.53-1.224zm3.649 1.576-.528 1.225 1.377.593.528-1.222zm3.65 1.576-.53 1.225 1.378.594.529-1.223zm3.648 1.576-.529 1.225 1.377.596.53-1.225zm3.649 1.579-.53 1.222 1.377.596.53-1.225zm3.648 1.576-.527 1.224 1.377.594.527-1.223z"/><path d="m151.89 71.234-.598 1.375 1.223.531.598-1.375zm-1.584 3.647-.598 1.374 1.223.532.598-1.375zm-1.584 3.644-.598 1.377 1.223.531.598-1.377zm-1.584 3.646-.598 1.375 1.223.532.598-1.375zm-1.584 3.647-.598 1.375 1.223.531.598-1.375zm-1.584 3.645-.598 1.376 1.225.532.598-1.377zm-1.584 3.646-.598 1.375 1.225.531.598-1.375zm-1.582 3.647-.598 1.374 1.223.532.598-1.375zm-1.584 3.644-.598 1.377 1.223.531.598-1.377zm-1.584 3.646-.598 1.375 1.223.532.598-1.375zm-1.584 3.647-.598 1.375 1.223.531.598-1.375zm-1.584 3.645-.598 1.376 1.223.532.598-1.377zm-1.584 3.646-.598 1.375 1.223.531.598-1.375zm-1.584 3.647-.598 1.374 1.223.532.598-1.375zm-1.584 3.644-.598 1.377 1.223.531.598-1.377zm-1.584 3.646-.598 1.375 1.223.532.598-1.375zm-1.584 3.647-.598 1.375 1.225.531.598-1.375zm-1.582 3.644-.598 1.377 1.223.532.598-1.377zm-1.584 3.647-.598 1.377 1.223.531.598-1.377zm-1.584 3.646-.598 1.375 1.223.532.598-1.375zm-1.584 3.645-.598 1.377 1.223.531.598-1.377zm-1.584 3.646-.598 1.377 1.223.532.598-1.377zm-1.584 3.647-.598 1.375 1.223.531.598-1.375zm-1.584 3.644-.598 1.377 1.223.532.598-1.377zm-1.584 3.647-.598 1.377 1.223.531.598-1.377zm-1.584 3.646-.598 1.375 1.223.532.598-1.375zm-1.584 3.645-.598 1.377 1.223.531.598-1.377zm-1.584 3.646-.598 1.377 1.225.532.598-1.377zm-1.582 3.647-.598 1.375 1.223.531.598-1.375z"/><path d="M157.6 65.863a.67.67 0 0 0-.559.076l-10.779 6.922-.521.078.035.233-.2.127.284.443.078.516.233-.036.127.2.437-.284 12.863-1.937a.667.667 0 0 0 .516-.916l-2.098-5.041a.67.67 0 0 0-.416-.381zm-.508 1.627 1.463 3.518-9.072 1.367z"/></g><path d="M182.07 74.215a.67.67 0 0 0-.588.102l-10.777 7.908-.5.086.043.25-.205.15.303.412.086.5.25-.043.15.205.412-.302 12.844-2.21a.667.667 0 0 0 .514-.886l-2.098-5.762a.67.67 0 0 0-.433-.41zm-.516 1.701 1.52 4.178-9.424 1.623z" class="ucdraw"/><path d="m162.7 60.635-.686 1.648 3.625 9.432-22.578 8.92-3.825-9.307 22.862-9.09-24.455 8.464 4.705 11.68 25.022-9.915z" class="uchighlight"/></svg>
