<svg xmlns="http://www.w3.org/2000/svg" width="328" height="189" viewBox="0 0 328 189"><path d="M90.592 52.826c-3.75 0-6.793 3.097-6.793 6.889V86.27c0 3.791 3.043 6.888 6.793 6.888h45.746c3.75 0 6.793-3.097 6.793-6.888V59.715c0-3.792-3.043-6.889-6.793-6.889zm0 1.332h45.746c3.018 0 5.46 2.474 5.46 5.557V86.27c0 3.082-2.442 5.556-5.46 5.556H90.592c-3.018 0-5.46-2.474-5.46-5.556V59.715c0-3.083 2.442-5.557 5.46-5.557" class="ucdraw"/><path d="M95.075 61.702h.749v6.887h-.749zm3.856 0h.748v6.887h-.748zm3.855 0h.749v6.887h-.749zm3.856 0h.748v6.887h-.748zm3.855 0h.749v6.887h-.749zm3.856 0h.748v6.887h-.748zm3.855 0h.749v6.887h-.749zm3.856 0h.748v6.887h-.748zm3.855 0h.749v6.887h-.749zm3.856 0h.748v6.887h-.748zM95.075 69.702h.749v6.887h-.749zm3.856 0h.748v6.887h-.748zm3.855 0h.749v6.887h-.749zm3.856 0h.748v6.887h-.748zm3.855 0h.749v6.887h-.749zm3.856 0h.748v6.887h-.748zm3.855 0h.749v6.887h-.749zm3.856 0h.748v6.887h-.748zm3.855 0h.749v6.887h-.749zm3.856 0h.748v6.887h-.748zM95.097 77.876h.749v6.887h-.749zm3.856 0h.748v6.887h-.748zm3.855 0h.749v6.887h-.749zm3.856 0h.748v6.887h-.748zm3.855 0h.749v6.887h-.749zm3.856 0h.748v6.887h-.748zm3.855 0h.749v6.887h-.749zm3.856 0h.748v6.887h-.748zm3.855 0h.749v6.887h-.749zm3.856 0h.748v6.887h-.748zM94.559 106.83c-3.734 0-6.76 3.099-6.76 6.889v26.555c0 3.79 3.026 6.888 6.76 6.888h26.812c3.734 0 6.76-3.099 6.76-6.888v-26.555c0-3.79-3.026-6.889-6.76-6.889zm0 1.332h26.812c2.998 0 5.428 2.472 5.428 5.557v26.555c0 3.084-2.43 5.556-5.428 5.556H94.559c-2.998 0-5.428-2.472-5.428-5.556v-26.555c0-3.085 2.43-5.557 5.428-5.557M172.71 107.83c-3.81 0-6.918 3.09-6.918 6.889v26.555c0 3.798 3.107 6.888 6.918 6.888h27.5c3.81 0 6.916-3.09 6.916-6.888v-26.555c0-3.8-3.105-6.889-6.916-6.889zm0 1.332h27.5c3.093 0 5.582 2.481 5.582 5.557v26.555c0 3.075-2.489 5.556-5.582 5.556h-27.5c-3.093 0-5.584-2.481-5.584-5.556v-26.555c0-3.076 2.49-5.557 5.584-5.557" class="ucdraw"/><path d="M178.27 124.34v-.977h2.098v.977zm2.574 0v-.977h2.098v.977zm2.574 0v-.977h2.098v.977zm2.575 0v-.977h2.097v.977zm2.574 0v-.977h2.097v.977zm2.574 0v-.977h2.098v.977zm2.574 0v-.977h2.098v.977zM178.27 133.34v-.977h2.098v.977zm2.574 0v-.977h2.098v.977zm2.574 0v-.977h2.098v.977zm2.575 0v-.977h2.097v.977zm2.574 0v-.977h2.097v.977zm2.574 0v-.977h2.098v.977zm2.574 0v-.977h2.098v.977zM172.59 52.826c-3.747 0-6.79 3.097-6.79 6.889V86.27c0 3.791 3.043 6.888 6.79 6.888h27.756c3.747 0 6.787-3.097 6.787-6.888V59.715c0-3.792-3.04-6.889-6.787-6.889zm0 1.332h27.756c3.015 0 5.455 2.474 5.455 5.557V86.27c0 3.082-2.44 5.556-5.455 5.556H172.59c-3.015 0-5.457-2.474-5.457-5.556V59.715c0-3.083 2.442-5.557 5.457-5.557" class="ucdraw"/><path d="M176.67 69.344v-.977h2.098v.977zm2.574 0v-.977h2.098v.977zm2.574 0v-.977h2.098v.977zm2.575 0v-.977h2.097v.977zm2.574 0v-.977h2.097v.977zm2.574 0v-.977h2.098v.977zm2.574 0v-.977h2.098v.977zm2.574 0v-.977h2.098v.977zM176.67 78.344v-.977h2.098v.977zm2.574 0v-.977h2.098v.977zm2.574 0v-.977h2.098v.977zm2.575 0v-.977h2.097v.977zm2.574 0v-.977h2.097v.977zm2.574 0v-.977h2.098v.977zm2.574 0v-.977h2.098v.977zm2.574 0v-.977h2.098v.977z" class="ucdraw"/><g class="ucdraw"><path d="M70.967 167.99c0 4.354 3.463 8 7.775 8h169.45c4.313 0 7.778-3.645 7.778-8h-4c0 2.273-1.71 4-3.778 4H78.742c-2.067 0-3.775-1.726-3.775-4zM78.742 15.992c-4.313 0-7.775 3.646-7.775 8h4c0-2.274 1.708-4 3.775-4h169.45c2.067 0 3.777 1.727 3.777 4h4c0-4.355-3.464-8-7.777-8z"/><path d="M79.242 17.826c-3.572 0-6.441 3.068-6.441 6.791v143.75c0 3.724 2.869 6.793 6.441 6.793h169.45c3.573 0 6.443-3.07 6.443-6.793V24.617c0-3.723-2.87-6.791-6.443-6.791zm0 1.332h169.45c2.809 0 5.111 2.416 5.111 5.459v143.75c0 3.044-2.302 5.46-5.111 5.46H79.242c-2.808 0-5.11-2.416-5.11-5.46V24.617c0-3.043 2.302-5.459 5.11-5.459"/><path d="M77.803 42.826v112.33h80.334V42.826zm1.334 1.334h77.666v109.67H79.137z"/><path d="M83.131 86.492c0 4.05 3.371 7.334 7.46 7.334h45.747c4.09 0 7.46-3.284 7.46-7.334h-2.667c0 2.578-2.115 4.666-4.793 4.666H90.592c-2.679 0-4.793-2.088-4.793-4.666zM90.592 52.158c-4.207 0-7.46 3.835-7.46 8.332h2.667c0-3.235 2.232-5.666 4.793-5.666h45.746c2.56 0 4.793 2.43 4.793 5.666h2.668c0-4.497-3.254-8.332-7.46-8.332zM87.131 140.49c0 4.046 3.352 7.334 7.428 7.334h26.812c4.075 0 7.427-3.288 7.427-7.334h-2.668c0 2.582-2.103 4.666-4.76 4.666H94.56c-2.657 0-4.76-2.084-4.76-4.666zM94.559 106.16c-4.076 0-7.428 3.29-7.428 7.334H89.8c0-2.581 2.104-4.666 4.76-4.666h26.812c2.657 0 4.76 2.085 4.76 4.666h2.668c0-4.045-3.352-7.334-7.428-7.334zM136.96 106.83c-3.398 0-6.168 2.768-6.168 6.166 0 3.397 2.77 6.166 6.168 6.166a6.176 6.176 0 0 0 6.166-6.166 6.176 6.176 0 0 0-6.166-6.166m0 1.332a4.823 4.823 0 0 1 4.832 4.834 4.824 4.824 0 0 1-4.832 4.834 4.824 4.824 0 0 1-4.834-4.834 4.824 4.824 0 0 1 4.834-4.834M156.8 42.826v112.33h94.334V42.826zm1.334 1.334H249.8v109.67h-91.666z"/></g><path d="M165.13 86.492c0 4.05 3.37 7.334 7.457 7.334h27.756c4.087 0 7.455-3.285 7.455-7.334h-2.668c0 2.579-2.112 4.666-4.787 4.666h-27.756c-2.675 0-4.79-2.087-4.79-4.666zM172.59 52.158c-4.205 0-7.457 3.836-7.457 8.332h2.668c0-3.236 2.232-5.666 4.79-5.666h27.755c2.557 0 4.787 2.43 4.787 5.666h2.668c0-4.496-3.25-8.332-7.455-8.332z" class="uchighlight"/><path d="M165.13 140.49c0 4.51 3.325 8.334 7.584 8.334h27.5c4.259 0 7.582-3.825 7.582-8.334h-2.666c0 3.223-2.271 5.668-4.916 5.668h-27.5c-2.645 0-4.918-2.445-4.918-5.668zM172.71 107.16c-4.144 0-7.584 3.27-7.584 7.334h2.666c0-2.562 2.158-4.666 4.918-4.666h27.5c2.76 0 4.916 2.104 4.916 4.666h2.666c0-4.064-3.438-7.334-7.582-7.334z" class="ucdraw"/><path d="m235.3 61.861-.121.014-.154.021-.153.026-.15.029-.15.031-.149.037-.148.04-.29.09-.126.044.443 1.258.111-.04.112-.036.115-.034.115-.03.115-.028.118-.026.119-.023.119-.02.12-.017.106-.012zm1.498.021-.184 1.32.086.012.12.02.119.023.117.026.115.027.115.031.114.034.113.037.111.039.111.043.006.002.504-1.235-.021-.007-.14-.055-.143-.05-.145-.046-.144-.045-.149-.039-.148-.037-.15-.031-.151-.03-.152-.025zm-4.27.987-.013.01-.121.084-.121.087-.118.09-.115.094-.113.094-.111.1-.108.099-.105.104-.104.105-.101.11-.006.007.996.885.076-.082.164-.164.086-.078.086-.076.09-.077.09-.072.091-.07.094-.069.096-.066.002-.002zm7.026.11-.787 1.075.088.065.091.07.09.072.09.077.086.076.086.078.082.082.082.084.078.084.078.086.014.017 1.017-.86-.023-.03-.098-.11-.101-.109-.104-.105-.105-.104-.11-.1-.109-.1-.113-.093-.115-.094-.118-.09zm-9.024 2.091-.058.113-.067.135-.064.135-.06.138-.057.14-.053.14-.05.142-.048.145-.043.146-.039.147-.004.012 1.295.314v.006l.032-.115.033-.114.037-.113.039-.111.04-.112.046-.107.047-.107.05-.108.051-.105.053-.098zm10.945.154-1.195.594.04.078.05.108.047.107.045.107.04.112.04.111.037.113.033.114.031.115.03.117.004.016 1.302-.283-.008-.034-.037-.148-.039-.147-.043-.146-.047-.145-.05-.142-.053-.14-.057-.14-.06-.138-.065-.135zm-11.678 2.707-.002.06.002.159.006.158.01.156.014.157.02.156.021.152.026.153.027.152.033.15.008.036 1.297-.317-.006-.02-.025-.117-.043-.238-.016-.12-.014-.122-.011-.121-.008-.123-.004-.125-.002-.125v-.045zm10.998.053-.002.133-.004.125-.008.123-.011.121-.014.121-.016.121-.019.12-.023.118-.026.118-.017.07 1.294.316.022-.086.033-.15.03-.152.025-.153.021-.152.018-.156.014-.157.01-.156.006-.158.001-.15zm-9.134 2.213-1.18.623.059.111.074.131.074.127.08.127.082.123.084.123.088.12.09.116.092.116.095.113.022.023.996-.884-.01-.012-.074-.088-.145-.184-.068-.093-.067-.096-.125-.195-.117-.203zm8.578.047-.026.05-.056.102-.06.102-.126.195-.066.096-.069.093-.144.184-.074.088-.045.05.996.886.056-.063.096-.113.092-.116.09-.117.088-.119.084-.123.082-.123.08-.127.074-.127.074-.13.033-.065zm-7.051 1.705-.76 1.096.086.06.123.082.127.078.129.076.129.073.133.07.133.066.136.063.137.06.14.057.044.018.474-1.248-.03-.01-.108-.045-.108-.047-.105-.049-.106-.052-.103-.055-.102-.057-.2-.12-.097-.065zm5.506.031-.03.02-.097.064-.2.121-.1.057-.104.055-.106.052-.105.05-.108.046-.11.045-.077.03.474 1.245.092-.035.14-.057.138-.06.134-.063.135-.066.133-.07.129-.073.129-.076.125-.078.125-.082.043-.03zm-3.348.807-.15 1.324.137.016.156.013.156.01.158.006.16.002.159-.002.158-.006.156-.01.156-.013.084-.01-.15-1.324-.068.007-.123.01-.123.008-.124.006-.125.002-.125-.002-.125-.006-.123-.008-.123-.01zM236.12 69.712h-.395v-2.776l.005-.19.012-.179q-.076.079-.142.135l-.163.134-.408.327-.213-.276.967-.744h.337z" class="uchighlight"/><g class="ucdraw"><path d="M95.082 93.492v14h.748v-14z"/><path d="m92.902 101.12 3.063 7.348 3.06-7.348zm1.121.748h3.881l-1.94 4.654z"/><path d="m92.902 101.12 3.063 7.348 3.06-7.348zm1.121.748h3.881l-1.94 4.654zM142.92 61.49v.748h10.692v-.748z"/><path d="M152.87 61.494v20h.748v-20z"/><path d="M144.53 81.115v.748h9.077v-.748z"/><path d="m148.84 77.887-6.21 3.106 6.21 3.105zm-.748 1.21v3.79l-3.791-1.894z"/><path d="m148.84 77.887-6.21 3.106 6.21 3.105zm-.748 1.21v3.79l-3.791-1.894zM174.08 93.492v15h.748v-15z"/><path d="m170.9 102.12 3.063 7.348 3.06-7.348zm1.121.748h3.881l-1.94 4.654z"/><path d="m170.9 102.12 3.063 7.348 3.06-7.348zm1.121.748h3.881l-1.94 4.654z"/></g><g class="uchighlight"><path d="M209.71 66.859v1.26h.09v-1.26zm1.422 0v1.26h1.334v-1.26zm2.668 0v1.26h1.332v-1.26zm2.666 0v1.26h1.334v-1.26zm2.666 0v1.26h1.334v-1.26zm2.668 0v1.26h1.332v-1.26zm2.666 0v1.26h1.334v-1.26zm2.666 0v1.26h1.334v-1.26z"/><path d="m213.84 64.932-7.348 3.06 7.348 3.061zm-.748 1.121v3.879l-4.652-1.94z"/><path d="m213.84 64.932-7.348 3.06 7.348 3.061zm-.748 1.121v3.879l-4.652-1.94z"/><path d="m213.84 64.932-7.348 3.06 7.348 3.061zm-.748 1.121v3.879l-4.652-1.94z"/></g><g class="uchighlight"><path d="m207.46 67.992 6-2.5v5z"/><path d="m213.84 64.932-7.348 3.06 7.348 3.061zm-.748 1.121v3.879l-4.652-1.94z"/></g><path d="M173.79 93.492v15h1.332v-15z" class="ucdraw"/><path d="m170.9 102.12 3.063 7.348 3.06-7.348zm1.121.748h3.881l-1.94 4.654z" class="ucdraw"/><path d="m173.96 108.49-2.5-6h5z" class="ucdraw"/><path d="m170.9 102.12 3.063 7.348 3.06-7.348zm1.121.748h3.881l-1.94 4.654zM152.87 61.494v20h.748v-20zM148.84 77.887l-6.21 3.106 6.21 3.105zm-.748 1.21v3.79l-3.791-1.894z" class="ucdraw"/><path d="m143.47 80.992 5-2.5v5z" class="ucdraw"/><path d="m148.84 77.887-6.21 3.106 6.21 3.105zm-.748 1.21v3.79l-3.791-1.894zM94.791 93.492v14h1.332v-14z" class="ucdraw"/><path d="m92.902 101.12 3.063 7.348 3.06-7.348zm1.121.748h3.881l-1.94 4.654z" class="ucdraw"/><path d="m95.964 107.49-2.5-6h5z" class="ucdraw"/><path d="m92.902 101.12 3.063 7.348 3.06-7.348zm1.121.748h3.881l-1.94 4.654z" class="ucdraw"/><g class="uchighlight"><path d="m235.3 74.861-.121.014-.154.021-.153.026-.15.029-.15.031-.149.037-.148.04-.29.09-.126.044.443 1.258.111-.04.112-.036.115-.034.115-.03.115-.028.118-.026.119-.023.119-.02.12-.017.106-.012zm1.498.021-.184 1.32.086.013.12.019.119.023.117.026.115.027.115.031.114.034.113.037.111.039.111.043.006.002.504-1.235-.021-.007-.14-.055-.143-.05-.145-.046-.144-.045-.149-.039-.148-.037-.15-.031-.151-.03-.152-.025zm-4.27.987-.013.01-.121.084-.121.087-.118.09-.115.094-.113.094-.111.1-.108.099-.105.104-.104.105-.101.11-.006.007.996.885.076-.082.164-.164.086-.078.086-.076.09-.077.09-.072.091-.07.094-.069.096-.066.002-.002zm7.026.11-.787 1.075.088.065.091.07.09.072.09.077.086.076.086.078.082.082.082.084.078.084.078.086.014.017 1.017-.86-.023-.03-.098-.11-.101-.109-.104-.105-.105-.104-.11-.1-.109-.1-.113-.093-.115-.094-.118-.09zm-9.024 2.091-.058.113-.067.135-.064.135-.06.138-.057.14-.053.14-.05.142-.048.145-.043.146-.039.147-.004.012 1.295.314v.006l.032-.115.033-.114.037-.113.039-.111.04-.112.046-.107.047-.107.05-.108.051-.105.053-.098zm10.945.154-1.195.594.04.078.05.108.047.107.045.107.04.112.04.111.037.113.033.114.031.115.03.117.004.016 1.302-.283-.008-.034-.037-.148-.039-.147-.043-.146-.047-.145-.05-.142-.053-.14-.057-.14-.06-.138-.065-.135zm-11.678 2.707-.002.06.002.159.006.158.01.156.014.157.02.156.021.152.026.153.027.152.033.15.008.036 1.297-.317-.006-.02-.025-.117-.043-.238-.016-.12-.014-.122-.011-.121-.008-.123-.004-.125-.002-.125v-.045zm10.998.053-.002.133-.004.125-.008.123-.011.121-.014.121-.016.121-.019.12-.023.118-.026.118-.017.07 1.294.316.022-.086.033-.15.03-.152.025-.153.021-.152.018-.156.014-.157.01-.156.006-.158.001-.15zm-9.134 2.213-1.18.623.059.111.074.131.074.127.08.127.082.123.084.123.088.12.09.116.092.116.095.113.022.023.996-.884-.01-.012-.074-.088-.145-.184-.068-.093-.067-.096-.125-.195-.117-.203zm8.578.047-.026.05-.056.102-.06.102-.126.195-.066.096-.069.093-.144.184-.074.088-.045.05.996.886.056-.063.096-.113.092-.116.09-.117.088-.119.084-.123.082-.123.08-.127.074-.127.074-.13.033-.065zm-7.051 1.705-.76 1.096.086.06.123.082.127.078.129.076.129.073.133.07.133.066.136.063.137.06.14.057.044.018.474-1.248-.03-.01-.108-.045-.108-.047-.105-.049-.106-.052-.103-.055-.102-.057-.2-.12-.097-.065zm5.506.031-.03.02-.097.064-.2.121-.1.057-.104.055-.106.052-.105.05-.108.046-.11.045-.077.03.474 1.245.092-.035.14-.057.138-.06.134-.063.135-.066.133-.07.129-.073.129-.076.125-.078.125-.082.043-.03zm-3.348.807-.15 1.324.137.016.156.013.156.01.158.006.16.002.159-.002.158-.006.156-.01.156-.013.084-.01-.15-1.324-.068.007-.123.01-.123.008-.124.006-.125.002-.125-.002-.125-.006-.123-.008-.123-.01zM237.02 82.653h-2.339v-.34l.955-.969q.266-.268.446-.478.184-.21.279-.413.095-.205.095-.449 0-.303-.18-.461-.179-.162-.472-.162-.256 0-.454.088t-.405.25l-.218-.274q.142-.12.308-.212.169-.093.359-.147.193-.054.41-.054.33 0 .569.115t.369.327q.131.213.131.506 0 .283-.112.527-.112.242-.315.481-.202.237-.473.503l-.777.774v.017h1.824zM212.75 79.895v1.19h.717v-1.19zm2.05 0v1.19h1.333v-1.19zm2.667 0v1.19h1.334v-1.19zm2.666 0v1.19h1.334v-1.19zm2.668 0v1.19h1.332v-1.19zm2.666 0v1.19h1.334v-1.19zm2.666 0v1.19h1.334v-1.19z"/><path d="m212.82 77.561-6.21 3.106 6.21 3.105zm-.748 1.209v3.793l-3.791-1.896z"/><path d="m212.82 77.561-6.21 3.106 6.21 3.105zm-.748 1.209v3.793l-3.791-1.896z"/><path d="m212.82 77.561-6.21 3.106 6.21 3.105zm-.748 1.209v3.793l-3.791-1.896z"/></g><g class="uchighlight"><path d="m207.45 80.666 5-2.5v5z"/><path d="m212.82 77.561-6.21 3.106 6.21 3.105zm-.748 1.209v3.793l-3.791-1.896z"/></g><g class="ucdraw"><path d="M107.08 93.492v14h.748v-14z"/><path d="m103.9 101.12 3.063 7.348 3.06-7.348zm1.121.748h3.881l-1.94 4.654z"/><path d="m103.9 101.12 3.063 7.348 3.06-7.348zm1.121.748h3.881l-1.94 4.654z"/><path d="M106.79 93.492v14h1.332v-14z"/><path d="m103.9 101.12 3.063 7.348 3.06-7.348zm1.121.748h3.881l-1.94 4.654z"/></g><path d="m106.96 107.49-2.5-6h5z" class="ucdraw"/><path d="m103.9 101.12 3.063 7.348 3.06-7.348zm1.121.748h3.881l-1.94 4.654z" class="ucdraw"/><g class="ucdraw"><path d="M118.08 93.492v14h.748v-14z"/><path d="m114.9 101.12 3.063 7.348 3.06-7.348zm1.121.748h3.881l-1.94 4.654z"/><path d="m114.9 101.12 3.063 7.348 3.06-7.348zm1.121.748h3.881l-1.94 4.654z"/><path d="M117.79 93.492v14h1.332v-14z"/><path d="m114.9 101.12 3.063 7.348 3.06-7.348zm1.121.748h3.881l-1.94 4.654z"/></g><path d="m117.96 107.49-2.5-6h5z" class="ucdraw"/><path d="m114.9 101.12 3.063 7.348 3.06-7.348zm1.121.748h3.881l-1.94 4.654z" class="ucdraw"/><g class="ucdraw"><path d="M137.08 92.508v15h.748v-15z"/><path d="m136.96 92.535.338 1.117h-.684zm0 0-.346.83-2.716 6.518h6.123zm.34 1.125 1.658 5.475h-3.94z"/><path d="m136.96 92.535.338 1.117h-.684zm0 0-.346.83-2.716 6.518h6.123zm.34 1.125 1.658 5.475h-3.94z"/><path d="M136.79 92.508v15h1.332v-15z"/><path d="m136.96 92.535.338 1.117h-.684zm0 0-.346.83-2.716 6.518h6.123zm.34 1.125 1.658 5.475h-3.94z"/></g><path d="m136.96 93.508-2.5 6h5z" class="ucdraw"/><path d="m136.96 92.535.338 1.117h-.684zm0 0-.346.83-2.716 6.518h6.123zm.34 1.125 1.658 5.475h-3.94z" class="ucdraw"/></svg>
