<svg xmlns="http://www.w3.org/2000/svg" width="328" height="189" viewBox="0 0 328 189"><g class="ucdraw"><path d="M45.86 158.243a.67.67 0 0 0-.402.314l-5.26 9.301a.667.667 0 0 0 .252.908.667.667 0 0 0 .908-.251l5.26-9.301a.667.667 0 0 0-.252-.908.67.67 0 0 0-.506-.063"/><path d="M45.958 158.243a.67.67 0 0 0-.506.06.667.667 0 0 0-.256.909l5.223 9.3a.667.667 0 0 0 .908.256.667.667 0 0 0 .254-.908l-5.22-9.3a.67.67 0 0 0-.403-.317M46.27 140.213c-3.088 0-5.923.478-8.174 1.295s-3.957 1.95-4.668 3.478l-.031.065-.227.988-.013-.002-.026.18-.039.164.006.025.014-.072v.06c0 2.609 1.56 4.928 3.953 6.551s5.639 2.6 9.213 2.6 6.82-.976 9.213-2.6c2.392-1.623 3.953-3.942 3.953-6.55v-.053l-.008-.051-.092-.582h-.064a4 4 0 0 0-1.016-1.936c-.716-.745-1.703-1.372-2.89-1.894-2.376-1.045-5.575-1.666-9.104-1.666m0 2.242c3.055 0 5.821.513 7.762 1.303.97.395 1.73.86 2.217 1.328s.685.9.685 1.316-.2.847-.685 1.315-1.247.935-2.217 1.33c-1.941.79-4.707 1.303-7.762 1.303s-5.817-.513-7.758-1.303c-.97-.395-1.73-.862-2.217-1.33s-.687-.899-.687-1.315.202-.848.687-1.316 1.247-.933 2.217-1.328c1.94-.79 4.703-1.303 7.758-1.303m-11.809 3.906.002.01-.012.051v-.004zm23.137 1.752c-.49 1.392-1.342 2.702-2.855 3.729-2.132 1.447-5.136 2.371-8.465 2.371s-6.333-.924-8.465-2.371c-1.503-1.02-2.354-2.319-2.848-3.7.135.18.237.374.405.536.66.636 1.558 1.164 2.638 1.603 2.16.88 5.06 1.4 8.262 1.4s6.104-.52 8.264-1.4c1.08-.44 1.978-.967 2.638-1.603.177-.17.286-.375.426-.565"/><path d="M45.778 134.213a.667.667 0 0 0-.666.666v14.449a.667.667 0 0 0 .666.668.667.667 0 0 0 .666-.668v-14.449a.667.667 0 0 0-.666-.666M50.202 154.253l-4.844 3.465a.59.59 0 0 0-.137.824.59.59 0 0 0 .825.137l4.845-3.465a.59.59 0 0 0 .137-.824.59.59 0 0 0-.826-.137"/><path d="M41.653 154.033a.595.595 0 0 0-.836.096.595.595 0 0 0 .096.836l4.654 3.689a.595.595 0 0 0 .834-.098.595.595 0 0 0-.096-.836z"/></g><g class="ucdraw"><path d="M55 64v16h16V64zm1 1h14v14H56z"/><path d="M62.539 64.5v15.117h1V64.5z"/><path d="M55.5 72v1h15.117v-1zM36.237 63.422v8.156h8.156v-8.156zm.51.51h7.136v7.136h-7.136z"/><path d="M40.08 63.677v7.706h.51v-7.706z"/><path d="M36.492 67.5v.51h7.706v-.51zM22.466 51.849v8.156h8.156v-8.156zm.51.51h7.136v7.136h-7.136z"/><path d="M26.309 52.104v7.706h.51v-7.706z"/><path d="M22.721 55.927v.51h7.706v-.51zM143.75 57.236v8.156h8.156v-8.156zm.51.51h7.136v7.136h-7.136z"/><path d="M147.59 57.491v7.706h.51V57.49z"/><path d="M144 61.314v.51h7.706v-.51zM274.51 58.005v8.156h8.156v-8.156zm.51.51h7.136v7.136h-7.136z"/><path d="M278.35 58.26v7.706h.51V58.26z"/><path d="M274.76 62.083v.51h7.706v-.51zM156 48v16h16V48zm1 1h14v14h-14z"/><path d="M163.65 48.5v15.117h1V48.5z"/><path d="M156.5 56v1h15.119v-1zM84.646 9.985c-5.073 2.633-11.259 5.953-16.332 8.586l.79.45c4.682-2.431 11.198-5.864 15.881-8.295zm-41.323.13-.338.741c4.682 2.431 11.198 5.864 15.881 8.294l.789-.448c-5.073-2.634-11.259-5.953-16.332-8.587m21.372 6.714.034 10.956 7.379 3.555-.031-10.828zm-1.363.121-7.251 3.668-.014 4.195c-2.346 1.217-6.549 3.409-8.883 4.621l.339.737c2.332-1.21 6.197-3.24 8.542-4.456l-.018 5.684 7.253-3.541zm8.866 8.343.002.9c2.342 1.215 5.882 3.029 8.223 4.244l.339-.737c-2.341-1.216-6.223-3.191-8.564-4.407m-8.195 3.53-7.302 3.58 7.394 2.582 7.302-2.582zM184.65 8.984c-5.08 2.739-11.26 6.191-16.34 8.93l.79.468c4.69-2.528 11.2-6.099 15.88-8.627zm-41.327.136-.338.771c4.682 2.528 11.198 6.097 15.881 8.625l.789-.466c-5.073-2.739-11.259-6.191-16.332-8.93m21.372 6.982.034 11.394 7.381 3.697-.03-11.261zm-1.363.126-7.251 3.815-.014 4.362c-2.346 1.266-6.549 3.546-8.883 4.806l.339.767c2.332-1.258 6.197-3.369 8.542-4.634l-.018 5.911 7.253-3.683zm8.868 8.677v.936c2.34 1.264 5.88 3.15 8.22 4.414l.34-.767c-2.34-1.264-6.22-3.319-8.56-4.583m-8.197 3.671-7.302 3.723 7.394 2.685 7.305-2.685z"/></g><path d="M311.65 8.984c-5.08 2.739-11.26 6.191-16.34 8.93l.79.468c4.69-2.528 11.2-6.099 15.88-8.627zm-41.33.136-.34.771c4.69 2.528 11.2 6.097 15.89 8.625l.78-.466c-5.07-2.739-11.25-6.191-16.33-8.93m21.38 6.982.03 11.394 7.38 3.697-.03-11.261zm-1.37.126-7.25 3.815-.01 4.362c-2.35 1.266-6.55 3.546-8.89 4.806l.34.767c2.33-1.258 6.2-3.369 8.54-4.634l-.01 5.911 7.25-3.683zm8.87 8.677v.936c2.34 1.264 5.88 3.15 8.22 4.414l.34-.767c-2.34-1.264-6.22-3.319-8.56-4.583m-8.2 3.671-7.3 3.723 7.39 2.685 7.31-2.685z" class="uchighlight"/><g class="ucdraw"><path d="M187.8 165.99a.54.54 0 0 0-.327.256l-4.279 7.566a.54.54 0 0 0 .205.739.54.54 0 0 0 .739-.205l4.278-7.566a.54.54 0 0 0-.204-.74.54.54 0 0 0-.412-.05"/><path d="M187.88 165.99a.54.54 0 0 0-.412.05.54.54 0 0 0-.208.738l4.247 7.566a.54.54 0 0 0 .74.208.54.54 0 0 0 .206-.739l-4.246-7.566a.54.54 0 0 0-.327-.257M187.72 151.33c-2.612 0-5.01.416-6.911 1.128-1.902.712-3.343 1.705-3.94 3.016l-.023.052-.186.857-.012-.002-.02.144-.017.065v.09c0 2.251 1.309 4.261 3.329 5.674s4.765 2.262 7.788 2.262 5.769-.85 7.788-2.262c2.02-1.413 3.329-3.423 3.329-5.674v-.56h-.129a3.46 3.46 0 0 0-.856-1.692c-.602-.645-1.435-1.192-2.439-1.647-2.008-.91-4.714-1.45-7.701-1.45zm0 1.878c2.586 0 4.926.445 6.571 1.134.823.345 1.47.752 1.885 1.163s.592.8.592 1.18-.177.77-.592 1.181-1.062.819-1.885 1.163c-1.645.69-3.985 1.135-6.571 1.135-2.582 0-4.921-.445-6.565-1.135-.822-.344-1.468-.751-1.883-1.163s-.592-.8-.592-1.18.177-.77.592-1.18c.415-.412 1.06-.819 1.883-1.164 1.644-.69 3.983-1.134 6.565-1.134m9.641 4.852c-.396 1.276-1.137 2.474-2.466 3.404-1.807 1.263-4.35 2.068-7.167 2.068s-5.36-.805-7.167-2.068c-1.322-.925-2.06-2.116-2.46-3.385.129.19.238.39.409.558.555.55 1.313 1.01 2.226 1.392 1.825.766 4.279 1.22 6.984 1.22 2.71 0 5.164-.454 6.99-1.22.914-.383 1.673-.841 2.228-1.392.177-.175.291-.38.423-.577"/><path d="M187.73 146.45a.54.54 0 0 0-.542.542v11.754a.54.54 0 0 0 .542.543.54.54 0 0 0 .542-.543v-11.754a.54.54 0 0 0-.542-.542M191.4 163.47a.47.47 0 0 0-.345.092l-3.687 2.847a.467.467 0 0 0-.085.655.467.467 0 0 0 .657.086l3.686-2.847a.467.467 0 0 0 .084-.655.47.47 0 0 0-.31-.178"/><path d="M184.1 163.38a.47.47 0 0 0-.316.178.473.473 0 0 0 .08.664l3.714 2.928a.473.473 0 0 0 .664-.08.473.473 0 0 0-.078-.663l-3.716-2.929a.47.47 0 0 0-.348-.098zM302.58 174.86a.67.67 0 0 0-.402.314l-5.26 9.301a.667.667 0 0 0 .252.908.667.667 0 0 0 .908-.251l5.26-9.301a.667.667 0 0 0-.252-.908.67.67 0 0 0-.506-.063"/><path d="M302.17 174.92a.667.667 0 0 0-.256.908l5.22 9.301a.667.667 0 0 0 .909.256.667.667 0 0 0 .254-.908l-5.219-9.301a.667.667 0 0 0-.908-.256M302.99 156.83c-3.084 0-5.919.478-8.17 1.295s-3.96 1.951-4.674 3.478l-.03.065-.222.988h-.013l-.024.16-.023.08v.116c0 2.609 1.562 4.927 3.955 6.55s5.639 2.6 9.21 2.6 6.819-.976 9.212-2.6c2.393-1.623 3.955-3.941 3.955-6.55v-.686h-.162c-.157-.702-.472-1.37-1.016-1.935-.717-.745-1.704-1.372-2.892-1.895-2.377-1.045-5.577-1.666-9.106-1.666zm0 2.242c3.057 0 5.822.513 7.762 1.303.97.395 1.729.86 2.215 1.328s.687.9.687 1.316-.202.847-.687 1.315-1.245.935-2.215 1.33c-1.94.79-4.705 1.303-7.762 1.303-3.051 0-5.816-.513-7.758-1.303-.97-.395-1.732-.862-2.219-1.33s-.687-.9-.687-1.315.2-.848.687-1.316 1.248-.933 2.22-1.328c1.94-.79 4.705-1.303 7.757-1.303m11.33 5.656c-.49 1.393-1.343 2.704-2.857 3.73-2.133 1.448-5.136 2.372-8.463 2.372s-6.331-.924-8.463-2.371c-1.5-1.018-2.35-2.314-2.846-3.691.134.176.233.368.399.527.66.636 1.56 1.164 2.64 1.603 2.16.88 5.061 1.4 8.26 1.4 3.203 0 6.104-.52 8.264-1.4 1.08-.44 1.978-.967 2.638-1.603.178-.171.287-.376.428-.567"/><path d="M302.5 150.83a.667.667 0 0 0-.666.666v14.449a.667.667 0 0 0 .666.668.667.667 0 0 0 .666-.668v-14.449a.667.667 0 0 0-.666-.666M306.29 170.64a.55.55 0 0 0-.39.148l-3.897 3.672a.546.546 0 0 0-.024.772.546.546 0 0 0 .772.023l3.896-3.672a.546.546 0 0 0 .024-.771.55.55 0 0 0-.381-.172"/><path d="M298.56 170.88a.57.57 0 0 0-.799.098.57.57 0 0 0 .098.799l4.476 3.51a.57.57 0 0 0 .8-.098.57.57 0 0 0-.096-.8zM64 136v16h16v-16zm1 1h14v14H65z"/><path d="M71.539 136.73v15.119h1V136.73z"/><path d="M64.5 143v1h15.117v-1zM165 134v17h16v-17zm1 1h14v15h-14z"/><path d="M172.35 134.85v15.579h1V134.85z"/><path d="M165.5 142v1h15.119v-1zM282.24 137.06v16h16v-16zm1 1h14v14h-14z"/><path d="M289.9 137.56v15.117h1V137.56z"/><path d="M282.74 145.06v1h15.119v-1zM71.748 136.02l-.624-3.951 1.317-.208.624 3.952zm-.832-5.268-.624-3.951 1.317-.208.624 3.951zm-.832-5.268-.623-3.951 1.317-.208.623 3.951zm-.831-5.268-.624-3.951 1.317-.208.624 3.951zm-.832-5.268-.624-3.951 1.317-.208.624 3.951zm-.832-5.268-.624-3.951 1.317-.208.624 3.951zm-.831-5.268-.624-3.951 1.317-.208.624 3.951zm-.832-5.268-.624-3.951 1.317-.208.624 3.951zm-.832-5.268-.624-3.951 1.317-.208.624 3.951zm-.832-5.268-.624-3.951 1.318-.208.623 3.951zm-2.564-3.419 1.802-5.684 3.466 4.852zM80.949 135.72l2.956-2.694-.898-.986-2.956 2.695zm3.942-3.592 2.956-2.695-.898-.985-2.956 2.694zm3.942-3.593 2.956-2.694-.898-.986-2.956 2.695zm3.942-3.592 2.956-2.695-.898-.985-2.956 2.694zm3.942-3.593 2.956-2.694-.898-.986-2.956 2.695zm3.942-3.592 2.956-2.695-.898-.985-2.957 2.694zm3.942-3.593 2.956-2.694-.898-.985-2.957 2.694zm3.941-3.592 2.957-2.694-.898-.986-2.957 2.694zm3.942-3.593 2.957-2.694-.898-.985-2.957 2.694zm3.942-3.592 2.957-2.694-.898-.986-2.957 2.695zm3.942-3.592 2.957-2.695-.898-.985-2.957 2.694zm3.942-3.593 2.957-2.694-.899-.986-2.956 2.695zm3.942-3.592 2.956-2.695-.898-.985-2.956 2.694zm3.942-3.593 2.956-2.694-.898-.986-2.956 2.695zm3.942-3.592 2.956-2.695-.898-.985-2.956 2.694zm3.942-3.593 2.956-2.694-.898-.986-2.956 2.695zm3.942-3.592 2.956-2.695-.898-.985-2.956 2.694zm3.942-3.593 2.956-2.694-.898-.985-2.957 2.694zm3.942-3.592 2.956-2.694-.898-.986-2.957 2.694zm4.053-.988 2.145-5.563-5.738 1.621z"/><path d="m71.838 78.926 3.447 2.03-.677 1.149-3.446-2.031zm4.596 2.707 3.446 2.03-.677 1.149-3.446-2.03zm4.595 2.707 3.446 2.03-.677 1.149-3.446-2.03zm4.595 2.707 3.446 2.03-.676 1.149-3.447-2.03zm4.595 2.707 3.447 2.031-.677 1.148-3.447-2.03zm4.595 2.707 3.447 2.031-.677 1.149-3.446-2.031zm4.596 2.708 3.446 2.03-.677 1.149-3.446-2.031zm4.595 2.707 3.446 2.03-.677 1.149-3.446-2.031zm4.595 2.707 3.446 2.03-.676 1.149-3.447-2.03zm4.595 2.707 3.447 2.03-.677 1.149-3.447-2.03zm4.595 2.707 3.447 2.03-.677 1.149-3.446-2.03zm4.596 2.707 3.446 2.031-.677 1.148-3.446-2.03zm4.595 2.707 3.446 2.031-.677 1.149-3.446-2.031zm4.595 2.708 3.446 2.03-.676 1.149-3.447-2.031zm4.595 2.707 3.447 2.03-.677 1.149-3.447-2.031zm4.595 2.707 3.447 2.03-.677 1.149-3.446-2.03zm4.596 2.707 3.446 2.03-.677 1.149-3.446-2.03zm4.595 2.707 3.446 2.03-.677 1.149-3.446-2.03zm4.595 2.707 3.446 2.031-.676 1.148-3.447-2.03zm4.595 2.707 1.862 1.097-.677 1.149-1.862-1.097zm1.729-1.303 3.241 5.005-5.949-.409zM171.56 57.242l3.984-.357-.119-1.328-3.984.357zm5.312-.476 3.984-.358-.119-1.328-3.984.358zm5.312-.477 3.984-.357-.119-1.328-3.984.357zm5.312-.476 3.984-.357-.119-1.328-3.984.357zm5.312-.476 3.984-.358-.119-1.328-3.984.358zm5.312-.477 3.984-.357-.119-1.328-3.984.357zm5.312-.476 3.984-.357-.119-1.328-3.984.357zm5.312-.477 3.984-.357-.119-1.328-3.984.357zm5.312-.476 3.984-.357-.119-1.328-3.984.357zm5.312-.476 3.984-.358-.119-1.328-3.984.358zm5.312-.477 3.984-.357-.119-1.328-3.984.357zm5.312-.476 3.984-.357-.119-1.328-3.984.357zm5.312-.476 3.984-.358-.119-1.328-3.984.358zm5.312-.477 3.984-.357-.119-1.328-3.984.357zm5.312-.476 3.984-.357-.119-1.328-3.984.357zm5.312-.476 3.984-.358-.119-1.328-3.984.358zm5.312-.477 3.984-.357-.119-1.328-3.984.357zm5.312-.476 3.984-.357-.119-1.328-3.984.357zm5.312-.477 3.984-.357-.119-1.328-3.984.357zm5.313-.476 3.984-.357-.12-1.328-3.983.357zm5.312-.476 2.157-.194-.12-1.328-2.156.194zm1.008 1.917 5.074-3.132-5.55-2.18zM291.66 52.391l-.077 3.94 1.333.026.076-3.94zm-.102 5.255-.076 3.94 1.333.026.076-3.941zm-.102 5.254-.076 3.94 1.333.026.076-3.94zm-.102 5.254-.076 3.941 1.333.025.076-3.94zm-.102 5.255-.076 3.94 1.333.026.076-3.941zm-.102 5.254-.076 3.941 1.334.025.076-3.94zm-.101 5.255-.077 3.94 1.333.026.076-3.941zm-.102 5.254-.076 3.941 1.333.025.076-3.94zm-.102 5.255-.076 3.94 1.333.026.076-3.941zm-.102 5.254-.076 3.941 1.333.025.076-3.94zm-.102 5.255-.076 3.94 1.333.026.076-3.941zm-.102 5.254-.076 3.941 1.333.025.077-3.94zm-.102 5.255-.077 3.94 1.333.026.076-3.941zm-.102 5.254-.076 3.94 1.333.026.076-3.94zm-.102 5.255-.076 3.94 1.333.025.076-3.94zm-.102 5.254-.055 2.856 1.333.025.055-2.856zm-2.03 1.505 2.565 5.305 2.768-5.205z"/></g><path d="m164.7 64.152.48 3.895-1.328.155-.474-3.895zm.63 5.193.48 3.895-1.326.155-.474-3.895zm.64 5.193.47 3.894-1.32.155-.48-3.894zm.63 5.192.47 3.895-1.32.155-.48-3.895zm.63 5.193.47 3.895-1.32.155-.47-3.895zm.63 5.193.48 3.895-1.33.155-.47-3.895zm.63 5.193.48 3.894-1.33.155-.47-3.894zm.64 5.192.47 3.895-1.32.155-.48-3.895zm.63 5.193.47 3.895-1.32.155-.48-3.895zm.63 5.193.47 3.895-1.32.155-.47-3.895zm.63 5.193.48 3.894-1.33.155-.47-3.894zm.63 5.192.48 3.895-1.33.155-.47-3.895zm.64 5.193.42 3.5-1.32.156-.43-3.501zm2.25 1.97-2.02 5.503-3.27-4.883z" class="uchighlight"/><g class="uchighlight"><path d="M283.17 37.166v16.668h16.668V37.166zm1.668 1.668h13.332v13.332h-13.332z"/><path d="M290.63 38v15.117h1.666V38z"/><path d="M284 45.166v1.668h15.119v-1.668z"/></g><path fill="none" class="ucstroke" stroke-miterlimit="8" stroke-width="2.667" d="M12.36 125.2c93.532-4.036 205.07-3.996 298.18.107"/><g fill="none" class="ucstroke" stroke-dasharray="0.733, 1.466" stroke-width=".733"><path d="M12.449 46.04c94.703-4.242 208.29-4.2 302.56.112M14.63 59.887c93.532-4.036 205.07-3.996 298.18.107M12.449 73.04c94.703-4.242 208.29-4.2 302.56.112"/></g></svg>
