<svg xmlns="http://www.w3.org/2000/svg" width="328" height="189" viewBox="0 0 328 189"><g class="ucdraw"><path d="m148.57 31.054 4.688 2.603 5.132 2.557 5.512 2.481 5.884 2.408 12.724 4.54 13.935 4.171 14.966 3.752 15.83 3.288 16.529 2.779 17.025 2.22.173-1.322-17.001-2.217-16.48-2.77-15.778-3.278-14.91-3.738-13.873-4.151-12.663-4.52-5.835-2.387-5.466-2.46-5.082-2.533-4.662-2.589zm1.295-2.331 4.636 2.574 5.032 2.507 5.421 2.44 5.785 2.368 12.602 4.497 13.811 4.133 14.854 3.724 15.728 3.266 16.43 2.763 16.976 2.214.173-1.322-16.951-2.21-16.381-2.756-15.675-3.255-14.8-3.71-13.748-4.114-12.54-4.476-5.736-2.347-5.377-2.42-4.982-2.482-4.61-2.56zM283.37 139.42l-.943.943 10.135 10.135-10.135 10.135.943.944 10.135-10.135 10.135 10.135.943-.944-10.135-10.135 10.135-10.135-.943-.943-10.135 10.135z"/><path d="M293.5 134.83c-8.644 0-15.666 7.022-15.666 15.666s7.022 15.666 15.666 15.666 15.666-7.022 15.666-15.666-7.022-15.666-15.666-15.666m0 1.332c7.924 0 14.334 6.41 14.334 14.334s-6.41 14.334-14.334 14.334-14.334-6.41-14.334-14.334 6.41-14.334 14.334-14.334M288.83 20.5v14.834h-14.334v1.332h14.334V51.5h1.332V36.666h14.334v-1.332h-14.334V20.5z"/><path d="M289.5 19.834c-8.656 0-15.666 7.257-15.666 16.166s7.01 16.166 15.666 16.166S305.166 44.909 305.166 36s-7.01-16.166-15.666-16.166m0 1.332c7.912 0 14.334 6.623 14.334 14.834s-6.422 14.834-14.334 14.834S275.166 44.211 275.166 36s6.422-14.834 14.334-14.834M260.67 98.014l-.937.059.17 2.662.935-.06zm-3.598.227-2.662.17.17 2.66 2.66-.168zm-5.322.337-2.662.168.168 2.663 2.662-.168zm-5.324.338-2.66.168.168 2.66 2.662-.167zm-5.322.336-2.66.168.167 2.662 2.66-.168zm-5.323.338-2.662.168.17 2.662 2.66-.17zm-5.322.336-2.662.17.168 2.66 2.662-.168zm-5.322.338-2.662.168.168 2.662 2.662-.17zm-5.325.336-2.66.17.168 2.66 2.662-.168zm-5.322.338-2.66.168.168 2.662 2.66-.168zm-5.322.338-2.662.168.17 2.66 2.66-.168zm-5.322.336-2.663.168.168 2.662 2.663-.168zm-5.323.338-2.662.168.168 2.662 2.662-.17zm-5.324.335-2.66.17.168 2.66 2.662-.167zm-5.322.338-2.662.168.17 2.662 2.66-.17zm-5.323.336-2.662.17.17 2.66 2.66-.168zm-5.322.338-2.662.168.168 2.662 2.662-.168zm-5.324.338-2.66.168.168 2.66 2.662-.168zM147.86 104.96q-1.335.086-2.678.19l.207 2.658c.878-.07 1.759-.129 2.643-.186zm-5.346.408q-1.34.118-2.672.25l.262 2.653q1.322-.133 2.637-.247zm-5.34.53q-1.33.145-2.665.31l.328 2.647q1.31-.162 2.63-.307zm-5.32.648q-1.336.176-2.658.367l.379 2.64c.878-.125 1.753-.249 2.625-.363zm-5.31.766q-1.325.203-2.649.425l.442 2.631q1.304-.22 2.615-.422zm-5.291.88q-1.318.234-2.64.485l.503 2.619q1.297-.246 2.605-.479zm-5.266.998q-1.319.264-2.627.543l.553 2.608q1.299-.277 2.594-.535zm-5.246 1.116q-1.312.292-2.617.603l.617 2.594q1.288-.306 2.58-.596zm-5.223 1.236q-1.3.322-2.601.664l.681 2.58q1.278-.337 2.565-.656zm-5.19 1.36a188 188 0 0 0-2.585.73l.746 2.56q1.268-.367 2.547-.718zm-5.155 1.492q-1.286.387-2.567.796l.813 2.54q1.259-.403 2.527-.786zm-5.116 1.628q-1.278.427-2.545.872l.883 2.515q1.25-.44 2.502-.857zm-5.072 1.78q-1.262.465-2.518.953l.967 2.484q1.23-.48 2.47-.933zm-5.014 1.947q-1.247.508-2.486 1.045l1.06 2.445q1.21-.522 2.432-1.02zm-4.947 2.137q-1.226.558-2.443 1.15l1.168 2.397q1.181-.576 2.382-1.121zm-4.853 2.355q-1.206.621-2.39 1.278l1.294 2.334a84 84 0 0 1 2.314-1.239zm-4.735 2.63q-1.17.694-2.308 1.437l1.453 2.234q1.096-.713 2.218-1.38zm-4.558 2.97-.18.129-.557.406-.004.004q-.729.54-1.449 1.12l1.676 2.073q.661-.533 1.357-1.048l.004-.004.004-.002.53-.387.165-.12zm-4.282 3.45a32 32 0 0 0-1.966 1.968l1.972 1.795a29 29 0 0 1 1.801-1.803zm-3.746 4.153c-.553.771-1.064 1.59-1.496 2.463l2.39 1.184c.357-.72.79-1.42 1.272-2.092zm-2.517 5.239c-.237.98-.343 2.001-.288 3.029l2.663-.143a7.9 7.9 0 0 1 .216-2.261z"/><path d="m49.393 145.39.448-3.534 1.747-3.75 2.798-3.573 3.727-3.431 4.582-3.31 5.371-3.189 6.095-3.054 6.755-2.9 7.346-2.722 7.867-2.517 8.32-2.287 8.72-2.031 18.227-3.159 9.44-1.082 9.478-.703.098 1.33-9.45.701-9.376 1.075-18.152 3.145-8.657 2.017-8.268 2.272-7.812 2.5-7.286 2.699-6.688 2.871-6.018 3.016-5.278 3.134-4.469 3.228-3.59 3.304-2.636 3.367-1.594 3.423-.422 3.328zm2.646.335.395-3.121 1.442-3.095 2.475-3.161 3.452-3.177 4.356-3.148 5.186-3.078 5.941-2.977 6.62-2.842 7.226-2.677 7.757-2.483 8.216-2.257 8.595-2.003 18.076-3.132 9.311-1.067 9.424-.699.099 1.329-9.398.697-9.246 1.06-18.001 3.119-8.532 1.988-8.164 2.244-7.702 2.464-7.166 2.655-6.553 2.814-5.863 2.937-5.094 3.024-4.243 3.066-3.314 3.05-2.314 2.955-1.289 2.768-.369 2.915zM152.58 146.4l-.951.072.2 2.659.95-.07zm-3.61.271-2.66.2.2 2.658 2.66-.2zm-5.318.397-2.66.2.2 2.66 2.66-.2zm-5.318.398-2.66.2.199 2.66 2.658-.2zm-5.32.399-2.659.2.2 2.66 2.658-.2zm-5.319.398-2.658.2.2 2.66 2.657-.2zm-5.318.399-2.658.199.199 2.658 2.658-.197zm-5.319.398-2.658.2.2 2.658 2.658-.2zm-5.318.399-2.658.199.199 2.658 2.658-.2zm-5.318.398-2.659.2.2 2.657 2.658-.199zm-5.319.397-2.658.199.2 2.66 2.657-.2zm-5.318.398-2.658.2.199 2.66 2.658-.2zm-5.319.398-2.658.2.2 2.66 2.658-.2zm-5.318.399-2.658.199.197 2.66 2.66-.199zm-5.318.398-2.66.2.199 2.658 2.66-.198zm-5.319.399-2.66.199.2 2.658 2.66-.2zm-5.318.398-2.66.2.199 2.658 2.66-.2zm-5.319.399-2.66.199.2 2.658 2.66-.2z"/><path d="m61.466 156.57 91.366-6.84-.1-1.33-91.366 6.84zm-.2-2.66 91.367-6.84-.1-1.33-91.365 6.841zM169.46 107.13l91.422-5.789-.084-1.33-91.422 5.788zm-.169-2.661 91.422-5.79-.084-1.33-91.422 5.789z"/><path d="m61.443 144.44-20.203 1.078 1.08 20.201 20.201-1.078zm-1.26 1.402.938 17.537-17.541.938-.938-17.54z"/></g><path d="M48.713 159.189q.002.031-.012.055-.01.024-.045.042-.034.017-.092.028-.058.012-.148.016-.086.005-.145 0t-.095-.018-.053-.037q-.013-.022-.014-.054l-.362-6.771q-.001-.028.01-.052.014-.024.048-.041t.092-.029.144-.015q.09-.005.149 0t.095.018.048.037q.017.022.019.05zm3.679-.196q.001.03-.013.055-.01.024-.045.042-.034.017-.092.028t-.148.016q-.086.004-.145 0-.059-.005-.094-.019t-.053-.036q-.013-.023-.015-.054l-.361-6.772q-.002-.027.009-.051.014-.024.048-.042.034-.017.093-.028t.143-.016q.09-.005.15 0 .058.005.094.019t.049.036q.017.023.018.05zm3.678-.197q.002.031-.013.056-.01.024-.044.041-.035.018-.093.029-.058.01-.147.015-.086.005-.145 0-.06-.005-.095-.018-.036-.014-.053-.037-.013-.022-.015-.054l-.361-6.771q-.002-.027.009-.051.014-.025.049-.042.034-.018.092-.029.058-.01.144-.015.09-.005.148 0 .06.005.095.018.036.014.05.037.016.022.018.05zM171.68 136.59l-20.201 1.078 1.078 20.203 20.201-1.078zm-1.262 1.402.938 17.54-17.54.937-.937-17.54z" class="ucdraw"/><path d="M158.948 151.19q.001.031-.013.055-.01.024-.045.042-.034.017-.092.028t-.148.016q-.086.005-.145 0t-.094-.019-.053-.036q-.013-.023-.015-.054l-.361-6.771q-.002-.028.009-.052.014-.024.048-.042.035-.017.093-.028t.143-.016q.09-.004.15 0 .058.005.094.019t.049.036q.017.023.018.05zm3.678-.197q.002.032-.013.056-.01.024-.044.041-.035.018-.093.029-.058.01-.147.016-.086.004-.145 0-.06-.005-.095-.019t-.053-.036q-.013-.023-.014-.054l-.362-6.772q-.002-.027.009-.051.014-.024.049-.042.034-.017.092-.028t.144-.016q.09-.005.148 0 .06.005.095.018.036.014.05.037.016.023.017.05zm3.678-.196q.002.031-.012.056-.01.023-.045.041t-.092.028q-.058.012-.148.016-.086.005-.145 0t-.095-.018-.053-.037q-.012-.022-.014-.054l-.362-6.771q-.001-.027.01-.052.014-.024.048-.041t.092-.029.144-.015q.09-.005.149 0t.095.018q.035.014.049.037.016.022.018.05z" class="ucdraw"/><path d="m170.09 94.295-21.535 1.15 1.15 21.533 21.533-1.15zm-2.521 2.805.865 16.209-16.207.865-.867-16.207z" class="uchighlight"/><path d="M156.725 109.189q.002.03-.013.055-.01.024-.044.042-.035.017-.093.028t-.148.016q-.085.004-.144 0-.06-.005-.095-.019t-.053-.036q-.013-.023-.015-.054l-.361-6.772q-.002-.027.009-.051.014-.024.048-.042.035-.017.093-.028t.144-.016q.09-.005.148 0 .06.005.095.019t.05.036q.016.023.017.05zm3.678-.197q.002.031-.012.056-.01.024-.045.041t-.092.029-.148.015q-.086.005-.145 0t-.095-.018-.053-.036q-.013-.023-.014-.054l-.362-6.772q-.001-.027.01-.051.014-.025.048-.042t.092-.029q.058-.01.144-.015.09-.005.149 0t.095.018q.035.014.048.037.017.022.019.05zm3.679-.196q.001.031-.013.055-.01.024-.045.042-.034.017-.092.028t-.148.016q-.086.005-.145 0t-.094-.019-.053-.036q-.013-.023-.015-.054l-.361-6.771q-.002-.028.009-.052.014-.024.048-.042.035-.017.093-.028t.143-.016q.09-.004.15 0 .058.005.094.019t.049.036q.017.023.018.05z" class="uchighlight"/><path d="m279.75 88.199-20.203 1.08 1.078 20.201 20.203-1.078zm-1.262 1.402.938 17.54-17.54.937-.937-17.54z" class="ucdraw"/><path d="M267.019 102.188q.001.03-.013.055-.01.024-.045.042-.034.017-.092.028t-.148.016q-.086.005-.145 0t-.095-.019-.052-.036q-.013-.023-.015-.054l-.362-6.772q-.001-.027.01-.05.014-.025.048-.043t.092-.028q.059-.011.144-.016.09-.004.149 0 .059.005.095.019t.049.036q.017.023.018.05zm3.678-.197q.002.031-.013.056-.01.024-.044.041-.035.018-.093.029-.058.01-.148.016-.085.004-.144 0-.06-.006-.095-.019-.036-.014-.053-.036-.013-.023-.015-.054l-.361-6.772q-.002-.027.009-.051.014-.024.048-.042.035-.017.093-.028.058-.012.144-.016.09-.005.148 0 .06.005.095.018.036.014.05.037.016.022.017.05zm3.678-.196q.002.031-.012.055-.01.024-.045.042-.034.017-.092.028-.059.011-.148.016-.086.005-.145 0t-.095-.018-.053-.037q-.013-.023-.014-.054l-.362-6.771q-.001-.028.01-.052.014-.024.048-.041t.092-.029.144-.016q.09-.004.149 0 .059.005.095.019.035.014.048.036.017.023.019.05z" class="ucdraw"/><g class="ucdraw"><path d="m42.316 154.25-2.662.143.142 2.662 2.663-.14zm-5.324.285-2.664.143.142 2.662 2.662-.143zm-5.326.283-2.664.143.142 2.664 2.664-.143zm-5.327.286-2.662.142.14 2.662 2.665-.142z"/><path d="m23.642 154.58 18.697-.998.072 1.331-18.698.998zm.142 2.663 18.698-.998.071 1.331-18.698.998zM171.7 148.72l9.476-.697 9.438-1.064 18.228-3.09 8.72-1.983 8.321-2.23 7.869-2.452 7.347-2.65 6.757-2.82 6.098-2.97 5.374-3.098 4.587-3.216 3.734-3.333 2.809-3.474 1.762-3.659.456-3.443-1.322-.175-.427 3.232-1.604 3.327-2.643 3.27-3.595 3.209-4.474 3.136-5.282 3.046-6.022 2.932-6.691 2.794-7.289 2.628-7.815 2.436-8.27 2.215-8.659 1.97-18.155 3.077-9.375 1.057-9.45.695zm-.196-2.66 9.425-.693 9.313-1.05 18.08-3.065 8.599-1.955 8.22-2.202 7.761-2.42 7.23-2.606 6.625-2.766 5.946-2.895 5.19-2.993 4.362-3.058 3.456-3.085 2.478-3.065 1.444-2.996.4-3.02-1.322-.175-.372 2.809-1.284 2.663-2.313 2.862-3.316 2.96-4.25 2.979-5.099 2.94-5.869 2.858-6.56 2.738-7.17 2.586-7.709 2.402-8.169 2.189-8.537 1.941-18.008 3.054-9.25 1.042-9.398.692z"/><path d="M269.25 110.02a9.2 9.2 0 0 1-.719 2.209l2.422 1.12c.413-.893.738-1.848.92-2.853zm-1.941 4.305c-.472.673-1 1.318-1.567 1.941l1.973 1.795a22 22 0 0 0 1.777-2.207zm-3.372 3.74q-.34.31-.712.63-.614.53-1.243 1.026l1.649 2.096q.685-.54 1.34-1.104l.004-.004q.377-.325.767-.683zm-4.04 3.21-.102.073q-1.015.711-2.057 1.373l1.43 2.252a58 58 0 0 0 2.164-1.445l.004-.004.106-.074zm-4.395 2.811q-1.127.663-2.283 1.287l1.27 2.344a77 77 0 0 0 2.365-1.332zm-4.611 2.506a95 95 0 0 1-2.364 1.156l1.14 2.413a98 98 0 0 0 2.427-1.19zm-4.762 2.26q-1.202.54-2.418 1.049l1.033 2.457a113 113 0 0 0 2.475-1.072zm-4.865 2.053q-1.225.49-2.46.957l.942 2.494q1.26-.476 2.51-.977zm-4.942 1.875q-1.245.448-2.496.875l.864 2.523q1.272-.435 2.537-.89zm-5.01 1.717q-1.254.411-2.519.804l.791 2.545q1.281-.397 2.56-.816zm-5.056 1.574q-1.267.378-2.541.736l.723 2.567q1.291-.365 2.58-.749zm-5.1 1.441q-1.278.345-2.56.672l.66 2.584q1.3-.331 2.598-.682zm-5.134 1.317q-1.285.314-2.578.613l.601 2.597q1.305-.301 2.611-.62zm-5.166 1.197q-1.29.284-2.592.555l.545 2.61q1.31-.27 2.623-.562zm-5.192 1.082q-1.3.257-2.603.498l.484 2.623q1.32-.244 2.637-.506zm-5.213.969q-1.31.229-2.613.441l.424 2.633c.886-.143 1.767-.295 2.644-.447zm-5.24.857q-1.305.201-2.621.387l.375 2.64a217 217 0 0 0 2.654-.392zm-5.248.746q-1.318.174-2.63.33l.314 2.649q1.335-.16 2.662-.334zm-5.27.633q-1.311.146-2.636.275l.264 2.653q1.329-.13 2.668-.278zm-5.277.52q-1.32.116-2.64.214l.199 2.66q1.341-.1 2.676-.218zm-5.29.402q-1.316.087-2.645.158l.144 2.662q1.334-.071 2.68-.16z"/></g><path d="m57.244 77.292 18.898-.506 18.395.444 8.826.549 8.457.749 8.026.938 7.524 1.116 6.95 1.282 6.306 1.439 5.598 1.588 4.828 1.737 4.011 1.897 3.158 2.112 2.244 2.474.824 2.454-1.264.424-.735-2.189-1.947-2.145-2.94-1.967-3.863-1.828-4.724-1.699-5.52-1.566-6.246-1.425-6.899-1.273-7.48-1.109-7.987-.933-8.421-.746-8.784-.546-18.335-.443-18.865.505zm.071 2.666 18.831-.504 18.276.441 8.741.544 8.384.742 7.949.929 7.436 1.103 6.849 1.263 6.184 1.411 5.443 1.545 4.62 1.661 3.716 1.759 2.722 1.82 1.649 1.817.646 1.925-1.264.424-.557-1.66-1.351-1.489-2.504-1.674-3.569-1.689L145 88.702l-5.365-1.523-6.123-1.397-6.799-1.254-7.392-1.096-7.91-.924-8.348-.74-8.699-.541-18.216-.439-18.797.502z" class="uchighlight"/><path d="M75.953 77.453q-1.337.001-2.678.014l.026 2.668q1.326-.013 2.656-.014zm2.676.008-.016 2.666q1.331.006 2.656.025l.037-2.666q-1.34-.019-2.677-.025m-8.026.039q-1.343.02-2.677.05l.06 2.667q1.331-.032 2.655-.051zm13.377.031-.05 2.666q1.324.025 2.654.063l.072-2.666q-1.334-.037-2.676-.063m-18.73.092q-1.337.04-2.677.092l.105 2.666q1.325-.052 2.652-.092zm24.08.057-.09 2.664q1.326.046 2.653.103l.115-2.666a306 306 0 0 0-2.678-.101m-29.428.148q-1.342.06-2.675.13l.14 2.665q1.33-.072 2.653-.13zm34.777.078-.132 2.662q1.328.065 2.652.143l.156-2.662q-1.339-.078-2.676-.143m5.346.307-.174 2.662q1.328.086 2.649.183l.197-2.66a303 303 0 0 0-2.672-.185m5.34.392-.217 2.659q1.325.107 2.645.226l.242-2.656q-1.337-.12-2.67-.229m5.336.48-.264 2.655q1.322.131 2.639.274l.29-2.653a269 269 0 0 0-2.665-.275m5.326.577-.31 2.648q1.316.154 2.632.323l.338-2.645q-1.329-.17-2.66-.326m5.316.68-.363 2.642q1.312.18 2.621.38l.399-2.638q-1.327-.2-2.657-.384m5.305.799-.426 2.63q1.308.213 2.61.444l.465-2.627q-1.325-.234-2.649-.447m5.29.931-.5 2.62q1.3.246 2.591.517l.547-2.611q-1.32-.275-2.639-.526m5.265 1.096-.588 2.601q1.286.29 2.566.608l.645-2.588q-1.308-.325-2.623-.621m5.232 1.303-.703 2.572q1.27.345 2.523.728l.782-2.55a88 88 0 0 0-2.602-.75m5.178 1.584-.861 2.523q1.233.42 2.443.898l.98-2.48a58 58 0 0 0-2.562-.942m5.082 2.021-1.12 2.422q.731.338 1.45.72l.4.217.387.22.01.005 1.361-2.293-.033-.02-.43-.242-.439-.24-.006-.002a32 32 0 0 0-1.58-.787m4.85 2.89-1.67 2.079c.628.504 1.177 1.043 1.58 1.629l2.197-1.51c-.606-.881-1.352-1.59-2.107-2.197" class="uchighlight"/><g class="ucdraw"><path d="m38.299 78.971-2.664.143.142 2.662 2.663-.143zm-5.326.283-2.664.143.142 2.664 2.664-.143zm-5.326.285-2.662.143.14 2.662 2.664-.143zm-5.327.286-2.662.14.143 2.664 2.662-.142z"/><path d="m19.622 79.3 18.698-.998.071 1.331-18.698.998zm.142 2.663 18.698-.998.071 1.331-18.698.998zM298.19 96.01l-2.662.143.142 2.662 2.663-.143zm-5.324.283-2.664.143.142 2.664 2.662-.143zm-5.326.285-2.665.143.143 2.662 2.664-.143zm-5.327.286-2.662.14.14 2.664 2.665-.142z"/><path d="m279.52 96.339 18.698-.998.071 1.331-18.698.999zm.142 2.663 18.698-.998.071 1.331-18.697.999zM57.424 69.154l-20.201 1.078 1.078 20.203 20.201-1.08zm-1.262 1.402.938 17.54-17.54.937-.937-17.54z"/></g><path d="M44.151 84.065q.002.035-.014.062-.012.027-.05.047-.04.02-.104.032-.066.012-.167.018-.096.005-.163 0-.066-.006-.106-.021t-.06-.04q-.014-.027-.016-.062l-.407-7.618q-.002-.03.01-.058.016-.027.055-.046t.104-.032.162-.018q.1-.005.167 0 .066.005.107.02.04.016.055.042.019.025.02.056zm4.138-.221q.002.035-.014.062-.012.027-.05.047t-.104.032-.167.018q-.096.005-.163 0-.066-.006-.106-.021t-.06-.04q-.014-.027-.016-.062l-.407-7.618q-.001-.03.01-.057.016-.028.055-.047t.104-.032.162-.018q.1-.005.167 0 .066.005.107.02.04.016.055.042.019.025.02.056zm4.138-.22q.002.034-.014.061-.012.027-.05.047t-.104.032-.167.018q-.096.005-.162 0-.067-.006-.107-.021t-.06-.04q-.014-.026-.016-.062l-.407-7.618q-.001-.03.01-.057.017-.028.055-.047t.104-.032q.065-.013.162-.018.1-.005.167 0 .066.005.107.02.04.016.055.042.019.025.02.056z" class="ucdraw"/><g class="ucdraw"><path d="m23.644 31.374 259.65 29.056-.148 1.325-259.65-29.056zm-.296 2.651 259.65 29.055-.149 1.325L23.209 35.35z"/><path d="m23.631 32.42-.297 2.65 2.65.297.297-2.65zm5.299.594-.295 2.648 2.648.297.297-2.65zm5.3.592-.296 2.65 2.65.297.297-2.65zm5.301.593-.296 2.65 2.65.298.297-2.65zm5.301.594-.297 2.648 2.65.297.296-2.65zm5.299.592-.297 2.65 2.65.297.297-2.65zm5.3.594-.296 2.65 2.65.297.297-2.65zm5.302.593-.297 2.649 2.65.297.297-2.65zm5.3.592-.296 2.65 2.65.297.295-2.65zm5.3.594-.298 2.65 2.65.297.298-2.65zm5.3.594-.297 2.65 2.65.295.297-2.648zm5.3.591-.296 2.65 2.65.298.297-2.65zm5.3.594-.295 2.65 2.648.297.297-2.65zm5.3.594-.296 2.65 2.65.295.297-2.648zm5.301.592-.297 2.65 2.65.297.298-2.65zm5.301.593-.297 2.65 2.65.298.295-2.65zm5.299.594-.295 2.65 2.648.296.297-2.649zm5.3.592-.296 2.65 2.65.297.297-2.65zm5.301.594-.296 2.65 2.65.297.297-2.65zm5.301.594-.297 2.65 2.65.297.296-2.65zm5.299.591-.297 2.65 2.65.298.297-2.65zm5.3.594-.296 2.65 2.65.297.297-2.65zm5.302.594-.297 2.65 2.65.297.297-2.65zm5.298.594-.295 2.648 2.65.297.296-2.65zm5.301.591-.297 2.65 2.65.298.298-2.65zm5.301.594-.297 2.65 2.65.297.297-2.65zm5.3.594-.296 2.648 2.65.297.297-2.65zm5.3.592-.295 2.65 2.648.297.297-2.65zm5.3.593-.296 2.65 2.65.298.297-2.65zm5.301.594-.297 2.649 2.65.296.298-2.65zm5.301.592-.297 2.65 2.65.297.295-2.65zm5.299.594-.297 2.65 2.65.297.297-2.65zm5.3.593-.296 2.65 2.65.296.297-2.649zm5.301.592-.296 2.65 2.65.298.297-2.65zm5.301.594-.297 2.65 2.65.297.296-2.65zm5.299.594-.297 2.65 2.65.295.297-2.648zm5.3.592-.296 2.65 2.65.297.297-2.65zm5.302.593-.297 2.65 2.65.298.297-2.65zm5.298.594-.295 2.65 2.649.295.297-2.648zm5.301.592-.297 2.65 2.65.297.298-2.65zm5.301.594-.297 2.65 2.65.297.297-2.65zm5.3.593-.296 2.65 2.65.298.297-2.65zm5.3.592-.295 2.65 2.648.297.297-2.65zm5.3.594-.296 2.65 2.65.297.297-2.65zm5.301.594-.297 2.65 2.65.297.298-2.65zm5.301.593-.297 2.649 2.65.297.295-2.65zm5.299.592-.297 2.65 2.65.298.297-2.65zm5.3.594-.296 2.65 2.65.297.297-2.65zm5.301.594-.296 2.648 2.65.297.297-2.65zm7.023 4.093-2.956-.877z"/><path d="m150.25 27.859-1.352 2.299q1.165.684 2.346 1.34l1.293-2.334q-1.152-.638-2.287-1.305m4.607 2.559-1.24 2.359q1.193.627 2.399 1.229l1.189-2.387q-1.18-.588-2.348-1.201m4.725 2.359-1.148 2.406q1.216.58 2.441 1.135l1.102-2.428q-1.204-.545-2.395-1.113m4.815 2.19-1.067 2.443q1.233.537 2.473 1.055l1.025-2.461q-1.22-.51-2.431-1.037zm4.884 2.04-.996 2.473q1.248.502 2.498.985l.963-2.487q-1.238-.477-2.465-.97m4.944 1.91-.932 2.499q1.256.468 2.52.922l.9-2.512q-1.246-.447-2.488-.908m4.99 1.792-.875 2.52q1.268.44 2.539.864l.846-2.529a227 227 0 0 1-2.51-.855m5.031 1.685-.822 2.537q1.274.413 2.553.813l.796-2.545q-1.266-.396-2.527-.805m5.065 1.588-.774 2.55q1.282.39 2.566.767l.75-2.56q-1.273-.372-2.543-.757m5.095 1.496-.73 2.565q1.288.367 2.58.72l.707-2.57a281 281 0 0 1-2.557-.715m5.121 1.41-.69 2.577q1.295.345 2.593.68l.666-2.583a303 303 0 0 1-2.569-.674m5.143 1.33-.649 2.588q1.298.325 2.6.641l.629-2.592q-1.29-.312-2.58-.637m5.164 1.254-.611 2.596q1.3.308 2.61.606l.589-2.602q-1.293-.293-2.588-.6m5.182 1.182-.575 2.604 1.03.226 1.584.342.56-2.608-1.578-.34zm5.197 1.111-.537 2.614 1.705.35.914.18.523-2.612-.908-.184zm5.217 1.045-.512 2.617.463.09 2.017.385.153.027.484-2.62-.144-.028-2.006-.38zm5.222.979-.472 2.623 1.285.232 1.346.236.46-2.627-1.34-.234zm5.243.916-.45 2.629.127.021 2.07.344.446.07.424-2.633-.44-.07-2.056-.34zm5.246.851-.412 2.635 1.078.168 1.562.236.4-2.636-1.556-.237zm5.254.791-.375 2.64 2.097.298.55.076.362-2.643-.54-.074zm5.271.729-.351 2.644 1.05.139 1.6.205.34-2.644-1.596-.205zm5.28.672-.329 2.646.022.004 2.146.254.494.057.301-2.649-.486-.056-2.135-.254z"/></g></svg>
