<svg xmlns="http://www.w3.org/2000/svg" width="328" height="189" viewBox="0 0 328 189"><g class="ucdraw"><path d="M74.833 30.833h70.334l-.173 22.149-8.136.058-.23 13.697 8.539.057v26.587l-8.056.116.289 13.35 7.767.173c-.058.519-.23 22.046-.058 22.854l-7.456.173-.23 13.524 7.744-.058v20.655H74.833v-20.367l8.735.173-.346-14.043-8.39.115.059-22.68 8.48-.231-.057-13.812-8.481-.173.029-26.53c2.096.599 5.263.068 7.88.145l-.144-13.581-7.736.086c-.03-.317-.03-22.437-.03-22.437zm.778 22.006h7.65V67.11h-7.65v25.955h7.904v14.271h-7.904v22.682h8.158v14.272h-8.158v19.099h68.778V144.29h-7.052v-14.272h7.052v-22.682h-7.305V93.065h7.305V67.11h-7.559V52.839h7.559V31.611H75.611zm.778-20.45h67.222v19.672h-7.559v15.827h7.559v24.399h-7.305v15.827h7.305v21.127h-7.051v15.827h7.051v17.543H76.389v-17.543h8.157v-15.827h-8.157v-21.127h7.904V92.287h-7.904V67.888h7.65V52.061h-7.65zm.778 18.894h7.65v17.383h-7.65v22.843h7.903v17.382h-7.903v19.572h8.157v17.382h-8.157v15.988h65.666v-15.988h-7.051v-17.382h7.051v-19.572h-7.305V91.509h7.305V68.666h-7.559V51.283h7.559V33.167H77.167zM186.83 39.833h70.334s0 33.466.029 34.072c-.058-.692-7.9.144-7.9.144l.058 13.275h7.813v34.843H186.83v-15.33l8.39.115-.116-13.534-8.274.057-.058-26.79h7.905l.058-13.245-7.905-.086zm.778 13.031h7.559v14.34h-7.559v26.07h7.813v14.34h-7.813v13.775h68.778V88.102h-7.813V73.761h7.813v-33.15h-68.778zm.778-11.475h67.222v31.595h-7.813v15.895h7.813v31.732h-67.222v-12.219h7.813V92.496h-7.813V67.982h7.559V52.086h-7.559zm.778 9.919h7.559V68.76h-7.559v22.958h7.813v17.452h-7.813v10.663h65.666V89.657h-7.813V72.206h7.813V42.167h-65.666zM152.5 59.834v1.332h28.883v-1.332zM152.5 99.834v1.332h28.883v-1.332z"/></g><g class="uchighlight"><path d="M186.83 126.83h70.334v12.024l-7.66-.014v13.163h7.66c.014.158 0 12.16 0 12.16H186.83v-12.612l9.05.021.022-13.084-9.065-.021zm.778 10.996h8.791v14.402h-8.791v11.158h68.778v-10.735h-7.559v-14.402h7.559v-10.641h-68.778zm.778-9.44h67.222v9.085h-7.559v15.958h7.559v9.179h-67.222v-9.602h8.791v-15.958h-8.791zm.778 7.884h8.791v17.514h-8.791v8.046h65.666v-7.623h-7.559v-17.514h7.559v-7.529h-65.666z"/><path d="M202.58 134.22h.535v4.92h-.535zm2.754 0h.535v4.92h-.535zm2.754 0h.534v4.92h-.534zm2.754 0h.534v4.92h-.534zm2.754 0h.534v4.92h-.534zm2.753 0h.535v4.92h-.535zm2.754 0h.535v4.92h-.535zm2.754 0h.535v4.92h-.535zm2.754 0h.535v4.92h-.535zm2.754 0h.535v4.92h-.535zm2.754 0h.535v4.92h-.535zm2.754 0h.535v4.92h-.535zm2.754 0h.534v4.92h-.534zm2.754 0h.534v4.92h-.534zM205.58 140.22h.535v4.92h-.535zm2.754 0h.535v4.92h-.535zm2.754 0h.534v4.92h-.534zm2.754 0h.534v4.92h-.534zm2.754 0h.534v4.92h-.534zm2.753 0h.535v4.92h-.535zm2.754 0h.535v4.92h-.535zm2.754 0h.535v4.92h-.535zm2.754 0h.535v4.92h-.535zm2.754 0h.535v4.92h-.535zm2.754 0h.535v4.92h-.535zm2.754 0h.535v4.92h-.535zM205.58 147.22h.535v4.92h-.535zm2.754 0h.535v4.92h-.535zm2.754 0h.534v4.92h-.534zm2.754 0h.534v4.92h-.534zm2.754 0h.534v4.92h-.534zm2.753 0h.535v4.92h-.535zm2.754 0h.535v4.92h-.535zm2.754 0h.535v4.92h-.535zm2.754 0h.535v4.92h-.535zm2.754 0h.535v4.92h-.535zm2.754 0h.535v4.92h-.535zm2.754 0h.535v4.92h-.535zM202.58 153.22h.535v4.92h-.535zm2.754 0h.535v4.92h-.535zm2.754 0h.534v4.92h-.534zm2.754 0h.534v4.92h-.534zm2.754 0h.534v4.92h-.534zm2.753 0h.535v4.92h-.535zm2.754 0h.535v4.92h-.535zm2.754 0h.535v4.92h-.535zm2.754 0h.535v4.92h-.535zm2.754 0h.535v4.92h-.535zm2.754 0h.535v4.92h-.535zm2.754 0h.535v4.92h-.535zm2.754 0h.534v4.92h-.534zm2.754 0h.534v4.92h-.534z"/></g><g class="ucdraw"><path d="M152.93 136.83v1.34h14.256v8.115h15.594v-1.34h-14.256v-8.115zM40.183 59.805v1.332h28.883v-1.332zM40.231 99.84v1.32h28.393v-1.32zM40.5 136.83v1.332h28.883v-1.332zM264.5 80.834v1.332h28.883v-1.332zM264.5 146.83v1.332h28.883v-1.332z"/><path d="M67.291 51.404v17.02h17.15v-17.02zm1.998 2h13.152v13.021H69.289zM135.35 51.404v17.02h17.15v-17.02zm1.998 2h13.154v13.021h-13.154zM179.37 51.568v17.02h17.15v-17.02zm1.998 1.998h13.152v13.021h-13.152zM247.35 72.168v17.021h17.152V72.168zm2 2h13.152v13.021H249.35zM67.545 91.555v17.021h17.15V91.555zm2 2h13.152v13.023H69.545zM135.61 91.555v17.021h17.15V91.555zm2 2h13.152v13.023H137.61zM179.7 91.555v17.021h17.15V91.555zm2 2h13.152v13.023H181.7zM67.799 128.44v17.02h17.152v-17.02zm2 2h13.152v13.021H69.799zM135.86 128.44v17.02h17.15v-17.02zm2 2h13.152v13.021H137.86zM180.68 136.5v17.021h17.15V136.5zm2 2h13.152v13.021H182.68zM247.6 136.92v17.021h17.152V136.92zm2 2h13.152v13.021H249.6zM23.5 51.5v17.176h17.48V51.5zm2 2h13.48v13.176H25.5zM23.76 92.062v17.174h17.48V92.062zm2 2h13.48v13.174H25.76zM24.02 129.32v17.176H41.5V129.32zm2 2H39.5v13.176H26.02zM300.62 73.146c-4.592 0-8.334 3.742-8.334 8.334s3.742 8.334 8.334 8.334 8.334-3.742 8.334-8.334-3.742-8.334-8.334-8.334m0 1.668a6.653 6.653 0 0 1 6.666 6.666 6.653 6.653 0 0 1-6.666 6.666 6.653 6.653 0 0 1-6.666-6.666 6.653 6.653 0 0 1 6.666-6.666M300.44 139.09c-4.592 0-8.332 3.74-8.332 8.332s3.74 8.334 8.332 8.334 8.334-3.742 8.334-8.334-3.742-8.332-8.334-8.332m0 1.666a6.655 6.655 0 0 1 6.668 6.666 6.657 6.657 0 0 1-6.668 6.668 6.655 6.655 0 0 1-6.666-6.668 6.653 6.653 0 0 1 6.666-6.666M90.833 44.833h39.334v103.33H90.833zm.778 102.56h37.778V45.613H91.611zm.778-101h36.222v100.22H92.389zm.778 99.444h34.666V47.171H93.167zM204.83 51.833h37.334v58.334H204.83zm.778 57.556h35.778V52.611h-35.778zm.778-56h34.222v55.222h-34.222zm.778 54.444h32.666V54.167h-32.666z"/></g></svg>
