<svg xmlns="http://www.w3.org/2000/svg" width="328" height="189" viewBox="0 0 328 189"><g class="ucdraw"><path d="M199.54 12.877c-4.198-.201-8.359.317-12.461 1.111-3.585.692-6.178 3-7.383 6.471-.808 2.325-1.483 4.683-2.162 7.02v.002c-1.406 4.865-3.309 9.424-6.834 12.993-6.266 6.343-13.344 11.724-20.828 16.599-1.386.902-2.792 1.2-4.473.818-3.488-.794-6.882-1.867-10.229-3.14h-.002c-5.267-2.001-9.84-5.37-14.738-8.337-4.2-2.544-8.728-2.99-13.279-1.047-7.172 3.07-12.17 8.202-13.318 16.305-.777 5.49-2.148 10.835-3.92 16.107h-.001c-.945 2.818-1.407 5.763-1.15 8.829.388 4.62 2.67 8.345 5.091 11.863 4.239 6.162 3.381 13.213-.613 18.758-2.613 3.627-6.373 6.054-10.014 8.79-2.563 1.926-5.166 3.938-6.946 6.848-3.084 5.033-4.566 10.538-4.445 16.441 0 .348.003.692 0 1.028-.071 6.845 2.72 12.404 8.89 15.637 6.602 3.456 13.332 6.653 20.042 9.857 3.314 1.58 6.867 1.698 10.35.658a474 474 0 0 0 10.83-3.379c6.848-2.223 11.473-6.816 13.447-13.828 1.75-6.209 1.104-12.262-1.106-18.176-1.328-3.548-2.74-6.95-2.474-10.664.195-2.723 1.364-5.325 1.949-8.207.69-3.388.817-6.089.035-8.435s-2.472-4.254-5.182-6.04l-.002-.001c-.75-.49-1.48-1.051-2.238-1.606h-.002c-2.14-1.557-3.924-3.71-4.861-6.111s-1.046-5.029.148-7.674c1.053-2.33 2.614-4.35 4.49-6.014 3.957-3.503 7.603-7.275 10.766-11.533 2.458-3.31 4.908-6.57 7.899-9.338 1.556-1.44 2.699-2.156 3.857-2.347s2.46.12 4.38 1.004c2.802 1.29 5.341 3.03 7.776 4.968v-.002c3.468 2.771 7.376 4.62 11.8 5.276 5.863.87 11.074-.554 14.73-5.717 1.98-2.788 3.44-5.798 4.73-8.871l.002-.002a64 64 0 0 1 6.59-11.893v-.002c3.587-5.115 4.901-11.119 7.341-16.465 1.29-2.83 3.13-5.568 3.864-8.898v-.002c.53-2.44.303-4.546-.762-6.15-1.065-1.606-2.916-2.625-5.375-3.048a34 34 0 0 0-4.209-.457zm-4.266 2.135c2.55-.161 5.105-.074 7.664.38 2.299.408 3.73 1.282 4.448 2.495.717 1.213.79 2.887.039 5.094h-.002v.002c-.335.998-.78 1.977-1.272 2.943v.002c-1.716 3.384-3.332 6.836-4.548 10.465-1.434 4.22-3.326 8.166-5.883 11.791h.002c-2.821 3.991-4.757 8.401-6.639 12.785-1.18 2.75-2.649 5.312-4.582 7.537v.002c-2.744 3.16-6.187 4.449-10.352 3.924-3.88-.49-7.44-1.819-10.572-4.186v-.002c-2.876-2.166-5.765-4.4-9.148-5.978-2.32-1.08-4.295-1.525-6.18-1.205s-3.6 1.388-5.445 3.123c-4.187 3.934-7.096 8.776-10.684 12.934-2.213 2.563-4.69 4.885-7.2 7.217-3.064 2.847-5.25 5.912-6.03 9.271-.782 3.359-.109 6.972 2.37 10.736 1.807 2.74 4.606 4.32 7.008 6.049 3.657 2.63 4.547 5.942 3.637 10.213-.634 2.975-1.904 5.915-2.174 9.222-.36 4.434 1.048 8.415 2.514 12.3 1.662 4.397 2.594 8.818 1.754 13.46h-.002c-1.4 7.756-5.422 13.028-13.041 15.49-3.528 1.142-7.09 2.212-10.637 3.362-2.828.917-5.542.78-8.168-.485-6.817-3.277-13.68-6.43-20.285-10.018-2.906-1.579-4.85-3.455-6.116-6.1-1.263-2.64-1.84-6.091-1.841-10.774.157-4.331 1.812-10.478 6.347-15.512 1.673-1.859 3.834-3.3 5.961-4.854 3.19-2.333 6.424-4.712 8.88-8.058 4.695-6.398 4.953-14.844.63-21.492v-.002c-2.319-3.56-4.588-6.987-4.867-11.221-.161-2.433.263-4.796 1.05-7.084a91.3 91.3 0 0 0 4.016-16.523c1.09-7.442 5.569-11.923 12.223-14.938 3.84-1.74 7.305-1.275 10.848.855 3.896 2.34 7.624 5.086 11.87 7.096 4.701 2.224 9.61 3.8 14.704 4.795 1.97.385 3.865-.07 5.496-1.088 6.965-4.35 13.287-9.518 19.361-14.96 4.788-4.278 7.496-9.76 9.178-15.77h.002c.647-2.338 1.343-4.666 2.154-6.934v-.002c1.015-2.822 2.99-4.624 5.871-5.242 2.544-.544 5.09-.954 7.641-1.115z"/><path d="M199.07 13.869c-3.976-.185-7.904.355-11.777 1.19-3.287.708-5.682 2.921-6.826 6.117-.829 2.323-1.524 4.69-2.186 7.05v.002c-1.628 5.878-4.21 11.107-8.754 15.193-6.025 5.432-12.273 10.567-19.123 14.873-1.39.873-2.9 1.23-4.521.91-4.975-.975-9.76-2.521-14.344-4.704-4.08-1.945-7.765-4.665-11.721-7.059-3.8-2.3-7.855-2.843-12.055-.932h-.002c-6.89 3.145-11.8 8.099-12.953 16.014a91 91 0 0 1-3.947 16.34v.002c-.83 2.426-1.291 4.98-1.118 7.631.306 4.673 2.76 8.336 5.063 11.9 4.021 6.22 3.784 14.068-.584 20.057-2.297 3.15-5.388 5.46-8.567 7.799v-.002c-2.087 1.534-4.33 3.024-6.146 5.057-4.776 5.335-6.507 11.783-6.672 16.42v.025c0 4.817.58 8.485 1.967 11.402s3.59 5.038 6.662 6.719c6.64 3.63 13.507 6.8 20.285 10.086v.002c2.916 1.407 6.036 1.562 9.135.55 3.517-1.148 7.072-2.217 10.609-3.372 8.004-2.604 12.447-8.453 13.904-16.582.89-4.976-.11-9.675-1.813-14.215-1.453-3.879-2.76-7.659-2.426-11.758v-.002c.246-3.041 1.476-5.933 2.145-9.09.977-4.622-.137-8.705-4.15-11.61l2.018-.117c-2.477-1.79-5.08-3.31-6.656-5.72-2.321-3.547-2.873-6.73-2.178-9.739.696-3.008 1.13-5.478 4.066-8.225l.002-.002c2.506-2.342 4.551-4.995 6.818-7.636 3.677-4.288 7.566-7.48 11.566-11.264 1.74-1.646 2.77-2.465 4.279-2.82.865-.203 2.014-.724 4.19.298 3.204 1.502 6.646 2.896 9.52 5.075 3.327 2.524 7.108 3.946 11.178 4.463h.002c4.526.574 8.5-.928 11.496-4.389 2.047-2.361 3.57-5.063 4.789-7.914l.002-.002c1.868-4.391 3.761-8.725 6.48-12.586l.002-.002c2.631-3.756 6.455-7.184 7.902-11.52v-.084c1.194-3.548 1.79-7.281 3.494-10.65.508-1.003.085-2.286.45-3.376v-.002c.822-2.438.807-4.57-.162-6.217s-2.827-2.689-5.354-3.14a31 31 0 0 0-3.99-.444zm-3.879 1.373c2.541-.162 5.086-.073 7.635.383 2.293.41 3.722 1.285 4.44 2.504.717 1.219.793 2.9.046 5.115v.002c-.335 1.002-.782 1.985-1.273 2.955-1.717 3.398-3.322 6.862-4.547 10.502v.002c-1.413 4.235-3.305 8.195-5.854 11.834-2.82 4.005-4.747 8.432-6.619 12.83-1.18 2.76-2.636 5.337-4.568 7.565h-.002c-2.745 3.172-6.169 4.465-10.322 3.939-3.87-.491-7.409-1.827-10.541-4.203-2.866-2.173-5.745-4.414-9.123-5.998h-.002c-2.31-1.085-4.282-1.532-6.162-1.211-1.882.321-3.592 1.394-5.432 3.135-4.174 3.95-7.075 8.807-10.654 12.98h.002c-2.207 2.57-4.676 4.903-7.18 7.242-3.055 2.858-5.233 5.933-6.011 9.303-.779 3.369-.11 6.993 2.361 10.77 1.798 2.748 4.59 4.337 6.99 6.072 3.646 2.639 4.534 5.966 3.627 10.254-.633 2.986-1.901 5.937-2.17 9.258-.362 4.444 1.046 8.438 2.506 12.336 1.657 4.418 2.585 8.85 1.75 13.512-1.395 7.785-5.412 13.077-13.006 15.547v.002c-3.517 1.149-7.072 2.218-10.609 3.373-2.815.919-5.519.78-8.14-.485-6.794-3.292-13.64-6.456-20.227-10.057v.002c-2.897-1.584-4.836-3.468-6.098-6.123-1.26-2.651-1.835-6.115-1.836-10.816.157-4.347 1.808-10.518 6.33-15.57l.002-.002c1.667-1.865 3.821-3.309 5.942-4.867v-.002c3.181-2.342 6.406-4.728 8.855-8.086 4.682-6.42 4.94-14.893.627-21.564-2.31-3.573-4.575-7.012-4.854-11.264-.16-2.442.264-4.817 1.05-7.115a92 92 0 0 0 4.003-16.578c1.087-7.466 5.555-11.967 12.188-14.994 3.83-1.743 7.28-1.277 10.812.86 3.886 2.351 7.605 5.103 11.838 7.12 4.69 2.234 9.583 3.815 14.66 4.811 1.969.388 3.862-.067 5.49-1.09 6.946-4.366 13.25-9.553 19.305-15.012 4.777-4.297 7.475-9.794 9.147-15.826v-.002c.658-2.349 1.345-4.686 2.156-6.96 1.016-2.835 2.98-4.641 5.852-5.26 2.538-.547 5.076-.96 7.617-1.121zm-2.293 5.875c-1.636.185-3.236.75-4.33 1.736-2.97 2.676-2.72 6.35-3.074 8.965l-.008.047v.045c.01 2.28.321 4.051.642 5.767v.002c.145.766.337 1.567.762 2.282s1.124 1.326 2.106 1.582c1.881.493 3.498-.418 4.673-1.635l.002-.002c3.589-3.667 5.29-8.247 6.002-13.13.268-1.832-.335-3.79-2.168-4.888-1.283-.765-2.97-.957-4.607-.771zm.149 1.324c1.42-.16 2.868.051 3.775.592 1.367.819 1.743 2.1 1.531 3.55-.687 4.704-2.287 8.971-5.637 12.394h-.002v.002c-1.004 1.04-2.045 1.626-3.38 1.275h-.002v-.002c-.659-.171-1.01-.492-1.295-.972s-.463-1.135-.598-1.846v-.002c-.317-1.698-.605-3.354-.617-5.502.372-2.818.168-5.86 2.638-8.086.786-.71 2.166-1.242 3.586-1.402zM113.152 51.59c-6.431.01-12.085 4.366-13.713 10.857-1.622 6.477-3.418 12.985-4.1 19.75-.615 6.096 2.027 9.877 6.215 12.523 2.396 1.514 5.674 1.332 7.666-.357l.002-.002c1.465-1.239 2.933-2.516 4.285-3.918v-.002c2.92-3.035 6.136-5.718 9.486-8.297v.002c3.36-2.582 6.564-5.454 8.444-9.543V72.6c2.184-4.75 1.429-9.347-2.352-12.705-2.017-1.792-4.195-3.426-6.428-4.916-2.837-1.894-5.933-3.638-9.506-3.39zm.07 1.326c3.093-.223 5.91 1.315 8.695 3.174 2.19 1.462 4.32 3.06 6.281 4.803 3.413 3.031 4.036 6.783 2.026 11.152-1.738 3.782-4.74 6.503-8.045 9.043-3.378 2.6-6.647 5.326-9.633 8.43-1.299 1.346-2.73 2.597-4.186 3.828h-.002c-1.446 1.227-4.227 1.427-6.093.248-3.938-2.49-6.173-5.58-5.6-11.262.668-6.617 2.442-13.063 4.068-19.561 1.488-5.931 6.6-9.854 12.44-9.854h.023zm-4.049 58.46c-1.392-.058-2.848.608-4.184 2.208v.002c-1.798 2.16-3.47 4.387-5.343 6.373-3.26 3.47-7.167 6.23-11.205 8.805v-.002c-6.225 3.963-10.221 9.45-10.965 17-.523 5.29.511 10.23 4.502 14.172 3.43 3.393 7.664 5.357 11.67 7.518 9.664 5.217 19.422 4.614 28.922-.229 5.91-3.013 8.945-8.157 9.035-14.816v-.025l-.002-.026c-.077-1.185.003-2.428-.242-3.752v-.002c-.557-3.004-1.748-5.734-3.139-8.334-2.712-5.074-4.929-10.289-5.973-15.938v-.002c-.349-1.9-1.29-3.558-2.537-4.93-2.08-2.293-4.265-4.544-6.795-6.427-1.115-.83-2.352-1.538-3.744-1.596zm-.055 1.331c.96.04 1.982.573 3.002 1.332 2.417 1.8 4.545 3.984 6.604 6.254v.002h.002c1.113 1.224 1.916 2.657 2.213 4.276 1.078 5.836 3.358 11.183 6.107 16.326 1.357 2.536 2.483 5.138 3.004 7.949.204 1.104.142 2.276.22 3.55-.086 6.271-2.77 10.818-8.306 13.64-9.215 4.697-18.382 5.263-27.684.242-4.05-2.185-8.144-4.106-11.365-7.291-3.681-3.637-4.61-8.048-4.111-13.094.704-7.155 4.374-12.201 10.352-16.006h.002c4.073-2.597 8.077-5.415 11.459-9.014 1.941-2.06 3.629-4.309 5.398-6.433 1.16-1.39 2.145-1.772 3.104-1.733zM245.93 61.027c-1.196.263-2.419.796-3.633 1.59-1.799 1.176-3.226 2.719-4.508 4.334-4.492 5.666-9.389 10.664-15.918 13.979h-.002c-6.484 3.292-12.342 7.587-17.28 13.035v.002a2103 2103 0 0 1-10.249 11.26c-3.974 4.332-8.046 8.596-11.957 13.014-3.712 4.19-5.47 9.185-4.047 14.859.711 2.854 1.712 5.645 3.29 8.201.865 1.413 1.897 2.752 3.214 3.877 4.4 3.78 9.604 5.156 14.885 4.973 7.63.148 14.258-1.904 19.982-6.46 3.322-2.643 5.877-5.94 8.305-9.279v-.002c2.357-3.264 5.22-5.847 8.932-7.427 2.078-.883 4.169-1.766 6.21-2.768 2.992-1.462 4.679-4.03 5.215-7.248.487-2.924.278-5.823-.199-8.639v-.002c-1.101-6.686-.427-12.722 4.1-18.029h-.002c2.076-2.422 3.294-5.307 4.031-8.324 1.334-5.464 1.332-10.942-1.438-16.139l-.002-.002c-1.353-2.553-3.245-4.212-5.459-4.78-1.106-.283-2.274-.288-3.47-.024zm.803 2.027a4.3 4.3 0 0 1 1.802.028c1.138.267 2.214 1.032 3.23 2.345 3.786 4.912 3.922 10.357 2.343 16.221-.906 3.36-2.747 6.235-4.865 9.012v.002c-3.614 4.749-3.97 10.144-3.393 15.631v.002c.322 3.05.75 6.028.527 9.008-.257 3.361-1.708 5.667-4.724 7.12-1.9.919-3.87 1.747-5.84 2.579-4.03 1.704-7.118 4.525-9.629 7.977-2.44 3.352-4.975 6.57-8.203 9.105-5.272 4.149-11.283 6.001-17.98 6.022h-.002c-5.162.027-9.75-1.296-13.668-4.71-1.946-1.697-3.238-3.876-4.297-6.275l-.002-.002c-2.175-4.984-3.173-9.712.037-14.549v-.002c1.234-1.861 2.568-3.616 4.1-5.187l.002-.002c6.477-6.63 12.534-13.606 18.736-20.432h-.002c5.264-5.788 11.279-10.614 18.227-14.107 6.844-3.441 11.906-8.68 16.492-14.455h.002v-.002c1.435-1.815 3.052-3.396 5.064-4.537.728-.412 1.406-.67 2.043-.791z"/><path d="M247.2 61.941c-.81.152-1.641.47-2.478.943-2.227 1.258-3.98 2.989-5.503 4.899-4.573 5.745-9.532 10.846-16.178 14.182-7.171 3.598-13.377 8.563-18.764 14.488-6.266 6.883-12.38 13.89-18.863 20.525-1.628 1.66-3.023 3.495-4.298 5.416-3.54 5.318-2.41 10.744-.147 15.916v.002c1.102 2.511 2.512 4.898 4.684 6.787 4.211 3.664 9.224 5.095 14.662 5.066 7.002-.021 13.409-1.984 18.957-6.345 3.422-2.68 6.048-6.025 8.527-9.428v-.002c2.43-3.33 5.341-5.974 9.15-7.578v.002c1.99-.837 3.99-1.679 5.95-2.623 3.413-1.64 5.232-4.528 5.515-8.27.237-3.189-.213-6.27-.53-9.302v-.002c-.573-5.377-.23-10.352 3.146-14.777 2.181-2.85 4.16-5.896 5.144-9.532 1.65-6.124 1.506-12.175-2.605-17.486l-.002-.002c-1.149-1.485-2.488-2.486-4.006-2.841a5.7 5.7 0 0 0-2.362-.038zm.236 1.307a4.3 4.3 0 0 1 1.82.027c1.15.27 2.235 1.04 3.257 2.361h.002c3.826 4.942 3.962 10.424 2.373 16.324-.916 3.382-2.778 6.274-4.916 9.069v.002c-3.644 4.776-4.002 10.205-3.415 15.727.322 3.067.753 6.065.53 9.064-.257 3.385-1.717 5.705-4.764 7.168h-.002c-1.92.925-3.898 1.757-5.889 2.594-4.07 1.714-7.18 4.552-9.71 8.021-2.46 3.377-5.014 6.616-8.272 9.166h-.002c-5.311 4.175-11.381 6.042-18.14 6.063h-.001c-5.203.027-9.831-1.305-13.78-4.74-1.966-1.711-3.277-3.905-4.335-6.317v-.002c-2.195-5.015-3.207-9.773.033-14.643v-.002c1.245-1.874 2.59-3.64 4.14-5.22h.003c6.517-6.67 12.643-13.69 18.896-20.56v-.001c5.293-5.823 11.367-10.677 18.375-14.193 6.895-3.461 11.997-8.732 16.623-14.543 1.457-1.828 3.083-3.42 5.115-4.569h.002c.733-.415 1.414-.675 2.057-.797zm-2.332 12.043c-.471.013-.973.137-1.482.351-1.68.706-2.702 2.065-3.473 3.45l-.002.001c-1.664 3.023-4.093 4.69-7.502 5.287-1.486.261-2.9.702-4.297 1.051-5.306 1.335-10.055 3.8-13.842 7.817-5.789 6.128-11.604 12.244-17.186 18.58-3.322 3.778-6.798 7.539-9.59 11.865-2.568 3.976-3.746 8.368-2.443 13.146 1.738 6.362 6.786 9.838 12.982 9.841 6 .086 10.3-1.362 14.232-3.808 4.323-2.69 7.502-6.459 10.086-10.646 3.257-5.282 7.478-9.431 12.867-12.562 4.06-2.365 6.77-5.993 6.99-10.95.162-3.69.073-7.395-.486-11.071-.413-2.735-.698-5.359-.28-7.729.42-2.37 1.504-4.497 3.96-6.398 1.618-1.259 2.314-3.342 2.084-5.482-.119-1.082-.536-1.976-1.317-2.432a2.4 2.4 0 0 0-1.302-.31zm.63 1.463c.304.178.572.589.663 1.423.19 1.77-.374 3.35-1.576 4.286-2.692 2.085-3.99 4.585-4.455 7.218-.466 2.635-.142 5.394.275 8.16.542 3.566.632 7.185.473 10.815-.2 4.51-2.548 7.654-6.328 9.855-5.57 3.237-9.969 7.558-13.332 13.014-2.516 4.076-5.557 7.666-9.654 10.215-3.768 2.344-7.73 3.692-13.51 3.61h-.01c-5.72 0-10.105-2.996-11.707-8.862-1.197-4.387-.154-8.31 2.277-12.072 2.708-4.198 6.133-7.912 9.47-11.707 5.56-6.31 11.364-12.417 17.155-18.547 3.593-3.81 8.084-6.152 13.197-7.437 1.444-.361 2.829-.789 4.203-1.03 3.73-.654 6.602-2.623 8.437-5.955l.002-.002c.709-1.272 1.526-2.32 2.824-2.865.792-.333 1.29-.297 1.594-.12z"/><path d="M244.53 74.836c-.468.014-.966.14-1.47.354-1.672.706-2.683 2.063-3.444 3.447v.002c-1.646 3.02-4.045 4.683-7.412 5.28-1.477.26-2.871.701-4.246 1.05-5.258 1.333-9.948 3.797-13.693 7.81-5.719 6.122-11.484 12.231-16.996 18.563-3.294 3.777-6.718 7.534-9.489 11.854h-.002c-2.538 3.972-3.702 8.36-2.41 13.133 1.727 6.357 6.719 9.836 12.852 9.836h.002c5.936.083 10.184-1.365 14.074-3.808 4.283-2.688 7.421-6.455 9.975-10.64 3.216-5.275 7.398-9.42 12.717-12.546l.002-.002c4.03-2.364 6.698-5.99 6.918-10.938v-.002c.161-3.687.071-7.389-.477-11.061-.412-2.733-.7-5.357-.287-7.725s1.487-4.491 3.918-6.39c1.608-1.26 2.292-3.34 2.063-5.475-.113-1.08-.522-1.972-1.297-2.43a2.37 2.37 0 0 0-1.297-.312zm-.414 2.315c.237-.108.282-.144.564.068.28.212.368.415.397.715s-.045.694-.186 1.091c-.55 1.538-1.581 2.78-2.841 3.895-2.326 2.043-3.131 4.743-3.225 7.623-.083 2.471.296 4.855.533 7.19.33 3.228.634 6.42.496 9.615v.002c-.19 4.657-2.567 7.806-6.443 10.096-5.1 3.017-9.29 6.95-12.428 12.049-2.725 4.422-5.85 8.42-10.281 11.146h-.002c-3.478 2.144-7.259 3.407-9.528 3.449-4.458-.003-7.883-1.129-10.246-3.08-2.364-1.953-3.71-4.743-3.95-8.258v-.002c-.206-2.876.963-5.558 2.595-8.076v-.002c2.72-4.235 6.127-7.998 9.473-11.828 5.528-6.342 11.314-12.49 17.084-18.64 3.393-3.614 7.646-5.845 12.453-7.116 1.73-.458 3.452-.917 5.181-1.291 3.119-.674 5.645-2.303 7.295-5.147v-.002h.002c.634-1.103 1.228-2.152 2.123-2.828l.002-.002h.002c.364-.28.693-.56.93-.668zm-53.225 65.426.088.058q-.045-.028-.088-.058"/><path d="M245.22 75.859a1.93 1.93 0 0 0-.922.154c-.523.234-.898.59-1.197.815-1.196.892-1.862 2.13-2.496 3.209-1.478 2.518-3.622 3.88-6.485 4.492-1.78.38-3.54.843-5.279 1.299-5.042 1.313-9.587 3.652-13.205 7.455-5.82 6.118-11.664 12.245-17.266 18.582-3.364 3.798-6.85 7.588-9.68 11.924-1.718 2.623-3.06 5.578-2.836 8.855v.002c.266 3.795 1.797 6.97 4.479 9.153s6.47 3.365 11.195 3.367h.012c2.728-.049 6.615-1.397 10.295-3.629 4.727-2.872 8.013-7.043 10.809-11.527l.002-.002c3.05-4.88 7.1-8.63 12.09-11.539 4.173-2.434 6.94-6.061 7.16-11.137v-.002c.132-3.299-.173-6.542-.514-9.762-.252-2.37-.614-4.677-.537-6.97.097-2.656.78-4.874 2.801-6.631l.002-.002c1.37-1.195 2.586-2.61 3.248-4.424v-.004l.002-.002c.18-.505.312-1.069.252-1.662a2.35 2.35 0 0 0-.932-1.645h-.002v-.002a1.9 1.9 0 0 0-.996-.367zm-.379 1.371c.24-.108.294-.144.582.068.285.213.37.414.4.71s-.04.685-.181 1.08c-.559 1.527-1.601 2.764-2.871 3.873-2.336 2.032-3.154 4.721-3.258 7.59v.001c-.083 2.461.295 4.831.543 7.157.34 3.208.635 6.385.508 9.566-.201 4.63-2.594 7.763-6.5 10.04-5.15 3.004-9.38 6.916-12.55 11.987h-.001c-2.744 4.402-5.897 8.378-10.37 11.096-3.518 2.135-7.33 3.393-9.622 3.435-4.5-.003-7.96-1.125-10.346-3.068-2.388-1.944-3.746-4.718-3.99-8.213-.196-2.859.981-5.528 2.623-8.033v-.002c2.75-4.214 6.185-7.959 9.56-11.77 5.579-6.311 11.414-12.427 17.234-18.547 3.422-3.597 7.716-5.819 12.574-7.084h.002c1.74-.456 3.48-.912 5.219-1.283 3.137-.67 5.695-2.29 7.357-5.121h-.002c.647-1.1 1.241-2.143 2.145-2.817h.002c.37-.279.7-.558.941-.666zm-16.184 17.633a8.5 8.5 0 0 0-2.933.15c-3.473.776-5.543 3.304-7.024 6.11v.002h-.002c-1.92 3.647-3.93 7.015-7.512 9.082-4.838 2.793-8.774 6.555-12.145 10.916-1.94 2.511-4.384 4.865-5.652 8.09-1.112 2.812-1.074 5.577.045 7.646 1.116 2.065 3.355 3.35 6.248 3.18 5.741.01 9.691-2.687 12.996-6.117 3.51-3.636 5.42-8.18 7.556-12.44v-.001c.757-1.501 1.732-2.806 2.922-4.028v-.002c2.149-2.206 5.091-3.441 7.797-5.285 4.11-2.796 5.655-7.565 3.889-12.207v-.002c-1.093-2.894-3.392-4.735-6.186-5.094zm-.152 1.295c2.33.262 4.142 1.76 5.09 4.271l.002.002c1.572 4.132.276 8.138-3.393 10.633-2.554 1.74-5.61 3-8.002 5.457-1.269 1.302-2.334 2.726-3.158 4.362-2.163 4.313-4.034 8.705-7.324 12.113-3.19 3.31-6.715 5.73-12.06 5.713h-.02l-.022.002c-2.488.152-4.124-.848-5.01-2.487-.886-1.638-.977-3.998.021-6.521v-.002c1.132-2.88 3.448-5.15 5.467-7.764 3.29-4.257 7.095-7.885 11.756-10.576 3.938-2.271 6.087-5.929 8.027-9.615h-.002c1.4-2.652 3.15-4.763 6.137-5.43a7.6 7.6 0 0 1 2.49-.158zM186.84 67.453l-1.672 1.094 1.094 1.674 1.674-1.096zm2.191 3.346-1.673 1.095 1.095 1.674 1.674-1.096zm2.19 3.347-1.674 1.096 1.096 1.674 1.674-1.096zm2.191 3.348-1.674 1.094 1.096 1.674 1.672-1.094zm2.19 3.346-1.674 1.095 1.096 1.674 1.673-1.095zm2.19 3.347-1.673 1.096 1.094 1.674 1.674-1.096zm2.19 3.348-1.673 1.096 1.095 1.672 1.674-1.094zm2.19 3.348-1.674 1.094 1.096 1.674 1.674-1.096zm2.191 3.346-1.673 1.095.728 1.114 1.672-1.096zM180.99 136l-1.291.121.186 1.99 1.29-.119zm-3.281.307-1.992.183.185 1.992 1.99-.185zm-3.985.369-1.99.185.184 1.993 1.992-.186zm-3.982.37-1.992.186.185 1.99 1.993-.185zm-3.982.37-1.993.186.186 1.992 1.992-.186zm-3.983.371-1.992.186.186 1.99 1.99-.186zm-3.984.37-1.99.185.185 1.992 1.99-.186zm-3.983.37-1.99.186.184 1.99 1.992-.184zm-3.982.37-1.992.185.185 1.992 1.993-.185zm-3.982.37-1.993.186.186 1.99 1.992-.183zm-3.983.372-1.992.183.186 1.992 1.99-.185zm-3.984.369-1.99.185.185 1.993 1.99-.186zm-3.983.37-1.99.185.592 1.829 1.584-.023zM103.03 131.25l4 17 4-17zM107 60l4.5 18 4.5-18z"/><path d="m196 118 4 17 4-17zM242 51l4.5 18 4.5-18z"/></g><g class="uchighlight"><path d="m191.84 61.453-1.672 1.094 1.094 1.674 1.674-1.096zm2.191 3.346-1.673 1.095 1.095 1.674 1.674-1.096zm2.19 3.347-1.674 1.096 1.096 1.674 1.674-1.096zm2.191 3.348-1.674 1.094 1.096 1.674 1.672-1.094zm2.19 3.346-1.674 1.095 1.096 1.674 1.673-1.095zm2.19 3.347-1.673 1.096 1.094 1.674 1.674-1.096zm2.19 3.348-1.673 1.096 1.095 1.672 1.674-1.094zm2.19 3.348-1.674 1.094 1.096 1.674 1.674-1.096zm2.191 3.346-1.673 1.095.728 1.114 1.672-1.096zM206.46 71.865l4.5 18 4.5-18zM181.54 42.385l4.5 18 4.5-18z"/></g><g class="ucdraw"><path d="M36.51 30.38v.332h256v-.332zM36.51 56.38v.332h256v-.332zM36.51 82.38v.332h256v-.332zM36.51 108.38v.332h256v-.332zM36.51 134.38v.332h256v-.332zM36.51 160.38v.332h256v-.332z"/></g></svg>
