<?xml version="1.0" encoding="UTF-8" standalone="no"?>
<svg width="157pt" height="242pt" viewBox="-6 -6 169.47000122070312 254" xmlns="http://www.w3.org/2000/svg" xmlns:xlink="http://www.w3.org/1999/xlink" class="refinery-_27O8Mh6OPBYQczvSCWrX"><style>.refinery-_27O8Mh6OPBYQczvSCWrX{}.refinery-_27O8Mh6OPBYQczvSCWrX .node{}.refinery-_27O8Mh6OPBYQczvSCWrX .node text{font-family:"Open Sans Variable","Open Sans","Roboto","Helvetica","Arial",sans-serif;fill:#19202b;}.refinery-_27O8Mh6OPBYQczvSCWrX .node .node-outline{stroke:#19202b;}.refinery-_27O8Mh6OPBYQczvSCWrX .node .node-header{fill:rgb(53, 161, 173);}.refinery-_27O8Mh6OPBYQczvSCWrX .node .node-bg{fill:#fff;}.refinery-_27O8Mh6OPBYQczvSCWrX .node-INDIVIDUAL .node-outline{stroke-width:2;}.refinery-_27O8Mh6OPBYQczvSCWrX .node-shadow.node-bg{fill:#19202b;opacity:0.24;}.refinery-_27O8Mh6OPBYQczvSCWrX .node-exists-UNKNOWN .node-outline{stroke-dasharray:5 2;}.refinery-_27O8Mh6OPBYQczvSCWrX .node-typeHash-g .node-header{fill:#e5c07b;}.refinery-_27O8Mh6OPBYQczvSCWrX .node-typeHash-h .node-header{fill:#e06c75;}.refinery-_27O8Mh6OPBYQczvSCWrX .node-typeHash-i .node-header{fill:#98c379;}.refinery-_27O8Mh6OPBYQczvSCWrX .node-typeHash-j .node-header{fill:#c678dd;}.refinery-_27O8Mh6OPBYQczvSCWrX .node-typeHash-k .node-header{fill:#80a7f4;}.refinery-_27O8Mh6OPBYQczvSCWrX .node-typeHash-l .node-header{fill:#e3d1b2;}.refinery-_27O8Mh6OPBYQczvSCWrX .node-typeHash-m .node-header{fill:#e78b8f;}.refinery-_27O8Mh6OPBYQczvSCWrX .node-typeHash-n .node-header{fill:#abcc94;}.refinery-_27O8Mh6OPBYQczvSCWrX .node-typeHash-o .node-header{fill:#dbb2e8;}.refinery-_27O8Mh6OPBYQczvSCWrX .node-typeHash-p .node-header{fill:#92c0e9;}.refinery-_27O8Mh6OPBYQczvSCWrX .edge{}.refinery-_27O8Mh6OPBYQczvSCWrX .edge text{font-family:"Open Sans Variable","Open Sans","Roboto","Helvetica","Arial",sans-serif;fill:#19202b;}.refinery-_27O8Mh6OPBYQczvSCWrX .edge .edge-line{stroke:#19202b;}.refinery-_27O8Mh6OPBYQczvSCWrX .edge .edge-arrow{fill:#19202b;}.refinery-_27O8Mh6OPBYQczvSCWrX .edge-UNKNOWN{}.refinery-_27O8Mh6OPBYQczvSCWrX .edge-UNKNOWN text{fill:#696c77;}.refinery-_27O8Mh6OPBYQczvSCWrX .edge-UNKNOWN .edge-line{stroke:#696c77;}.refinery-_27O8Mh6OPBYQczvSCWrX .edge-UNKNOWN .edge-arrow{fill:none;}.refinery-_27O8Mh6OPBYQczvSCWrX .edge-ERROR{}.refinery-_27O8Mh6OPBYQczvSCWrX .edge-ERROR text{fill:#ca1243;}.refinery-_27O8Mh6OPBYQczvSCWrX .edge-ERROR .edge-line{stroke:#ca1243;}.refinery-_27O8Mh6OPBYQczvSCWrX .edge-ERROR .edge-arrow{fill:#ca1243;}.refinery-_27O8Mh6OPBYQczvSCWrX .icon-TRUE{fill:#19202b;}.refinery-_27O8Mh6OPBYQczvSCWrX .icon-UNKNOWN{fill:#696c77;}.refinery-_27O8Mh6OPBYQczvSCWrX .icon-ERROR{fill:#ca1243;}.refinery-_27O8Mh6OPBYQczvSCWrX text.label-UNKNOWN{fill:#696c77;}.refinery-_27O8Mh6OPBYQczvSCWrX text.label-ERROR{fill:#ca1243;}[data-theme="dark"] .refinery-_27O8Mh6OPBYQczvSCWrX{}[data-theme="dark"] .refinery-_27O8Mh6OPBYQczvSCWrX .node{}[data-theme="dark"] .refinery-_27O8Mh6OPBYQczvSCWrX .node text{font-family:"Open Sans Variable","Open Sans","Roboto","Helvetica","Arial",sans-serif;fill:#ebebff;}[data-theme="dark"] .refinery-_27O8Mh6OPBYQczvSCWrX .node .node-outline{stroke:#ebebff;}[data-theme="dark"] .refinery-_27O8Mh6OPBYQczvSCWrX .node .node-header{fill:rgb(60, 127, 135);}[data-theme="dark"] .refinery-_27O8Mh6OPBYQczvSCWrX .node .node-bg{fill:#282c34;}[data-theme="dark"] .refinery-_27O8Mh6OPBYQczvSCWrX .node-INDIVIDUAL .node-outline{stroke-width:2;}[data-theme="dark"] .refinery-_27O8Mh6OPBYQczvSCWrX .node-shadow.node-bg{fill:#ebebff;opacity:0.32;}[data-theme="dark"] .refinery-_27O8Mh6OPBYQczvSCWrX .node-exists-UNKNOWN .node-outline{stroke-dasharray:5 2;}[data-theme="dark"] .refinery-_27O8Mh6OPBYQczvSCWrX .node-typeHash-g .node-header{fill:#ae8003;}[data-theme="dark"] .refinery-_27O8Mh6OPBYQczvSCWrX .node-typeHash-h .node-header{fill:#a23b47;}[data-theme="dark"] .refinery-_27O8Mh6OPBYQczvSCWrX .node-typeHash-i .node-header{fill:#428141;}[data-theme="dark"] .refinery-_27O8Mh6OPBYQczvSCWrX .node-typeHash-j .node-header{fill:#854797;}[data-theme="dark"] .refinery-_27O8Mh6OPBYQczvSCWrX .node-typeHash-k .node-header{fill:#3982bb;}[data-theme="dark"] .refinery-_27O8Mh6OPBYQczvSCWrX .node-typeHash-l .node-header{fill:#827662;}[data-theme="dark"] .refinery-_27O8Mh6OPBYQczvSCWrX .node-typeHash-m .node-header{fill:#904f53;}[data-theme="dark"] .refinery-_27O8Mh6OPBYQczvSCWrX .node-typeHash-n .node-header{fill:#647e63;}[data-theme="dark"] .refinery-_27O8Mh6OPBYQczvSCWrX .node-typeHash-o .node-header{fill:#805f89;}[data-theme="dark"] .refinery-_27O8Mh6OPBYQczvSCWrX .node-typeHash-p .node-header{fill:#4f7799;}[data-theme="dark"] .refinery-_27O8Mh6OPBYQczvSCWrX .edge{}[data-theme="dark"] .refinery-_27O8Mh6OPBYQczvSCWrX .edge text{font-family:"Open Sans Variable","Open Sans","Roboto","Helvetica","Arial",sans-serif;fill:#ebebff;}[data-theme="dark"] .refinery-_27O8Mh6OPBYQczvSCWrX .edge .edge-line{stroke:#ebebff;}[data-theme="dark"] .refinery-_27O8Mh6OPBYQczvSCWrX .edge .edge-arrow{fill:#ebebff;}[data-theme="dark"] .refinery-_27O8Mh6OPBYQczvSCWrX .edge-UNKNOWN{}[data-theme="dark"] .refinery-_27O8Mh6OPBYQczvSCWrX .edge-UNKNOWN text{fill:#abb2bf;}[data-theme="dark"] .refinery-_27O8Mh6OPBYQczvSCWrX .edge-UNKNOWN .edge-line{stroke:#abb2bf;}[data-theme="dark"] .refinery-_27O8Mh6OPBYQczvSCWrX .edge-UNKNOWN .edge-arrow{fill:none;}[data-theme="dark"] .refinery-_27O8Mh6OPBYQczvSCWrX .edge-ERROR{}[data-theme="dark"] .refinery-_27O8Mh6OPBYQczvSCWrX .edge-ERROR text{fill:#e06c75;}[data-theme="dark"] .refinery-_27O8Mh6OPBYQczvSCWrX .edge-ERROR .edge-line{stroke:#e06c75;}[data-theme="dark"] .refinery-_27O8Mh6OPBYQczvSCWrX .edge-ERROR .edge-arrow{fill:#e06c75;}[data-theme="dark"] .refinery-_27O8Mh6OPBYQczvSCWrX .icon-TRUE{fill:#ebebff;}[data-theme="dark"] .refinery-_27O8Mh6OPBYQczvSCWrX .icon-UNKNOWN{fill:#abb2bf;}[data-theme="dark"] .refinery-_27O8Mh6OPBYQczvSCWrX .icon-ERROR{fill:#e06c75;}[data-theme="dark"] .refinery-_27O8Mh6OPBYQczvSCWrX text.label-UNKNOWN{fill:#abb2bf;}[data-theme="dark"] .refinery-_27O8Mh6OPBYQczvSCWrX text.label-ERROR{fill:#e06c75;}</style><defs><svg xmlns="http://www.w3.org/2000/svg" width="24" height="24" viewBox="0 0 24 24" id="refinery-_27O8Mh6OPBYQczvSCWrX-icon-TRUE" class="icon-TRUE"><path d="M17.63 5.84C17.27 5.33 16.67 5 16 5L5 5.01C3.9 5.01 3 5.9 3 7v10c0 1.1.9 1.99 2 1.99L16 19c.67 0 1.27-.33 1.63-.84L22 12l-4.37-6.16z"/></svg><svg xmlns="http://www.w3.org/2000/svg" width="24" height="24" viewBox="0 0 24 24" id="refinery-_27O8Mh6OPBYQczvSCWrX-icon-UNKNOWN" class="icon-UNKNOWN"><path d="M17.63 5.84C17.27 5.33 16.67 5 16 5L5 5.01C3.9 5.01 3 5.9 3 7v10c0 1.1.9 1.99 2 1.99L16 19c.67 0 1.27-.33 1.63-.84L22 12l-4.37-6.16zM16 17H5V7h11l3.55 5L16 17z"/></svg><svg xmlns="http://www.w3.org/2000/svg" width="24" height="24" viewBox="0 0 24 24" id="refinery-_27O8Mh6OPBYQczvSCWrX-icon-ERROR" class="icon-ERROR"><path d="M12 2C6.47 2 2 6.47 2 12s4.47 10 10 10s10-4.47 10-10S17.53 2 12 2zm5 13.59L15.59 17L12 13.41L8.41 17L7 15.59L10.59 12L7 8.41L8.41 7L12 10.59L15.59 7L17 8.41L13.41 12L17 15.59z"/></svg></defs>
<g class="graph" transform="translate(4, 238)">
<!-- n0 -->
<g class="node node-NEW node-exists-UNKNOWN node-equalsSelf-UNKNOWN node-typeHash-j"><rect stroke="none" x="5.5" y="-228.5" width="100" height="49" rx="12.5" ry="12.5" class="node-shadow node-bg"/>

<rect stroke="none" x="0" y="-234" width="99.3" height="48.80000000000001" rx="12" ry="12" class="node-bg"/>
<rect stroke="none" x="-4" y="-238" width="107" height="27" clip-path="url(#refinery-_27O8Mh6OPBYQczvSCWrX-clip-0)" class="node-header"/>
<text text-anchor="start" x="5" y="-218.2" font-size="12.00">FileSystem::new</text>
<use x="6" y="-204.4" width="12" height="12" class="icon icon-TRUE" href="#refinery-_27O8Mh6OPBYQczvSCWrX-icon-TRUE"/>
<g><text text-anchor="start" x="22" y="-194.8" font-size="12.00" class="label label-TRUE">FileSystem</text>
</g>
<polyline points="0,-210.6 99.3,-210.6" class="node-outline"/>
<rect fill="none" x="0" y="-234" width="99.3" height="48.80000000000001" rx="12" ry="12" class="node-outline"/>
<clipPath id="refinery-_27O8Mh6OPBYQczvSCWrX-clip-0"><rect stroke="none" x="0" y="-234" width="99.3" height="48.80000000000001" rx="12" ry="12" class="node-bg"/></clipPath></g>
<!-- n1 -->
<g class="node node-NEW node-exists-UNKNOWN node-equalsSelf-UNKNOWN node-typeHash-i"><rect stroke="none" x="25.5" y="-42.5" width="59" height="49" rx="12.5" ry="12.5" class="node-shadow node-bg"/>

<rect stroke="none" x="20.24" y="-48.8" width="58.82000000000001" height="48.8" rx="12" ry="12" class="node-bg"/>
<rect stroke="none" x="16" y="-52" width="66" height="27" clip-path="url(#refinery-_27O8Mh6OPBYQczvSCWrX-clip-1)" class="node-header"/>
<text text-anchor="start" x="25.24" y="-33" font-size="12.00">File::new</text>
<use x="26.2441" y="-19.2" width="12" height="12" class="icon icon-TRUE" href="#refinery-_27O8Mh6OPBYQczvSCWrX-icon-TRUE"/>
<g><text text-anchor="start" x="42.24" y="-9.6" font-size="12.00" class="label label-TRUE">File</text>
</g>
<polyline points="20.24,-25.4 79.06,-25.4" class="node-outline"/>
<rect fill="none" x="20.24" y="-48.8" width="58.82000000000001" height="48.8" rx="12" ry="12" class="node-outline"/>
<clipPath id="refinery-_27O8Mh6OPBYQczvSCWrX-clip-1"><rect stroke="none" x="20.24" y="-48.8" width="58.82000000000001" height="48.8" rx="12" ry="12" class="node-bg"/></clipPath></g>
<!-- n0&#45;&gt;n1 -->
<g class="edge edge-UNKNOWN">

<path fill="none" stroke-width="2" stroke-dasharray="5,2" d="M45.29,-185.28C43.46,-174.36 41.55,-161.16 40.65,-149.2 38.5,-120.66 38.5,-113.34 40.65,-84.8 41.26,-76.76 42.32,-68.17 43.5,-60.08" class="edge-line"/>
<polygon stroke-width="2" points="46.48,-60.83 44.82,-51.71 40.43,-59.88 46.48,-60.83" class="edge-line edge-arrow"/>
<text text-anchor="start" x="16.71" y="-121.15" font-weight="bold" font-size="10.50">root</text>
</g>
<!-- n2 -->
<g class="node node-NEW node-exists-UNKNOWN node-equalsSelf-UNKNOWN node-typeHash-k"><rect stroke="none" x="54.5" y="-143.5" width="57" height="65" rx="12.5" ry="12.5" class="node-shadow node-bg"/>

<rect stroke="none" x="49.4" y="-149.2" width="56.50000000000001" height="64.39999999999999" rx="12" ry="12" class="node-bg"/>
<rect stroke="none" x="45" y="-153" width="64" height="27" clip-path="url(#refinery-_27O8Mh6OPBYQczvSCWrX-clip-2)" class="node-header"/>
<text text-anchor="start" x="54.4" y="-133.4" font-size="12.00">Dir::new</text>
<use x="55.4014" y="-119.8" width="12" height="12" class="icon icon-TRUE" href="#refinery-_27O8Mh6OPBYQczvSCWrX-icon-TRUE"/>
<g><text text-anchor="start" x="70.9" y="-110" font-size="12.00" class="label label-TRUE">File</text>
</g>
<use x="55.4014" y="-103.8" width="12" height="12" class="icon icon-TRUE" href="#refinery-_27O8Mh6OPBYQczvSCWrX-icon-TRUE"/>
<g><text text-anchor="start" x="71.4" y="-94" font-size="12.00" class="label label-TRUE">Dir</text>
</g>
<polyline points="49.4,-125.8 105.9,-125.8" class="node-outline"/>
<rect fill="none" x="49.4" y="-149.2" width="56.50000000000001" height="64.39999999999999" rx="12" ry="12" class="node-outline"/>
<clipPath id="refinery-_27O8Mh6OPBYQczvSCWrX-clip-2"><rect stroke="none" x="49.4" y="-149.2" width="56.50000000000001" height="64.39999999999999" rx="12" ry="12" class="node-bg"/></clipPath></g>
<!-- n0&#45;&gt;n2 -->
<g class="edge edge-UNKNOWN">

<path fill="none" stroke-width="2" stroke-dasharray="5,2" d="M56.86,-185.27C59.23,-177.61 61.94,-168.85 64.6,-160.24" class="edge-line"/>
<polygon stroke-width="2" points="67.49,-161.27 67.14,-152 61.63,-159.46 67.49,-161.27" class="edge-line edge-arrow"/>
<text text-anchor="start" x="40.15" y="-171.26" font-weight="bold" font-size="10.50">root</text>
</g>
<!-- n2&#45;&gt;n1 -->
<g class="edge edge-UNKNOWN">

<path fill="none" stroke-width="2" stroke-dasharray="5,2" d="M68.02,-84.82C65.52,-76.75 62.82,-68.01 60.28,-59.79" class="edge-line"/>
<polygon stroke-width="2" points="63.23,-58.97 57.72,-51.51 57.38,-60.78 63.23,-58.97" class="edge-line edge-arrow"/>
<text text-anchor="start" x="18.87" y="-70.97" font-weight="bold" font-size="10.50">element</text>
</g>
<!-- n2&#45;&gt;n2 -->
<g class="edge edge-UNKNOWN">

<path fill="none" stroke-width="2" stroke-dasharray="5,2" d="M105.65,-134.35C115.7,-134.72 123.9,-128.94 123.9,-117 123.9,-110.1 121.16,-105.26 116.91,-102.47" class="edge-line"/>
<polygon stroke-width="2" points="117.82,-99.54 108.59,-100.39 116.33,-105.48 117.82,-99.54" class="edge-line edge-arrow"/>
<text text-anchor="start" x="105.88" y="-138.5" font-weight="bold" font-size="10.50">element</text>
</g>
</g>
</svg>
