<?xml version="1.0" encoding="UTF-8" standalone="no"?>
<svg width="178pt" height="443pt" viewBox="-6 -6 190.0399932861328 454.79998779296875" xmlns="http://www.w3.org/2000/svg" xmlns:xlink="http://www.w3.org/1999/xlink" class="refinery-qAo8dBdD08mqlzpuHY9q_"><style>.refinery-qAo8dBdD08mqlzpuHY9q_{}.refinery-qAo8dBdD08mqlzpuHY9q_ .node{}.refinery-qAo8dBdD08mqlzpuHY9q_ .node text{font-family:"Open Sans Variable","Open Sans","Roboto","Helvetica","Arial",sans-serif;fill:#19202b;}.refinery-qAo8dBdD08mqlzpuHY9q_ .node .node-outline{stroke:#19202b;}.refinery-qAo8dBdD08mqlzpuHY9q_ .node .node-header{fill:rgb(53, 161, 173);}.refinery-qAo8dBdD08mqlzpuHY9q_ .node .node-bg{fill:#fff;}.refinery-qAo8dBdD08mqlzpuHY9q_ .node-INDIVIDUAL .node-outline{stroke-width:2;}.refinery-qAo8dBdD08mqlzpuHY9q_ .node-shadow.node-bg{fill:#19202b;opacity:0.24;}.refinery-qAo8dBdD08mqlzpuHY9q_ .node-exists-UNKNOWN .node-outline{stroke-dasharray:5 2;}.refinery-qAo8dBdD08mqlzpuHY9q_ .node-typeHash-g .node-header{fill:#e5c07b;}.refinery-qAo8dBdD08mqlzpuHY9q_ .node-typeHash-h .node-header{fill:#e06c75;}.refinery-qAo8dBdD08mqlzpuHY9q_ .node-typeHash-i .node-header{fill:#98c379;}.refinery-qAo8dBdD08mqlzpuHY9q_ .node-typeHash-j .node-header{fill:#c678dd;}.refinery-qAo8dBdD08mqlzpuHY9q_ .node-typeHash-k .node-header{fill:#80a7f4;}.refinery-qAo8dBdD08mqlzpuHY9q_ .node-typeHash-l .node-header{fill:#e3d1b2;}.refinery-qAo8dBdD08mqlzpuHY9q_ .node-typeHash-m .node-header{fill:#e78b8f;}.refinery-qAo8dBdD08mqlzpuHY9q_ .node-typeHash-n .node-header{fill:#abcc94;}.refinery-qAo8dBdD08mqlzpuHY9q_ .node-typeHash-o .node-header{fill:#dbb2e8;}.refinery-qAo8dBdD08mqlzpuHY9q_ .node-typeHash-p .node-header{fill:#92c0e9;}.refinery-qAo8dBdD08mqlzpuHY9q_ .edge{}.refinery-qAo8dBdD08mqlzpuHY9q_ .edge text{font-family:"Open Sans Variable","Open Sans","Roboto","Helvetica","Arial",sans-serif;fill:#19202b;}.refinery-qAo8dBdD08mqlzpuHY9q_ .edge .edge-line{stroke:#19202b;}.refinery-qAo8dBdD08mqlzpuHY9q_ .edge .edge-arrow{fill:#19202b;}.refinery-qAo8dBdD08mqlzpuHY9q_ .edge-UNKNOWN{}.refinery-qAo8dBdD08mqlzpuHY9q_ .edge-UNKNOWN text{fill:#696c77;}.refinery-qAo8dBdD08mqlzpuHY9q_ .edge-UNKNOWN .edge-line{stroke:#696c77;}.refinery-qAo8dBdD08mqlzpuHY9q_ .edge-UNKNOWN .edge-arrow{fill:none;}.refinery-qAo8dBdD08mqlzpuHY9q_ .edge-ERROR{}.refinery-qAo8dBdD08mqlzpuHY9q_ .edge-ERROR text{fill:#ca1243;}.refinery-qAo8dBdD08mqlzpuHY9q_ .edge-ERROR .edge-line{stroke:#ca1243;}.refinery-qAo8dBdD08mqlzpuHY9q_ .edge-ERROR .edge-arrow{fill:#ca1243;}.refinery-qAo8dBdD08mqlzpuHY9q_ .icon-TRUE{fill:#19202b;}.refinery-qAo8dBdD08mqlzpuHY9q_ .icon-UNKNOWN{fill:#696c77;}.refinery-qAo8dBdD08mqlzpuHY9q_ .icon-ERROR{fill:#ca1243;}.refinery-qAo8dBdD08mqlzpuHY9q_ text.label-UNKNOWN{fill:#696c77;}.refinery-qAo8dBdD08mqlzpuHY9q_ text.label-ERROR{fill:#ca1243;}[data-theme="dark"] .refinery-qAo8dBdD08mqlzpuHY9q_{}[data-theme="dark"] .refinery-qAo8dBdD08mqlzpuHY9q_ .node{}[data-theme="dark"] .refinery-qAo8dBdD08mqlzpuHY9q_ .node text{font-family:"Open Sans Variable","Open Sans","Roboto","Helvetica","Arial",sans-serif;fill:#ebebff;}[data-theme="dark"] .refinery-qAo8dBdD08mqlzpuHY9q_ .node .node-outline{stroke:#ebebff;}[data-theme="dark"] .refinery-qAo8dBdD08mqlzpuHY9q_ .node .node-header{fill:rgb(60, 127, 135);}[data-theme="dark"] .refinery-qAo8dBdD08mqlzpuHY9q_ .node .node-bg{fill:#282c34;}[data-theme="dark"] .refinery-qAo8dBdD08mqlzpuHY9q_ .node-INDIVIDUAL .node-outline{stroke-width:2;}[data-theme="dark"] .refinery-qAo8dBdD08mqlzpuHY9q_ .node-shadow.node-bg{fill:#ebebff;opacity:0.32;}[data-theme="dark"] .refinery-qAo8dBdD08mqlzpuHY9q_ .node-exists-UNKNOWN .node-outline{stroke-dasharray:5 2;}[data-theme="dark"] .refinery-qAo8dBdD08mqlzpuHY9q_ .node-typeHash-g .node-header{fill:#ae8003;}[data-theme="dark"] .refinery-qAo8dBdD08mqlzpuHY9q_ .node-typeHash-h .node-header{fill:#a23b47;}[data-theme="dark"] .refinery-qAo8dBdD08mqlzpuHY9q_ .node-typeHash-i .node-header{fill:#428141;}[data-theme="dark"] .refinery-qAo8dBdD08mqlzpuHY9q_ .node-typeHash-j .node-header{fill:#854797;}[data-theme="dark"] .refinery-qAo8dBdD08mqlzpuHY9q_ .node-typeHash-k .node-header{fill:#3982bb;}[data-theme="dark"] .refinery-qAo8dBdD08mqlzpuHY9q_ .node-typeHash-l .node-header{fill:#827662;}[data-theme="dark"] .refinery-qAo8dBdD08mqlzpuHY9q_ .node-typeHash-m .node-header{fill:#904f53;}[data-theme="dark"] .refinery-qAo8dBdD08mqlzpuHY9q_ .node-typeHash-n .node-header{fill:#647e63;}[data-theme="dark"] .refinery-qAo8dBdD08mqlzpuHY9q_ .node-typeHash-o .node-header{fill:#805f89;}[data-theme="dark"] .refinery-qAo8dBdD08mqlzpuHY9q_ .node-typeHash-p .node-header{fill:#4f7799;}[data-theme="dark"] .refinery-qAo8dBdD08mqlzpuHY9q_ .edge{}[data-theme="dark"] .refinery-qAo8dBdD08mqlzpuHY9q_ .edge text{font-family:"Open Sans Variable","Open Sans","Roboto","Helvetica","Arial",sans-serif;fill:#ebebff;}[data-theme="dark"] .refinery-qAo8dBdD08mqlzpuHY9q_ .edge .edge-line{stroke:#ebebff;}[data-theme="dark"] .refinery-qAo8dBdD08mqlzpuHY9q_ .edge .edge-arrow{fill:#ebebff;}[data-theme="dark"] .refinery-qAo8dBdD08mqlzpuHY9q_ .edge-UNKNOWN{}[data-theme="dark"] .refinery-qAo8dBdD08mqlzpuHY9q_ .edge-UNKNOWN text{fill:#abb2bf;}[data-theme="dark"] .refinery-qAo8dBdD08mqlzpuHY9q_ .edge-UNKNOWN .edge-line{stroke:#abb2bf;}[data-theme="dark"] .refinery-qAo8dBdD08mqlzpuHY9q_ .edge-UNKNOWN .edge-arrow{fill:none;}[data-theme="dark"] .refinery-qAo8dBdD08mqlzpuHY9q_ .edge-ERROR{}[data-theme="dark"] .refinery-qAo8dBdD08mqlzpuHY9q_ .edge-ERROR text{fill:#e06c75;}[data-theme="dark"] .refinery-qAo8dBdD08mqlzpuHY9q_ .edge-ERROR .edge-line{stroke:#e06c75;}[data-theme="dark"] .refinery-qAo8dBdD08mqlzpuHY9q_ .edge-ERROR .edge-arrow{fill:#e06c75;}[data-theme="dark"] .refinery-qAo8dBdD08mqlzpuHY9q_ .icon-TRUE{fill:#ebebff;}[data-theme="dark"] .refinery-qAo8dBdD08mqlzpuHY9q_ .icon-UNKNOWN{fill:#abb2bf;}[data-theme="dark"] .refinery-qAo8dBdD08mqlzpuHY9q_ .icon-ERROR{fill:#e06c75;}[data-theme="dark"] .refinery-qAo8dBdD08mqlzpuHY9q_ text.label-UNKNOWN{fill:#abb2bf;}[data-theme="dark"] .refinery-qAo8dBdD08mqlzpuHY9q_ text.label-ERROR{fill:#e06c75;}</style><defs><svg xmlns="http://www.w3.org/2000/svg" width="24" height="24" viewBox="0 0 24 24" id="refinery-qAo8dBdD08mqlzpuHY9q_-icon-TRUE" class="icon-TRUE"><path d="M17.63 5.84C17.27 5.33 16.67 5 16 5L5 5.01C3.9 5.01 3 5.9 3 7v10c0 1.1.9 1.99 2 1.99L16 19c.67 0 1.27-.33 1.63-.84L22 12l-4.37-6.16z"/></svg><svg xmlns="http://www.w3.org/2000/svg" width="24" height="24" viewBox="0 0 24 24" id="refinery-qAo8dBdD08mqlzpuHY9q_-icon-UNKNOWN" class="icon-UNKNOWN"><path d="M17.63 5.84C17.27 5.33 16.67 5 16 5L5 5.01C3.9 5.01 3 5.9 3 7v10c0 1.1.9 1.99 2 1.99L16 19c.67 0 1.27-.33 1.63-.84L22 12l-4.37-6.16zM16 17H5V7h11l3.55 5L16 17z"/></svg><svg xmlns="http://www.w3.org/2000/svg" width="24" height="24" viewBox="0 0 24 24" id="refinery-qAo8dBdD08mqlzpuHY9q_-icon-ERROR" class="icon-ERROR"><path d="M12 2C6.47 2 2 6.47 2 12s4.47 10 10 10s10-4.47 10-10S17.53 2 12 2zm5 13.59L15.59 17L12 13.41L8.41 17L7 15.59L10.59 12L7 8.41L8.41 7L12 10.59L15.59 7L17 8.41L13.41 12L17 15.59z"/></svg></defs>
<g class="graph" transform="translate(4, 438.79998779296875)">
<!-- n0 -->
<g class="node node-NEW node-exists-UNKNOWN node-equalsSelf-UNKNOWN node-typeHash-j"><rect stroke="none" x="26.5" y="-428.5" width="100" height="49" rx="12.5" ry="12.5" class="node-shadow node-bg"/>

<rect stroke="none" x="21.89" y="-434.8" width="99.3" height="48.80000000000001" rx="12" ry="12" class="node-bg"/>
<rect stroke="none" x="17" y="-438" width="107" height="27" clip-path="url(#refinery-qAo8dBdD08mqlzpuHY9q_-clip-0)" class="node-header"/>
<text text-anchor="start" x="26.89" y="-419" font-size="12.00">FileSystem::new</text>
<use x="27.891" y="-405.2" width="12" height="12" class="icon icon-TRUE" href="#refinery-qAo8dBdD08mqlzpuHY9q_-icon-TRUE"/>
<g><text text-anchor="start" x="43.89" y="-395.6" font-size="12.00" class="label label-TRUE">FileSystem</text>
</g>
<polyline points="21.89,-411.4 121.19,-411.4" class="node-outline"/>
<rect fill="none" x="21.89" y="-434.8" width="99.3" height="48.80000000000001" rx="12" ry="12" class="node-outline"/>
<clipPath id="refinery-qAo8dBdD08mqlzpuHY9q_-clip-0"><rect stroke="none" x="21.89" y="-434.8" width="99.3" height="48.80000000000001" rx="12" ry="12" class="node-bg"/></clipPath></g>
<!-- n1 -->
<g class="node node-NEW node-exists-UNKNOWN node-equalsSelf-UNKNOWN node-typeHash-i"><rect stroke="none" x="34.5" y="-42.5" width="59" height="49" rx="12.5" ry="12.5" class="node-shadow node-bg"/>

<rect stroke="none" x="29.14" y="-48.8" width="58.81" height="48.8" rx="12" ry="12" class="node-bg"/>
<rect stroke="none" x="25" y="-52" width="66" height="27" clip-path="url(#refinery-qAo8dBdD08mqlzpuHY9q_-clip-1)" class="node-header"/>
<text text-anchor="start" x="34.14" y="-33" font-size="12.00">File::new</text>
<use x="35.1351" y="-19.2" width="12" height="12" class="icon icon-TRUE" href="#refinery-qAo8dBdD08mqlzpuHY9q_-icon-TRUE"/>
<g><text text-anchor="start" x="51.14" y="-9.6" font-size="12.00" class="label label-TRUE">File</text>
</g>
<polyline points="29.14,-25.4 87.95,-25.4" class="node-outline"/>
<rect fill="none" x="29.14" y="-48.8" width="58.81" height="48.8" rx="12" ry="12" class="node-outline"/>
<clipPath id="refinery-qAo8dBdD08mqlzpuHY9q_-clip-1"><rect stroke="none" x="29.14" y="-48.8" width="58.81" height="48.8" rx="12" ry="12" class="node-bg"/></clipPath></g>
<!-- n0&#45;&gt;n1 -->
<g class="edge edge-UNKNOWN">

<path fill="none" stroke-width="2" stroke-dasharray="5,2" d="M52.75,-386.01C45.57,-375.62 38.22,-362.85 34.54,-350 5.26,-247.62 32.09,-120.09 48.29,-59.9" class="edge-line"/>
<polygon stroke-width="2" points="51.18,-60.96 50.56,-51.71 45.27,-59.32 51.18,-60.96" class="edge-line edge-arrow"/>
<text text-anchor="start" x="0" y="-219.98" font-weight="bold" font-size="10.50">root</text>
</g>
<!-- n2 -->
<g class="node node-NEW node-exists-UNKNOWN node-equalsSelf-UNKNOWN node-typeHash-k"><rect stroke="none" x="48.5" y="-344.5" width="57" height="65" rx="12.5" ry="12.5" class="node-shadow node-bg"/>

<rect stroke="none" x="43.29" y="-350" width="56.50000000000001" height="64.39999999999998" rx="12" ry="12" class="node-bg"/>
<rect stroke="none" x="39" y="-354" width="64" height="27" clip-path="url(#refinery-qAo8dBdD08mqlzpuHY9q_-clip-2)" class="node-header"/>
<text text-anchor="start" x="48.29" y="-334.2" font-size="12.00">Dir::new</text>
<use x="49.2923" y="-320.6" width="12" height="12" class="icon icon-TRUE" href="#refinery-qAo8dBdD08mqlzpuHY9q_-icon-TRUE"/>
<g><text text-anchor="start" x="64.79" y="-310.8" font-size="12.00" class="label label-TRUE">File</text>
</g>
<use x="49.2923" y="-304.6" width="12" height="12" class="icon icon-TRUE" href="#refinery-qAo8dBdD08mqlzpuHY9q_-icon-TRUE"/>
<g><text text-anchor="start" x="65.29" y="-294.8" font-size="12.00" class="label label-TRUE">Dir</text>
</g>
<polyline points="43.29,-326.6 99.79,-326.6" class="node-outline"/>
<rect fill="none" x="43.29" y="-350" width="56.50000000000001" height="64.39999999999998" rx="12" ry="12" class="node-outline"/>
<clipPath id="refinery-qAo8dBdD08mqlzpuHY9q_-clip-2"><rect stroke="none" x="43.29" y="-350" width="56.50000000000001" height="64.39999999999998" rx="12" ry="12" class="node-bg"/></clipPath></g>
<!-- n0&#45;&gt;n2 -->
<g class="edge edge-UNKNOWN">

<path fill="none" stroke-width="2" stroke-dasharray="5,2" d="M71.54,-386.07C71.54,-378.58 71.54,-370.05 71.54,-361.62" class="edge-line"/>
<polygon stroke-width="2" points="74.6,-361.69 71.54,-352.94 68.48,-361.69 74.6,-361.69" class="edge-line edge-arrow"/>
<text text-anchor="start" x="49.21" y="-372.49" font-weight="bold" font-size="10.50">root</text>
</g>
<!-- n2&#45;&gt;n1 -->
<!-- n2&#45;&gt;n1 -->
<g class="edge edge-UNKNOWN">

<path fill="none" stroke-width="2" stroke-dasharray="5,2" d="M66.95,-285.69C62.24,-252.11 55.24,-197 52.54,-149.2 50.93,-120.62 51.1,-113.39 52.54,-84.8 52.94,-76.89 53.64,-68.42 54.41,-60.42" class="edge-line"/>
<polygon stroke-width="2" points="57.45,-60.81 55.32,-51.79 51.36,-60.17 57.45,-60.81" class="edge-line edge-arrow"/>
<text text-anchor="start" x="8.96" y="-153.34" font-weight="bold" font-size="10.50">element</text>
</g><g class="node node-IMPLICIT node-exists-TRUE node-equalsSelf-TRUE node-typeHash-k">

<rect stroke="none" x="100.02" y="-249.6" width="65.04" height="64.4" rx="12" ry="12" class="node-bg"/>
<rect stroke="none" x="96" y="-253" width="73" height="27" clip-path="url(#refinery-qAo8dBdD08mqlzpuHY9q_-clip-3)" class="node-header"/>
<text text-anchor="start" x="105.02" y="-233.8" font-size="12.00">resources</text>
<use x="106.024" y="-220.2" width="12" height="12" class="icon icon-TRUE" href="#refinery-qAo8dBdD08mqlzpuHY9q_-icon-TRUE"/>
<g><text text-anchor="start" x="121.53" y="-210.4" font-size="12.00" class="label label-TRUE">File</text>
</g>
<use x="106.024" y="-204.2" width="12" height="12" class="icon icon-TRUE" href="#refinery-qAo8dBdD08mqlzpuHY9q_-icon-TRUE"/>
<g><text text-anchor="start" x="122.02" y="-194.4" font-size="12.00" class="label label-TRUE">Dir</text>
</g>
<polyline points="100.02,-226.2 165.06,-226.2" class="node-outline"/>
<rect fill="none" x="100.02" y="-249.6" width="65.04" height="64.4" rx="12" ry="12" class="node-outline"/>
<clipPath id="refinery-qAo8dBdD08mqlzpuHY9q_-clip-3"><rect stroke="none" x="100.02" y="-249.6" width="65.04" height="64.4" rx="12" ry="12" class="node-bg"/></clipPath></g>
<!-- n2&#45;&gt;n2 -->

<!-- n2&#45;&gt;n2 -->
<g class="edge edge-UNKNOWN">

<path fill="none" stroke-width="2" stroke-dasharray="5,2" d="M99.54,-335.15C109.59,-335.52 117.79,-329.74 117.79,-317.8 117.79,-310.9 115.05,-306.06 110.8,-303.27" class="edge-line"/>
<polygon stroke-width="2" points="111.71,-300.34 102.48,-301.19 110.22,-306.28 111.71,-300.34" class="edge-line edge-arrow"/>
<text text-anchor="start" x="99.78" y="-339.3" font-weight="bold" font-size="10.50">element</text>
</g><g class="edge edge-UNKNOWN">

<path fill="none" stroke-width="2" stroke-dasharray="5,2" d="M100.14,-386.27C110.37,-376.29 120.79,-363.74 126.54,-350 138.25,-322.01 139.44,-287.68 137.86,-261.1" class="edge-line"/>
<polygon stroke-width="2" points="140.92,-261 137.2,-252.51 134.82,-261.47 140.92,-261" class="edge-line edge-arrow"/>
<text text-anchor="start" x="112.62" y="-325.05" font-weight="bold" font-size="10.50">root</text>
</g>

<!-- n2&#45;&gt;n3 -->
<g class="edge edge-UNKNOWN">

<path fill="none" stroke-width="2" stroke-dasharray="5,2" d="M96.92,-275.87C100.36,-270.32 103.89,-264.63 107.32,-259.08" class="edge-line"/>
<polygon stroke-width="2" points="94.45,-274.04 92.44,-283.09 99.65,-277.27 94.45,-274.04" class="edge-line edge-arrow"/>
<polygon stroke-width="2" points="109.76,-260.96 111.77,-251.9 104.56,-257.73 109.76,-260.96" class="edge-line edge-arrow"/>
<text text-anchor="start" x="58.37" y="-271.89" font-weight="bold" font-size="10.50">element</text>
</g>
<!-- n3&#45;&gt;n1 -->
<g class="edge edge-UNKNOWN">

<path fill="none" stroke-width="2" stroke-dasharray="5,2" d="M134.25,-185.32C134.53,-157.62 131.82,-116.65 116.54,-84.8 111.59,-74.48 104.13,-64.85 96.2,-56.47" class="edge-line"/>
<polygon stroke-width="2" points="98.37,-54.31 89.99,-50.34 94.06,-58.67 98.37,-54.31" class="edge-line edge-arrow"/>
<text text-anchor="start" x="126.45" y="-116.67" font-weight="bold" font-size="10.50">element</text>
</g>
<!-- n4 -->
<g class="node node-IMPLICIT node-exists-TRUE node-equalsSelf-TRUE node-typeHash-i">

<rect stroke="none" x="61.54" y="-149.2" width="46.00000000000001" height="64.39999999999999" rx="12" ry="12" class="node-bg"/>
<rect stroke="none" x="57" y="-153" width="54" height="27" clip-path="url(#refinery-qAo8dBdD08mqlzpuHY9q_-clip-4)" class="node-header"/>
<text text-anchor="start" x="74.16" y="-133.4" font-size="12.00">img</text>
<use x="67.5423" y="-119.8" width="12" height="12" class="icon icon-TRUE" href="#refinery-qAo8dBdD08mqlzpuHY9q_-icon-TRUE"/>
<g><text text-anchor="start" x="83.04" y="-110" font-size="12.00" class="label label-TRUE">File</text>
</g>
<use x="67.5423" y="-103.8" width="12" height="12" class="icon icon-UNKNOWN" href="#refinery-qAo8dBdD08mqlzpuHY9q_-icon-UNKNOWN"/>
<g><text text-anchor="start" x="83.54" y="-94" font-size="12.00" class="label label-UNKNOWN">Dir</text>
</g>
<polyline points="61.54,-125.8 107.54,-125.8" class="node-outline"/>
<rect fill="none" x="61.54" y="-149.2" width="46.00000000000001" height="64.39999999999999" rx="12" ry="12" class="node-outline"/>
<clipPath id="refinery-qAo8dBdD08mqlzpuHY9q_-clip-4"><rect stroke="none" x="61.54" y="-149.2" width="46.00000000000001" height="64.39999999999999" rx="12" ry="12" class="node-bg"/></clipPath></g>
<!-- n3&#45;&gt;n4 -->
<g class="edge edge-TRUE">

<path fill="none" stroke-width="2" d="M117.35,-185.27C113.33,-177.02 108.93,-167.99 104.69,-159.29" class="edge-line"/>
<polygon stroke-width="2" points="107.55,-158.17 100.96,-151.65 102.04,-160.86 107.55,-158.17" class="edge-line edge-arrow"/>
<text text-anchor="start" x="64.91" y="-171.25" font-weight="bold" font-size="10.50">element</text>
</g>
<!-- n4&#45;&gt;n1 -->
<g class="edge edge-UNKNOWN">

<path fill="none" stroke-width="2" stroke-dasharray="5,2" d="M75.59,-84.82C73.28,-76.75 70.77,-68.01 68.41,-59.79" class="edge-line"/>
<polygon stroke-width="2" points="71.4,-59.1 66.04,-51.53 65.51,-60.79 71.4,-59.1" class="edge-line edge-arrow"/>
<text text-anchor="start" x="26.85" y="-70.97" font-weight="bold" font-size="10.50">element</text>
</g>
<!-- n4&#45;&gt;n2 -->
<g class="edge edge-UNKNOWN">

<path fill="none" stroke-width="2" stroke-dasharray="5,2" d="M82.5,-149.17C80.3,-182.82 76.79,-236.62 74.33,-274.16" class="edge-line"/>
<polygon stroke-width="2" points="71.29,-273.79 73.77,-282.72 77.4,-274.19 71.29,-273.79" class="edge-line edge-arrow"/>
<text text-anchor="start" x="34.45" y="-221.7" font-weight="bold" font-size="10.50">element</text>
</g>
</g>
</svg>
