<svg xmlns="http://www.w3.org/2000/svg" width="356" height="356" viewBox="0 0 356 356"><path d="M293.85 121c22.865 39.603 22.865 88.397 0 128S228.729 313 183 313v-79.879l6.248-.63c25.813-5.282 45.23-28.12 45.23-55.495 0-3.91-.397-7.728-1.151-11.416l-2.537-8.17zM178 48c45.791 0 88.104 24.369 111 63.928l-62.474 35.981-1.387-2.55c-10.194-15.051-27.456-24.947-47.035-24.947s-36.841 9.896-47.035 24.947L129.632 148 67 111.928C89.896 72.37 132.209 48 178 48zM61.149 121l63.238 36.51-2.505 8.07a57 57 0 0 0-1.15 11.416c0 27.375 19.416 50.213 45.23 55.495l6.04.609V313c-45.73 0-87.987-24.397-110.85-64-22.866-39.603-22.866-88.397 0-128z" class="fibackground"/><path d="M184.177 125.99c8.187 0 14.824-6.385 14.824-14.261v-.476c0-7.877-6.637-14.262-14.824-14.262h-12.353c-8.187 0-14.823 6.386-14.823 14.262v.476c0 7.876 6.637 14.262 14.823 14.262z" class="fiforeground"/><path d="M171.824 127.99c-9.227 0-16.824-7.261-16.824-16.262v-.476c0-9 7.598-16.262 16.824-16.262h12.354c9.227 0 16.822 7.261 16.822 16.262v.476c0 9-7.595 16.262-16.822 16.262zm0-4h12.354c7.147 0 12.822-5.508 12.822-12.262v-.476c0-6.754-5.675-12.262-12.822-12.262h-12.354c-7.147 0-12.824 5.508-12.824 12.262v.476c0 6.754 5.678 12.262 12.824 12.262" class="fiforeground"/><path d="M184.177 125.99c8.187 0 14.824-6.385 14.824-14.261v-.476c0-7.877-6.637-14.262-14.824-14.262h-12.353c-8.187 0-14.823 6.386-14.823 14.262v.476c0 7.876 6.637 14.262 14.823 14.262z" class="fiforeground"/><path d="M171.824 127.99c-9.227 0-16.824-7.261-16.824-16.262v-.476c0-9 7.598-16.262 16.824-16.262h12.354c9.227 0 16.822 7.261 16.822 16.262v.476c0 9-7.595 16.262-16.822 16.262zm0-4h12.354c7.147 0 12.822-5.508 12.822-12.262v-.476c0-6.754-5.675-12.262-12.822-12.262h-12.354c-7.147 0-12.824 5.508-12.824 12.262v.476c0 6.754 5.678 12.262 12.824 12.262M120.177 54.99c8.187 0 14.824-6.385 14.824-14.261v-.476c0-7.877-6.637-14.262-14.824-14.262h-12.353c-8.187 0-14.823 6.386-14.823 14.262v.476c0 7.876 6.637 14.262 14.823 14.262z" class="fiforeground"/><path d="M107.824 56.99C98.597 56.99 91 49.73 91 40.728v-.476c0-9 7.598-16.262 16.824-16.262h12.354c9.227 0 16.822 7.261 16.822 16.262v.476c0 9-7.595 16.262-16.822 16.262zm0-4h12.354c7.147 0 12.822-5.508 12.822-12.262v-.476c0-6.754-5.675-12.262-12.822-12.262h-12.354C100.677 27.99 95 33.498 95 40.252v.476c0 6.754 5.678 12.262 12.824 12.262" class="fiforeground"/><path d="M120.177 54.99c8.187 0 14.824-6.385 14.824-14.261v-.476c0-7.877-6.637-14.262-14.824-14.262h-12.353c-8.187 0-14.823 6.386-14.823 14.262v.476c0 7.876 6.637 14.262 14.823 14.262z" class="fiforeground"/><path d="M107.824 56.99C98.597 56.99 91 49.73 91 40.728v-.476c0-9 7.598-16.262 16.824-16.262h12.354c9.227 0 16.822 7.261 16.822 16.262v.476c0 9-7.595 16.262-16.822 16.262zm0-4h12.354c7.147 0 12.822-5.508 12.822-12.262v-.476c0-6.754-5.675-12.262-12.822-12.262h-12.354C100.677 27.99 95 33.498 95 40.252v.476c0 6.754 5.678 12.262 12.824 12.262M166 97.99c-8.712-9.286-20.675-22.007-31-33" class="fiforeground"/><path d="M164.541 99.36c-8.711-9.286-20.672-22.008-30.998-33l2.916-2.739c10.324 10.992 22.286 23.714 31 33.002zM138 62.23l-10-5.24 4.353 10z" class="fiforeground"/><path d="m131.59 70.25-7.688-17.664 17.664 9.254zm1.525-6.518 1.32-1.113-2.335-1.223zM184.177 54.99c8.187 0 14.824-6.385 14.824-14.261v-.476c0-7.877-6.637-14.262-14.824-14.262h-12.353c-8.187 0-14.823 6.386-14.823 14.262v.476c0 7.876 6.637 14.262 14.823 14.262z" class="fiforeground"/><path d="M171.824 56.99C162.597 56.99 155 49.73 155 40.728v-.476c0-9 7.598-16.262 16.824-16.262h12.354c9.227 0 16.822 7.261 16.822 16.262v.476c0 9-7.595 16.262-16.822 16.262zm0-4h12.354c7.147 0 12.822-5.508 12.822-12.262v-.476c0-6.754-5.675-12.262-12.822-12.262h-12.354c-7.147 0-12.824 5.508-12.824 12.262v.476c0 6.754 5.678 12.262 12.824 12.262" class="fiforeground"/><path d="M184.177 54.99c8.187 0 14.824-6.385 14.824-14.261v-.476c0-7.877-6.637-14.262-14.824-14.262h-12.353c-8.187 0-14.823 6.386-14.823 14.262v.476c0 7.876 6.637 14.262 14.823 14.262z" class="fiforeground"/><path d="M171.824 56.99C162.597 56.99 155 49.73 155 40.728v-.476c0-9 7.598-16.262 16.824-16.262h12.354c9.227 0 16.822 7.261 16.822 16.262v.476c0 9-7.595 16.262-16.822 16.262zm0-4h12.354c7.147 0 12.822-5.508 12.822-12.262v-.476c0-6.754-5.675-12.262-12.822-12.262h-12.354c-7.147 0-12.824 5.508-12.824 12.262v.476c0 6.754 5.678 12.262 12.824 12.262M176 97.99v-30h4v30z" class="fiforeground"/><path d="m182 67.991-4-10-4 10z" class="fiforeground"/><path d="M171.047 69.99 178 52.605l6.955 17.385zm5.908-4h2.092L178 63.377zM248.177 54.99c8.187 0 14.824-6.385 14.824-14.261v-.476c0-7.877-6.637-14.262-14.824-14.262h-12.353c-8.187 0-14.823 6.386-14.823 14.262v.476c0 7.876 6.637 14.262 14.823 14.262z" class="fiforeground"/><path d="M235.824 56.99C226.597 56.99 219 49.73 219 40.728v-.476c0-9 7.598-16.262 16.824-16.262h12.354c9.227 0 16.822 7.261 16.822 16.262v.476c0 9-7.595 16.262-16.822 16.262zm0-4h12.354c7.147 0 12.822-5.508 12.822-12.262v-.476c0-6.754-5.675-12.262-12.822-12.262h-12.354c-7.147 0-12.824 5.508-12.824 12.262v.476c0 6.754 5.678 12.262 12.824 12.262" class="fiforeground"/><path d="M248.177 54.99c8.187 0 14.824-6.385 14.824-14.261v-.476c0-7.877-6.637-14.262-14.824-14.262h-12.353c-8.187 0-14.823 6.386-14.823 14.262v.476c0 7.876 6.637 14.262 14.823 14.262z" class="fiforeground"/><path d="M235.824 56.99C226.597 56.99 219 49.73 219 40.728v-.476c0-9 7.598-16.262 16.824-16.262h12.354c9.227 0 16.822 7.261 16.822 16.262v.476c0 9-7.595 16.262-16.822 16.262zm0-4h12.354c7.147 0 12.822-5.508 12.822-12.262v-.476c0-6.754-5.675-12.262-12.822-12.262h-12.354c-7.147 0-12.824 5.508-12.824 12.262v.476c0 6.754 5.678 12.262 12.824 12.262M190 97.99c8.713-9.286 20.675-22.007 31-33" class="fiforeground"/><path d="m191.459 99.36-2.918-2.737c8.714-9.288 20.678-22.01 31.002-33.002l2.916 2.738c-10.325 10.993-22.289 23.715-31 33M223.648 66.99l4.352-10-10 5.24z" class="fiforeground"/><path d="m224.41 70.25-9.974-8.41 17.664-9.254zm-1.525-6.518 1.017-2.338-2.335 1.225zM46.117 137.016c-7.797 0-14.118 6.605-14.118 14.754v.491c0 8.149 6.32 14.754 14.118 14.754h11.765c7.797 0 14.118-6.605 14.118-14.754v-.491c0-8.149-6.32-14.754-14.118-14.754z" class="fiforeground"/><path d="M57.883 135.016c8.927 0 16.117 7.57 16.117 16.754v.492c0 9.182-7.19 16.754-16.117 16.754H46.117c-8.927 0-16.117-7.571-16.117-16.754v-.492c0-9.183 7.19-16.754 16.117-16.754zm0 4H46.117c-6.667 0-12.117 5.64-12.117 12.754v.492c0 7.114 5.45 12.754 12.117 12.754h11.766c6.667 0 12.117-5.64 12.117-12.754v-.492c0-7.115-5.45-12.754-12.117-12.754" class="fiforeground"/><path d="M46.117 137.016c-7.797 0-14.118 6.605-14.118 14.754v.491c0 8.149 6.32 14.754 14.118 14.754h11.765c7.797 0 14.118-6.605 14.118-14.754v-.491c0-8.149-6.32-14.754-14.118-14.754z" class="fiforeground"/><path d="M57.883 135.016c8.927 0 16.117 7.57 16.117 16.754v.492c0 9.182-7.19 16.754-16.117 16.754H46.117c-8.927 0-16.117-7.571-16.117-16.754v-.492c0-9.183 7.19-16.754 16.117-16.754zm0 4H46.117c-6.667 0-12.117 5.64-12.117 12.754v.492c0 7.114 5.45 12.754 12.117 12.754h11.766c6.667 0 12.117-5.64 12.117-12.754v-.492c0-7.115-5.45-12.754-12.117-12.754M108.117 286.016c-7.797 0-14.118 6.605-14.118 14.754v.491c0 8.149 6.32 14.754 14.118 14.754h11.765c7.797 0 14.118-6.605 14.118-14.754v-.491c0-8.149-6.32-14.754-14.118-14.754z" class="fiforeground"/><path d="M119.883 284.016c8.927 0 16.117 7.57 16.117 16.754v.492c0 9.182-7.19 16.754-16.117 16.754h-11.766c-8.927 0-16.117-7.571-16.117-16.754v-.492c0-9.183 7.19-16.754 16.117-16.754zm0 4h-11.766c-6.667 0-12.117 5.64-12.117 12.754v.492c0 7.114 5.45 12.754 12.117 12.754h11.766c6.667 0 12.117-5.64 12.117-12.754v-.492c0-7.115-5.45-12.754-12.117-12.754" class="fiforeground"/><path d="M108.117 286.016c-7.797 0-14.118 6.605-14.118 14.754v.491c0 8.149 6.32 14.754 14.118 14.754h11.765c7.797 0 14.118-6.605 14.118-14.754v-.491c0-8.149-6.32-14.754-14.118-14.754z" class="fiforeground"/><path d="M119.883 284.016c8.927 0 16.117 7.57 16.117 16.754v.492c0 9.182-7.19 16.754-16.117 16.754h-11.766c-8.927 0-16.117-7.571-16.117-16.754v-.492c0-9.183 7.19-16.754 16.117-16.754zm0 4h-11.766c-6.667 0-12.117 5.64-12.117 12.754v.492c0 7.114 5.45 12.754 12.117 12.754h11.766c6.667 0 12.117-5.64 12.117-12.754v-.492c0-7.115-5.45-12.754-12.117-12.754M46.117 212.016c-7.797 0-14.118 6.605-14.118 14.754v.491c0 8.149 6.32 14.754 14.118 14.754h11.765c7.797 0 14.118-6.605 14.118-14.754v-.491c0-8.149-6.32-14.754-14.118-14.754z" class="fiforeground"/><path d="M57.883 210.016c8.927 0 16.117 7.57 16.117 16.754v.492c0 9.182-7.19 16.754-16.117 16.754H46.117c-8.927 0-16.117-7.571-16.117-16.754v-.492c0-9.183 7.19-16.754 16.117-16.754zm0 4H46.117c-6.667 0-12.117 5.64-12.117 12.754v.492c0 7.114 5.45 12.754 12.117 12.754h11.766c6.667 0 12.117-5.64 12.117-12.754v-.492c0-7.115-5.45-12.754-12.117-12.754" class="fiforeground"/><path d="M46.117 212.016c-7.797 0-14.118 6.605-14.118 14.754v.491c0 8.149 6.32 14.754 14.118 14.754h11.765c7.797 0 14.118-6.605 14.118-14.754v-.491c0-8.149-6.32-14.754-14.118-14.754z" class="fiforeground"/><path d="M57.883 210.016c8.927 0 16.117 7.57 16.117 16.754v.492c0 9.182-7.19 16.754-16.117 16.754H46.117c-8.927 0-16.117-7.571-16.117-16.754v-.492c0-9.183 7.19-16.754 16.117-16.754zm0 4H46.117c-6.667 0-12.117 5.64-12.117 12.754v.492c0 7.114 5.45 12.754 12.117 12.754h11.766c6.667 0 12.117-5.64 12.117-12.754v-.492c0-7.115-5.45-12.754-12.117-12.754M54 167.016v31h-4v-31z" class="fiforeground"/><path d="m49 197.016 3.5 11 3.5-11z" class="fiforeground"/><path d="M58.734 195.016 52.5 214.612l-6.236-19.596zm-5.468 4h-1.532l.766 2.404zM64 241.016c8.15 9.85 19.341 23.342 29 35" class="fiforeground"/><path d="M65.541 239.74c8.15 9.848 19.339 23.341 28.998 35l-3.08 2.551c-9.659-11.658-20.848-25.149-29-35z" class="fiforeground"/><path d="m90 278.253 10 5.763-4.353-11z" class="fiforeground"/><path d="m96.432 269.563 7.537 19.05-17.318-9.982zm-1.569 6.908-1.513 1.404 2.681 1.545zM46.117 286.016c-7.797 0-14.118 6.605-14.118 14.754v.491c0 8.149 6.32 14.754 14.118 14.754h11.765c7.797 0 14.118-6.605 14.118-14.754v-.491c0-8.149-6.32-14.754-14.118-14.754z" class="fiforeground"/><path d="M57.883 284.016c8.927 0 16.117 7.57 16.117 16.754v.492c0 9.182-7.19 16.754-16.117 16.754H46.117c-8.927 0-16.117-7.571-16.117-16.754v-.492c0-9.183 7.19-16.754 16.117-16.754zm0 4H46.117c-6.667 0-12.117 5.64-12.117 12.754v.492c0 7.114 5.45 12.754 12.117 12.754h11.766c6.667 0 12.117-5.64 12.117-12.754v-.492c0-7.115-5.45-12.754-12.117-12.754" class="fiforeground"/><path d="M46.117 286.016c-7.797 0-14.118 6.605-14.118 14.754v.491c0 8.149 6.32 14.754 14.118 14.754h11.765c7.797 0 14.118-6.605 14.118-14.754v-.491c0-8.149-6.32-14.754-14.118-14.754z" class="fiforeground"/><path d="M57.883 284.016c8.927 0 16.117 7.57 16.117 16.754v.492c0 9.182-7.19 16.754-16.117 16.754H46.117c-8.927 0-16.117-7.571-16.117-16.754v-.492c0-9.183 7.19-16.754 16.117-16.754zm0 4H46.117c-6.667 0-12.117 5.64-12.117 12.754v.492c0 7.114 5.45 12.754 12.117 12.754h11.766c6.667 0 12.117-5.64 12.117-12.754v-.492c0-7.115-5.45-12.754-12.117-12.754M59 241.016c.894 8.736 1.192 20.372.88 31" class="fiforeground"/><path d="M60.99 240.813c.908 8.87 1.204 20.554.889 31.262l-3.998-.118c.31-10.547.01-22.136-.871-30.738zM57 272.015l2.47 11L64 272.772z" class="fiforeground"/><path d="m54.436 269.727 12.5 1.351-8.088 18.291zm5.128 4.578.53 2.357.968-2.195zM46 287.016c-1.81-8.994-2.388-21.037-1.75-32" class="fiforeground"/><path d="m42.254 254.9 3.992.233c-.628 10.808-.042 22.752 1.715 31.488l-3.922.789c-1.86-9.252-2.432-21.392-1.785-32.51z" class="fiforeground"/><path d="m49 257.016-3.177-13L40 256.108z" class="fiforeground"/><path d="m46.441 238.121 5.172 21.168-14.654-1.476zm-1.236 11.787-2.166 4.496 3.346.338zM314.88 146.02c7.797 0 14.118 6.605 14.118 14.754v.491c0 8.149-6.321 14.755-14.118 14.755h-11.765c-7.797 0-14.118-6.606-14.118-14.755v-.491c0-8.149 6.321-14.754 14.118-14.754z" class="fiforeground"/><path d="M303.12 144.02c-8.926 0-16.117 7.57-16.117 16.754v.492c0 9.183 7.19 16.754 16.117 16.754h11.766c8.927 0 16.119-7.57 16.119-16.754v-.492c0-9.183-7.193-16.754-16.119-16.754zm0 4h11.766c6.668 0 12.119 5.64 12.119 12.754v.492c0 7.115-5.452 12.754-12.119 12.754H303.12c-6.667 0-12.117-5.639-12.117-12.754v-.492c0-7.115 5.45-12.754 12.117-12.754" class="fiforeground"/><path d="M314.88 146.02c7.797 0 14.118 6.605 14.118 14.754v.491c0 8.149-6.321 14.755-14.118 14.755h-11.765c-7.797 0-14.118-6.606-14.118-14.755v-.491c0-8.149 6.321-14.754 14.118-14.754z" class="fiforeground"/><path d="M303.12 144.02c-8.926 0-16.117 7.57-16.117 16.754v.492c0 9.183 7.19 16.754 16.117 16.754h11.766c8.927 0 16.119-7.57 16.119-16.754v-.492c0-9.183-7.193-16.754-16.119-16.754zm0 4h11.766c6.668 0 12.119 5.64 12.119 12.754v.492c0 7.115-5.452 12.754-12.119 12.754H303.12c-6.667 0-12.117-5.639-12.117-12.754v-.492c0-7.115 5.45-12.754 12.117-12.754M252.88 295.02c7.797 0 14.118 6.605 14.118 14.754v.491c0 8.149-6.321 14.755-14.118 14.755h-11.765c-7.797 0-14.118-6.606-14.118-14.755v-.491c0-8.149 6.321-14.754 14.118-14.754z" class="fiforeground"/><path d="M241.12 293.02c-8.926 0-16.117 7.57-16.117 16.754v.492c0 9.183 7.19 16.754 16.117 16.754h11.766c8.927 0 16.119-7.57 16.119-16.754v-.492c0-9.183-7.193-16.754-16.119-16.754zm0 4h11.766c6.668 0 12.119 5.64 12.119 12.754v.492c0 7.115-5.452 12.754-12.119 12.754H241.12c-6.667 0-12.117-5.639-12.117-12.754v-.492c0-7.115 5.45-12.754 12.117-12.754" class="fiforeground"/><path d="M252.88 295.02c7.797 0 14.118 6.605 14.118 14.754v.491c0 8.149-6.321 14.755-14.118 14.755h-11.765c-7.797 0-14.118-6.606-14.118-14.755v-.491c0-8.149 6.321-14.754 14.118-14.754z" class="fiforeground"/><path d="M241.12 293.02c-8.926 0-16.117 7.57-16.117 16.754v.492c0 9.183 7.19 16.754 16.117 16.754h11.766c8.927 0 16.119-7.57 16.119-16.754v-.492c0-9.183-7.193-16.754-16.119-16.754zm0 4h11.766c6.668 0 12.119 5.64 12.119 12.754v.492c0 7.115-5.452 12.754-12.119 12.754H241.12c-6.667 0-12.117-5.639-12.117-12.754v-.492c0-7.115 5.45-12.754 12.117-12.754M252.88 221.02c7.797 0 14.118 6.605 14.118 14.754v.491c0 8.149-6.321 14.755-14.118 14.755h-11.765c-7.797 0-14.118-6.606-14.118-14.755v-.491c0-8.149 6.321-14.754 14.118-14.754z" class="fiforeground"/><path d="M241.12 219.02c-8.926 0-16.117 7.57-16.117 16.754v.492c0 9.183 7.19 16.754 16.117 16.754h11.766c8.927 0 16.119-7.57 16.119-16.754v-.492c0-9.183-7.193-16.754-16.119-16.754zm0 4h11.766c6.668 0 12.119 5.64 12.119 12.754v.492c0 7.115-5.452 12.754-12.119 12.754H241.12c-6.667 0-12.117-5.639-12.117-12.754v-.492c0-7.115 5.45-12.754 12.117-12.754" class="fiforeground"/><path d="M252.88 221.02c7.797 0 14.118 6.605 14.118 14.754v.491c0 8.149-6.321 14.755-14.118 14.755h-11.765c-7.797 0-14.118-6.606-14.118-14.755v-.491c0-8.149 6.321-14.754 14.118-14.754z" class="fiforeground"/><path d="M241.12 219.02c-8.926 0-16.117 7.57-16.117 16.754v.492c0 9.183 7.19 16.754 16.117 16.754h11.766c8.927 0 16.119-7.57 16.119-16.754v-.492c0-9.183-7.193-16.754-16.119-16.754zm0 4h11.766c6.668 0 12.119 5.64 12.119 12.754v.492c0 7.115-5.452 12.754-12.119 12.754H241.12c-6.667 0-12.117-5.639-12.117-12.754v-.492c0-7.115 5.45-12.754 12.117-12.754M297 176.02c-8.15 9.568-19.341 22.675-29 34.001" class="fiforeground"/><path d="M295.48 174.72c-8.149 9.566-19.338 22.673-28.998 34l3.043 2.596c9.658-11.325 20.851-24.432 29.002-34.002z" class="fiforeground"/><path d="m271 212.25-10 5.763 4.353-11z" class="fiforeground"/><path d="m264.57 203.56-7.537 19.051 17.318-9.98zm1.568 6.91 1.514 1.405-2.681 1.544zM314.88 221.02c7.797 0 14.118 6.605 14.118 14.754v.491c0 8.149-6.321 14.755-14.118 14.755h-11.765c-7.797 0-14.118-6.606-14.118-14.755v-.491c0-8.149 6.321-14.754 14.118-14.754z" class="fiforeground"/><path d="M303.12 219.02c-8.926 0-16.117 7.57-16.117 16.754v.492c0 9.183 7.19 16.754 16.117 16.754h11.766c8.927 0 16.119-7.57 16.119-16.754v-.492c0-9.183-7.193-16.754-16.119-16.754zm0 4h11.766c6.668 0 12.119 5.64 12.119 12.754v.492c0 7.115-5.452 12.754-12.119 12.754H303.12c-6.667 0-12.117-5.639-12.117-12.754v-.492c0-7.115 5.45-12.754 12.117-12.754" class="fiforeground"/><path d="M314.88 221.02c7.797 0 14.118 6.605 14.118 14.754v.491c0 8.149-6.321 14.755-14.118 14.755h-11.765c-7.797 0-14.118-6.606-14.118-14.755v-.491c0-8.149 6.321-14.754 14.118-14.754z" class="fiforeground"/><path d="M303.12 219.02c-8.926 0-16.117 7.57-16.117 16.754v.492c0 9.183 7.19 16.754 16.117 16.754h11.766c8.927 0 16.119-7.57 16.119-16.754v-.492c0-9.183-7.193-16.754-16.119-16.754zm0 4h11.766c6.668 0 12.119 5.64 12.119 12.754v.492c0 7.115-5.452 12.754-12.119 12.754H303.12c-6.667 0-12.117-5.639-12.117-12.754v-.492c0-7.115 5.45-12.754 12.117-12.754M302 176.02c-.894 8.736-1.192 20.372-.879 31" class="fiforeground"/><path d="M300.01 175.81c-.908 8.87-1.204 20.553-.889 31.262l4-.117c-.31-10.548-.01-22.136.87-30.738z" class="fiforeground"/><path d="m304 206.02-2.472 11.001-4.529-10.244z" class="fiforeground"/><path d="m306.56 203.73-12.5 1.352 8.086 18.29zm-5.129 4.578-.53 2.358-.97-2.196zM245 250.02v31h4v-31zM251 281.02l-3.501 11-3.5-11z" class="fiforeground"/><path d="m241.27 279.02 6.234 19.596 6.237-19.596zm5.469 4h1.531l-.766 2.404zM315 221.02c1.808-8.713 2.387-20.38 1.749-31" class="fiforeground"/><path d="m318.75 189.9-3.992.24c.628 10.46.042 22.024-1.711 30.473l3.916.813c1.863-8.978 2.435-20.746 1.787-31.525z" class="fiforeground"/><path d="m312 191.02 2.824-12L320 190.182z" class="fiforeground"/><path d="m314.2 172.92-4.795 20.375 13.584-1.422zm1.242 12.186 1.563 3.371-2.416.254z" class="fiforeground"/></svg>
