<svg xmlns="http://www.w3.org/2000/svg" width="356" height="356" viewBox="0 0 356 356"><path d="M639 181.35c19.279 0 37.645-3.906 54.351-10.97l8.286-3.991L639 49.999l-62.637 116.39 8.287 3.991c16.706 7.064 35.072 10.97 54.35 10.97zM646.318 312h133.68l-72.851-135.37-9.271 4.465a150.3 150.3 0 0 1-43.412 11.103l-8.148.412zm-148.32 0h137.6V192.81l-12.061-.609a150.3 150.3 0 0 1-43.412-11.103l-9.27-4.465z" class="fibackground" transform="translate(-461 -10)"/><g class="fiforeground"><path d="M61.88 224.98c7.797 0 14.118-6.605 14.118-14.754v-.491c0-8.149-6.321-14.755-14.118-14.755H50.115c-7.797 0-14.118 6.606-14.118 14.755v.491c0 8.149 6.321 14.754 14.118 14.754z"/><path d="M50.12 226.98c-8.926 0-16.117-7.57-16.117-16.754v-.492c0-9.183 7.19-16.754 16.117-16.754h11.766c8.927 0 16.119 7.57 16.119 16.754v.492c0 9.183-7.193 16.754-16.119 16.754zm0-4h11.766c6.668 0 12.119-5.64 12.119-12.754v-.492c0-7.115-5.452-12.754-12.119-12.754H50.12c-6.667 0-12.117 5.639-12.117 12.754v.492c0 7.115 5.45 12.754 12.117 12.754"/><path d="M61.88 224.98c7.797 0 14.118-6.605 14.118-14.754v-.491c0-8.149-6.321-14.755-14.118-14.755H50.115c-7.797 0-14.118 6.606-14.118 14.755v.491c0 8.149 6.321 14.754 14.118 14.754z"/><path d="M50.12 226.98c-8.926 0-16.117-7.57-16.117-16.754v-.492c0-9.183 7.19-16.754 16.117-16.754h11.766c8.927 0 16.119 7.57 16.119 16.754v.492c0 9.183-7.193 16.754-16.119 16.754zm0-4h11.766c6.668 0 12.119-5.64 12.119-12.754v-.492c0-7.115-5.452-12.754-12.119-12.754H50.12c-6.667 0-12.117 5.639-12.117 12.754v.492c0 7.115 5.45 12.754 12.117 12.754M61.88 287.984c7.797 0 14.118-6.826 14.118-15.246v-.508c0-8.42-6.321-15.246-14.118-15.246H50.115c-7.797 0-14.118 6.826-14.118 15.246v.508c0 8.42 6.321 15.246 14.118 15.246z"/><path d="M50.12 289.984c-8.964 0-16.117-7.825-16.117-17.246v-.508c0-9.42 7.153-17.246 16.117-17.246h11.766c8.964 0 16.119 7.825 16.119 17.246v.508c0 9.421-7.155 17.246-16.119 17.246zm0-4h11.766c6.63 0 12.119-5.827 12.119-13.246v-.508c0-7.419-5.49-13.246-12.119-13.246H50.12c-6.63 0-12.117 5.827-12.117 13.246v.508c0 7.42 5.488 13.246 12.117 13.246"/><path d="M61.88 287.984c7.797 0 14.118-6.826 14.118-15.246v-.508c0-8.42-6.321-15.246-14.118-15.246H50.115c-7.797 0-14.118 6.826-14.118 15.246v.508c0 8.42 6.321 15.246 14.118 15.246z"/><path d="M50.12 289.984c-8.964 0-16.117-7.825-16.117-17.246v-.508c0-9.42 7.153-17.246 16.117-17.246h11.766c8.964 0 16.119 7.825 16.119 17.246v.508c0 9.421-7.155 17.246-16.119 17.246zm0-4h11.766c6.63 0 12.119-5.827 12.119-13.246v-.508c0-7.419-5.49-13.246-12.119-13.246H50.12c-6.63 0-12.117 5.827-12.117 13.246v.508c0 7.42 5.488 13.246 12.117 13.246"/></g><path d="M54 269.98v-31h4v31z" class="fiforeground"/><g class="fiforeground"><path d="m59 239.98-3.5-11-3.5 11z"/><path d="m49.27 241.98 6.234-19.596 6.235 19.596zm5.469-4h1.531l-.766-2.404zM147.88 287.984c7.797 0 14.118-6.826 14.118-15.246v-.508c0-8.42-6.321-15.246-14.118-15.246h-11.765c-7.797 0-14.118 6.826-14.118 15.246v.508c0 8.42 6.321 15.246 14.118 15.246z"/><path d="M136.12 289.984c-8.964 0-16.117-7.825-16.117-17.246v-.508c0-9.42 7.153-17.246 16.117-17.246h11.766c8.964 0 16.119 7.825 16.119 17.246v.508c0 9.421-7.155 17.246-16.119 17.246zm0-4h11.766c6.63 0 12.119-5.827 12.119-13.246v-.508c0-7.419-5.49-13.246-12.119-13.246H136.12c-6.63 0-12.117 5.827-12.117 13.246v.508c0 7.42 5.488 13.246 12.117 13.246"/><path d="M147.88 287.984c7.797 0 14.118-6.826 14.118-15.246v-.508c0-8.42-6.321-15.246-14.118-15.246h-11.765c-7.797 0-14.118 6.826-14.118 15.246v.508c0 8.42 6.321 15.246 14.118 15.246z"/><path d="M136.12 289.984c-8.964 0-16.117-7.825-16.117-17.246v-.508c0-9.42 7.153-17.246 16.117-17.246h11.766c8.964 0 16.119 7.825 16.119 17.246v.508c0 9.421-7.155 17.246-16.119 17.246zm0-4h11.766c6.63 0 12.119-5.827 12.119-13.246v-.508c0-7.419-5.49-13.246-12.119-13.246H136.12c-6.63 0-12.117 5.827-12.117 13.246v.508c0 7.42 5.488 13.246 12.117 13.246"/></g><path d="M76.02 274v-4h31v4z" class="fiforeground"/><g class="fiforeground"><path d="m106.02 276 11-3.5-11-3.5z"/><path d="M104.02 278.736v-12.471l19.596 6.234zm4-5.47 2.404-.766-2.404-.766zM222.88 229.98c7.797 0 14.118-6.605 14.118-14.754v-.491c0-8.149-6.321-14.755-14.118-14.755h-11.765c-7.797 0-14.118 6.606-14.118 14.755v.491c0 8.149 6.321 14.754 14.118 14.754z"/><path d="M211.12 231.98c-8.926 0-16.117-7.57-16.117-16.754v-.492c0-9.183 7.19-16.754 16.117-16.754h11.766c8.927 0 16.119 7.57 16.119 16.754v.492c0 9.183-7.193 16.754-16.119 16.754zm0-4h11.766c6.668 0 12.119-5.64 12.119-12.754v-.492c0-7.115-5.452-12.754-12.119-12.754H211.12c-6.667 0-12.117 5.639-12.117 12.754v.492c0 7.115 5.45 12.754 12.117 12.754"/><path d="M222.88 229.98c7.797 0 14.118-6.605 14.118-14.754v-.491c0-8.149-6.321-14.755-14.118-14.755h-11.765c-7.797 0-14.118 6.606-14.118 14.755v.491c0 8.149 6.321 14.754 14.118 14.754z"/><path d="M211.12 231.98c-8.926 0-16.117-7.57-16.117-16.754v-.492c0-9.183 7.19-16.754 16.117-16.754h11.766c8.927 0 16.119 7.57 16.119 16.754v.492c0 9.183-7.193 16.754-16.119 16.754zm0-4h11.766c6.668 0 12.119-5.64 12.119-12.754v-.492c0-7.115-5.452-12.754-12.119-12.754H211.12c-6.667 0-12.117 5.639-12.117 12.754v.492c0 7.115 5.45 12.754 12.117 12.754M222.88 291.984c7.797 0 14.118-6.606 14.118-14.754v-.492c0-8.148-6.321-14.754-14.118-14.754h-11.765c-7.797 0-14.118 6.606-14.118 14.754v.492c0 8.148 6.321 14.754 14.118 14.754z"/><path d="M211.12 293.984c-8.927 0-16.117-7.571-16.117-16.754v-.492c0-9.183 7.19-16.754 16.117-16.754h11.766c8.927 0 16.119 7.57 16.119 16.754v.492c0 9.183-7.193 16.754-16.119 16.754zm0-4h11.766c6.667 0 12.119-5.64 12.119-12.754v-.492c0-7.114-5.452-12.754-12.119-12.754H211.12c-6.667 0-12.117 5.64-12.117 12.754v.492c0 7.114 5.45 12.754 12.117 12.754"/><path d="M222.88 291.984c7.797 0 14.118-6.606 14.118-14.754v-.492c0-8.148-6.321-14.754-14.118-14.754h-11.765c-7.797 0-14.118 6.606-14.118 14.754v.492c0 8.148 6.321 14.754 14.118 14.754z"/><path d="M211.12 293.984c-8.927 0-16.117-7.571-16.117-16.754v-.492c0-9.183 7.19-16.754 16.117-16.754h11.766c8.927 0 16.119 7.57 16.119 16.754v.492c0 9.183-7.193 16.754-16.119 16.754zm0-4h11.766c6.667 0 12.119-5.64 12.119-12.754v-.492c0-7.114-5.452-12.754-12.119-12.754H211.12c-6.667 0-12.117 5.64-12.117 12.754v.492c0 7.114 5.45 12.754 12.117 12.754"/></g><path d="M215 274.98v-31h4v31z" class="fiforeground"/><g class="fiforeground"><path d="m220 243.98-3.5-11-3.5 11z"/><path d="m210.27 245.98 6.234-19.596 6.235 19.596zm5.469-4h1.531l-.766-2.404zM308.88 229.98c7.797 0 14.118-6.605 14.118-14.754v-.491c0-8.149-6.321-14.755-14.118-14.755h-11.765c-7.797 0-14.118 6.606-14.118 14.755v.491c0 8.149 6.321 14.754 14.118 14.754z"/><path d="M297.12 231.98c-8.926 0-16.117-7.57-16.117-16.754v-.492c0-9.183 7.19-16.754 16.117-16.754h11.766c8.927 0 16.119 7.57 16.119 16.754v.492c0 9.183-7.193 16.754-16.119 16.754zm0-4h11.766c6.668 0 12.119-5.64 12.119-12.754v-.492c0-7.115-5.452-12.754-12.119-12.754H297.12c-6.667 0-12.117 5.639-12.117 12.754v.492c0 7.115 5.45 12.754 12.117 12.754"/><path d="M308.88 229.98c7.797 0 14.118-6.605 14.118-14.754v-.491c0-8.149-6.321-14.755-14.118-14.755h-11.765c-7.797 0-14.118 6.606-14.118 14.755v.491c0 8.149 6.321 14.754 14.118 14.754z"/><path d="M297.12 231.98c-8.926 0-16.117-7.57-16.117-16.754v-.492c0-9.183 7.19-16.754 16.117-16.754h11.766c8.927 0 16.119 7.57 16.119 16.754v.492c0 9.183-7.193 16.754-16.119 16.754zm0-4h11.766c6.668 0 12.119-5.64 12.119-12.754v-.492c0-7.115-5.452-12.754-12.119-12.754H297.12c-6.667 0-12.117 5.639-12.117 12.754v.492c0 7.115 5.45 12.754 12.117 12.754"/></g><path d="M237.02 217v-4h31v4z" class="fiforeground"/><g class="fiforeground"><path d="m267.02 218 11-3.501-11-3.5z"/><path d="M265.02 220.74v-12.471l19.596 6.234zm4-5.47 2.404-.766-2.404-.766zM140.53 72.98c7.992 0 14.471-6.605 14.471-14.754v-.491c0-8.149-6.479-14.755-14.471-14.755h-12.059c-7.992 0-14.471 6.606-14.471 14.755v.491c0 8.149 6.479 14.754 14.471 14.754z"/><path d="M128.47 74.98c-9.094 0-16.471-7.545-16.471-16.754v-.492c0-9.21 7.377-16.754 16.471-16.754h12.059c9.094 0 16.473 7.545 16.473 16.754v.492c0 9.21-7.379 16.754-16.473 16.754zm0-4h12.059c6.89 0 12.473-5.665 12.473-12.754v-.492c0-7.09-5.583-12.754-12.473-12.754H128.47c-6.89 0-12.471 5.665-12.471 12.754v.492c0 7.089 5.58 12.754 12.471 12.754"/><path d="M140.53 72.98c7.992 0 14.471-6.605 14.471-14.754v-.491c0-8.149-6.479-14.755-14.471-14.755h-12.059c-7.992 0-14.471 6.606-14.471 14.755v.491c0 8.149 6.479 14.754 14.471 14.754z"/><path d="M128.47 74.98c-9.094 0-16.471-7.545-16.471-16.754v-.492c0-9.21 7.377-16.754 16.471-16.754h12.059c9.094 0 16.473 7.545 16.473 16.754v.492c0 9.21-7.379 16.754-16.473 16.754zm0-4h12.059c6.89 0 12.473-5.665 12.473-12.754v-.492c0-7.09-5.583-12.754-12.473-12.754H128.47c-6.89 0-12.471 5.665-12.471 12.754v.492c0 7.089 5.58 12.754 12.471 12.754M140.53 134.98c7.992 0 14.471-6.605 14.471-14.754v-.491c0-8.149-6.479-14.755-14.471-14.755h-12.059c-7.992 0-14.471 6.606-14.471 14.755v.491c0 8.149 6.479 14.754 14.471 14.754z"/><path d="M128.47 136.98c-9.094 0-16.471-7.545-16.471-16.754v-.492c0-9.21 7.377-16.754 16.471-16.754h12.059c9.094 0 16.473 7.545 16.473 16.754v.492c0 9.21-7.379 16.754-16.473 16.754zm0-4h12.059c6.89 0 12.473-5.665 12.473-12.754v-.492c0-7.09-5.583-12.754-12.473-12.754H128.47c-6.89 0-12.471 5.665-12.471 12.754v.492c0 7.089 5.58 12.754 12.471 12.754"/><path d="M140.53 134.98c7.992 0 14.471-6.605 14.471-14.754v-.491c0-8.149-6.479-14.755-14.471-14.755h-12.059c-7.992 0-14.471 6.606-14.471 14.755v.491c0 8.149 6.479 14.754 14.471 14.754z"/><path d="M128.47 136.98c-9.094 0-16.471-7.545-16.471-16.754v-.492c0-9.21 7.377-16.754 16.471-16.754h12.059c9.094 0 16.473 7.545 16.473 16.754v.492c0 9.21-7.379 16.754-16.473 16.754zm0-4h12.059c6.89 0 12.473-5.665 12.473-12.754v-.492c0-7.09-5.583-12.754-12.473-12.754H128.47c-6.89 0-12.471 5.665-12.471 12.754v.492c0 7.089 5.58 12.754 12.471 12.754"/></g><path d="M133 117.98v-31h4v31z" class="fiforeground"/><g class="fiforeground"><path d="m138 86.99-3.5-10-3.5 10z"/><path d="m128.18 88.99 6.318-18.055 6.319 18.055zm5.639-4h1.36l-.68-1.943z"/></g><path d="M215.12 74.984c-8.926 0-16.117-7.57-16.117-16.754v-.492c0-9.183 7.19-16.754 16.117-16.754h11.766c8.927 0 16.119 7.57 16.119 16.754v.492c0 9.183-7.193 16.754-16.119 16.754zm0-4h11.766c6.668 0 12.119-5.64 12.119-12.754v-.492c0-7.115-5.452-12.754-12.119-12.754H215.12c-6.667 0-12.117 5.639-12.117 12.754v.492c0 7.115 5.45 12.754 12.117 12.754" class="fiforeground"/><path class="fiempty" d="M226.88 134.98c7.797 0 14.118-6.605 14.118-14.754v-.491c0-8.149-6.321-14.755-14.118-14.755h-11.765c-7.797 0-14.118 6.606-14.118 14.755v.491c0 8.149 6.321 14.754 14.118 14.754z"/><path d="M215.12 136.98c-8.926 0-16.117-7.57-16.117-16.754v-.492c0-9.183 7.19-16.754 16.117-16.754h11.766c8.927 0 16.119 7.57 16.119 16.754v.492c0 9.183-7.193 16.754-16.119 16.754zm0-4h11.766c6.668 0 12.119-5.64 12.119-12.754v-.492c0-7.115-5.452-12.754-12.119-12.754H215.12c-6.667 0-12.117 5.639-12.117 12.754v.492c0 7.115 5.45 12.754 12.117 12.754" class="fiforeground"/><path stroke-dasharray="4, 4" d="M155.02 122v-4h4v4zm8 0v-4h4v4zm8 0v-4h4v4zm8 0v-4h4v4z" class="fiforeground"/><g class="fiforeground"><path d="m185.02 124 11-3.501-11-3.5z"/><path d="M183.02 126.74v-12.471l19.596 6.234zm4-5.47 2.404-.766-2.404-.766z"/></g><path stroke-dasharray="4, 4" d="M155.02 60v-4h4v4zm8 0v-4h4v4zm8 0v-4h4v4zm8 0v-4h4v4z" class="fiforeground"/><g class="fiforeground"><path d="m185.02 62 11-4.001-11-4z"/><path d="M183.02 64.86V51.147l18.852 6.856zm4-5.713 3.148-1.144-3.148-1.145z"/></g></svg>
