<svg xmlns="http://www.w3.org/2000/svg" width="356" height="356" viewBox="0 0 356 356"><defs><clipPath id="refinery-fi5-clip0"><path d="M478.5 237.41c-41.747 0-75.591 33.844-75.591 75.591s33.844 75.591 75.591 75.591c41.748 0 75.591-33.844 75.591-75.591S520.248 237.41 478.5 237.41M323 160.001h311v306H323z" clip-rule="evenodd"/></clipPath></defs><g clip-path="url(#refinery-fi5-clip0)" transform="translate(-301 -146)"><path d="m544.17 208.9 24.346-20.43 19.45 16.32-15.892 27.525a125.2 125.2 0 0 1 25.251 43.735l31.786-.001 4.41 25.005-29.871 10.869a125.2 125.2 0 0 1-8.769 49.734l24.35 20.429-12.698 21.988-29.866-10.871a125.2 125.2 0 0 1-38.686 32.462l5.52 31.3-23.859 8.683-15.891-27.525a125.2 125.2 0 0 1-50.501 0l-15.89 27.525-23.859-8.683 5.52-31.3a125.2 125.2 0 0 1-38.686-32.462l-29.866 10.871-12.695-21.988 24.347-20.429a125.2 125.2 0 0 1-8.769-49.734l-29.866-10.869 4.409-25.005 31.782.001a125.2 125.2 0 0 1 25.251-43.735l-15.892-27.525 19.45-16.32 24.346 20.43a125.2 125.2 0 0 1 47.456-17.272l5.518-31.3h25.39l5.518 31.3A125.2 125.2 0 0 1 544.17 208.9" class="fibackground"/></g><path d="M164.01 262v4h12v-4z" class="fiforeground"/><g class="fiforeground"><path d="m177.02 261 11 3.501-11 3.5z"/><path d="M175.02 258.26v12.471l19.596-6.234zm4 5.47 2.404.766-2.404.766z"/></g><path d="M152.02 324v4h31v-4z" class="fiforeground"/><g class="fiforeground"><path d="m183.02 323 11 3.501-11 3.5z"/><path d="M181.02 320.26v12.471l19.596-6.234zm4 5.47 2.404.766-2.404.766z"/></g><path d="M157.02 150v4h31v-4z" class="fiforeground"/><g class="fiforeground"><path d="m188.01 148 10 4-10 4.001z"/><path d="M186.01 145.04v13.91l17.385-6.957zm4 5.908 2.617 1.047-2.617 1.045z"/></g><path d="M157.02 150v4h31v-4z" class="fiforeground"/><g class="fiforeground"><path d="m188.01 148 10 3.5-10 3.5z"/><path d="M186.01 145.18v12.637l18.055-6.318zm4 5.639 1.943.68-1.943.68z"/></g><path d="M157.02 129v4h31v-4z" class="fiforeground"/><g class="fiforeground"><path d="m188.01 128 10 3.5-10 3.5z"/><path d="M186.01 125.18v12.637l18.055-6.318zm4 5.639 1.943.68-1.943.68z"/></g><path d="M157.02 129v4h31v-4z" class="fiforeground"/><g class="fiforeground"><path d="m188.01 128 10 3.5-10 3.5z"/><path d="M186.01 125.18v12.637l18.055-6.318zm4 5.639 1.943.68-1.943.68z"/></g><g class="fiforeground"><path d="M141.88 311.02c7.797 0 14.118 6.605 14.118 14.754v.491c0 8.149-6.321 14.755-14.118 14.755h-11.765c-7.797 0-14.118-6.606-14.118-14.755v-.491c0-8.149 6.321-14.754 14.118-14.754z"/><path d="M130.12 309.02c-8.926 0-16.117 7.57-16.117 16.754v.492c0 9.183 7.19 16.754 16.117 16.754h11.766c8.927 0 16.119-7.57 16.119-16.754v-.492c0-9.183-7.193-16.754-16.119-16.754zm0 4h11.766c6.668 0 12.119 5.64 12.119 12.754v.492c0 7.115-5.452 12.754-12.119 12.754H130.12c-6.667 0-12.117-5.639-12.117-12.754v-.492c0-7.115 5.45-12.754 12.117-12.754"/></g><g class="fiforeground"><path d="M141.88 311.02c7.797 0 14.118 6.605 14.118 14.754v.491c0 8.149-6.321 14.755-14.118 14.755h-11.765c-7.797 0-14.118-6.606-14.118-14.755v-.491c0-8.149 6.321-14.754 14.118-14.754z"/><path d="M130.12 309.02c-8.926 0-16.117 7.57-16.117 16.754v.492c0 9.183 7.19 16.754 16.117 16.754h11.766c8.927 0 16.119-7.57 16.119-16.754v-.492c0-9.183-7.193-16.754-16.119-16.754zm0 4h11.766c6.668 0 12.119 5.64 12.119 12.754v.492c0 7.115-5.452 12.754-12.119 12.754H130.12c-6.667 0-12.117-5.639-12.117-12.754v-.492c0-7.115 5.45-12.754 12.117-12.754"/></g><g class="fiforeground"><path d="M141.88 249.02c7.797 0 14.118 6.605 14.118 14.754v.491c0 8.149-6.321 14.755-14.118 14.755h-11.765c-7.797 0-14.118-6.606-14.118-14.755v-.491c0-8.149 6.321-14.754 14.118-14.754z"/><path d="M130.12 247.02c-8.926 0-16.117 7.57-16.117 16.754v.492c0 9.183 7.19 16.754 16.117 16.754h11.766c8.927 0 16.119-7.57 16.119-16.754v-.492c0-9.183-7.193-16.754-16.119-16.754zm0 4h11.766c6.668 0 12.119 5.64 12.119 12.754v.492c0 7.115-5.452 12.754-12.119 12.754H130.12c-6.667 0-12.117-5.639-12.117-12.754v-.492c0-7.115 5.45-12.754 12.117-12.754"/></g><g class="fiforeground"><path d="M141.88 249.02c7.797 0 14.118 6.605 14.118 14.754v.491c0 8.149-6.321 14.755-14.118 14.755h-11.765c-7.797 0-14.118-6.606-14.118-14.755v-.491c0-8.149 6.321-14.754 14.118-14.754z"/><path d="M130.12 247.02c-8.926 0-16.117 7.57-16.117 16.754v.492c0 9.183 7.19 16.754 16.117 16.754h11.766c8.927 0 16.119-7.57 16.119-16.754v-.492c0-9.183-7.193-16.754-16.119-16.754zm0 4h11.766c6.668 0 12.119 5.64 12.119 12.754v.492c0 7.115-5.452 12.754-12.119 12.754H130.12c-6.667 0-12.117-5.639-12.117-12.754v-.492c0-7.115 5.45-12.754 12.117-12.754"/></g><path d="M134 266.02v31h4v-31z" class="fiforeground"/><g class="fiforeground"><path d="m139 297.02-3.501 11-3.5-11z"/><path d="m129.27 295.02 6.234 19.596 6.237-19.596zm5.469 4h1.531l-.766 2.404z"/></g><g class="fiforeground"><path d="M117.88 188.02c7.797 0 14.118 6.605 14.118 14.754v.491c0 8.149-6.321 14.755-14.118 14.755h-11.765c-7.797 0-14.118-6.606-14.118-14.755v-.491c0-8.149 6.321-14.754 14.118-14.754z"/><path d="M106.12 186.02c-8.926 0-16.117 7.57-16.117 16.754v.492c0 9.183 7.19 16.754 16.117 16.754h11.766c8.927 0 16.119-7.57 16.119-16.754v-.492c0-9.183-7.193-16.754-16.119-16.754zm0 4h11.766c6.668 0 12.119 5.64 12.119 12.754v.492c0 7.115-5.452 12.754-12.119 12.754H106.12c-6.667 0-12.117-5.639-12.117-12.754v-.492c0-7.115 5.45-12.754 12.117-12.754"/></g><g class="fiforeground"><path d="M117.88 188.02c7.797 0 14.118 6.605 14.118 14.754v.491c0 8.149-6.321 14.755-14.118 14.755h-11.765c-7.797 0-14.118-6.606-14.118-14.755v-.491c0-8.149 6.321-14.754 14.118-14.754z"/><path d="M106.12 186.02c-8.926 0-16.117 7.57-16.117 16.754v.492c0 9.183 7.19 16.754 16.117 16.754h11.766c8.927 0 16.119-7.57 16.119-16.754v-.492c0-9.183-7.193-16.754-16.119-16.754zm0 4h11.766c6.668 0 12.119 5.64 12.119 12.754v.492c0 7.115-5.452 12.754-12.119 12.754H106.12c-6.667 0-12.117-5.639-12.117-12.754v-.492c0-7.115 5.45-12.754 12.117-12.754"/></g><path d="m115.02 203.24-3.863 1.037 7.978 29.746 3.863-1.037z" class="fiforeground"/><g class="fiforeground"><path d="m124.49 232.34-.682 11.384-6.289-9.514z"/><path d="m126.66 229.68-12.334 3.309 11.127 16.832zm-4.326 5.303-.156 2.627-1.452-2.196z"/></g><g class="fiforeground"><path d="M74.88 127.02c7.797 0 14.118 6.605 14.118 14.754v.491c0 8.149-6.321 14.755-14.118 14.755H63.115c-7.797 0-14.118-6.606-14.118-14.755v-.491c0-8.149 6.321-14.754 14.118-14.754z"/><path d="M63.12 125.02c-8.926 0-16.117 7.57-16.117 16.754v.492c0 9.183 7.19 16.754 16.117 16.754h11.766c8.927 0 16.119-7.57 16.119-16.754v-.492c0-9.183-7.193-16.754-16.119-16.754zm0 4h11.766c6.668 0 12.119 5.64 12.119 12.754v.492c0 7.115-5.452 12.754-12.119 12.754H63.12c-6.667 0-12.117-5.639-12.117-12.754v-.492c0-7.115 5.45-12.754 12.117-12.754"/></g><g class="fiforeground"><path d="M74.88 127.02c7.797 0 14.118 6.605 14.118 14.754v.491c0 8.149-6.321 14.755-14.118 14.755H63.115c-7.797 0-14.118-6.606-14.118-14.755v-.491c0-8.149 6.321-14.754 14.118-14.754z"/><path d="M63.12 125.02c-8.926 0-16.117 7.57-16.117 16.754v.492c0 9.183 7.19 16.754 16.117 16.754h11.766c8.927 0 16.119-7.57 16.119-16.754v-.492c0-9.183-7.193-16.754-16.119-16.754zm0 4h11.766c6.668 0 12.119 5.64 12.119 12.754v.492c0 7.115-5.452 12.754-12.119 12.754H63.12c-6.667 0-12.117-5.639-12.117-12.754v-.492c0-7.115 5.45-12.754 12.117-12.754"/></g><path d="m81.96 149.63-3.469 1.992 15.336 26.707 3.469-1.992z" class="fiforeground"/><g class="fiforeground"><path d="m98.56 175.32 2.258 11.178-8.516-7.584z"/><path d="m99.97 172.21-11.072 6.357 15.066 13.418zm-2.822 6.232.521 2.582-1.967-1.752z"/></g><g class="fiforeground"><path d="M214.117 311.016c-7.797 0-14.118 6.605-14.118 14.754v.491c0 8.149 6.32 14.754 14.118 14.754h11.765c7.797 0 14.118-6.605 14.118-14.754v-.491c0-8.149-6.32-14.754-14.118-14.754z"/><path d="M225.883 309.016c8.927 0 16.117 7.57 16.117 16.754v.492c0 9.182-7.19 16.754-16.117 16.754h-11.766c-8.927 0-16.117-7.571-16.117-16.754v-.492c0-9.183 7.19-16.754 16.117-16.754zm0 4h-11.766c-6.667 0-12.117 5.64-12.117 12.754v.492c0 7.114 5.45 12.754 12.117 12.754h11.766c6.667 0 12.117-5.64 12.117-12.754v-.492c0-7.115-5.45-12.754-12.117-12.754"/><path d="M214.117 311.016c-7.797 0-14.118 6.605-14.118 14.754v.491c0 8.149 6.32 14.754 14.118 14.754h11.765c7.797 0 14.118-6.605 14.118-14.754v-.491c0-8.149-6.32-14.754-14.118-14.754z"/><path d="M225.883 309.016c8.927 0 16.117 7.57 16.117 16.754v.492c0 9.182-7.19 16.754-16.117 16.754h-11.766c-8.927 0-16.117-7.571-16.117-16.754v-.492c0-9.183 7.19-16.754 16.117-16.754zm0 4h-11.766c-6.667 0-12.117 5.64-12.117 12.754v.492c0 7.114 5.45 12.754 12.117 12.754h11.766c6.667 0 12.117-5.64 12.117-12.754v-.492c0-7.115-5.45-12.754-12.117-12.754"/></g><g class="fiforeground"><path d="M214.117 249.016c-7.797 0-14.118 6.605-14.118 14.754v.491c0 8.149 6.32 14.754 14.118 14.754h11.765c7.797 0 14.118-6.605 14.118-14.754v-.491c0-8.149-6.32-14.754-14.118-14.754z"/><path d="M225.883 247.016c8.927 0 16.117 7.57 16.117 16.754v.492c0 9.182-7.19 16.754-16.117 16.754h-11.766c-8.927 0-16.117-7.571-16.117-16.754v-.492c0-9.183 7.19-16.754 16.117-16.754zm0 4h-11.766c-6.667 0-12.117 5.64-12.117 12.754v.492c0 7.114 5.45 12.754 12.117 12.754h11.766c6.667 0 12.117-5.64 12.117-12.754v-.492c0-7.115-5.45-12.754-12.117-12.754"/><path d="M214.117 249.016c-7.797 0-14.118 6.605-14.118 14.754v.491c0 8.149 6.32 14.754 14.118 14.754h11.765c7.797 0 14.118-6.605 14.118-14.754v-.491c0-8.149-6.32-14.754-14.118-14.754z"/><path d="M225.883 247.016c8.927 0 16.117 7.57 16.117 16.754v.492c0 9.182-7.19 16.754-16.117 16.754h-11.766c-8.927 0-16.117-7.571-16.117-16.754v-.492c0-9.183 7.19-16.754 16.117-16.754zm0 4h-11.766c-6.667 0-12.117 5.64-12.117 12.754v.492c0 7.114 5.45 12.754 12.117 12.754h11.766c6.667 0 12.117-5.64 12.117-12.754v-.492c0-7.115-5.45-12.754-12.117-12.754"/></g><path d="M222 266.016v31h-4v-31z" class="fiforeground"/><g class="fiforeground"><path d="m216 297.016 4 11 4-11z"/><path d="M226.856 295.016 220 313.87l-6.855-18.854zm-5.713 4h-2.287l1.144 3.146z"/></g><g class="fiforeground"><path d="M237.47 188.016c-7.992 0-14.471 6.605-14.471 14.754v.491c0 8.149 6.479 14.754 14.471 14.754h12.059c7.992 0 14.471-6.605 14.471-14.754v-.491c0-8.149-6.479-14.754-14.471-14.754z"/><path d="M249.529 186.016c9.094 0 16.471 7.545 16.471 16.754v.492c0 9.208-7.377 16.754-16.471 16.754H237.47c-9.094 0-16.471-7.546-16.471-16.754v-.492c0-9.209 7.377-16.754 16.471-16.754zm0 4H237.47c-6.89 0-12.471 5.665-12.471 12.754v.492c0 7.088 5.58 12.754 12.471 12.754h12.059c6.89 0 12.471-5.666 12.471-12.754v-.492c0-7.089-5.58-12.754-12.471-12.754"/><path d="M237.47 188.016c-7.992 0-14.471 6.605-14.471 14.754v.491c0 8.149 6.479 14.754 14.471 14.754h12.059c7.992 0 14.471-6.605 14.471-14.754v-.491c0-8.149-6.479-14.754-14.471-14.754z"/><path d="M249.529 186.016c9.094 0 16.471 7.545 16.471 16.754v.492c0 9.208-7.377 16.754-16.471 16.754H237.47c-9.094 0-16.471-7.546-16.471-16.754v-.492c0-9.209 7.377-16.754 16.471-16.754zm0 4H237.47c-6.89 0-12.471 5.665-12.471 12.754v.492c0 7.088 5.58 12.754 12.471 12.754h12.059c6.89 0 12.471-5.666 12.471-12.754v-.492c0-7.089-5.58-12.754-12.471-12.754"/></g><path d="m244.588 204.283-7.98 29.745-3.864-1.036 7.98-29.745z" class="fiforeground"/><g class="fiforeground"><path d="m231.255 232.335.682 11.383 6.289-9.513z"/><path d="m241.425 232.993-11.126 16.83-1.206-20.139zm-6.398 2.425-1.609-.432.157 2.626z"/></g><g class="fiforeground"><path d="M281.117 127.016c-7.797 0-14.118 6.605-14.118 14.754v.491c0 8.149 6.32 14.754 14.118 14.754h11.765c7.797 0 14.118-6.605 14.118-14.754v-.491c0-8.149-6.32-14.754-14.118-14.754z"/><path d="M292.883 125.016c8.927 0 16.117 7.57 16.117 16.754v.492c0 9.182-7.19 16.754-16.117 16.754h-11.766c-8.927 0-16.117-7.571-16.117-16.754v-.492c0-9.183 7.19-16.754 16.117-16.754zm0 4h-11.766c-6.667 0-12.117 5.64-12.117 12.754v.492c0 7.114 5.45 12.754 12.117 12.754h11.766c6.667 0 12.117-5.64 12.117-12.754v-.492c0-7.115-5.45-12.754-12.117-12.754"/><path d="M281.117 127.016c-7.797 0-14.118 6.605-14.118 14.754v.491c0 8.149 6.32 14.754 14.118 14.754h11.765c7.797 0 14.118-6.605 14.118-14.754v-.491c0-8.149-6.32-14.754-14.118-14.754z"/><path d="M292.883 125.016c8.927 0 16.117 7.57 16.117 16.754v.492c0 9.182-7.19 16.754-16.117 16.754h-11.766c-8.927 0-16.117-7.571-16.117-16.754v-.492c0-9.183 7.19-16.754 16.117-16.754zm0 4h-11.766c-6.667 0-12.117 5.64-12.117 12.754v.492c0 7.114 5.45 12.754 12.117 12.754h11.766c6.667 0 12.117-5.64 12.117-12.754v-.492c0-7.115-5.45-12.754-12.117-12.754"/></g><path d="m277.267 151.63-15.336 26.706-3.47-1.992 15.337-26.706z" class="fiforeground"/><g class="fiforeground"><path d="m257.183 175.33-2.257 11.178 8.516-7.585z"/><path d="m266.845 178.571-15.068 13.418 3.996-19.776zm-6.806.705-1.444-.83-.522 2.58z"/></g><path d="M157.02 171v4h31v-4z" class="fiforeground"/><g class="fiforeground"><path d="m188.01 169 10 3.5-10 3.5z"/><path d="M186.01 166.18v12.637l18.055-6.318zm4 5.639 1.943.68-1.943.68z"/></g><path d="M157.02 171v4h31v-4z" class="fiforeground"/><g class="fiforeground"><path d="m188.01 169 10 3.5-10 3.5z"/><path d="M186.01 166.18v12.637l18.055-6.318zm4 5.639 1.943.68-1.943.68z"/></g><path d="M158.02 192v4h30v-4z" class="fiforeground"/><g class="fiforeground"><path d="m188.02 190 11 3.501-11 3.5z"/><path d="M186.02 187.26v12.471l19.596-6.234zm4 5.47 2.404.766-2.404.766z"/></g><path d="M158.02 191v4h30v-4z" class="fiforeground"/><g class="fiforeground"><path d="m188.02 190 11 3.501-11 3.5z"/><path d="M186.02 187.26v12.471l19.596-6.234zm4 5.47 2.404.766-2.404.766z"/></g><g class="fiforeground"><path d="M49.88 62.02c7.797 0 14.118 6.605 14.118 14.754v.491c0 8.149-6.321 14.755-14.118 14.755H38.115c-7.797 0-14.118-6.606-14.118-14.755v-.491c0-8.149 6.321-14.754 14.118-14.754z"/><path d="M38.12 60.02c-8.926 0-16.117 7.57-16.117 16.754v.492c0 9.183 7.19 16.754 16.117 16.754h11.766c8.927 0 16.119-7.57 16.119-16.754v-.492c0-9.183-7.193-16.754-16.119-16.754zm0 4h11.766c6.668 0 12.119 5.64 12.119 12.754v.492c0 7.115-5.452 12.754-12.119 12.754H38.12c-6.667 0-12.117-5.639-12.117-12.754v-.492c0-7.115 5.45-12.754 12.117-12.754"/></g><g class="fiforeground"><path d="M305.117 62.016c-7.797 0-14.118 6.605-14.118 14.754v.491c0 8.149 6.32 14.754 14.118 14.754h11.765c7.797 0 14.118-6.605 14.118-14.754v-.491c0-8.149-6.32-14.754-14.118-14.754z"/><path d="M316.883 60.016c8.927 0 16.117 7.57 16.117 16.754v.492c0 9.182-7.19 16.754-16.117 16.754h-11.766c-8.927 0-16.117-7.571-16.117-16.754v-.492c0-9.183 7.19-16.754 16.117-16.754zm0 4h-11.766c-6.667 0-12.117 5.64-12.117 12.754v.492c0 7.114 5.45 12.754 12.117 12.754h11.766c6.667 0 12.117-5.64 12.117-12.754v-.492c0-7.115-5.45-12.754-12.117-12.754"/></g></svg>
